<svg width="32" height="32" viewBox="0 0 32 32" fill="none" xmlns="http://www.w3.org/2000/svg">
<path fill-rule="evenodd" clip-rule="evenodd" d="M2.6665 16.0003C2.6665 8.63633 8.63584 2.66699 15.9998 2.66699C23.3638 2.66699 29.3332 8.63633 29.3332 16.0003C29.3332 23.3643 23.3638 29.3337 15.9998 29.3337C8.63584 29.3337 2.6665 23.3643 2.6665 16.0003ZM15.9998 5.33366C13.1709 5.33366 10.4578 6.45747 8.45736 8.45785C6.45698 10.4582 5.33317 13.1713 5.33317 16.0003C5.33317 18.8293 6.45698 21.5424 8.45736 23.5428C10.4578 25.5432 13.1709 26.667 15.9998 26.667C18.8288 26.667 21.5419 25.5432 23.5423 23.5428C25.5427 21.5424 26.6665 18.8293 26.6665 16.0003C26.6665 13.1713 25.5427 10.4582 23.5423 8.45785C21.5419 6.45747 18.8288 5.33366 15.9998 5.33366Z" fill="#1D8C9C" fill-opacity="0.5"/>
<path fill-rule="evenodd" clip-rule="evenodd" d="M17.3333 9.33333C17.3333 8.97971 17.1929 8.64057 16.9428 8.39052C16.6928 8.14048 16.3536 8 16 8C15.6464 8 15.3072 8.14048 15.0572 8.39052C14.8071 8.64057 14.6667 8.97971 14.6667 9.33333V14.6667H9.33333C8.97971 14.6667 8.64057 14.8071 8.39052 15.0572C8.14048 15.3072 8 15.6464 8 16C8 16.3536 8.14048 16.6928 8.39052 16.9428C8.64057 17.1929 8.97971 17.3333 9.33333 17.3333H14.6667V22.6667C14.6667 23.0203 14.8071 23.3594 15.0572 23.6095C15.3072 23.8595 15.6464 24 16 24C16.3536 24 16.6928 23.8595 16.9428 23.6095C17.1929 23.3594 17.3333 23.0203 17.3333 22.6667V17.3333H22.6667C23.0203 17.3333 23.3594 17.1929 23.6095 16.9428C23.8595 16.6928 24 16.3536 24 16C24 15.6464 23.8595 15.3072 23.6095 15.0572C23.3594 14.8071 23.0203 14.6667 22.6667 14.6667H17.3333V9.33333Z" fill="#1D8C9C" fill-opacity="0.5"/>
</svg>
