<svg width="24" height="25" viewBox="0 0 24 25" fill="none" xmlns="http://www.w3.org/2000/svg">
<path fill-rule="evenodd" clip-rule="evenodd" d="M15 1.75H10.944C9.106 1.75 7.65 1.75 6.511 1.903C5.339 2.061 4.39 2.393 3.641 3.141C2.893 3.89 2.561 4.839 2.403 6.011C2.25 7.151 2.25 8.606 2.25 10.444V16.5C2.24982 17.3935 2.56866 18.2577 3.1491 18.9369C3.72954 19.6162 4.53343 20.0659 5.416 20.205C5.553 20.969 5.818 21.621 6.348 22.152C6.95 22.754 7.708 23.012 8.608 23.134C9.475 23.25 10.578 23.25 11.945 23.25H15.055C16.422 23.25 17.525 23.25 18.392 23.134C19.292 23.012 20.05 22.754 20.652 22.152C21.254 21.55 21.512 20.792 21.634 19.892C21.75 19.025 21.75 17.922 21.75 16.555V11.445C21.75 10.078 21.75 8.975 21.634 8.108C21.512 7.208 21.254 6.45 20.652 5.848C20.121 5.318 19.469 5.053 18.705 4.916C18.5659 4.03343 18.1162 3.22954 17.4369 2.6491C16.7577 2.06866 15.8935 1.74982 15 1.75ZM17.13 4.771C16.9779 4.327 16.6909 3.94166 16.3089 3.66893C15.927 3.39619 15.4693 3.24971 15 3.25H11C9.093 3.25 7.739 3.252 6.71 3.39C5.705 3.525 5.125 3.779 4.702 4.202C4.279 4.625 4.025 5.205 3.89 6.21C3.752 7.239 3.75 8.593 3.75 10.5V16.5C3.74971 16.9693 3.89619 17.427 4.16892 17.8089C4.44166 18.1908 4.827 18.4779 5.271 18.63C5.25 18.02 5.25 17.33 5.25 16.555V11.445C5.25 10.078 5.25 8.975 5.367 8.108C5.487 7.208 5.747 6.45 6.348 5.848C6.95 5.246 7.708 4.988 8.608 4.867C9.475 4.75 10.578 4.75 11.945 4.75H15.055C15.83 4.75 16.52 4.75 17.13 4.771ZM7.408 6.91C7.685 6.633 8.073 6.453 8.808 6.354C9.562 6.253 10.564 6.251 11.999 6.251H14.999C16.434 6.251 17.435 6.253 18.191 6.354C18.925 6.453 19.313 6.634 19.59 6.91C19.867 7.187 20.047 7.575 20.146 8.31C20.247 9.064 20.249 10.066 20.249 11.501V16.501C20.249 17.936 20.247 18.937 20.146 19.693C20.047 20.427 19.866 20.815 19.59 21.092C19.313 21.369 18.925 21.549 18.19 21.648C17.435 21.749 16.434 21.751 14.999 21.751H11.999C10.564 21.751 9.562 21.749 8.807 21.648C8.073 21.549 7.685 21.368 7.408 21.092C7.131 20.815 6.951 20.427 6.852 19.692C6.751 18.937 6.749 17.936 6.749 16.501V11.501C6.749 10.066 6.751 9.064 6.852 8.309C6.951 7.575 7.132 7.187 7.408 6.91Z" fill="#1D8C9C"/>
</svg>
