<svg width="56" height="56" viewBox="0 0 56 56" fill="none" xmlns="http://www.w3.org/2000/svg">
<path d="M22.1667 42H38.5C40.433 42 42 40.433 42 38.5V12.8333C42 10.9003 40.433 9.33334 38.5 9.33334H22.1667C20.2337 9.33334 18.6667 10.9003 18.6667 12.8333V38.5C18.6667 40.433 20.2337 42 22.1667 42Z" fill="#1D8C9C"/>
<path d="M37.1841 44.1843C36.8542 44.2839 36.5114 44.3342 36.1667 44.3337H19.8334C18.9052 44.3337 18.0149 43.9649 17.3585 43.3085C16.7022 42.6522 16.3334 41.7619 16.3334 40.8337V15.167C16.3328 14.8224 16.3832 14.4796 16.4827 14.1497C15.7642 14.3679 15.135 14.8115 14.6879 15.4149C14.2408 16.0182 13.9997 16.7494 14.0001 17.5003V43.167C14.0001 44.0952 14.3688 44.9855 15.0252 45.6419C15.6816 46.2982 16.5718 46.667 17.5001 46.667H33.8334C34.5844 46.6674 35.3155 46.4262 35.9189 45.9792C36.5222 45.5321 36.9658 44.9028 37.1841 44.1843Z" fill="#1D8C9C"/>
</svg>
