<svg width="32" height="32" viewBox="0 0 32 32" fill="none" xmlns="http://www.w3.org/2000/svg">
<path fill-rule="evenodd" clip-rule="evenodd" d="M4.41399 3.42857C4.12133 3.42857 3.84065 3.54898 3.6337 3.76331C3.42676 3.97763 3.3105 4.26832 3.3105 4.57143V27.4286C3.3105 27.7317 3.42676 28.0224 3.6337 28.2367C3.84065 28.451 4.12133 28.5714 4.41399 28.5714H16.0007C16.4397 28.5714 16.8607 28.752 17.1712 29.0735C17.4816 29.395 17.656 29.8311 17.656 30.2857C17.656 30.7404 17.4816 31.1764 17.1712 31.4979C16.8607 31.8194 16.4397 32 16.0007 32H4.41399C3.24333 32 2.12061 31.5184 1.29283 30.6611C0.465045 29.8038 0 28.641 0 27.4286V4.57143C0 3.35901 0.465045 2.19625 1.29283 1.33894C2.12061 0.481631 3.24333 0 4.41399 0H26.484C27.6546 0 28.7773 0.481631 29.6051 1.33894C30.4329 2.19625 30.898 3.35901 30.898 4.57143V18.8571C30.898 19.3118 30.7236 19.7478 30.4131 20.0693C30.1027 20.3908 29.6817 20.5714 29.2427 20.5714C28.8037 20.5714 28.3827 20.3908 28.0723 20.0693C27.7619 19.7478 27.5875 19.3118 27.5875 18.8571V4.57143C27.5875 4.26832 27.4712 3.97763 27.2643 3.76331C27.0573 3.54898 26.7766 3.42857 26.484 3.42857H4.41399ZM31.5159 23.36C31.8259 23.6814 32 24.1171 32 24.5714C32 25.0257 31.8259 25.4614 31.5159 25.7829L25.9984 31.4971C25.6881 31.8182 25.2674 31.9985 24.8287 31.9985C24.3901 31.9985 23.9694 31.8182 23.659 31.4971L21.452 29.2114C21.2894 29.0545 21.1589 28.8652 21.0685 28.6549C20.978 28.4447 20.9294 28.2177 20.9254 27.9875C20.9215 27.7573 20.9624 27.5287 21.0457 27.3152C21.1289 27.1017 21.2528 26.9078 21.41 26.7451C21.5672 26.5823 21.7544 26.4539 21.9605 26.3677C22.1666 26.2815 22.3874 26.2392 22.6096 26.2432C22.8319 26.2473 23.0511 26.2977 23.2541 26.3914C23.4571 26.4851 23.6399 26.6201 23.7914 26.7886L24.8287 27.8629L29.1765 23.36C29.4869 23.039 29.9076 22.8587 30.3462 22.8587C30.7848 22.8587 31.2056 23.039 31.5159 23.36ZM8.27624 6.85714C7.83724 6.85714 7.41622 7.03775 7.1058 7.35925C6.79538 7.68074 6.62099 8.11677 6.62099 8.57143C6.62099 9.02609 6.79538 9.46212 7.1058 9.78361C7.41622 10.1051 7.83724 10.2857 8.27624 10.2857H22.6217C23.0607 10.2857 23.4817 10.1051 23.7922 9.78361C24.1026 9.46212 24.277 9.02609 24.277 8.57143C24.277 8.11677 24.1026 7.68074 23.7922 7.35925C23.4817 7.03775 23.0607 6.85714 22.6217 6.85714H8.27624ZM6.62099 16C6.62099 15.5453 6.79538 15.1093 7.1058 14.7878C7.41622 14.4663 7.83724 14.2857 8.27624 14.2857H22.6217C23.0607 14.2857 23.4817 14.4663 23.7922 14.7878C24.1026 15.1093 24.277 15.5453 24.277 16C24.277 16.4547 24.1026 16.8907 23.7922 17.2122C23.4817 17.5337 23.0607 17.7143 22.6217 17.7143H8.27624C7.83724 17.7143 7.41622 17.5337 7.1058 17.2122C6.79538 16.8907 6.62099 16.4547 6.62099 16ZM8.27624 21.7143C7.83724 21.7143 7.41622 21.8949 7.1058 22.2164C6.79538 22.5379 6.62099 22.9739 6.62099 23.4286C6.62099 23.8832 6.79538 24.3193 7.1058 24.6408C7.41622 24.9622 7.83724 25.1429 8.27624 25.1429H16.0007C16.4397 25.1429 16.8607 24.9622 17.1712 24.6408C17.4816 24.3193 17.656 23.8832 17.656 23.4286C17.656 22.9739 17.4816 22.5379 17.1712 22.2164C16.8607 21.8949 16.4397 21.7143 16.0007 21.7143H8.27624Z" fill="black" fill-opacity="0.7"/>
</svg>
