<svg width="34" height="29" viewBox="0 0 34 29" fill="none" xmlns="http://www.w3.org/2000/svg">
<path d="M29.5 3.75H25.1688L23.0391 0.55625C22.925 0.385237 22.7704 0.245005 22.5892 0.147977C22.408 0.0509503 22.2056 0.000123445 22 0H12C11.7944 0.000123445 11.592 0.0509503 11.4108 0.147977C11.2296 0.245005 11.075 0.385237 10.9609 0.55625L8.82969 3.75H4.5C3.50544 3.75 2.55161 4.14509 1.84835 4.84835C1.14509 5.55161 0.75 6.50544 0.75 7.5V25C0.75 25.9946 1.14509 26.9484 1.84835 27.6517C2.55161 28.3549 3.50544 28.75 4.5 28.75H29.5C30.4946 28.75 31.4484 28.3549 32.1517 27.6517C32.8549 26.9484 33.25 25.9946 33.25 25V7.5C33.25 6.50544 32.8549 5.55161 32.1517 4.84835C31.4484 4.14509 30.4946 3.75 29.5 3.75ZM30.75 25C30.75 25.3315 30.6183 25.6495 30.3839 25.8839C30.1495 26.1183 29.8315 26.25 29.5 26.25H4.5C4.16848 26.25 3.85054 26.1183 3.61612 25.8839C3.3817 25.6495 3.25 25.3315 3.25 25V7.5C3.25 7.16848 3.3817 6.85054 3.61612 6.61612C3.85054 6.3817 4.16848 6.25 4.5 6.25H9.5C9.70585 6.25013 9.90854 6.19943 10.0901 6.10239C10.2716 6.00535 10.4264 5.86498 10.5406 5.69375L12.6687 2.5H21.3297L23.4594 5.69375C23.5736 5.86498 23.7284 6.00535 23.9099 6.10239C24.0915 6.19943 24.2942 6.25013 24.5 6.25H29.5C29.8315 6.25 30.1495 6.3817 30.3839 6.61612C30.6183 6.85054 30.75 7.16848 30.75 7.5V25ZM17 8.75C15.6403 8.75 14.311 9.15321 13.1805 9.90865C12.0499 10.6641 11.1687 11.7378 10.6483 12.9941C10.128 14.2503 9.99183 15.6326 10.2571 16.9662C10.5224 18.2999 11.1772 19.5249 12.1386 20.4864C13.1001 21.4478 14.3251 22.1026 15.6588 22.3679C16.9924 22.6332 18.3747 22.497 19.6309 21.9767C20.8872 21.4563 21.9609 20.5751 22.7164 19.4445C23.4718 18.314 23.875 16.9847 23.875 15.625C23.8729 13.8023 23.1479 12.0548 21.8591 10.7659C20.5702 9.47706 18.8227 8.75207 17 8.75ZM17 20C16.1347 20 15.2888 19.7434 14.5694 19.2627C13.8499 18.7819 13.2892 18.0987 12.958 17.2992C12.6269 16.4998 12.5403 15.6201 12.7091 14.7715C12.8779 13.9228 13.2946 13.1433 13.9064 12.5314C14.5183 11.9196 15.2978 11.5029 16.1465 11.3341C16.9951 11.1653 17.8748 11.2519 18.6742 11.583C19.4737 11.9142 20.1569 12.4749 20.6377 13.1944C21.1184 13.9138 21.375 14.7597 21.375 15.625C21.375 16.7853 20.9141 17.8981 20.0936 18.7186C19.2731 19.5391 18.1603 20 17 20Z" fill="black" fill-opacity="0.6"/>
</svg>
