<svg width="20" height="20" viewBox="0 0 20 20" fill="none" xmlns="http://www.w3.org/2000/svg">
<path d="M2.04518 6.61598C2.27959 6.38164 2.59748 6.25 2.92893 6.25C3.26039 6.25 3.57827 6.38164 3.81268 6.61598L10.0002 12.8035L16.1877 6.61598C16.4234 6.38829 16.7392 6.26229 17.0669 6.26514C17.3947 6.26799 17.7082 6.39945 17.94 6.63121C18.1717 6.86297 18.3032 7.17649 18.306 7.50423C18.3089 7.83198 18.1829 8.14773 17.9552 8.38348L10.8839 15.4547C10.6495 15.6891 10.3316 15.8207 10.0002 15.8207C9.66873 15.8207 9.35084 15.6891 9.11643 15.4547L2.04518 8.38348C1.81084 8.14907 1.6792 7.83119 1.6792 7.49973C1.6792 7.16828 1.81084 6.85039 2.04518 6.61598Z" fill="#111111"/>
</svg>
