<svg width="42" height="42" viewBox="0 0 42 42" fill="none" xmlns="http://www.w3.org/2000/svg">
<path d="M38.7188 13.7812H3.28125C2.75911 13.7812 2.25835 13.5738 1.88913 13.2046C1.51992 12.8354 1.3125 12.3346 1.3125 11.8125C1.3125 11.2904 1.51992 10.7896 1.88913 10.4204C2.25835 10.0512 2.75911 9.84375 3.28125 9.84375H38.7188C39.2409 9.84375 39.7417 10.0512 40.1109 10.4204C40.4801 10.7896 40.6875 11.2904 40.6875 11.8125C40.6875 12.3346 40.4801 12.8354 40.1109 13.2046C39.7417 13.5738 39.2409 13.7812 38.7188 13.7812ZM32.1562 22.9688H9.84375C9.3216 22.9688 8.82085 22.7613 8.45163 22.3921C8.08242 22.0229 7.875 21.5221 7.875 21C7.875 20.4779 8.08242 19.9771 8.45163 19.6079C8.82085 19.2387 9.3216 19.0312 9.84375 19.0312H32.1562C32.6784 19.0312 33.1792 19.2387 33.5484 19.6079C33.9176 19.9771 34.125 20.4779 34.125 21C34.125 21.5221 33.9176 22.0229 33.5484 22.3921C33.1792 22.7613 32.6784 22.9688 32.1562 22.9688ZM24.2812 32.1562H17.7188C17.1966 32.1562 16.6958 31.9488 16.3266 31.5796C15.9574 31.2104 15.75 30.7096 15.75 30.1875C15.75 29.6654 15.9574 29.1646 16.3266 28.7954C16.6958 28.4262 17.1966 28.2188 17.7188 28.2188H24.2812C24.8034 28.2188 25.3042 28.4262 25.6734 28.7954C26.0426 29.1646 26.25 29.6654 26.25 30.1875C26.25 30.7096 26.0426 31.2104 25.6734 31.5796C25.3042 31.9488 24.8034 32.1562 24.2812 32.1562Z" fill="black"/>
</svg>
