<svg xmlns="http://www.w3.org/2000/svg" width="24" height="24" viewBox="0 0 24 24">
  <path fill="#FFFFFF" d="M12 2.163c3.204 0 3.584.012 4.85.07 1.366.062 2.633.333 3.608 1.308.975.975 1.246 2.242 1.308 3.608.058 1.266.07 1.646.07 4.85s-.012 3.584-.07 4.85c-.062 1.366-.333 2.633-1.308 3.608-.975.975-2.242 1.246-3.608 1.308-1.266.058-1.646.07-4.85.07s-3.584-.012-4.85-.07c-1.366-.062-2.633-.333-3.608-1.308-.975-.975-1.246-2.242-1.308-3.608-.058-1.266-.07-1.646-.07-4.85s.012-3.584.07-4.85c.062-1.366.333-2.633 1.308-3.608.975-.975 2.242-1.246 3.608-1.308 1.266-.058 1.646-.07 4.85-.07zm0-2.163C8.756 0 8.326.013 7.05.072 5.775.132 4.648.441 3.678 1.41c-.97.97-1.278 2.097-1.338 3.372C2.013 6.674 2 7.104 2 12c0 4.896.013 5.326.072 6.602.06 1.275.369 2.402 1.338 3.372.97.97 2.097 1.278 3.372 1.338C8.326 23.987 8.756 24 12 24c4.896 0 5.326-.013 6.602-.072 1.275-.06 2.402-.369 3.372-1.338.97-.97 1.278-2.097 1.338-3.372.059-1.276.072-1.706.072-6.602s-.013-5.326-.072-6.602c-.06-1.275-.369-2.402-1.338-3.372-.97-.97-2.097-1.278-3.372-1.338C17.326.013 16.896 0 12 0zm0 5.838a6.162 6.162 0 1 0 0 12.324 6.162 6.162 0 0 0 0-12.324zm0 2.163a4 4 0 1 1 0 8 4 4 0 0 1 0-8zm6.406-1.843a1.44 1.44 0 1 1-2.88 0 1.44 1.44 0 0 1 2.88 0z"/>
</svg>
