<svg width="24" height="28" viewBox="0 0 24 28" fill="none" xmlns="http://www.w3.org/2000/svg">
<g clip-path="url(#clip0_1183_3602)">
<path d="M18.223 19.0729C18.2526 19.0731 18.282 19.0674 18.3093 19.056C18.3366 19.0446 18.3612 19.0278 18.3816 19.0065C18.402 18.9853 18.4179 18.9602 18.4281 18.9326C18.4383 18.9051 18.4427 18.8758 18.4409 18.8466C18.4409 18.6861 18.3432 18.6094 18.1425 18.6094H17.8184V19.4497H17.9403V19.0834H18.0901L18.0935 19.0878L18.3261 19.4497H18.4564L18.2063 19.0752L18.223 19.0729ZM18.082 18.9887H17.9406V18.7046H18.1198C18.2124 18.7046 18.3179 18.7196 18.3179 18.8396C18.3179 18.9776 18.2112 18.9887 18.0813 18.9887" fill="#0A66C2"/>
<path d="M15.042 18.0202H13.3131V15.3392C13.3131 14.6999 13.3016 13.877 12.4138 13.877C11.5133 13.877 11.3756 14.5735 11.3756 15.2927V18.02H9.64659V12.5069H11.3064V13.2603H11.3296C11.4957 12.9791 11.7358 12.7477 12.0242 12.5909C12.3125 12.4341 12.6385 12.3577 12.9673 12.3697C14.7197 12.3697 15.0428 13.511 15.0428 14.9958L15.042 18.0202ZM7.69575 11.7533C7.49731 11.7533 7.30331 11.6951 7.13829 11.5859C6.97327 11.4768 6.84465 11.3217 6.76868 11.1401C6.69271 10.9586 6.6728 10.7589 6.71148 10.5662C6.75015 10.3734 6.84568 10.1964 6.98598 10.0575C7.12627 9.91849 7.30503 9.82384 7.49966 9.78547C7.69428 9.7471 7.89601 9.76674 8.07936 9.8419C8.26271 9.91706 8.41944 10.0444 8.52971 10.2077C8.63999 10.3711 8.69887 10.5631 8.69891 10.7596C8.69893 10.8901 8.673 11.0193 8.6226 11.1398C8.5722 11.2604 8.49832 11.3699 8.40517 11.4622C8.31202 11.5544 8.20142 11.6276 8.07969 11.6776C7.95797 11.7275 7.82751 11.7532 7.69575 11.7533ZM8.56023 18.0202H6.82947V12.5069H8.56023V18.0202ZM15.904 8.17657H5.96067C5.73498 8.17405 5.51751 8.26035 5.35605 8.4165C5.19459 8.57266 5.10236 8.78589 5.09961 9.00935V18.8956C5.10227 19.1192 5.19445 19.3325 5.3559 19.4889C5.51735 19.6452 5.73487 19.7316 5.96067 19.7293H15.904C16.1302 19.7321 16.3484 19.6459 16.5105 19.4895C16.6725 19.3332 16.7653 19.1196 16.7685 18.8956V9.00864C16.7652 8.78474 16.6724 8.57126 16.5103 8.41511C16.3482 8.25895 16.1301 8.1729 15.904 8.17585" fill="#0A66C2"/>
<path d="M18.0966 18.2354C17.8863 18.2374 17.6853 18.3218 17.5376 18.4701C17.3899 18.6184 17.3076 18.8187 17.3086 19.027C17.3096 19.2352 17.3939 19.4347 17.543 19.5816C17.6921 19.7285 17.8939 19.811 18.1043 19.811C18.3146 19.811 18.5164 19.7285 18.6656 19.5816C18.8147 19.4347 18.8989 19.2352 18.9 19.027C18.901 18.8187 18.8186 18.6184 18.671 18.4701C18.5233 18.3218 18.3223 18.2374 18.1119 18.2354H18.0966ZM18.0966 19.7208C17.9587 19.7231 17.8231 19.6848 17.7071 19.6108C17.5911 19.5368 17.4999 19.4304 17.445 19.305C17.39 19.1797 17.3739 19.041 17.3985 18.9066C17.4232 18.7722 17.4876 18.648 17.5835 18.5498C17.6795 18.4516 17.8027 18.3837 17.9375 18.3548C18.0724 18.326 18.2129 18.3373 18.3413 18.3875C18.4696 18.4377 18.58 18.5244 18.6586 18.6367C18.7372 18.7491 18.7803 18.8819 18.7826 19.0186C18.7826 19.0225 18.7826 19.0262 18.7826 19.0302C18.7865 19.2094 18.7183 19.3828 18.5931 19.5122C18.4678 19.6417 18.2958 19.7166 18.1148 19.7205H18.0968" fill="#0A66C2"/>
</g>
<defs>
<clipPath id="clip0_1183_3602">
<rect width="13.8" height="11.6494" fill="white" transform="translate(5.09961 8.17578)"/>
</clipPath>
</defs>
</svg>
