<svg width="64" height="57" viewBox="0 0 64 57" fill="none" xmlns="http://www.w3.org/2000/svg">
<g clip-path="url(#clip0_148_767)">
<path d="M11.7525 56.637V52.9306C11.7525 51.5094 10.9975 50.5831 9.70358 50.5831C9.05672 50.5831 8.35583 50.8301 7.87057 51.6333C7.49336 50.9537 6.95431 50.5831 6.14561 50.5831C5.60632 50.5831 5.06752 50.7682 4.63603 51.4478V50.7066H3.50391V56.637H4.63603V53.3628C4.63603 52.3129 5.1213 51.8184 5.87621 51.8184C6.63063 51.8184 7.00834 52.3745 7.00834 53.3628V56.637H8.14046V53.3628C8.14046 52.3129 8.67926 51.8184 9.38015 51.8184C10.1351 51.8184 10.5123 52.3745 10.5123 53.3628V56.637H11.7525ZM28.5185 50.7066H26.6857V48.9152H25.5536V50.7066H24.5293V51.8801H25.5533V54.5985C25.5533 55.9576 26.0386 56.7605 27.3326 56.7605C27.8178 56.7605 28.3566 56.5753 28.7343 56.3283L28.4107 55.2161C28.0872 55.4632 27.71 55.5251 27.4404 55.5251C26.9013 55.5251 26.6857 55.1545 26.6857 54.5365V51.8801H28.5185V50.7066ZM38.1148 50.5828C37.4679 50.5828 37.0367 50.9537 36.767 51.4478V50.7066H35.6349V56.637H36.767V53.3012C36.767 52.3129 37.1442 51.7568 37.8451 51.7568C38.0607 51.7568 38.3304 51.8187 38.546 51.8803L38.8694 50.645C38.6538 50.5831 38.3304 50.5831 38.1148 50.5831M23.6128 51.201C23.0735 50.7685 22.3188 50.5833 21.5101 50.5833C20.2164 50.5833 19.3539 51.3246 19.3539 52.4983C19.3539 53.4869 20.0008 54.0427 21.1329 54.2281L21.6719 54.29C22.265 54.4133 22.5884 54.5987 22.5884 54.9077C22.5884 55.34 22.1572 55.6489 21.4023 55.6489C20.6476 55.6489 20.0545 55.34 19.6771 55.0313L19.138 56.0196C19.7311 56.5137 20.5398 56.7608 21.3483 56.7608C22.8578 56.7608 23.7206 55.9579 23.7206 54.8458C23.7206 53.7956 23.0197 53.2395 21.9413 53.0544L21.4023 52.9925C20.917 52.9306 20.5398 52.8073 20.5398 52.4367C20.5398 52.0042 20.917 51.7571 21.5101 51.7571C22.1572 51.7571 22.8041 52.0658 23.1275 52.2512L23.6128 51.201ZM53.6951 50.5833C53.048 50.5833 52.6168 50.954 52.3471 51.4481V50.7069H51.215V56.6372H52.3471V53.3014C52.3471 52.3131 52.7246 51.7571 53.4252 51.7571C53.6411 51.7571 53.9107 51.819 54.1263 51.8806L54.4498 50.6452C54.2342 50.5833 53.9107 50.5833 53.6951 50.5833ZM39.2469 53.6721C39.2469 55.4635 40.325 56.7608 41.9964 56.7608C42.7511 56.7608 43.2901 56.5756 43.8292 56.0815L43.2901 55.0313C42.8589 55.4019 42.4276 55.587 41.9424 55.587C41.0259 55.587 40.379 54.8458 40.379 53.6721C40.379 52.5602 41.0259 51.8187 41.9424 51.7571C42.4276 51.7571 42.8589 51.9423 43.2901 52.3131L43.8292 51.2629C43.2901 50.7685 42.7511 50.5833 41.9964 50.5833C40.325 50.5833 39.2469 51.8806 39.2469 53.6721ZM49.7057 53.6721V50.7069H48.5735V51.4481C48.1961 50.8923 47.657 50.5833 46.9561 50.5833C45.5006 50.5833 44.3685 51.8806 44.3685 53.6721C44.3685 55.4635 45.5006 56.7608 46.9561 56.7608C47.7108 56.7608 48.2501 56.4521 48.5735 55.896V56.6372H49.7057V53.6721ZM45.5544 53.6721C45.5544 52.6219 46.1474 51.7571 47.1177 51.7571C48.0342 51.7571 48.6813 52.5602 48.6813 53.6721C48.6813 54.7223 48.0342 55.587 47.1177 55.587C46.1474 55.5251 45.5544 54.7223 45.5544 53.6721ZM32.0229 50.5833C30.5133 50.5833 29.435 51.8187 29.435 53.6721C29.435 55.5254 30.5131 56.7608 32.0767 56.7608C32.8313 56.7608 33.5863 56.5137 34.1793 55.9579L33.64 55.0313C33.2088 55.4019 32.6698 55.6489 32.1307 55.6489C31.4298 55.6489 30.7289 55.2783 30.5671 54.2278H34.395V53.734C34.449 51.8187 33.4787 50.5833 32.0229 50.5833ZM32.0226 51.6952C32.7233 51.6952 33.2088 52.1896 33.3164 53.1163H30.6209C30.7287 52.3131 31.214 51.6952 32.0226 51.6952ZM60.1102 53.6721V48.3594H58.978V51.4481C58.6006 50.8923 58.0615 50.5833 57.3606 50.5833C55.9051 50.5833 54.773 51.8806 54.773 53.6721C54.773 55.4635 55.9051 56.7608 57.3606 56.7608C58.1156 56.7608 58.6546 56.4521 58.978 55.896V56.6372H60.1102V53.6721ZM55.9591 53.6721C55.9591 52.6219 56.5519 51.7571 57.5225 51.7571C58.439 51.7571 59.0858 52.5602 59.0858 53.6721C59.0858 54.7223 58.439 55.587 57.5225 55.587C56.5519 55.5251 55.9591 54.7223 55.9591 53.6721ZM18.1135 53.6721V50.7069H16.9813V51.4481C16.6039 50.8923 16.0648 50.5833 15.364 50.5833C13.9084 50.5833 12.7763 51.8806 12.7763 53.6721C12.7763 55.4635 13.9084 56.7608 15.364 56.7608C16.1189 56.7608 16.6579 56.4521 16.9813 55.896V56.6372H18.1135V53.6721ZM13.9084 53.6721C13.9084 52.6219 14.5015 51.7571 15.4718 51.7571C16.3883 51.7571 17.0354 52.5602 17.0354 53.6721C17.0354 54.7223 16.3883 55.587 15.4718 55.587C14.5015 55.5251 13.9084 54.7223 13.9084 53.6721Z" fill="black"/>
<path d="M23.2354 5.67188H40.2172V40.637H23.2354V5.67188Z" fill="#FF5F00"/>
<path d="M24.3137 23.1544C24.3137 16.0502 27.2248 9.74897 31.6993 5.67166C28.411 2.70648 24.2599 0.915039 19.7314 0.915039C9.00278 0.915039 0.323242 10.8608 0.323242 23.1544C0.323242 35.4476 9.00278 45.3937 19.7312 45.3937C24.2597 45.3937 28.4107 43.6022 31.6993 40.6368C27.2248 36.6214 24.3137 30.2585 24.3137 23.1544Z" fill="#EB001B"/>
<path d="M63.129 23.1544C63.129 35.4476 54.4495 45.3937 43.721 45.3937C39.1925 45.3937 35.0415 43.6022 31.7529 40.6368C36.2814 36.5597 39.1388 30.2585 39.1388 23.1544C39.1388 16.0502 36.2274 9.74897 31.7529 5.67166C35.0412 2.70648 39.1925 0.915039 43.721 0.915039C54.4495 0.915039 63.129 10.9227 63.129 23.1544Z" fill="#F79E1B"/>
</g>
<defs>
<clipPath id="clip0_148_767">
<rect width="62.88" height="56" fill="white" transform="translate(0.317383 0.915039)"/>
</clipPath>
</defs>
</svg>
