<svg width="32" height="32" viewBox="0 0 32 32" fill="none" xmlns="http://www.w3.org/2000/svg">
<path d="M16 14.001C14.5855 14.001 13.2289 13.4742 12.2287 12.5365C11.2285 11.5988 10.6666 10.3271 10.6666 9.00098C10.6666 7.67489 11.2285 6.40312 12.2287 5.46544C13.2289 4.52776 14.5855 4.00098 16 4.00098C17.4144 4.00098 18.771 4.52776 19.7712 5.46544C20.7714 6.40312 21.3333 7.67489 21.3333 9.00098C21.3333 10.3271 20.7714 11.5988 19.7712 12.5365C18.771 13.4742 17.4144 14.001 16 14.001ZM16 6.00098C14.2293 6.00098 12.8 7.34098 12.8 9.00098C12.8 10.661 14.2293 12.001 16 12.001C17.7706 12.001 19.2 10.661 19.2 9.00098C19.2 7.34098 17.7706 6.00098 16 6.00098Z" fill="black" fill-opacity="0.8"/>
<path d="M28.8 22.001C28.2027 22.001 27.7333 21.561 27.7333 21.001C27.7333 20.441 28.2027 20.001 28.8 20.001C29.3973 20.001 29.8667 19.561 29.8667 19.001C29.8667 17.6749 29.3048 16.4031 28.3046 15.4654C27.3044 14.5278 25.9478 14.001 24.5333 14.001H22.4C21.8027 14.001 21.3333 13.561 21.3333 13.001C21.3333 12.441 21.8027 12.001 22.4 12.001C24.1707 12.001 25.6 10.661 25.6 9.00098C25.6 7.34098 24.1707 6.00098 22.4 6.00098C21.8027 6.00098 21.3333 5.56098 21.3333 5.00098C21.3333 4.44098 21.8027 4.00098 22.4 4.00098C23.8145 4.00098 25.171 4.52776 26.1712 5.46544C27.1714 6.40312 27.7333 7.67489 27.7333 9.00098C27.7333 10.241 27.264 11.361 26.4533 12.241C29.632 13.041 32 15.761 32 19.001C32 20.661 30.5707 22.001 28.8 22.001ZM3.2 22.001C1.42933 22.001 0 20.661 0 19.001C0 15.761 2.34667 13.041 5.54667 12.241C4.75733 11.361 4.26667 10.241 4.26667 9.00098C4.26667 7.67489 4.82857 6.40312 5.82876 5.46544C6.82896 4.52776 8.18551 4.00098 9.6 4.00098C10.1973 4.00098 10.6667 4.44098 10.6667 5.00098C10.6667 5.56098 10.1973 6.00098 9.6 6.00098C7.82933 6.00098 6.4 7.34098 6.4 9.00098C6.4 10.661 7.82933 12.001 9.6 12.001C10.1973 12.001 10.6667 12.441 10.6667 13.001C10.6667 13.561 10.1973 14.001 9.6 14.001H7.46667C6.05218 14.001 4.69562 14.5278 3.69543 15.4654C2.69524 16.4031 2.13333 17.6749 2.13333 19.001C2.13333 19.561 2.60267 20.001 3.2 20.001C3.79733 20.001 4.26667 20.441 4.26667 21.001C4.26667 21.561 3.79733 22.001 3.2 22.001ZM22.4 28.001H9.6C7.82933 28.001 6.4 26.661 6.4 25.001V23.001C6.4 19.141 9.74933 16.001 13.8667 16.001H18.1333C22.2507 16.001 25.6 19.141 25.6 23.001V25.001C25.6 26.661 24.1707 28.001 22.4 28.001ZM13.8667 18.001C12.4522 18.001 11.0956 18.5278 10.0954 19.4654C9.09524 20.4031 8.53333 21.6749 8.53333 23.001V25.001C8.53333 25.561 9.00267 26.001 9.6 26.001H22.4C22.9973 26.001 23.4667 25.561 23.4667 25.001V23.001C23.4667 21.6749 22.9048 20.4031 21.9046 19.4654C20.9044 18.5278 19.5478 18.001 18.1333 18.001H13.8667Z" fill="black" fill-opacity="0.8"/>
</svg>
