<svg width="34" height="24" viewBox="0 0 34 24" fill="none" xmlns="http://www.w3.org/2000/svg">
<path d="M3.00033 0.333008H14.667C15.2858 0.333008 15.8793 0.57884 16.3169 1.01643C16.7545 1.45401 17.0003 2.0475 17.0003 2.66634C17.0003 3.28518 16.7545 3.87867 16.3169 4.31626C15.8793 4.75384 15.2858 4.99967 14.667 4.99967H3.00033C2.38149 4.99967 1.78799 4.75384 1.35041 4.31626C0.912825 3.87867 0.666992 3.28518 0.666992 2.66634C0.666992 2.0475 0.912825 1.45401 1.35041 1.01643C1.78799 0.57884 2.38149 0.333008 3.00033 0.333008ZM19.3337 18.9997H31.0003C31.6192 18.9997 32.2127 19.2455 32.6502 19.6831C33.0878 20.1207 33.3337 20.7142 33.3337 21.333C33.3337 21.9518 33.0878 22.5453 32.6502 22.9829C32.2127 23.4205 31.6192 23.6663 31.0003 23.6663H19.3337C18.7148 23.6663 18.1213 23.4205 17.6837 22.9829C17.2462 22.5453 17.0003 21.9518 17.0003 21.333C17.0003 20.7142 17.2462 20.1207 17.6837 19.6831C18.1213 19.2455 18.7148 18.9997 19.3337 18.9997ZM3.00033 9.66634H31.0003C31.6192 9.66634 32.2127 9.91218 32.6502 10.3498C33.0878 10.7873 33.3337 11.3808 33.3337 11.9997C33.3337 12.6185 33.0878 13.212 32.6502 13.6496C32.2127 14.0872 31.6192 14.333 31.0003 14.333H3.00033C2.38149 14.333 1.78799 14.0872 1.35041 13.6496C0.912825 13.212 0.666992 12.6185 0.666992 11.9997C0.666992 11.3808 0.912825 10.7873 1.35041 10.3498C1.78799 9.91218 2.38149 9.66634 3.00033 9.66634Z" fill="#1D8C9C"/>
</svg>
