<svg width="10" height="42" viewBox="0 0 10 42" fill="none" xmlns="http://www.w3.org/2000/svg">
<path d="M4.99984 9.33333C3.76216 9.33333 2.57518 8.84167 1.70001 7.9665C0.824837 7.09133 0.333171 5.90434 0.333171 4.66667C0.333171 3.42899 0.824837 2.242 1.70001 1.36683C2.57518 0.491665 3.76216 0 4.99984 0C6.23751 0 7.4245 0.491665 8.29967 1.36683C9.17484 2.242 9.6665 3.42899 9.6665 4.66667C9.6665 5.90434 9.17484 7.09133 8.29967 7.9665C7.4245 8.84167 6.23751 9.33333 4.99984 9.33333ZM4.99984 25.6667C3.76216 25.6667 2.57518 25.175 1.70001 24.2998C0.824837 23.4247 0.333171 22.2377 0.333171 21C0.333171 19.7623 0.824837 18.5753 1.70001 17.7002C2.57518 16.825 3.76216 16.3333 4.99984 16.3333C6.23751 16.3333 7.4245 16.825 8.29967 17.7002C9.17484 18.5753 9.6665 19.7623 9.6665 21C9.6665 22.2377 9.17484 23.4247 8.29967 24.2998C7.4245 25.175 6.23751 25.6667 4.99984 25.6667ZM4.99984 42C3.76216 42 2.57518 41.5083 1.70001 40.6332C0.824837 39.758 0.333171 38.571 0.333171 37.3333C0.333171 36.0957 0.824837 34.9087 1.70001 34.0335C2.57518 33.1583 3.76216 32.6667 4.99984 32.6667C6.23751 32.6667 7.4245 33.1583 8.29967 34.0335C9.17484 34.9087 9.6665 36.0957 9.6665 37.3333C9.6665 38.571 9.17484 39.758 8.29967 40.6332C7.4245 41.5083 6.23751 42 4.99984 42Z" fill="#111111"/>
</svg>
