<svg width="32" height="24" viewBox="0 0 32 24" fill="none" xmlns="http://www.w3.org/2000/svg">
<path d="M28.8 18.001C28.2027 18.001 27.7333 17.561 27.7333 17.001C27.7333 16.441 28.2027 16.001 28.8 16.001C29.3973 16.001 29.8667 15.561 29.8667 15.001C29.8667 13.6749 29.3048 12.4031 28.3046 11.4654C27.3044 10.5278 25.9478 10.001 24.5333 10.001H22.4C21.8027 10.001 21.3333 9.56098 21.3333 9.00098C21.3333 8.44098 21.8027 8.00098 22.4 8.00098C24.1707 8.00098 25.6 6.66098 25.6 5.00098C25.6 3.34098 24.1707 2.00098 22.4 2.00098C21.8027 2.00098 21.3333 1.56098 21.3333 1.00098C21.3333 0.440977 21.8027 0.000976562 22.4 0.000976562C23.8145 0.000976562 25.171 0.527761 26.1712 1.46544C27.1714 2.40312 27.7333 3.67489 27.7333 5.00098C27.7333 6.24098 27.264 7.36098 26.4533 8.24098C29.632 9.04098 32 11.761 32 15.001C32 16.661 30.5707 18.001 28.8 18.001ZM3.2 18.001C1.42933 18.001 0 16.661 0 15.001C0 11.761 2.34667 9.04098 5.54667 8.24098C4.75733 7.36098 4.26667 6.24098 4.26667 5.00098C4.26667 3.67489 4.82857 2.40312 5.82876 1.46544C6.82896 0.527761 8.18551 0.000976563 9.6 0.000976562C10.1973 0.000976562 10.6667 0.440977 10.6667 1.00098C10.6667 1.56098 10.1973 2.00098 9.6 2.00098C7.82933 2.00098 6.4 3.34098 6.4 5.00098C6.4 6.66098 7.82933 8.00098 9.6 8.00098C10.1973 8.00098 10.6667 8.44098 10.6667 9.00098C10.6667 9.56098 10.1973 10.001 9.6 10.001H7.46667C6.05218 10.001 4.69562 10.5278 3.69543 11.4654C2.69524 12.4031 2.13333 13.6749 2.13333 15.001C2.13333 15.561 2.60267 16.001 3.2 16.001C3.79733 16.001 4.26667 16.441 4.26667 17.001C4.26667 17.561 3.79733 18.001 3.2 18.001ZM22.4 24.001H9.6C7.82933 24.001 6.4 22.661 6.4 21.001V19.001C6.4 15.141 9.74933 12.001 13.8667 12.001H18.1333C22.2507 12.001 25.6 15.141 25.6 19.001V21.001C25.6 22.661 24.1707 24.001 22.4 24.001ZM13.8667 14.001C12.4522 14.001 11.0956 14.5278 10.0954 15.4654C9.09524 16.4031 8.53333 17.6749 8.53333 19.001V21.001C8.53333 21.561 9.00267 22.001 9.6 22.001H22.4C22.9973 22.001 23.4667 21.561 23.4667 21.001V19.001C23.4667 17.6749 22.9048 16.4031 21.9046 15.4654C20.9044 14.5278 19.5478 14.001 18.1333 14.001H13.8667Z" fill="#1D8C9C"/>
</svg>
