<svg width="16" height="14" viewBox="0 0 16 14" fill="none" xmlns="http://www.w3.org/2000/svg">
<path d="M0 1.66634C0 1.31272 0.140476 0.973581 0.390525 0.723532C0.640573 0.473484 0.979711 0.333008 1.33333 0.333008H14.6667C15.0203 0.333008 15.3594 0.473484 15.6095 0.723532C15.8595 0.973581 16 1.31272 16 1.66634C16 2.01996 15.8595 2.3591 15.6095 2.60915C15.3594 2.8592 15.0203 2.99968 14.6667 2.99968H1.33333C0.979711 2.99968 0.640573 2.8592 0.390525 2.60915C0.140476 2.3591 0 2.01996 0 1.66634ZM2.66667 6.99968C2.66667 6.64605 2.80714 6.30692 3.05719 6.05687C3.30724 5.80682 3.64638 5.66634 4 5.66634H12C12.3536 5.66634 12.6928 5.80682 12.9428 6.05687C13.1929 6.30692 13.3333 6.64605 13.3333 6.99968C13.3333 7.3533 13.1929 7.69244 12.9428 7.94248C12.6928 8.19253 12.3536 8.33301 12 8.33301H4C3.64638 8.33301 3.30724 8.19253 3.05719 7.94248C2.80714 7.69244 2.66667 7.3533 2.66667 6.99968ZM6.66667 10.9997C6.31305 10.9997 5.97391 11.1402 5.72386 11.3902C5.47381 11.6403 5.33333 11.9794 5.33333 12.333C5.33333 12.6866 5.47381 13.0258 5.72386 13.2758C5.97391 13.5259 6.31305 13.6663 6.66667 13.6663H9.33333C9.68696 13.6663 10.0261 13.5259 10.2761 13.2758C10.5262 13.0258 10.6667 12.6866 10.6667 12.333C10.6667 11.9794 10.5262 11.6403 10.2761 11.3902C10.0261 11.1402 9.68696 10.9997 9.33333 10.9997H6.66667Z" fill="#1D8C9C"/>
</svg>
