<svg width="61" height="58" viewBox="0 0 61 58" fill="none" xmlns="http://www.w3.org/2000/svg">
  <path d="M52.5699 28.7006C52.5699 31.5706 42.4815 43.0506 30.0399 43.0506C17.5984 43.0506 7.50995 31.5706 7.50995 28.7006C7.50995 25.8306 17.5984 14.3506 30.0399 14.3506C42.4815 14.3506 52.5699 25.8306 52.5699 28.7006Z" stroke="#F0F0F0" stroke-width="5.80833"/>
  <path d="M37.55 28.7004C37.55 30.6033 36.7588 32.4283 35.3504 33.7739C33.942 35.1195 32.0318 35.8754 30.04 35.8754C28.0482 35.8754 26.138 35.1195 24.7296 33.7739C23.3212 32.4283 22.53 30.6033 22.53 28.7004C22.53 26.7975 23.3212 24.9725 24.7296 23.6269C26.138 22.2813 28.0482 21.5254 30.04 21.5254C32.0318 21.5254 33.942 22.2813 35.3504 23.6269C36.7588 24.9725 37.55 26.7975 37.55 28.7004Z" stroke="#F0F0F0" stroke-width="5.80833"/>
  <line x1="10" y1="10" x2="51" y2="48" stroke="#F0F0F0" stroke-width="5.80833" />
</svg>
