<svg width="40" height="20" viewBox="0 0 40 20" fill="none" xmlns="http://www.w3.org/2000/svg">
<path d="M20.6888 6.36811C20.666 9.14305 22.2923 10.6915 23.5173 11.6122C24.776 12.5568 25.1987 13.1626 25.1937 14.0074C25.1844 15.3002 24.1898 15.8708 23.2591 15.8929C21.6353 15.9317 20.6911 15.2168 19.9406 14.6761L19.3556 18.8975C20.1087 19.4327 21.5031 19.8994 22.9491 19.9199C26.3433 19.9199 28.5639 17.3358 28.576 13.3293C28.5893 8.2445 24.0157 7.96305 24.047 5.69028C24.0577 5.00112 24.4841 4.2657 25.4184 4.07871C25.8809 3.98425 27.1575 3.91196 28.6049 4.93992L29.173 0.855577C28.3946 0.418468 27.3942 -8.58307e-05 26.1487 -8.58307e-05C22.9539 -8.58307e-05 20.7069 2.61919 20.6888 6.36811ZM34.6316 0.351721C34.0118 0.351721 33.4895 0.909311 33.2564 1.76497L28.4079 19.6199H31.7996L32.4746 16.7431H36.6192L37.0108 19.6199H40.0002L37.3915 0.351721H34.6316ZM35.1061 5.55678L36.0849 12.7922H33.4042L35.1061 5.55678ZM16.5765 0.351963L13.9029 19.6197H17.135L19.8073 0.35148L16.5765 0.351963ZM11.7951 0.351963L8.43103 13.4664L7.0702 2.31534C6.91052 1.07052 6.27995 0.351721 5.57969 0.351721H0.0804431L0.00341797 0.91124C1.13239 1.28907 2.4151 1.89847 3.19223 2.55052C3.66781 2.94883 3.80343 3.29702 3.95966 4.24353L6.53711 19.6199H9.95262L15.1891 0.351721L11.7951 0.351963Z" fill="url(#paint0_linear_178_206)"/>
<defs>
<linearGradient id="paint0_linear_178_206" x1="1838.82" y1="59.8795" x2="1927.65" y2="-1983.7" gradientUnits="userSpaceOnUse">
<stop stop-color="#222357"/>
<stop offset="1" stop-color="#254AA5"/>
</linearGradient>
</defs>
</svg>
