<svg width="103" height="179" viewBox="0 0 103 179" fill="none" xmlns="http://www.w3.org/2000/svg">
<path fill-rule="evenodd" clip-rule="evenodd" d="M19.7635 160.904C22.1121 160.904 23.8283 161.402 24.9122 162.397C25.9962 163.391 26.5388 164.939 26.54 167.038V178.291H23.0172V167.514C23.0172 165.141 21.6867 163.955 19.0257 163.955C17.8762 163.945 16.7478 164.263 15.772 164.87C15.9408 165.58 16.0202 166.308 16.0082 167.038V178.291H12.4854V167.514C12.4854 165.141 11.1549 163.955 8.49389 163.955C7.2797 163.956 6.07548 164.174 4.93814 164.599V178.291H1.41717V162.668C2.58289 162.088 3.81689 161.657 5.09011 161.386C6.4482 161.069 7.8373 160.905 9.23178 160.895C11.4289 160.895 13.0616 161.322 14.1296 162.177C15.8888 161.336 17.814 160.902 19.7635 160.904ZM38.6098 178.808C35.9243 178.808 33.906 178.039 32.5547 176.502C31.2035 174.966 30.5272 172.729 30.526 169.792C30.526 163.849 33.2114 160.877 38.5823 160.879C41.2885 160.879 43.3233 161.641 44.6868 163.166C46.0502 164.69 46.7326 166.899 46.7338 169.792C46.7338 172.682 46.0295 174.908 44.6209 176.468C43.2122 178.028 41.2085 178.808 38.6098 178.808ZM38.575 175.79C41.662 175.79 43.2049 173.791 43.2037 169.792C43.2037 167.803 42.8375 166.318 42.1051 165.335C41.3727 164.353 40.1984 163.861 38.5823 163.859C36.9503 163.859 35.7821 164.362 35.0778 165.368C34.3735 166.374 34.0213 167.849 34.0213 169.792C34.0213 171.734 34.3845 173.219 35.1108 174.248C35.8371 175.277 36.9918 175.789 38.575 175.783V175.79ZM58.4942 160.912C60.9989 160.912 62.8995 161.668 64.1958 163.182C65.4922 164.696 66.1422 166.84 66.1458 169.614C66.1458 172.959 65.3689 175.326 63.815 176.715C62.2611 178.104 60.2861 178.801 57.8899 178.808C53.0818 178.808 50.6777 177.52 50.6777 174.944V154.465H54.1676V161.963C54.8693 161.627 55.6063 161.371 56.3647 161.199C57.0611 161.02 57.7755 160.921 58.4942 160.904V160.912ZM57.6208 175.722C59.4518 175.722 60.7335 175.191 61.4658 174.129C62.1982 173.067 62.5644 171.61 62.5644 169.757C62.5644 167.86 62.1787 166.414 61.4072 165.419C60.6358 164.425 59.4902 163.928 57.9705 163.929C57.3084 163.934 56.6493 164.018 56.0077 164.182C55.3654 164.337 54.7488 164.584 54.1767 164.914V174.069C54.1706 175.168 55.3186 175.716 57.6208 175.715V175.722ZM70.1264 155.353H73.8835V158.573H70.1264V155.353ZM70.2271 161.386H73.7499L73.7828 178.299H70.2271V161.386ZM78.7411 178.299V154.838H82.2309V178.291L78.7411 178.299ZM94.0316 160.864C96.6486 160.864 98.5663 161.718 99.7845 163.427C101.003 165.136 101.601 167.526 101.579 170.596H89.7654C89.8789 172.268 90.3672 173.539 91.2302 174.41C92.0932 175.28 93.3175 175.714 94.9031 175.713C96.8027 175.715 98.672 175.237 100.337 174.324V177.645C98.5931 178.42 96.5949 178.808 94.3428 178.808C91.8161 178.808 89.8313 178.034 88.3885 176.486C86.9457 174.938 86.2249 172.741 86.2261 169.894C86.2261 166.979 86.9079 164.749 88.2713 163.202C89.6348 161.656 91.5549 160.876 94.0316 160.864ZM93.9309 163.794C92.7456 163.794 91.8179 164.11 91.1478 164.744C90.4776 165.377 90.0413 166.45 89.8386 167.963H97.9901C97.8327 166.516 97.4299 165.46 96.7817 164.795C96.1335 164.13 95.1833 163.796 93.9309 163.794ZM60.2867 24.3575C56.4014 23.3968 53.4108 22.9159 51.3149 22.9147C35.6802 22.9147 23.0044 35.5484 23.0044 51.1282C23.0044 66.7079 35.6857 79.3435 51.3149 79.3435C66.9441 79.3435 79.6273 66.7098 79.6273 51.1282C79.6284 48.852 79.3542 46.584 78.8107 44.3737L101.319 38.3114C103.142 45.2429 103.487 52.4805 102.331 59.554C101.175 66.6275 98.5436 73.3787 94.6083 79.3691L57.337 148.468H22.8085L47.3435 103.243C47.4772 102.994 47.0835 102.445 46.754 102.416C20.5362 100.035 0 78.0637 0 51.3149C0 22.9733 23.052 3.11891e-05 51.4907 3.11891e-05C56.6966 -0.00569264 61.8734 0.776445 66.8452 2.31988L60.2867 24.3575Z" fill="#006E53"/>
<path d="M51.1446 66.6457C59.7147 66.6457 66.6621 59.6983 66.6621 51.1282C66.6621 42.5581 59.7147 35.6107 51.1446 35.6107C42.5745 35.6107 35.6271 42.5581 35.6271 51.1282C35.6271 59.6983 42.5745 66.6457 51.1446 66.6457Z" fill="#D6E806"/>
<path d="M77.9483 40.5488C75.26 33.8192 70.0785 28.3865 63.4836 25.3828M87.8246 36.3156C84.0278 26.9822 76.8488 19.4252 67.7223 15.155M97.3475 33.1425C92.5113 20.838 83.0012 10.948 70.8954 5.63394" stroke="#D6E806" stroke-width="5.23642" stroke-linecap="round"/>
</svg>
