<svg width="32" height="31" viewBox="0 0 32 31" fill="none" xmlns="http://www.w3.org/2000/svg">
<ellipse cx="16" cy="15.5" rx="16" ry="15.5" fill="white"/>
<g clip-path="url(#clip0_1028_736)">
<path d="M13.8848 30.4574C15.4345 29.9148 16.6911 29.1635 17.8638 28.4122L18.1989 28.2035C19.4555 27.4104 20.712 26.5339 21.9686 25.4487C24.7748 23.0696 26.4502 20.6904 27.4136 17.8522C27.7905 16.6835 28.3769 14.4296 27.6649 12.3009C27.1623 10.7565 26.1989 9.46261 24.8167 8.50261C24.6492 8.37739 22.9319 7 19.623 7C16.6073 7 13.2984 8.12696 9.82196 10.3809L9.6963 10.4643C9.57065 10.5061 9.48688 10.5896 9.40311 10.673C9.31934 10.7148 9.23557 10.7983 9.1518 10.84C8.43976 11.2991 7.7696 11.8417 7.09944 12.3843C5.59159 13.7617 3.9162 16.0991 3.99997 18.0609C4.04185 18.8957 4.41881 19.6052 5.04709 20.1061C5.67536 20.5652 6.42929 20.7739 7.30887 20.7739C9.10991 20.7739 11.0785 19.8139 12.4188 19.0209C12.5026 18.9791 12.5864 18.8957 12.6701 18.8539C12.9214 18.687 13.1309 18.5617 13.3822 18.3948L13.6335 18.2278C15.5602 16.9757 17.5288 15.6817 19.7487 14.9304C20.335 14.7217 20.8377 14.6383 21.2984 14.6383C21.5078 14.6383 21.7591 14.6383 21.9686 14.7217C22.6387 14.8887 23.1413 15.2643 23.4345 15.8487C23.9371 16.8922 23.8115 18.4783 23.1413 19.9809C22.178 21.9843 20.5445 23.9878 18.2408 25.9078C17.068 26.8678 15.979 27.6191 15.0576 28.12L14.89 28.1617C14.4293 28.4122 13.9267 28.6626 13.4241 28.8713L13.3403 28.913C13.1727 28.9548 13.0471 29.0383 12.9214 29.08C10.7015 29.6643 12.0419 27.7443 12.0419 27.7443C12.5445 27.16 13.0471 26.7009 13.5497 26.2417C13.8429 25.9496 14.178 25.6991 14.4712 25.3652L14.5549 25.2817C14.9319 24.9061 15.4764 24.3635 15.4345 23.6122C15.3926 22.6104 14.3455 21.9843 13.3822 21.9843H13.2984C12.3769 21.9843 11.4973 22.527 10.911 22.9861C10.3246 23.4452 9.73819 24.113 9.31934 24.7391C8.73295 25.6574 7.47641 27.9948 8.69107 29.873C9.19368 30.6243 9.9895 31 11.1204 31C11.9162 31 12.8377 30.7913 13.8848 30.4574Z" fill="#E90000"/>
</g>
<defs>
<clipPath id="clip0_1028_736">
<rect width="24" height="24" fill="white" transform="translate(4 7)"/>
</clipPath>
</defs>
</svg>
