<svg width="353" height="96" viewBox="0 0 353 96" fill="none" xmlns="http://www.w3.org/2000/svg">
<g filter="url(#filter0_d_446_6338)">
<rect x="24" y="12" width="305" height="48" rx="12" fill="#BFE9FF" fill-opacity="0.4" shape-rendering="crispEdges"/>
<path d="M39.67 30.998C39.748 30.998 39.8152 31.0283 39.8715 31.089L40.4175 31.687C40.0362 32.1377 39.5703 32.4865 39.02 32.7335C38.474 32.9805 37.8153 33.104 37.044 33.104C36.368 33.104 35.7548 32.987 35.2045 32.753C34.6585 32.519 34.1905 32.1918 33.8005 31.7715C33.4148 31.3512 33.1158 30.8485 32.9035 30.2635C32.6912 29.6785 32.585 29.035 32.585 28.333C32.585 27.631 32.6955 26.9875 32.9165 26.4025C33.1418 25.8175 33.456 25.3148 33.859 24.8945C34.262 24.4742 34.743 24.147 35.302 23.913C35.8653 23.679 36.4872 23.562 37.1675 23.562C37.8305 23.562 38.4198 23.6703 38.9355 23.887C39.4512 24.1037 39.8997 24.3918 40.281 24.7515L39.826 25.395C39.7957 25.4427 39.7567 25.4817 39.709 25.512C39.6657 25.5423 39.6072 25.5575 39.5335 25.5575C39.4512 25.5575 39.3537 25.5163 39.241 25.434C39.1327 25.3517 38.9875 25.2607 38.8055 25.161C38.6278 25.057 38.4068 24.9638 38.1425 24.8815C37.8782 24.7992 37.5488 24.758 37.1545 24.758C36.6908 24.758 36.2662 24.8403 35.8805 25.005C35.4948 25.1653 35.1612 25.3993 34.8795 25.707C34.6022 26.0103 34.3855 26.3852 34.2295 26.8315C34.0778 27.2735 34.002 27.774 34.002 28.333C34.002 28.9007 34.0822 29.4055 34.2425 29.8475C34.4028 30.2895 34.6238 30.6643 34.9055 30.972C35.1872 31.2797 35.5187 31.5137 35.9 31.674C36.2813 31.8343 36.693 31.9145 37.135 31.9145C37.4037 31.9145 37.6442 31.8993 37.8565 31.869C38.0732 31.8343 38.2703 31.7845 38.448 31.7195C38.63 31.6545 38.8012 31.5722 38.9615 31.4725C39.1218 31.3685 39.28 31.245 39.436 31.102C39.4707 31.0717 39.5075 31.0478 39.5465 31.0305C39.5855 31.0088 39.6267 30.998 39.67 30.998ZM45.0977 30.0685C44.582 30.0858 44.1444 30.127 43.7847 30.192C43.425 30.2527 43.1325 30.335 42.9072 30.439C42.6819 30.543 42.5194 30.6665 42.4197 30.8095C42.32 30.9482 42.2702 31.1042 42.2702 31.2775C42.2702 31.4422 42.2962 31.5852 42.3482 31.7065C42.4045 31.8235 42.4782 31.921 42.5692 31.999C42.6645 32.0727 42.775 32.1268 42.9007 32.1615C43.0264 32.1962 43.1629 32.2135 43.3102 32.2135C43.5052 32.2135 43.6829 32.194 43.8432 32.155C44.0079 32.116 44.1617 32.0618 44.3047 31.9925C44.4477 31.9188 44.5842 31.83 44.7142 31.726C44.8442 31.622 44.972 31.5028 45.0977 31.3685V30.0685ZM41.3797 27.319C41.748 26.968 42.1467 26.7058 42.5757 26.5325C43.009 26.3592 43.4835 26.2725 43.9992 26.2725C44.3762 26.2725 44.7099 26.3353 45.0002 26.461C45.2905 26.5823 45.5354 26.7535 45.7347 26.9745C45.934 27.1955 46.0835 27.4598 46.1832 27.7675C46.2872 28.0752 46.3392 28.4153 46.3392 28.788V33H45.7737C45.648 33 45.5527 32.9805 45.4877 32.9415C45.4227 32.8982 45.3707 32.8202 45.3317 32.7075L45.1952 32.129C45.0262 32.285 44.8594 32.4237 44.6947 32.545C44.53 32.662 44.3567 32.7638 44.1747 32.8505C43.997 32.9328 43.8064 32.9957 43.6027 33.039C43.399 33.0823 43.1737 33.104 42.9267 33.104C42.6667 33.104 42.4219 33.0693 42.1922 33C41.9669 32.9263 41.7697 32.8158 41.6007 32.6685C41.4317 32.5212 41.2974 32.337 41.1977 32.116C41.1024 31.895 41.0547 31.6372 41.0547 31.3425C41.0547 31.0825 41.124 30.8333 41.2627 30.595C41.4057 30.3523 41.6354 30.1357 41.9517 29.945C42.2724 29.7543 42.6884 29.5983 43.1997 29.477C43.7154 29.3557 44.348 29.2863 45.0977 29.269V28.788C45.0977 28.2897 44.9915 27.917 44.7792 27.67C44.5669 27.423 44.2549 27.2995 43.8432 27.2995C43.5659 27.2995 43.3319 27.3342 43.1412 27.4035C42.9549 27.4728 42.7924 27.5508 42.6537 27.6375C42.5194 27.7198 42.4002 27.7957 42.2962 27.865C42.1965 27.9343 42.0925 27.969 41.9842 27.969C41.8975 27.969 41.8217 27.9452 41.7567 27.8975C41.696 27.8498 41.6462 27.7935 41.6072 27.7285L41.3797 27.319ZM49.232 27.6635C49.4443 27.2302 49.7 26.89 49.999 26.643C50.298 26.396 50.6577 26.2725 51.078 26.2725C51.221 26.2725 51.3553 26.2898 51.481 26.3245C51.611 26.3548 51.7237 26.4025 51.819 26.4675L51.7345 27.423C51.7042 27.54 51.6327 27.5985 51.52 27.5985C51.4593 27.5985 51.3683 27.5877 51.247 27.566C51.1257 27.54 50.9957 27.527 50.857 27.527C50.6533 27.527 50.4735 27.5573 50.3175 27.618C50.1615 27.6743 50.0207 27.761 49.895 27.878C49.7737 27.9907 49.6653 28.1315 49.57 28.3005C49.4747 28.4652 49.3858 28.6537 49.3035 28.866V33H48.036V26.396H48.764C48.9027 26.396 48.9958 26.422 49.0435 26.474C49.0955 26.5217 49.1323 26.6083 49.154 26.734L49.232 27.6635ZM53.9928 27.6635C54.2051 27.2302 54.4608 26.89 54.7598 26.643C55.0588 26.396 55.4184 26.2725 55.8388 26.2725C55.9818 26.2725 56.1161 26.2898 56.2418 26.3245C56.3718 26.3548 56.4844 26.4025 56.5798 26.4675L56.4953 27.423C56.4649 27.54 56.3934 27.5985 56.2808 27.5985C56.2201 27.5985 56.1291 27.5877 56.0078 27.566C55.8864 27.54 55.7564 27.527 55.6178 27.527C55.4141 27.527 55.2343 27.5573 55.0783 27.618C54.9223 27.6743 54.7814 27.761 54.6558 27.878C54.5344 27.9907 54.4261 28.1315 54.3308 28.3005C54.2354 28.4652 54.1466 28.6537 54.0643 28.866V33H52.7968V26.396H53.5248C53.6634 26.396 53.7566 26.422 53.8043 26.474C53.8563 26.5217 53.8931 26.6083 53.9148 26.734L53.9928 27.6635ZM63.3295 26.396L59.6635 34.9175C59.6245 35.0128 59.5725 35.0865 59.5075 35.1385C59.4425 35.1905 59.3472 35.2165 59.2215 35.2165H58.279L59.488 32.584L56.7775 26.396H57.8825C57.9908 26.396 58.0753 26.422 58.136 26.474C58.1967 26.526 58.24 26.5845 58.266 26.6495L59.943 30.6145C59.9777 30.7142 60.0102 30.816 60.0405 30.92C60.0752 31.0197 60.1033 31.1193 60.125 31.219C60.1553 31.115 60.1878 31.0132 60.2225 30.9135C60.2572 30.8095 60.294 30.7077 60.333 30.608L61.9515 26.6495C61.9818 26.5758 62.0295 26.5152 62.0945 26.4675C62.1595 26.4198 62.2332 26.396 62.3155 26.396H63.3295ZM70.0839 26.292C70.5692 26.292 71.0069 26.3722 71.3969 26.5325C71.7912 26.6885 72.1249 26.916 72.3979 27.215C72.6752 27.5097 72.8876 27.8672 73.0349 28.2875C73.1822 28.7035 73.2559 29.1715 73.2559 29.6915C73.2559 30.2115 73.1822 30.6817 73.0349 31.102C72.8876 31.5223 72.6752 31.8798 72.3979 32.1745C72.1249 32.4692 71.7912 32.6967 71.3969 32.857C71.0069 33.013 70.5692 33.091 70.0839 33.091C69.5942 33.091 69.1522 33.013 68.7579 32.857C68.3679 32.6967 68.0342 32.4692 67.7569 32.1745C67.4796 31.8798 67.2651 31.5223 67.1134 31.102C66.9661 30.6817 66.8924 30.2115 66.8924 29.6915C66.8924 29.1715 66.9661 28.7035 67.1134 28.2875C67.2651 27.8672 67.4796 27.5097 67.7569 27.215C68.0342 26.916 68.3679 26.6885 68.7579 26.5325C69.1522 26.3722 69.5942 26.292 70.0839 26.292ZM70.0839 32.103C70.7079 32.103 71.1737 31.8928 71.4814 31.4725C71.7891 31.0522 71.9429 30.4607 71.9429 29.698C71.9429 28.9353 71.7891 28.3438 71.4814 27.9235C71.1737 27.4988 70.7079 27.2865 70.0839 27.2865C69.4512 27.2865 68.9789 27.4988 68.6669 27.9235C68.3592 28.3438 68.2054 28.9353 68.2054 29.698C68.2054 30.4607 68.3592 31.0522 68.6669 31.4725C68.9789 31.8928 69.4512 32.103 70.0839 32.103ZM80.1633 26.396V33H79.4028C79.2294 33 79.1168 32.9155 79.0648 32.7465L78.9738 32.0835C78.8308 32.2352 78.6813 32.3738 78.5253 32.4995C78.3693 32.6252 78.2024 32.7335 78.0248 32.8245C77.8471 32.9112 77.6586 32.9783 77.4593 33.026C77.2599 33.078 77.0454 33.104 76.8158 33.104C76.4518 33.104 76.1311 33.0433 75.8538 32.922C75.5808 32.8007 75.3511 32.6317 75.1648 32.415C74.9784 32.194 74.8376 31.9297 74.7423 31.622C74.6469 31.3143 74.5993 30.9742 74.5993 30.6015V26.396H75.8733V30.6015C75.8733 31.0738 75.9816 31.4422 76.1983 31.7065C76.4149 31.9665 76.7464 32.0965 77.1928 32.0965C77.5178 32.0965 77.8211 32.0207 78.1028 31.869C78.3844 31.713 78.6488 31.5007 78.8958 31.232V26.396H80.1633ZM83.9995 33.104C83.4665 33.104 83.0548 32.9545 82.7645 32.6555C82.4785 32.3565 82.3355 31.9297 82.3355 31.375V27.423H81.5685C81.4948 27.423 81.432 27.4013 81.38 27.358C81.3323 27.3103 81.3085 27.241 81.3085 27.15V26.6365L82.381 26.487L82.667 24.5175C82.6843 24.4438 82.7168 24.3875 82.7645 24.3485C82.8165 24.3052 82.8815 24.2835 82.9595 24.2835H83.603V26.5H85.475V27.423H83.603V31.2905C83.603 31.5505 83.6658 31.7455 83.7915 31.8755C83.9215 32.0012 84.0862 32.064 84.2855 32.064C84.4025 32.064 84.5022 32.0488 84.5845 32.0185C84.6712 31.9882 84.7448 31.9557 84.8055 31.921C84.8662 31.882 84.9182 31.8473 84.9615 31.817C85.0048 31.7867 85.0438 31.7715 85.0785 31.7715C85.1218 31.7715 85.1543 31.7823 85.176 31.804C85.202 31.8213 85.228 31.8517 85.254 31.895L85.631 32.506C85.423 32.6967 85.176 32.844 84.89 32.948C84.604 33.052 84.3072 33.104 83.9995 33.104ZM89.9305 33V26.396H90.691C90.8687 26.396 90.9792 26.4805 91.0225 26.6495L91.1135 27.28C91.3562 26.9897 91.6249 26.7535 91.9195 26.5715C92.2185 26.3852 92.5674 26.292 92.966 26.292C93.4037 26.292 93.759 26.4133 94.032 26.656C94.305 26.8943 94.5044 27.2193 94.63 27.631C94.7254 27.397 94.8489 27.1955 95.0005 27.0265C95.1522 26.8575 95.3212 26.7188 95.5075 26.6105C95.6939 26.5022 95.891 26.422 96.099 26.37C96.3114 26.318 96.5259 26.292 96.7425 26.292C97.0935 26.292 97.4055 26.3483 97.6785 26.461C97.9559 26.5693 98.1899 26.7297 98.3805 26.942C98.5712 27.1543 98.7164 27.4165 98.816 27.7285C98.9157 28.0405 98.9655 28.3958 98.9655 28.7945V33H97.6915V28.7945C97.6915 28.3005 97.5832 27.9278 97.3665 27.6765C97.1542 27.4252 96.8422 27.2995 96.4305 27.2995C96.2485 27.2995 96.0752 27.332 95.9105 27.397C95.7459 27.4577 95.6007 27.5508 95.475 27.6765C95.3537 27.8022 95.2562 27.9582 95.1825 28.1445C95.1132 28.3308 95.0785 28.5475 95.0785 28.7945V33H93.8045V28.7945C93.8045 28.2832 93.7027 27.9062 93.499 27.6635C93.2954 27.4208 92.9964 27.2995 92.602 27.2995C92.329 27.2995 92.0755 27.371 91.8415 27.514C91.6075 27.657 91.393 27.852 91.198 28.099V33H89.9305ZM104.22 30.0685C103.704 30.0858 103.266 30.127 102.907 30.192C102.547 30.2527 102.255 30.335 102.029 30.439C101.804 30.543 101.641 30.6665 101.542 30.8095C101.442 30.9482 101.392 31.1042 101.392 31.2775C101.392 31.4422 101.418 31.5852 101.47 31.7065C101.527 31.8235 101.6 31.921 101.691 31.999C101.787 32.0727 101.897 32.1268 102.023 32.1615C102.148 32.1962 102.285 32.2135 102.432 32.2135C102.627 32.2135 102.805 32.194 102.965 32.155C103.13 32.116 103.284 32.0618 103.427 31.9925C103.57 31.9188 103.706 31.83 103.836 31.726C103.966 31.622 104.094 31.5028 104.22 31.3685V30.0685ZM100.502 27.319C100.87 26.968 101.269 26.7058 101.698 26.5325C102.131 26.3592 102.606 26.2725 103.121 26.2725C103.498 26.2725 103.832 26.3353 104.122 26.461C104.413 26.5823 104.657 26.7535 104.857 26.9745C105.056 27.1955 105.206 27.4598 105.305 27.7675C105.409 28.0752 105.461 28.4153 105.461 28.788V33H104.896C104.77 33 104.675 32.9805 104.61 32.9415C104.545 32.8982 104.493 32.8202 104.454 32.7075L104.317 32.129C104.148 32.285 103.981 32.4237 103.817 32.545C103.652 32.662 103.479 32.7638 103.297 32.8505C103.119 32.9328 102.928 32.9957 102.725 33.039C102.521 33.0823 102.296 33.104 102.049 33.104C101.789 33.104 101.544 33.0693 101.314 33C101.089 32.9263 100.892 32.8158 100.723 32.6685C100.554 32.5212 100.419 32.337 100.32 32.116C100.224 31.895 100.177 31.6372 100.177 31.3425C100.177 31.0825 100.246 30.8333 100.385 30.595C100.528 30.3523 100.757 30.1357 101.074 29.945C101.394 29.7543 101.81 29.5983 102.322 29.477C102.837 29.3557 103.47 29.2863 104.22 29.269V28.788C104.22 28.2897 104.114 27.917 103.901 27.67C103.689 27.423 103.377 27.2995 102.965 27.2995C102.688 27.2995 102.454 27.3342 102.263 27.4035C102.077 27.4728 101.914 27.5508 101.776 27.6375C101.641 27.7198 101.522 27.7957 101.418 27.865C101.319 27.9343 101.215 27.969 101.106 27.969C101.02 27.969 100.944 27.9452 100.879 27.8975C100.818 27.8498 100.768 27.7935 100.729 27.7285L100.502 27.319ZM108.354 27.6635C108.566 27.2302 108.822 26.89 109.121 26.643C109.42 26.396 109.78 26.2725 110.2 26.2725C110.343 26.2725 110.477 26.2898 110.603 26.3245C110.733 26.3548 110.846 26.4025 110.941 26.4675L110.857 27.423C110.826 27.54 110.755 27.5985 110.642 27.5985C110.581 27.5985 110.49 27.5877 110.369 27.566C110.248 27.54 110.118 27.527 109.979 27.527C109.775 27.527 109.596 27.5573 109.44 27.618C109.284 27.6743 109.143 27.761 109.017 27.878C108.896 27.9907 108.787 28.1315 108.692 28.3005C108.597 28.4652 108.508 28.6537 108.426 28.866V33H107.158V26.396H107.886C108.025 26.396 108.118 26.422 108.166 26.474C108.218 26.5217 108.254 26.6083 108.276 26.734L108.354 27.6635ZM113.186 23.406V29.0155H113.485C113.576 29.0155 113.652 29.0025 113.713 28.9765C113.773 28.9505 113.836 28.8985 113.901 28.8205L115.877 26.643C115.938 26.5607 116.005 26.5 116.079 26.461C116.152 26.4177 116.246 26.396 116.358 26.396H117.515L115.182 28.9505C115.056 29.1108 114.922 29.2343 114.779 29.321C114.861 29.3773 114.933 29.4423 114.993 29.516C115.058 29.5897 115.121 29.6698 115.182 29.7565L117.665 33H116.527C116.423 33 116.332 32.9827 116.254 32.948C116.181 32.9133 116.113 32.8505 116.053 32.7595L114.012 30.1075C113.947 30.0078 113.882 29.945 113.817 29.919C113.752 29.8887 113.654 29.8735 113.524 29.8735H113.186V33H111.919V23.406H113.186ZM122.616 28.9635C122.616 28.7122 122.579 28.4803 122.505 28.268C122.436 28.0557 122.332 27.8715 122.193 27.7155C122.054 27.5595 121.885 27.4382 121.686 27.3515C121.487 27.2648 121.257 27.2215 120.997 27.2215C120.464 27.2215 120.044 27.3753 119.736 27.683C119.433 27.9907 119.24 28.4175 119.158 28.9635H122.616ZM123.662 32.0575C123.506 32.2395 123.326 32.3977 123.123 32.532C122.919 32.662 122.702 32.7682 122.473 32.8505C122.243 32.9328 122.005 32.9935 121.758 33.0325C121.515 33.0715 121.274 33.091 121.036 33.091C120.581 33.091 120.159 33.0152 119.769 32.8635C119.383 32.7075 119.047 32.4822 118.761 32.1875C118.479 31.8885 118.258 31.5202 118.098 31.0825C117.942 30.6405 117.864 30.1335 117.864 29.5615C117.864 29.1022 117.936 28.6753 118.079 28.281C118.222 27.8823 118.425 27.5357 118.69 27.241C118.958 26.9463 119.285 26.7145 119.671 26.5455C120.057 26.3765 120.49 26.292 120.971 26.292C121.374 26.292 121.745 26.3592 122.083 26.4935C122.425 26.6235 122.72 26.8142 122.967 27.0655C123.214 27.3168 123.406 27.6267 123.545 27.995C123.688 28.3633 123.76 28.7837 123.76 29.256C123.76 29.451 123.738 29.5832 123.695 29.6525C123.651 29.7175 123.571 29.75 123.454 29.75H119.125C119.138 30.1443 119.194 30.4888 119.294 30.7835C119.394 31.0738 119.53 31.3165 119.704 31.5115C119.881 31.7065 120.091 31.8517 120.334 31.947C120.577 32.0423 120.848 32.09 121.147 32.09C121.428 32.09 121.671 32.0575 121.875 31.9925C122.083 31.9275 122.26 31.8582 122.408 31.7845C122.559 31.7065 122.685 31.635 122.785 31.57C122.889 31.505 122.98 31.4725 123.058 31.4725C123.162 31.4725 123.242 31.5115 123.298 31.5895L123.662 32.0575ZM127.138 33.104C126.605 33.104 126.193 32.9545 125.903 32.6555C125.617 32.3565 125.474 31.9297 125.474 31.375V27.423H124.707C124.633 27.423 124.571 27.4013 124.519 27.358C124.471 27.3103 124.447 27.241 124.447 27.15V26.6365L125.52 26.487L125.806 24.5175C125.823 24.4438 125.855 24.3875 125.903 24.3485C125.955 24.3052 126.02 24.2835 126.098 24.2835H126.742V26.5H128.614V27.423H126.742V31.2905C126.742 31.5505 126.804 31.7455 126.93 31.8755C127.06 32.0012 127.225 32.064 127.424 32.064C127.541 32.064 127.641 32.0488 127.723 32.0185C127.81 31.9882 127.883 31.9557 127.944 31.921C128.005 31.882 128.057 31.8473 128.1 31.817C128.143 31.7867 128.182 31.7715 128.217 31.7715C128.26 31.7715 128.293 31.7823 128.315 31.804C128.341 31.8213 128.367 31.8517 128.393 31.895L128.77 32.506C128.562 32.6967 128.315 32.844 128.029 32.948C127.743 33.052 127.446 33.104 127.138 33.104ZM134.265 27.6635C134.478 27.2302 134.733 26.89 135.032 26.643C135.331 26.396 135.691 26.2725 136.111 26.2725C136.254 26.2725 136.389 26.2898 136.514 26.3245C136.644 26.3548 136.757 26.4025 136.852 26.4675L136.768 27.423C136.737 27.54 136.666 27.5985 136.553 27.5985C136.493 27.5985 136.402 27.5877 136.28 27.566C136.159 27.54 136.029 27.527 135.89 27.527C135.687 27.527 135.507 27.5573 135.351 27.618C135.195 27.6743 135.054 27.761 134.928 27.878C134.807 27.9907 134.699 28.1315 134.603 28.3005C134.508 28.4652 134.419 28.6537 134.337 28.866V33H133.069V26.396H133.797C133.936 26.396 134.029 26.422 134.077 26.474C134.129 26.5217 134.166 26.6083 134.187 26.734L134.265 27.6635ZM141.963 28.9635C141.963 28.7122 141.926 28.4803 141.853 28.268C141.783 28.0557 141.679 27.8715 141.541 27.7155C141.402 27.5595 141.233 27.4382 141.034 27.3515C140.834 27.2648 140.605 27.2215 140.345 27.2215C139.812 27.2215 139.391 27.3753 139.084 27.683C138.78 27.9907 138.588 28.4175 138.505 28.9635H141.963ZM143.01 32.0575C142.854 32.2395 142.674 32.3977 142.47 32.532C142.267 32.662 142.05 32.7682 141.82 32.8505C141.591 32.9328 141.352 32.9935 141.105 33.0325C140.863 33.0715 140.622 33.091 140.384 33.091C139.929 33.091 139.506 33.0152 139.116 32.8635C138.731 32.7075 138.395 32.4822 138.109 32.1875C137.827 31.8885 137.606 31.5202 137.446 31.0825C137.29 30.6405 137.212 30.1335 137.212 29.5615C137.212 29.1022 137.283 28.6753 137.426 28.281C137.569 27.8823 137.773 27.5357 138.037 27.241C138.306 26.9463 138.633 26.7145 139.019 26.5455C139.404 26.3765 139.838 26.292 140.319 26.292C140.722 26.292 141.092 26.3592 141.43 26.4935C141.773 26.6235 142.067 26.8142 142.314 27.0655C142.561 27.3168 142.754 27.6267 142.893 27.995C143.036 28.3633 143.107 28.7837 143.107 29.256C143.107 29.451 143.086 29.5832 143.042 29.6525C142.999 29.7175 142.919 29.75 142.802 29.75H138.473C138.486 30.1443 138.542 30.4888 138.642 30.7835C138.741 31.0738 138.878 31.3165 139.051 31.5115C139.229 31.7065 139.439 31.8517 139.682 31.947C139.924 32.0423 140.195 32.09 140.494 32.09C140.776 32.09 141.019 32.0575 141.222 31.9925C141.43 31.9275 141.608 31.8582 141.755 31.7845C141.907 31.7065 142.033 31.635 142.132 31.57C142.236 31.505 142.327 31.4725 142.405 31.4725C142.509 31.4725 142.589 31.5115 142.646 31.5895L143.01 32.0575ZM148.363 27.5335C148.328 27.5898 148.292 27.631 148.253 27.657C148.214 27.6787 148.164 27.6895 148.103 27.6895C148.034 27.6895 147.956 27.6657 147.869 27.618C147.787 27.5703 147.685 27.5183 147.564 27.462C147.447 27.4057 147.308 27.3537 147.148 27.306C146.987 27.2583 146.797 27.2345 146.576 27.2345C146.394 27.2345 146.227 27.2583 146.075 27.306C145.928 27.3493 145.802 27.4122 145.698 27.4945C145.594 27.5725 145.514 27.6678 145.458 27.7805C145.401 27.8888 145.373 28.0058 145.373 28.1315C145.373 28.2962 145.421 28.4327 145.516 28.541C145.616 28.6493 145.744 28.7425 145.9 28.8205C146.06 28.8985 146.24 28.97 146.439 29.035C146.643 29.0957 146.849 29.1607 147.057 29.23C147.269 29.2993 147.475 29.3795 147.674 29.4705C147.878 29.5572 148.058 29.6677 148.214 29.802C148.374 29.932 148.502 30.0902 148.597 30.2765C148.697 30.4628 148.747 30.6903 148.747 30.959C148.747 31.2667 148.69 31.5527 148.578 31.817C148.469 32.077 148.307 32.3023 148.09 32.493C147.878 32.6837 147.613 32.8332 147.297 32.9415C146.981 33.0498 146.619 33.104 146.212 33.104C145.757 33.104 145.336 33.0282 144.951 32.8765C144.565 32.7248 144.242 32.532 143.982 32.298L144.281 31.8105C144.316 31.7498 144.359 31.7043 144.411 31.674C144.463 31.6393 144.532 31.622 144.619 31.622C144.701 31.622 144.786 31.6523 144.873 31.713C144.959 31.7737 145.063 31.8408 145.185 31.9145C145.306 31.9838 145.453 32.0488 145.627 32.1095C145.8 32.1658 146.017 32.194 146.277 32.194C146.493 32.194 146.682 32.168 146.842 32.116C147.002 32.0597 147.135 31.986 147.239 31.895C147.347 31.7997 147.427 31.6913 147.479 31.57C147.531 31.4487 147.557 31.3208 147.557 31.1865C147.557 31.0132 147.507 30.8702 147.408 30.7575C147.312 30.6405 147.184 30.5408 147.024 30.4585C146.868 30.3762 146.688 30.3047 146.485 30.244C146.281 30.1833 146.073 30.1183 145.861 30.049C145.648 29.9797 145.44 29.8995 145.237 29.8085C145.033 29.7175 144.851 29.6027 144.691 29.464C144.535 29.3253 144.407 29.1563 144.307 28.957C144.212 28.7577 144.164 28.515 144.164 28.229C144.164 27.9733 144.216 27.7285 144.32 27.4945C144.428 27.2605 144.582 27.0547 144.782 26.877C144.985 26.6993 145.234 26.5585 145.529 26.4545C145.828 26.3462 146.168 26.292 146.55 26.292C146.987 26.292 147.382 26.3613 147.733 26.5C148.088 26.6387 148.391 26.8293 148.643 27.072L148.363 27.5335ZM154.494 28.9635C154.494 28.7122 154.457 28.4803 154.383 28.268C154.314 28.0557 154.21 27.8715 154.071 27.7155C153.932 27.5595 153.763 27.4382 153.564 27.3515C153.365 27.2648 153.135 27.2215 152.875 27.2215C152.342 27.2215 151.922 27.3753 151.614 27.683C151.311 27.9907 151.118 28.4175 151.036 28.9635H154.494ZM155.54 32.0575C155.384 32.2395 155.204 32.3977 155.001 32.532C154.797 32.662 154.58 32.7682 154.351 32.8505C154.121 32.9328 153.883 32.9935 153.636 33.0325C153.393 33.0715 153.152 33.091 152.914 33.091C152.459 33.091 152.037 33.0152 151.647 32.8635C151.261 32.7075 150.925 32.4822 150.639 32.1875C150.357 31.8885 150.136 31.5202 149.976 31.0825C149.82 30.6405 149.742 30.1335 149.742 29.5615C149.742 29.1022 149.814 28.6753 149.957 28.281C150.1 27.8823 150.303 27.5357 150.568 27.241C150.836 26.9463 151.163 26.7145 151.549 26.5455C151.935 26.3765 152.368 26.292 152.849 26.292C153.252 26.292 153.623 26.3592 153.961 26.4935C154.303 26.6235 154.598 26.8142 154.845 27.0655C155.092 27.3168 155.284 27.6267 155.423 27.995C155.566 28.3633 155.638 28.7837 155.638 29.256C155.638 29.451 155.616 29.5832 155.573 29.6525C155.529 29.7175 155.449 29.75 155.332 29.75H151.003C151.016 30.1443 151.072 30.4888 151.172 30.7835C151.272 31.0738 151.408 31.3165 151.582 31.5115C151.759 31.7065 151.969 31.8517 152.212 31.947C152.455 32.0423 152.726 32.09 153.025 32.09C153.306 32.09 153.549 32.0575 153.753 31.9925C153.961 31.9275 154.138 31.8582 154.286 31.7845C154.437 31.7065 154.563 31.635 154.663 31.57C154.767 31.505 154.858 31.4725 154.936 31.4725C155.04 31.4725 155.12 31.5115 155.176 31.5895L155.54 32.0575ZM160.549 30.0685C160.033 30.0858 159.596 30.127 159.236 30.192C158.876 30.2527 158.584 30.335 158.358 30.439C158.133 30.543 157.971 30.6665 157.871 30.8095C157.771 30.9482 157.721 31.1042 157.721 31.2775C157.721 31.4422 157.747 31.5852 157.799 31.7065C157.856 31.8235 157.929 31.921 158.02 31.999C158.116 32.0727 158.226 32.1268 158.352 32.1615C158.478 32.1962 158.614 32.2135 158.761 32.2135C158.956 32.2135 159.134 32.194 159.294 32.155C159.459 32.116 159.613 32.0618 159.756 31.9925C159.899 31.9188 160.035 31.83 160.165 31.726C160.295 31.622 160.423 31.5028 160.549 31.3685V30.0685ZM156.831 27.319C157.199 26.968 157.598 26.7058 158.027 26.5325C158.46 26.3592 158.935 26.2725 159.45 26.2725C159.827 26.2725 160.161 26.3353 160.451 26.461C160.742 26.5823 160.987 26.7535 161.186 26.9745C161.385 27.1955 161.535 27.4598 161.634 27.7675C161.738 28.0752 161.79 28.4153 161.79 28.788V33H161.225C161.099 33 161.004 32.9805 160.939 32.9415C160.874 32.8982 160.822 32.8202 160.783 32.7075L160.646 32.129C160.477 32.285 160.311 32.4237 160.146 32.545C159.981 32.662 159.808 32.7638 159.626 32.8505C159.448 32.9328 159.258 32.9957 159.054 33.039C158.85 33.0823 158.625 33.104 158.378 33.104C158.118 33.104 157.873 33.0693 157.643 33C157.418 32.9263 157.221 32.8158 157.052 32.6685C156.883 32.5212 156.749 32.337 156.649 32.116C156.554 31.895 156.506 31.6372 156.506 31.3425C156.506 31.0825 156.575 30.8333 156.714 30.595C156.857 30.3523 157.087 30.1357 157.403 29.945C157.724 29.7543 158.14 29.5983 158.651 29.477C159.167 29.3557 159.799 29.2863 160.549 29.269V28.788C160.549 28.2897 160.443 27.917 160.23 27.67C160.018 27.423 159.706 27.2995 159.294 27.2995C159.017 27.2995 158.783 27.3342 158.592 27.4035C158.406 27.4728 158.244 27.5508 158.105 27.6375C157.971 27.7198 157.851 27.7957 157.747 27.865C157.648 27.9343 157.544 27.969 157.435 27.969C157.349 27.969 157.273 27.9452 157.208 27.8975C157.147 27.8498 157.097 27.7935 157.058 27.7285L156.831 27.319ZM164.683 27.6635C164.896 27.2302 165.151 26.89 165.45 26.643C165.749 26.396 166.109 26.2725 166.529 26.2725C166.672 26.2725 166.807 26.2898 166.932 26.3245C167.062 26.3548 167.175 26.4025 167.27 26.4675L167.186 27.423C167.155 27.54 167.084 27.5985 166.971 27.5985C166.911 27.5985 166.82 27.5877 166.698 27.566C166.577 27.54 166.447 27.527 166.308 27.527C166.105 27.527 165.925 27.5573 165.769 27.618C165.613 27.6743 165.472 27.761 165.346 27.878C165.225 27.9907 165.117 28.1315 165.021 28.3005C164.926 28.4652 164.837 28.6537 164.755 28.866V33H163.487V26.396H164.215C164.354 26.396 164.447 26.422 164.495 26.474C164.547 26.5217 164.584 26.6083 164.605 26.734L164.683 27.6635ZM172.635 27.631C172.596 27.6787 172.557 27.7177 172.518 27.748C172.483 27.774 172.431 27.787 172.362 27.787C172.292 27.787 172.219 27.761 172.141 27.709C172.067 27.6527 171.972 27.5942 171.855 27.5335C171.742 27.4685 171.603 27.41 171.439 27.358C171.278 27.3017 171.079 27.2735 170.841 27.2735C170.529 27.2735 170.254 27.3298 170.015 27.4425C169.777 27.5552 169.578 27.7155 169.417 27.9235C169.261 28.1315 169.142 28.385 169.06 28.684C168.977 28.983 168.936 29.3188 168.936 29.6915C168.936 30.0772 168.98 30.4217 169.066 30.725C169.153 31.024 169.276 31.2775 169.437 31.4855C169.597 31.6892 169.792 31.8452 170.022 31.9535C170.251 32.0575 170.507 32.1095 170.789 32.1095C171.062 32.1095 171.287 32.077 171.465 32.012C171.642 31.9427 171.79 31.869 171.907 31.791C172.024 31.713 172.121 31.6415 172.199 31.5765C172.277 31.5072 172.357 31.4725 172.44 31.4725C172.544 31.4725 172.624 31.5115 172.68 31.5895L173.044 32.0575C172.893 32.2438 172.721 32.402 172.531 32.532C172.344 32.662 172.145 32.7682 171.933 32.8505C171.72 32.9328 171.497 32.9935 171.263 33.0325C171.034 33.0715 170.8 33.091 170.561 33.091C170.15 33.091 169.764 33.0152 169.404 32.8635C169.049 32.7118 168.739 32.4908 168.475 32.2005C168.215 31.9102 168.009 31.5548 167.857 31.1345C167.706 30.7098 167.63 30.2288 167.63 29.6915C167.63 29.2018 167.697 28.749 167.831 28.333C167.97 27.917 168.171 27.5595 168.436 27.2605C168.704 26.9572 169.034 26.721 169.424 26.552C169.814 26.3787 170.26 26.292 170.763 26.292C171.235 26.292 171.651 26.3678 172.011 26.5195C172.37 26.6712 172.691 26.8857 172.973 27.163L172.635 27.631ZM175.495 27.2345C175.772 26.9528 176.078 26.7253 176.411 26.552C176.749 26.3787 177.137 26.292 177.575 26.292C177.939 26.292 178.257 26.3527 178.53 26.474C178.808 26.5953 179.04 26.7665 179.226 26.9875C179.412 27.2042 179.553 27.4663 179.648 27.774C179.744 28.0817 179.791 28.4218 179.791 28.7945V33H178.517V28.7945C178.517 28.3222 178.409 27.956 178.192 27.696C177.976 27.4317 177.644 27.2995 177.198 27.2995C176.873 27.2995 176.567 27.3775 176.281 27.5335C176 27.6852 175.738 27.8932 175.495 28.1575V33H174.227V23.406H175.495V27.2345ZM187.604 26.292C188.09 26.292 188.527 26.3722 188.917 26.5325C189.312 26.6885 189.645 26.916 189.918 27.215C190.196 27.5097 190.408 27.8672 190.555 28.2875C190.703 28.7035 190.776 29.1715 190.776 29.6915C190.776 30.2115 190.703 30.6817 190.555 31.102C190.408 31.5223 190.196 31.8798 189.918 32.1745C189.645 32.4692 189.312 32.6967 188.917 32.857C188.527 33.013 188.09 33.091 187.604 33.091C187.115 33.091 186.673 33.013 186.278 32.857C185.888 32.6967 185.555 32.4692 185.277 32.1745C185 31.8798 184.786 31.5223 184.634 31.102C184.487 30.6817 184.413 30.2115 184.413 29.6915C184.413 29.1715 184.487 28.7035 184.634 28.2875C184.786 27.8672 185 27.5097 185.277 27.215C185.555 26.916 185.888 26.6885 186.278 26.5325C186.673 26.3722 187.115 26.292 187.604 26.292ZM187.604 32.103C188.228 32.103 188.694 31.8928 189.002 31.4725C189.31 31.0522 189.463 30.4607 189.463 29.698C189.463 28.9353 189.31 28.3438 189.002 27.9235C188.694 27.4988 188.228 27.2865 187.604 27.2865C186.972 27.2865 186.499 27.4988 186.187 27.9235C185.88 28.3438 185.726 28.9353 185.726 29.698C185.726 30.4607 185.88 31.0522 186.187 31.4725C186.499 31.8928 186.972 32.103 187.604 32.103ZM193.387 27.6635C193.6 27.2302 193.855 26.89 194.154 26.643C194.453 26.396 194.813 26.2725 195.233 26.2725C195.376 26.2725 195.511 26.2898 195.636 26.3245C195.766 26.3548 195.879 26.4025 195.974 26.4675L195.89 27.423C195.859 27.54 195.788 27.5985 195.675 27.5985C195.615 27.5985 195.524 27.5877 195.402 27.566C195.281 27.54 195.151 27.527 195.012 27.527C194.809 27.527 194.629 27.5573 194.473 27.618C194.317 27.6743 194.176 27.761 194.05 27.878C193.929 27.9907 193.821 28.1315 193.725 28.3005C193.63 28.4652 193.541 28.6537 193.459 28.866V33H192.191V26.396H192.919C193.058 26.396 193.151 26.422 193.199 26.474C193.251 26.5217 193.288 26.6083 193.309 26.734L193.387 27.6635ZM205.453 26.396V33H204.693C204.519 33 204.407 32.9155 204.355 32.7465L204.264 32.0835C204.121 32.2352 203.971 32.3738 203.815 32.4995C203.659 32.6252 203.492 32.7335 203.315 32.8245C203.137 32.9112 202.949 32.9783 202.749 33.026C202.55 33.078 202.335 33.104 202.106 33.104C201.742 33.104 201.421 33.0433 201.144 32.922C200.871 32.8007 200.641 32.6317 200.455 32.415C200.268 32.194 200.128 31.9297 200.032 31.622C199.937 31.3143 199.889 30.9742 199.889 30.6015V26.396H201.163V30.6015C201.163 31.0738 201.272 31.4422 201.488 31.7065C201.705 31.9665 202.036 32.0965 202.483 32.0965C202.808 32.0965 203.111 32.0207 203.393 31.869C203.674 31.713 203.939 31.5007 204.186 31.232V26.396H205.453ZM211.116 27.5335C211.081 27.5898 211.045 27.631 211.006 27.657C210.967 27.6787 210.917 27.6895 210.856 27.6895C210.787 27.6895 210.709 27.6657 210.622 27.618C210.54 27.5703 210.438 27.5183 210.317 27.462C210.2 27.4057 210.061 27.3537 209.901 27.306C209.74 27.2583 209.55 27.2345 209.329 27.2345C209.147 27.2345 208.98 27.2583 208.828 27.306C208.681 27.3493 208.555 27.4122 208.451 27.4945C208.347 27.5725 208.267 27.6678 208.211 27.7805C208.154 27.8888 208.126 28.0058 208.126 28.1315C208.126 28.2962 208.174 28.4327 208.269 28.541C208.369 28.6493 208.497 28.7425 208.653 28.8205C208.813 28.8985 208.993 28.97 209.192 29.035C209.396 29.0957 209.602 29.1607 209.81 29.23C210.022 29.2993 210.228 29.3795 210.427 29.4705C210.631 29.5572 210.811 29.6677 210.967 29.802C211.127 29.932 211.255 30.0902 211.35 30.2765C211.45 30.4628 211.5 30.6903 211.5 30.959C211.5 31.2667 211.443 31.5527 211.331 31.817C211.222 32.077 211.06 32.3023 210.843 32.493C210.631 32.6837 210.366 32.8332 210.05 32.9415C209.734 33.0498 209.372 33.104 208.965 33.104C208.51 33.104 208.089 33.0282 207.704 32.8765C207.318 32.7248 206.995 32.532 206.735 32.298L207.034 31.8105C207.069 31.7498 207.112 31.7043 207.164 31.674C207.216 31.6393 207.285 31.622 207.372 31.622C207.454 31.622 207.539 31.6523 207.626 31.713C207.712 31.7737 207.816 31.8408 207.938 31.9145C208.059 31.9838 208.206 32.0488 208.38 32.1095C208.553 32.1658 208.77 32.194 209.03 32.194C209.246 32.194 209.435 32.168 209.595 32.116C209.755 32.0597 209.888 31.986 209.992 31.895C210.1 31.7997 210.18 31.6913 210.232 31.57C210.284 31.4487 210.31 31.3208 210.31 31.1865C210.31 31.0132 210.26 30.8702 210.161 30.7575C210.065 30.6405 209.937 30.5408 209.777 30.4585C209.621 30.3762 209.441 30.3047 209.238 30.244C209.034 30.1833 208.826 30.1183 208.614 30.049C208.401 29.9797 208.193 29.8995 207.99 29.8085C207.786 29.7175 207.604 29.6027 207.444 29.464C207.288 29.3253 207.16 29.1563 207.06 28.957C206.965 28.7577 206.917 28.515 206.917 28.229C206.917 27.9733 206.969 27.7285 207.073 27.4945C207.181 27.2605 207.335 27.0547 207.535 26.877C207.738 26.6993 207.987 26.5585 208.282 26.4545C208.581 26.3462 208.921 26.292 209.303 26.292C209.74 26.292 210.135 26.3613 210.486 26.5C210.841 26.6387 211.144 26.8293 211.396 27.072L211.116 27.5335ZM217.246 28.9635C217.246 28.7122 217.21 28.4803 217.136 28.268C217.067 28.0557 216.963 27.8715 216.824 27.7155C216.685 27.5595 216.516 27.4382 216.317 27.3515C216.118 27.2648 215.888 27.2215 215.628 27.2215C215.095 27.2215 214.675 27.3753 214.367 27.683C214.064 27.9907 213.871 28.4175 213.788 28.9635H217.246ZM218.293 32.0575C218.137 32.2395 217.957 32.3977 217.753 32.532C217.55 32.662 217.333 32.7682 217.103 32.8505C216.874 32.9328 216.635 32.9935 216.388 33.0325C216.146 33.0715 215.905 33.091 215.667 33.091C215.212 33.091 214.789 33.0152 214.399 32.8635C214.014 32.7075 213.678 32.4822 213.392 32.1875C213.11 31.8885 212.889 31.5202 212.729 31.0825C212.573 30.6405 212.495 30.1335 212.495 29.5615C212.495 29.1022 212.566 28.6753 212.709 28.281C212.852 27.8823 213.056 27.5357 213.32 27.241C213.589 26.9463 213.916 26.7145 214.302 26.5455C214.688 26.3765 215.121 26.292 215.602 26.292C216.005 26.292 216.375 26.3592 216.713 26.4935C217.056 26.6235 217.35 26.8142 217.597 27.0655C217.844 27.3168 218.037 27.6267 218.176 27.995C218.319 28.3633 218.39 28.7837 218.39 29.256C218.39 29.451 218.369 29.5832 218.325 29.6525C218.282 29.7175 218.202 29.75 218.085 29.75H213.756C213.769 30.1443 213.825 30.4888 213.925 30.7835C214.025 31.0738 214.161 31.3165 214.334 31.5115C214.512 31.7065 214.722 31.8517 214.965 31.947C215.208 32.0423 215.478 32.09 215.777 32.09C216.059 32.09 216.302 32.0575 216.505 31.9925C216.713 31.9275 216.891 31.8582 217.038 31.7845C217.19 31.7065 217.316 31.635 217.415 31.57C217.519 31.505 217.61 31.4725 217.688 31.4725C217.792 31.4725 217.873 31.5115 217.929 31.5895L218.293 32.0575ZM220.949 27.6635C221.161 27.2302 221.417 26.89 221.716 26.643C222.015 26.396 222.374 26.2725 222.795 26.2725C222.938 26.2725 223.072 26.2898 223.198 26.3245C223.328 26.3548 223.44 26.4025 223.536 26.4675L223.451 27.423C223.421 27.54 223.349 27.5985 223.237 27.5985C223.176 27.5985 223.085 27.5877 222.964 27.566C222.842 27.54 222.712 27.527 222.574 27.527C222.37 27.527 222.19 27.5573 222.034 27.618C221.878 27.6743 221.737 27.761 221.612 27.878C221.49 27.9907 221.382 28.1315 221.287 28.3005C221.191 28.4652 221.103 28.6537 221.02 28.866V33H219.753V26.396H220.481C220.619 26.396 220.713 26.422 220.76 26.474C220.812 26.5217 220.849 26.6083 220.871 26.734L220.949 27.6635ZM228.718 27.6635C228.931 27.2302 229.186 26.89 229.485 26.643C229.784 26.396 230.144 26.2725 230.564 26.2725C230.707 26.2725 230.842 26.2898 230.967 26.3245C231.097 26.3548 231.21 26.4025 231.305 26.4675L231.221 27.423C231.191 27.54 231.119 27.5985 231.006 27.5985C230.946 27.5985 230.855 27.5877 230.733 27.566C230.612 27.54 230.482 27.527 230.343 27.527C230.14 27.527 229.96 27.5573 229.804 27.618C229.648 27.6743 229.507 27.761 229.381 27.878C229.26 27.9907 229.152 28.1315 229.056 28.3005C228.961 28.4652 228.872 28.6537 228.79 28.866V33H227.522V26.396H228.25C228.389 26.396 228.482 26.422 228.53 26.474C228.582 26.5217 228.619 26.6083 228.64 26.734L228.718 27.6635ZM236.416 28.9635C236.416 28.7122 236.38 28.4803 236.306 28.268C236.237 28.0557 236.133 27.8715 235.994 27.7155C235.855 27.5595 235.686 27.4382 235.487 27.3515C235.288 27.2648 235.058 27.2215 234.798 27.2215C234.265 27.2215 233.845 27.3753 233.537 27.683C233.234 27.9907 233.041 28.4175 232.958 28.9635H236.416ZM237.463 32.0575C237.307 32.2395 237.127 32.3977 236.923 32.532C236.72 32.662 236.503 32.7682 236.273 32.8505C236.044 32.9328 235.805 32.9935 235.558 33.0325C235.316 33.0715 235.075 33.091 234.837 33.091C234.382 33.091 233.959 33.0152 233.569 32.8635C233.184 32.7075 232.848 32.4822 232.562 32.1875C232.28 31.8885 232.059 31.5202 231.899 31.0825C231.743 30.6405 231.665 30.1335 231.665 29.5615C231.665 29.1022 231.736 28.6753 231.879 28.281C232.022 27.8823 232.226 27.5357 232.49 27.241C232.759 26.9463 233.086 26.7145 233.472 26.5455C233.858 26.3765 234.291 26.292 234.772 26.292C235.175 26.292 235.545 26.3592 235.883 26.4935C236.226 26.6235 236.52 26.8142 236.767 27.0655C237.014 27.3168 237.207 27.6267 237.346 27.995C237.489 28.3633 237.56 28.7837 237.56 29.256C237.56 29.451 237.539 29.5832 237.495 29.6525C237.452 29.7175 237.372 29.75 237.255 29.75H232.926C232.939 30.1443 232.995 30.4888 233.095 30.7835C233.195 31.0738 233.331 31.3165 233.504 31.5115C233.682 31.7065 233.892 31.8517 234.135 31.947C234.378 32.0423 234.648 32.09 234.947 32.09C235.229 32.09 235.472 32.0575 235.675 31.9925C235.883 31.9275 236.061 31.8582 236.208 31.7845C236.36 31.7065 236.486 31.635 236.585 31.57C236.689 31.505 236.78 31.4725 236.858 31.4725C236.962 31.4725 237.043 31.5115 237.099 31.5895L237.463 32.0575ZM242.816 27.5335C242.782 27.5898 242.745 27.631 242.706 27.657C242.667 27.6787 242.617 27.6895 242.556 27.6895C242.487 27.6895 242.409 27.6657 242.322 27.618C242.24 27.5703 242.138 27.5183 242.017 27.462C241.9 27.4057 241.761 27.3537 241.601 27.306C241.44 27.2583 241.25 27.2345 241.029 27.2345C240.847 27.2345 240.68 27.2583 240.528 27.306C240.381 27.3493 240.255 27.4122 240.151 27.4945C240.047 27.5725 239.967 27.6678 239.911 27.7805C239.854 27.8888 239.826 28.0058 239.826 28.1315C239.826 28.2962 239.874 28.4327 239.969 28.541C240.069 28.6493 240.197 28.7425 240.353 28.8205C240.513 28.8985 240.693 28.97 240.892 29.035C241.096 29.0957 241.302 29.1607 241.51 29.23C241.722 29.2993 241.928 29.3795 242.127 29.4705C242.331 29.5572 242.511 29.6677 242.667 29.802C242.827 29.932 242.955 30.0902 243.05 30.2765C243.15 30.4628 243.2 30.6903 243.2 30.959C243.2 31.2667 243.143 31.5527 243.031 31.817C242.922 32.077 242.76 32.3023 242.543 32.493C242.331 32.6837 242.067 32.8332 241.75 32.9415C241.434 33.0498 241.072 33.104 240.665 33.104C240.21 33.104 239.789 33.0282 239.404 32.8765C239.018 32.7248 238.695 32.532 238.435 32.298L238.734 31.8105C238.769 31.7498 238.812 31.7043 238.864 31.674C238.916 31.6393 238.986 31.622 239.072 31.622C239.155 31.622 239.239 31.6523 239.326 31.713C239.412 31.7737 239.516 31.8408 239.638 31.9145C239.759 31.9838 239.906 32.0488 240.08 32.1095C240.253 32.1658 240.47 32.194 240.73 32.194C240.946 32.194 241.135 32.168 241.295 32.116C241.456 32.0597 241.588 31.986 241.692 31.895C241.8 31.7997 241.88 31.6913 241.932 31.57C241.984 31.4487 242.01 31.3208 242.01 31.1865C242.01 31.0132 241.96 30.8702 241.861 30.7575C241.765 30.6405 241.638 30.5408 241.477 30.4585C241.321 30.3762 241.141 30.3047 240.938 30.244C240.734 30.1833 240.526 30.1183 240.314 30.049C240.101 29.9797 239.893 29.8995 239.69 29.8085C239.486 29.7175 239.304 29.6027 239.144 29.464C238.988 29.3253 238.86 29.1563 238.76 28.957C238.665 28.7577 238.617 28.515 238.617 28.229C238.617 27.9733 238.669 27.7285 238.773 27.4945C238.882 27.2605 239.035 27.0547 239.235 26.877C239.438 26.6993 239.688 26.5585 239.982 26.4545C240.281 26.3462 240.621 26.292 241.003 26.292C241.44 26.292 241.835 26.3613 242.186 26.5C242.541 26.6387 242.844 26.8293 243.096 27.072L242.816 27.5335ZM248.947 28.9635C248.947 28.7122 248.91 28.4803 248.836 28.268C248.767 28.0557 248.663 27.8715 248.524 27.7155C248.385 27.5595 248.216 27.4382 248.017 27.3515C247.818 27.2648 247.588 27.2215 247.328 27.2215C246.795 27.2215 246.375 27.3753 246.067 27.683C245.764 27.9907 245.571 28.4175 245.489 28.9635H248.947ZM249.993 32.0575C249.837 32.2395 249.657 32.3977 249.454 32.532C249.25 32.662 249.033 32.7682 248.804 32.8505C248.574 32.9328 248.336 32.9935 248.089 33.0325C247.846 33.0715 247.605 33.091 247.367 33.091C246.912 33.091 246.49 33.0152 246.1 32.8635C245.714 32.7075 245.378 32.4822 245.092 32.1875C244.81 31.8885 244.589 31.5202 244.429 31.0825C244.273 30.6405 244.195 30.1335 244.195 29.5615C244.195 29.1022 244.267 28.6753 244.41 28.281C244.553 27.8823 244.756 27.5357 245.021 27.241C245.289 26.9463 245.616 26.7145 246.002 26.5455C246.388 26.3765 246.821 26.292 247.302 26.292C247.705 26.292 248.076 26.3592 248.414 26.4935C248.756 26.6235 249.051 26.8142 249.298 27.0655C249.545 27.3168 249.737 27.6267 249.876 27.995C250.019 28.3633 250.091 28.7837 250.091 29.256C250.091 29.451 250.069 29.5832 250.026 29.6525C249.982 29.7175 249.902 29.75 249.785 29.75H245.456C245.469 30.1443 245.525 30.4888 245.625 30.7835C245.725 31.0738 245.861 31.3165 246.035 31.5115C246.212 31.7065 246.422 31.8517 246.665 31.947C246.908 32.0423 247.179 32.09 247.478 32.09C247.759 32.09 248.002 32.0575 248.206 31.9925C248.414 31.9275 248.591 31.8582 248.739 31.7845C248.89 31.7065 249.016 31.635 249.116 31.57C249.22 31.505 249.311 31.4725 249.389 31.4725C249.493 31.4725 249.573 31.5115 249.629 31.5895L249.993 32.0575ZM255.002 30.0685C254.486 30.0858 254.049 30.127 253.689 30.192C253.329 30.2527 253.037 30.335 252.812 30.439C252.586 30.543 252.424 30.6665 252.324 30.8095C252.224 30.9482 252.175 31.1042 252.175 31.2775C252.175 31.4422 252.201 31.5852 252.253 31.7065C252.309 31.8235 252.383 31.921 252.473 31.999C252.569 32.0727 252.679 32.1268 252.805 32.1615C252.931 32.1962 253.067 32.2135 253.215 32.2135C253.41 32.2135 253.587 32.194 253.748 32.155C253.912 32.116 254.066 32.0618 254.209 31.9925C254.352 31.9188 254.489 31.83 254.619 31.726C254.749 31.622 254.876 31.5028 255.002 31.3685V30.0685ZM251.284 27.319C251.652 26.968 252.051 26.7058 252.48 26.5325C252.913 26.3592 253.388 26.2725 253.903 26.2725C254.281 26.2725 254.614 26.3353 254.905 26.461C255.195 26.5823 255.44 26.7535 255.639 26.9745C255.838 27.1955 255.988 27.4598 256.088 27.7675C256.192 28.0752 256.244 28.4153 256.244 28.788V33H255.678C255.552 33 255.457 32.9805 255.392 32.9415C255.327 32.8982 255.275 32.8202 255.236 32.7075L255.1 32.129C254.931 32.285 254.764 32.4237 254.599 32.545C254.434 32.662 254.261 32.7638 254.079 32.8505C253.901 32.9328 253.711 32.9957 253.507 33.039C253.303 33.0823 253.078 33.104 252.831 33.104C252.571 33.104 252.326 33.0693 252.097 33C251.871 32.9263 251.674 32.8158 251.505 32.6685C251.336 32.5212 251.202 32.337 251.102 32.116C251.007 31.895 250.959 31.6372 250.959 31.3425C250.959 31.0825 251.028 30.8333 251.167 30.595C251.31 30.3523 251.54 30.1357 251.856 29.945C252.177 29.7543 252.593 29.5983 253.104 29.477C253.62 29.3557 254.252 29.2863 255.002 29.269V28.788C255.002 28.2897 254.896 27.917 254.684 27.67C254.471 27.423 254.159 27.2995 253.748 27.2995C253.47 27.2995 253.236 27.3342 253.046 27.4035C252.859 27.4728 252.697 27.5508 252.558 27.6375C252.424 27.7198 252.305 27.7957 252.201 27.865C252.101 27.9343 251.997 27.969 251.889 27.969C251.802 27.969 251.726 27.9452 251.661 27.8975C251.6 27.8498 251.551 27.7935 251.512 27.7285L251.284 27.319ZM259.136 27.6635C259.349 27.2302 259.604 26.89 259.903 26.643C260.202 26.396 260.562 26.2725 260.982 26.2725C261.125 26.2725 261.26 26.2898 261.385 26.3245C261.515 26.3548 261.628 26.4025 261.723 26.4675L261.639 27.423C261.608 27.54 261.537 27.5985 261.424 27.5985C261.364 27.5985 261.273 27.5877 261.151 27.566C261.03 27.54 260.9 27.527 260.761 27.527C260.558 27.527 260.378 27.5573 260.222 27.618C260.066 27.6743 259.925 27.761 259.799 27.878C259.678 27.9907 259.57 28.1315 259.474 28.3005C259.379 28.4652 259.29 28.6537 259.208 28.866V33H257.94V26.396H258.668C258.807 26.396 258.9 26.422 258.948 26.474C259 26.5217 259.037 26.6083 259.058 26.734L259.136 27.6635ZM267.088 27.631C267.049 27.6787 267.01 27.7177 266.971 27.748C266.936 27.774 266.884 27.787 266.815 27.787C266.746 27.787 266.672 27.761 266.594 27.709C266.52 27.6527 266.425 27.5942 266.308 27.5335C266.195 27.4685 266.057 27.41 265.892 27.358C265.732 27.3017 265.532 27.2735 265.294 27.2735C264.982 27.2735 264.707 27.3298 264.468 27.4425C264.23 27.5552 264.031 27.7155 263.87 27.9235C263.714 28.1315 263.595 28.385 263.513 28.684C263.431 28.983 263.389 29.3188 263.389 29.6915C263.389 30.0772 263.433 30.4217 263.519 30.725C263.606 31.024 263.73 31.2775 263.89 31.4855C264.05 31.6892 264.245 31.8452 264.475 31.9535C264.705 32.0575 264.96 32.1095 265.242 32.1095C265.515 32.1095 265.74 32.077 265.918 32.012C266.096 31.9427 266.243 31.869 266.36 31.791C266.477 31.713 266.574 31.6415 266.652 31.5765C266.73 31.5072 266.811 31.4725 266.893 31.4725C266.997 31.4725 267.077 31.5115 267.133 31.5895L267.497 32.0575C267.346 32.2438 267.175 32.402 266.984 32.532C266.798 32.662 266.598 32.7682 266.386 32.8505C266.174 32.9328 265.95 32.9935 265.716 33.0325C265.487 33.0715 265.253 33.091 265.014 33.091C264.603 33.091 264.217 33.0152 263.857 32.8635C263.502 32.7118 263.192 32.4908 262.928 32.2005C262.668 31.9102 262.462 31.5548 262.31 31.1345C262.159 30.7098 262.083 30.2288 262.083 29.6915C262.083 29.2018 262.15 28.749 262.284 28.333C262.423 27.917 262.625 27.5595 262.889 27.2605C263.158 26.9572 263.487 26.721 263.877 26.552C264.267 26.3787 264.713 26.292 265.216 26.292C265.688 26.292 266.104 26.3678 266.464 26.5195C266.824 26.6712 267.144 26.8857 267.426 27.163L267.088 27.631ZM269.948 27.2345C270.225 26.9528 270.531 26.7253 270.865 26.552C271.203 26.3787 271.59 26.292 272.028 26.292C272.392 26.292 272.711 26.3527 272.984 26.474C273.261 26.5953 273.493 26.7665 273.679 26.9875C273.865 27.2042 274.006 27.4663 274.102 27.774C274.197 28.0817 274.245 28.4218 274.245 28.7945V33H272.971V28.7945C272.971 28.3222 272.862 27.956 272.646 27.696C272.429 27.4317 272.097 27.2995 271.651 27.2995C271.326 27.2995 271.021 27.3775 270.735 27.5335C270.453 27.6852 270.191 27.8932 269.948 28.1575V33H268.681V23.406H269.948V27.2345ZM279.679 33V27.436L278.99 27.3515C278.89 27.3298 278.808 27.2952 278.743 27.2475C278.682 27.1955 278.652 27.1218 278.652 27.0265V26.5H279.679V25.902C279.679 25.525 279.733 25.1892 279.841 24.8945C279.949 24.5998 280.103 24.3507 280.303 24.147C280.506 23.939 280.749 23.783 281.031 23.679C281.317 23.5707 281.637 23.5165 281.993 23.5165C282.292 23.5165 282.567 23.5598 282.818 23.6465L282.792 24.2835C282.788 24.3398 282.77 24.3832 282.74 24.4135C282.71 24.4395 282.669 24.459 282.617 24.472C282.569 24.485 282.508 24.4937 282.435 24.498C282.365 24.498 282.289 24.498 282.207 24.498C282.012 24.498 281.834 24.5218 281.674 24.5695C281.514 24.6172 281.377 24.6973 281.265 24.81C281.152 24.9227 281.065 25.0722 281.005 25.2585C280.944 25.4405 280.914 25.668 280.914 25.941V26.5H282.766V27.423H280.953V33H279.679ZM286.437 26.292C286.923 26.292 287.36 26.3722 287.75 26.5325C288.145 26.6885 288.478 26.916 288.751 27.215C289.029 27.5097 289.241 27.8672 289.388 28.2875C289.536 28.7035 289.609 29.1715 289.609 29.6915C289.609 30.2115 289.536 30.6817 289.388 31.102C289.241 31.5223 289.029 31.8798 288.751 32.1745C288.478 32.4692 288.145 32.6967 287.75 32.857C287.36 33.013 286.923 33.091 286.437 33.091C285.948 33.091 285.506 33.013 285.111 32.857C284.721 32.6967 284.388 32.4692 284.11 32.1745C283.833 31.8798 283.619 31.5223 283.467 31.102C283.32 30.6817 283.246 30.2115 283.246 29.6915C283.246 29.1715 283.32 28.7035 283.467 28.2875C283.619 27.8672 283.833 27.5097 284.11 27.215C284.388 26.916 284.721 26.6885 285.111 26.5325C285.506 26.3722 285.948 26.292 286.437 26.292ZM286.437 32.103C287.061 32.103 287.527 31.8928 287.835 31.4725C288.143 31.0522 288.296 30.4607 288.296 29.698C288.296 28.9353 288.143 28.3438 287.835 27.9235C287.527 27.4988 287.061 27.2865 286.437 27.2865C285.805 27.2865 285.332 27.4988 285.02 27.9235C284.713 28.3438 284.559 28.9353 284.559 29.698C284.559 30.4607 284.713 31.0522 285.02 31.4725C285.332 31.8928 285.805 32.103 286.437 32.103ZM292.22 27.6635C292.433 27.2302 292.688 26.89 292.987 26.643C293.286 26.396 293.646 26.2725 294.066 26.2725C294.209 26.2725 294.344 26.2898 294.469 26.3245C294.599 26.3548 294.712 26.4025 294.807 26.4675L294.723 27.423C294.692 27.54 294.621 27.5985 294.508 27.5985C294.448 27.5985 294.357 27.5877 294.235 27.566C294.114 27.54 293.984 27.527 293.845 27.527C293.642 27.527 293.462 27.5573 293.306 27.618C293.15 27.6743 293.009 27.761 292.883 27.878C292.762 27.9907 292.654 28.1315 292.558 28.3005C292.463 28.4652 292.374 28.6537 292.292 28.866V33H291.024V26.396H291.752C291.891 26.396 291.984 26.422 292.032 26.474C292.084 26.5217 292.121 26.6083 292.142 26.734L292.22 27.6635ZM38.6625 42.396L34.9965 50.9175C34.9575 51.0128 34.9055 51.0865 34.8405 51.1385C34.7755 51.1905 34.6802 51.2165 34.5545 51.2165H33.612L34.821 48.584L32.1105 42.396H33.2155C33.3238 42.396 33.4083 42.422 33.469 42.474C33.5297 42.526 33.573 42.5845 33.599 42.6495L35.276 46.6145C35.3107 46.7142 35.3432 46.816 35.3735 46.92C35.4082 47.0197 35.4363 47.1193 35.458 47.219C35.4883 47.115 35.5208 47.0132 35.5555 46.9135C35.5902 46.8095 35.627 46.7077 35.666 46.608L37.2845 42.6495C37.3148 42.5758 37.3625 42.5152 37.4275 42.4675C37.4925 42.4198 37.5662 42.396 37.6485 42.396H38.6625ZM42.2558 42.292C42.7411 42.292 43.1788 42.3722 43.5688 42.5325C43.9631 42.6885 44.2968 42.916 44.5698 43.215C44.8471 43.5097 45.0594 43.8672 45.2068 44.2875C45.3541 44.7035 45.4278 45.1715 45.4278 45.6915C45.4278 46.2115 45.3541 46.6817 45.2068 47.102C45.0594 47.5223 44.8471 47.8798 44.5698 48.1745C44.2968 48.4692 43.9631 48.6967 43.5688 48.857C43.1788 49.013 42.7411 49.091 42.2558 49.091C41.7661 49.091 41.3241 49.013 40.9298 48.857C40.5398 48.6967 40.2061 48.4692 39.9288 48.1745C39.6514 47.8798 39.4369 47.5223 39.2853 47.102C39.1379 46.6817 39.0643 46.2115 39.0643 45.6915C39.0643 45.1715 39.1379 44.7035 39.2853 44.2875C39.4369 43.8672 39.6514 43.5097 39.9288 43.215C40.2061 42.916 40.5398 42.6885 40.9298 42.5325C41.3241 42.3722 41.7661 42.292 42.2558 42.292ZM42.2558 48.103C42.8798 48.103 43.3456 47.8928 43.6533 47.4725C43.9609 47.0522 44.1148 46.4607 44.1148 45.698C44.1148 44.9353 43.9609 44.3438 43.6533 43.9235C43.3456 43.4988 42.8798 43.2865 42.2558 43.2865C41.6231 43.2865 41.1508 43.4988 40.8388 43.9235C40.5311 44.3438 40.3773 44.9353 40.3773 45.698C40.3773 46.4607 40.5311 47.0522 40.8388 47.4725C41.1508 47.8928 41.6231 48.103 42.2558 48.103ZM52.3351 42.396V49H51.5746C51.4013 49 51.2886 48.9155 51.2366 48.7465L51.1456 48.0835C51.0026 48.2352 50.8531 48.3738 50.6971 48.4995C50.5411 48.6252 50.3743 48.7335 50.1966 48.8245C50.019 48.9112 49.8305 48.9783 49.6311 49.026C49.4318 49.078 49.2173 49.104 48.9876 49.104C48.6236 49.104 48.303 49.0433 48.0256 48.922C47.7526 48.8007 47.523 48.6317 47.3366 48.415C47.1503 48.194 47.0095 47.9297 46.9141 47.622C46.8188 47.3143 46.7711 46.9742 46.7711 46.6015V42.396H48.0451V46.6015C48.0451 47.0738 48.1535 47.4422 48.3701 47.7065C48.5868 47.9665 48.9183 48.0965 49.3646 48.0965C49.6896 48.0965 49.993 48.0207 50.2746 47.869C50.5563 47.713 50.8206 47.5007 51.0676 47.232V42.396H52.3351ZM55.3004 43.6635C55.5127 43.2302 55.7684 42.89 56.0674 42.643C56.3664 42.396 56.726 42.2725 57.1464 42.2725C57.2894 42.2725 57.4237 42.2898 57.5494 42.3245C57.6794 42.3548 57.792 42.4025 57.8874 42.4675L57.8029 43.423C57.7725 43.54 57.701 43.5985 57.5884 43.5985C57.5277 43.5985 57.4367 43.5877 57.3154 43.566C57.194 43.54 57.064 43.527 56.9254 43.527C56.7217 43.527 56.5419 43.5573 56.3859 43.618C56.2299 43.6743 56.089 43.761 55.9634 43.878C55.842 43.9907 55.7337 44.1315 55.6384 44.3005C55.543 44.4652 55.4542 44.6537 55.3719 44.866V49H54.1044V42.396H54.8324C54.971 42.396 55.0642 42.422 55.1119 42.474C55.1639 42.5217 55.2007 42.6083 55.2224 42.734L55.3004 43.6635ZM66.5019 43.631C66.4629 43.6787 66.4239 43.7177 66.3849 43.748C66.3502 43.774 66.2982 43.787 66.2289 43.787C66.1596 43.787 66.0859 43.761 66.0079 43.709C65.9342 43.6527 65.8389 43.5942 65.7219 43.5335C65.6092 43.4685 65.4706 43.41 65.3059 43.358C65.1456 43.3017 64.9462 43.2735 64.7079 43.2735C64.3959 43.2735 64.1207 43.3298 63.8824 43.4425C63.6441 43.5552 63.4447 43.7155 63.2844 43.9235C63.1284 44.1315 63.0092 44.385 62.9269 44.684C62.8446 44.983 62.8034 45.3188 62.8034 45.6915C62.8034 46.0772 62.8467 46.4217 62.9334 46.725C63.0201 47.024 63.1436 47.2775 63.3039 47.4855C63.4642 47.6892 63.6592 47.8452 63.8889 47.9535C64.1186 48.0575 64.3742 48.1095 64.6559 48.1095C64.9289 48.1095 65.1542 48.077 65.3319 48.012C65.5096 47.9427 65.6569 47.869 65.7739 47.791C65.8909 47.713 65.9884 47.6415 66.0664 47.5765C66.1444 47.5072 66.2246 47.4725 66.3069 47.4725C66.4109 47.4725 66.4911 47.5115 66.5474 47.5895L66.9114 48.0575C66.7597 48.2438 66.5886 48.402 66.3979 48.532C66.2116 48.662 66.0122 48.7682 65.7999 48.8505C65.5876 48.9328 65.3644 48.9935 65.1304 49.0325C64.9007 49.0715 64.6667 49.091 64.4284 49.091C64.0167 49.091 63.6311 49.0152 63.2714 48.8635C62.9161 48.7118 62.6062 48.4908 62.3419 48.2005C62.0819 47.9102 61.8761 47.5548 61.7244 47.1345C61.5727 46.7098 61.4969 46.2288 61.4969 45.6915C61.4969 45.2018 61.5641 44.749 61.6984 44.333C61.8371 43.917 62.0386 43.5595 62.3029 43.2605C62.5716 42.9572 62.9009 42.721 63.2909 42.552C63.6809 42.3787 64.1272 42.292 64.6299 42.292C65.1022 42.292 65.5182 42.3678 65.8779 42.5195C66.2376 42.6712 66.5582 42.8857 66.8399 43.163L66.5019 43.631ZM70.7948 42.292C71.2802 42.292 71.7178 42.3722 72.1078 42.5325C72.5022 42.6885 72.8358 42.916 73.1088 43.215C73.3862 43.5097 73.5985 43.8672 73.7458 44.2875C73.8932 44.7035 73.9668 45.1715 73.9668 45.6915C73.9668 46.2115 73.8932 46.6817 73.7458 47.102C73.5985 47.5223 73.3862 47.8798 73.1088 48.1745C72.8358 48.4692 72.5022 48.6967 72.1078 48.857C71.7178 49.013 71.2802 49.091 70.7948 49.091C70.3052 49.091 69.8632 49.013 69.4688 48.857C69.0788 48.6967 68.7452 48.4692 68.4678 48.1745C68.1905 47.8798 67.976 47.5223 67.8243 47.102C67.677 46.6817 67.6033 46.2115 67.6033 45.6915C67.6033 45.1715 67.677 44.7035 67.8243 44.2875C67.976 43.8672 68.1905 43.5097 68.4678 43.215C68.7452 42.916 69.0788 42.6885 69.4688 42.5325C69.8632 42.3722 70.3052 42.292 70.7948 42.292ZM70.7948 48.103C71.4188 48.103 71.8847 47.8928 72.1923 47.4725C72.5 47.0522 72.6538 46.4607 72.6538 45.698C72.6538 44.9353 72.5 44.3438 72.1923 43.9235C71.8847 43.4988 71.4188 43.2865 70.7948 43.2865C70.1622 43.2865 69.6898 43.4988 69.3778 43.9235C69.0702 44.3438 68.9163 44.9353 68.9163 45.698C68.9163 46.4607 69.0702 47.0522 69.3778 47.4725C69.6898 47.8928 70.1622 48.103 70.7948 48.103ZM75.3817 49V42.396H76.1422C76.3199 42.396 76.4304 42.4805 76.4737 42.6495L76.5647 43.28C76.8074 42.9897 77.076 42.7535 77.3707 42.5715C77.6697 42.3852 78.0185 42.292 78.4172 42.292C78.8549 42.292 79.2102 42.4133 79.4832 42.656C79.7562 42.8943 79.9555 43.2193 80.0812 43.631C80.1765 43.397 80.3 43.1955 80.4517 43.0265C80.6034 42.8575 80.7724 42.7188 80.9587 42.6105C81.145 42.5022 81.3422 42.422 81.5502 42.37C81.7625 42.318 81.977 42.292 82.1937 42.292C82.5447 42.292 82.8567 42.3483 83.1297 42.461C83.407 42.5693 83.641 42.7297 83.8317 42.942C84.0224 43.1543 84.1675 43.4165 84.2672 43.7285C84.3669 44.0405 84.4167 44.3958 84.4167 44.7945V49H83.1427V44.7945C83.1427 44.3005 83.0344 43.9278 82.8177 43.6765C82.6054 43.4252 82.2934 43.2995 81.8817 43.2995C81.6997 43.2995 81.5264 43.332 81.3617 43.397C81.197 43.4577 81.0519 43.5508 80.9262 43.6765C80.8049 43.8022 80.7074 43.9582 80.6337 44.1445C80.5644 44.3308 80.5297 44.5475 80.5297 44.7945V49H79.2557V44.7945C79.2557 44.2832 79.1539 43.9062 78.9502 43.6635C78.7465 43.4208 78.4475 43.2995 78.0532 43.2995C77.7802 43.2995 77.5267 43.371 77.2927 43.514C77.0587 43.657 76.8442 43.852 76.6492 44.099V49H75.3817ZM87.3894 47.375C87.5974 47.648 87.8206 47.8387 88.0589 47.947C88.3016 48.0553 88.5724 48.1095 88.8714 48.1095C89.4521 48.1095 89.9006 47.9015 90.2169 47.4855C90.5376 47.0652 90.6979 46.4542 90.6979 45.6525C90.6979 45.2322 90.6611 44.8747 90.5874 44.58C90.5181 44.281 90.4141 44.0383 90.2754 43.852C90.1411 43.6613 89.9743 43.5227 89.7749 43.436C89.5756 43.345 89.3503 43.2995 89.0989 43.2995C88.7306 43.2995 88.4099 43.3818 88.1369 43.5465C87.8683 43.7112 87.6191 43.9452 87.3894 44.2485V47.375ZM87.3244 43.384C87.4631 43.2193 87.6104 43.0698 87.7664 42.9355C87.9268 42.7968 88.0979 42.6798 88.2799 42.5845C88.4619 42.4848 88.6548 42.409 88.8584 42.357C89.0664 42.3007 89.2874 42.2725 89.5214 42.2725C89.8984 42.2725 90.2386 42.3462 90.5419 42.4935C90.8496 42.6408 91.1118 42.8575 91.3284 43.1435C91.5451 43.4295 91.7119 43.7827 91.8289 44.203C91.9503 44.6233 92.0109 45.1065 92.0109 45.6525C92.0109 46.1422 91.9438 46.5972 91.8094 47.0175C91.6794 47.4335 91.4909 47.7953 91.2439 48.103C91.0013 48.4107 90.7023 48.6533 90.3469 48.831C89.9959 49.0043 89.5994 49.091 89.1574 49.091C88.7631 49.091 88.4251 49.026 88.1434 48.896C87.8618 48.766 87.6104 48.584 87.3894 48.35V51.2165H86.1219V42.396H86.8824C87.0601 42.396 87.1706 42.4805 87.2139 42.6495L87.3244 43.384ZM96.9834 46.0685C96.4678 46.0858 96.0301 46.127 95.6704 46.192C95.3108 46.2527 95.0183 46.335 94.7929 46.439C94.5676 46.543 94.4051 46.6665 94.3054 46.8095C94.2058 46.9482 94.1559 47.1042 94.1559 47.2775C94.1559 47.4422 94.1819 47.5852 94.2339 47.7065C94.2903 47.8235 94.3639 47.921 94.4549 47.999C94.5503 48.0727 94.6608 48.1268 94.7864 48.1615C94.9121 48.1962 95.0486 48.2135 95.1959 48.2135C95.3909 48.2135 95.5686 48.194 95.7289 48.155C95.8936 48.116 96.0474 48.0618 96.1904 47.9925C96.3334 47.9188 96.4699 47.83 96.5999 47.726C96.7299 47.622 96.8578 47.5028 96.9834 47.3685V46.0685ZM93.2654 43.319C93.6338 42.968 94.0324 42.7058 94.4614 42.5325C94.8948 42.3592 95.3693 42.2725 95.8849 42.2725C96.2619 42.2725 96.5956 42.3353 96.8859 42.461C97.1763 42.5823 97.4211 42.7535 97.6204 42.9745C97.8198 43.1955 97.9693 43.4598 98.0689 43.7675C98.1729 44.0752 98.2249 44.4153 98.2249 44.788V49H97.6594C97.5338 49 97.4384 48.9805 97.3734 48.9415C97.3084 48.8982 97.2564 48.8202 97.2174 48.7075L97.0809 48.129C96.9119 48.285 96.7451 48.4237 96.5804 48.545C96.4158 48.662 96.2424 48.7638 96.0604 48.8505C95.8828 48.9328 95.6921 48.9957 95.4884 49.039C95.2848 49.0823 95.0594 49.104 94.8124 49.104C94.5524 49.104 94.3076 49.0693 94.0779 49C93.8526 48.9263 93.6554 48.8158 93.4864 48.6685C93.3174 48.5212 93.1831 48.337 93.0834 48.116C92.9881 47.895 92.9404 47.6372 92.9404 47.3425C92.9404 47.0825 93.0098 46.8333 93.1484 46.595C93.2914 46.3523 93.5211 46.1357 93.8374 45.945C94.1581 45.7543 94.5741 45.5983 95.0854 45.477C95.6011 45.3557 96.2338 45.2863 96.9834 45.269V44.788C96.9834 44.2897 96.8773 43.917 96.6649 43.67C96.4526 43.423 96.1406 43.2995 95.7289 43.2995C95.4516 43.2995 95.2176 43.3342 95.0269 43.4035C94.8406 43.4728 94.6781 43.5508 94.5394 43.6375C94.4051 43.7198 94.2859 43.7957 94.1819 43.865C94.0823 43.9343 93.9783 43.969 93.8699 43.969C93.7833 43.969 93.7074 43.9452 93.6424 43.8975C93.5818 43.8498 93.5319 43.7935 93.4929 43.7285L93.2654 43.319ZM101.111 43.3125C101.254 43.1608 101.404 43.0222 101.56 42.8965C101.716 42.7708 101.88 42.6647 102.054 42.578C102.231 42.487 102.42 42.4177 102.619 42.37C102.823 42.318 103.04 42.292 103.269 42.292C103.633 42.292 103.952 42.3527 104.225 42.474C104.502 42.5953 104.734 42.7665 104.92 42.9875C105.107 43.2042 105.247 43.4663 105.343 43.774C105.438 44.0817 105.486 44.4218 105.486 44.7945V49H104.212V44.7945C104.212 44.3222 104.103 43.956 103.887 43.696C103.67 43.4317 103.339 43.2995 102.892 43.2995C102.567 43.2995 102.262 43.3775 101.976 43.5335C101.694 43.6852 101.432 43.8932 101.189 44.1575V49H99.9218V42.396H100.682C100.86 42.396 100.97 42.4805 101.014 42.6495L101.111 43.3125ZM108.522 42.396V49H107.255V42.396H108.522ZM108.763 40.355C108.763 40.472 108.739 40.5847 108.691 40.693C108.643 40.797 108.578 40.8902 108.496 40.9725C108.418 41.0505 108.325 41.1133 108.217 41.161C108.108 41.2043 107.996 41.226 107.879 41.226C107.762 41.226 107.651 41.2043 107.547 41.161C107.443 41.1133 107.35 41.0505 107.268 40.9725C107.19 40.8902 107.127 40.797 107.079 40.693C107.036 40.5847 107.014 40.472 107.014 40.355C107.014 40.2337 107.036 40.121 107.079 40.017C107.127 39.9087 107.19 39.8155 107.268 39.7375C107.35 39.6552 107.443 39.5923 107.547 39.549C107.651 39.5013 107.762 39.4775 107.879 39.4775C107.996 39.4775 108.108 39.5013 108.217 39.549C108.325 39.5923 108.418 39.6552 108.496 39.7375C108.578 39.8155 108.643 39.9087 108.691 40.017C108.739 40.121 108.763 40.2337 108.763 40.355ZM114.732 44.9635C114.732 44.7122 114.695 44.4803 114.621 44.268C114.552 44.0557 114.448 43.8715 114.309 43.7155C114.171 43.5595 114.002 43.4382 113.802 43.3515C113.603 43.2648 113.373 43.2215 113.113 43.2215C112.58 43.2215 112.16 43.3753 111.852 43.683C111.549 43.9907 111.356 44.4175 111.274 44.9635H114.732ZM115.778 48.0575C115.622 48.2395 115.442 48.3977 115.239 48.532C115.035 48.662 114.818 48.7682 114.589 48.8505C114.359 48.9328 114.121 48.9935 113.874 49.0325C113.631 49.0715 113.391 49.091 113.152 49.091C112.697 49.091 112.275 49.0152 111.885 48.8635C111.499 48.7075 111.163 48.4822 110.877 48.1875C110.596 47.8885 110.375 47.5202 110.214 47.0825C110.058 46.6405 109.98 46.1335 109.98 45.5615C109.98 45.1022 110.052 44.6753 110.195 44.281C110.338 43.8823 110.541 43.5357 110.806 43.241C111.074 42.9463 111.402 42.7145 111.787 42.5455C112.173 42.3765 112.606 42.292 113.087 42.292C113.49 42.292 113.861 42.3592 114.199 42.4935C114.541 42.6235 114.836 42.8142 115.083 43.0655C115.33 43.3168 115.523 43.6267 115.661 43.995C115.804 44.3633 115.876 44.7837 115.876 45.256C115.876 45.451 115.854 45.5832 115.811 45.6525C115.767 45.7175 115.687 45.75 115.57 45.75H111.241C111.254 46.1443 111.311 46.4888 111.41 46.7835C111.51 47.0738 111.646 47.3165 111.82 47.5115C111.997 47.7065 112.208 47.8517 112.45 47.947C112.693 48.0423 112.964 48.09 113.263 48.09C113.544 48.09 113.787 48.0575 113.991 47.9925C114.199 47.9275 114.376 47.8582 114.524 47.7845C114.675 47.7065 114.801 47.635 114.901 47.57C115.005 47.505 115.096 47.4725 115.174 47.4725C115.278 47.4725 115.358 47.5115 115.414 47.5895L115.778 48.0575ZM121.132 43.5335C121.097 43.5898 121.06 43.631 121.021 43.657C120.982 43.6787 120.932 43.6895 120.872 43.6895C120.802 43.6895 120.724 43.6657 120.638 43.618C120.555 43.5703 120.453 43.5183 120.332 43.462C120.215 43.4057 120.076 43.3537 119.916 43.306C119.756 43.2583 119.565 43.2345 119.344 43.2345C119.162 43.2345 118.995 43.2583 118.844 43.306C118.696 43.3493 118.571 43.4122 118.467 43.4945C118.363 43.5725 118.282 43.6678 118.226 43.7805C118.17 43.8888 118.142 44.0058 118.142 44.1315C118.142 44.2962 118.189 44.4327 118.285 44.541C118.384 44.6493 118.512 44.7425 118.668 44.8205C118.828 44.8985 119.008 44.97 119.208 45.035C119.411 45.0957 119.617 45.1607 119.825 45.23C120.037 45.2993 120.243 45.3795 120.443 45.4705C120.646 45.5572 120.826 45.6677 120.982 45.802C121.142 45.932 121.27 46.0902 121.366 46.2765C121.465 46.4628 121.515 46.6903 121.515 46.959C121.515 47.2667 121.459 47.5527 121.346 47.817C121.238 48.077 121.075 48.3023 120.859 48.493C120.646 48.6837 120.382 48.8332 120.066 48.9415C119.749 49.0498 119.387 49.104 118.98 49.104C118.525 49.104 118.105 49.0282 117.719 48.8765C117.333 48.7248 117.011 48.532 116.751 48.298L117.05 47.8105C117.084 47.7498 117.128 47.7043 117.18 47.674C117.232 47.6393 117.301 47.622 117.388 47.622C117.47 47.622 117.554 47.6523 117.641 47.713C117.728 47.7737 117.832 47.8408 117.953 47.9145C118.074 47.9838 118.222 48.0488 118.395 48.1095C118.568 48.1658 118.785 48.194 119.045 48.194C119.262 48.194 119.45 48.168 119.611 48.116C119.771 48.0597 119.903 47.986 120.007 47.895C120.115 47.7997 120.196 47.6913 120.248 47.57C120.3 47.4487 120.326 47.3208 120.326 47.1865C120.326 47.0132 120.276 46.8702 120.176 46.7575C120.081 46.6405 119.953 46.5408 119.793 46.4585C119.637 46.3762 119.457 46.3047 119.253 46.244C119.049 46.1833 118.841 46.1183 118.629 46.049C118.417 45.9797 118.209 45.8995 118.005 45.8085C117.801 45.7175 117.619 45.6027 117.459 45.464C117.303 45.3253 117.175 45.1563 117.076 44.957C116.98 44.7577 116.933 44.515 116.933 44.229C116.933 43.9733 116.985 43.7285 117.089 43.4945C117.197 43.2605 117.351 43.0547 117.55 42.877C117.754 42.6993 118.003 42.5585 118.298 42.4545C118.597 42.3462 118.937 42.292 119.318 42.292C119.756 42.292 120.15 42.3613 120.501 42.5C120.856 42.6387 121.16 42.8293 121.411 43.072L121.132 43.5335ZM123.46 49C123.343 49 123.234 48.9783 123.135 48.935C123.039 48.8917 122.955 48.8332 122.881 48.7595C122.812 48.6815 122.758 48.5905 122.719 48.4865C122.68 48.3825 122.66 48.2698 122.66 48.1485C122.66 48.0445 122.68 47.947 122.719 47.856C122.758 47.7607 122.812 47.6783 122.881 47.609C122.955 47.5397 123.041 47.4855 123.141 47.4465C123.241 47.4032 123.351 47.3815 123.473 47.3815C123.611 47.3815 123.733 47.4075 123.837 47.4595C123.945 47.5072 124.034 47.5765 124.103 47.6675C124.177 47.7542 124.231 47.856 124.266 47.973C124.3 48.09 124.318 48.2157 124.318 48.35C124.318 48.545 124.289 48.7508 124.233 48.9675C124.177 49.1842 124.094 49.3987 123.986 49.611C123.878 49.8233 123.743 50.0292 123.583 50.2285C123.423 50.4278 123.241 50.612 123.037 50.781L122.823 50.5795C122.758 50.5188 122.725 50.4517 122.725 50.378C122.725 50.3477 122.734 50.3152 122.751 50.2805C122.773 50.2502 122.799 50.2198 122.829 50.1895C122.872 50.1418 122.929 50.079 122.998 50.001C123.067 49.923 123.135 49.832 123.2 49.728C123.269 49.6283 123.332 49.5157 123.388 49.39C123.449 49.2687 123.492 49.1387 123.518 49H123.46ZM130.414 47.375C130.622 47.648 130.847 47.8387 131.09 47.947C131.333 48.0553 131.597 48.1095 131.883 48.1095C132.472 48.1095 132.925 47.8993 133.241 47.479C133.562 47.0587 133.722 46.4238 133.722 45.5745C133.722 44.7902 133.582 44.216 133.3 43.852C133.018 43.4837 132.62 43.2995 132.104 43.2995C131.74 43.2995 131.424 43.3818 131.155 43.5465C130.891 43.7112 130.644 43.9452 130.414 44.2485V47.375ZM130.414 43.306C130.687 43.0027 130.997 42.7578 131.343 42.5715C131.69 42.3852 132.084 42.292 132.526 42.292C132.912 42.292 133.259 42.3678 133.566 42.5195C133.878 42.6668 134.143 42.8813 134.359 43.163C134.576 43.4403 134.743 43.7783 134.86 44.177C134.977 44.5757 135.035 45.0263 135.035 45.529C135.035 46.062 134.968 46.5473 134.834 46.985C134.704 47.4227 134.515 47.7975 134.268 48.1095C134.026 48.4215 133.729 48.6642 133.378 48.8375C133.027 49.0065 132.633 49.091 132.195 49.091C131.983 49.091 131.788 49.0693 131.61 49.026C131.432 48.987 131.268 48.9285 131.116 48.8505C130.969 48.7725 130.832 48.6772 130.706 48.5645C130.581 48.4518 130.462 48.324 130.349 48.181L130.29 48.7335C130.256 48.9112 130.147 49 129.965 49H129.146V39.406H130.414V43.306ZM141.939 42.396V49H141.178C141.005 49 140.892 48.9155 140.84 48.7465L140.749 48.0835C140.606 48.2352 140.457 48.3738 140.301 48.4995C140.145 48.6252 139.978 48.7335 139.8 48.8245C139.622 48.9112 139.434 48.9783 139.235 49.026C139.035 49.078 138.821 49.104 138.591 49.104C138.227 49.104 137.906 49.0433 137.629 48.922C137.356 48.8007 137.126 48.6317 136.94 48.415C136.754 48.194 136.613 47.9297 136.518 47.622C136.422 47.3143 136.375 46.9742 136.375 46.6015V42.396H137.649V46.6015C137.649 47.0738 137.757 47.4422 137.974 47.7065C138.19 47.9665 138.522 48.0965 138.968 48.0965C139.293 48.0965 139.596 48.0207 139.878 47.869C140.16 47.713 140.424 47.5007 140.671 47.232V42.396H141.939ZM147.601 43.5335C147.567 43.5898 147.53 43.631 147.491 43.657C147.452 43.6787 147.402 43.6895 147.341 43.6895C147.272 43.6895 147.194 43.6657 147.107 43.618C147.025 43.5703 146.923 43.5183 146.802 43.462C146.685 43.4057 146.546 43.3537 146.386 43.306C146.226 43.2583 146.035 43.2345 145.814 43.2345C145.632 43.2345 145.465 43.2583 145.313 43.306C145.166 43.3493 145.04 43.4122 144.936 43.4945C144.832 43.5725 144.752 43.6678 144.696 43.7805C144.64 43.8888 144.611 44.0058 144.611 44.1315C144.611 44.2962 144.659 44.4327 144.754 44.541C144.854 44.6493 144.982 44.7425 145.138 44.8205C145.298 44.8985 145.478 44.97 145.677 45.035C145.881 45.0957 146.087 45.1607 146.295 45.23C146.507 45.2993 146.713 45.3795 146.912 45.4705C147.116 45.5572 147.296 45.6677 147.452 45.802C147.612 45.932 147.74 46.0902 147.835 46.2765C147.935 46.4628 147.985 46.6903 147.985 46.959C147.985 47.2667 147.929 47.5527 147.816 47.817C147.708 48.077 147.545 48.3023 147.328 48.493C147.116 48.6837 146.852 48.8332 146.535 48.9415C146.219 49.0498 145.857 49.104 145.45 49.104C144.995 49.104 144.575 49.0282 144.189 48.8765C143.803 48.7248 143.48 48.532 143.22 48.298L143.519 47.8105C143.554 47.7498 143.597 47.7043 143.649 47.674C143.701 47.6393 143.771 47.622 143.857 47.622C143.94 47.622 144.024 47.6523 144.111 47.713C144.198 47.7737 144.302 47.8408 144.423 47.9145C144.544 47.9838 144.692 48.0488 144.865 48.1095C145.038 48.1658 145.255 48.194 145.515 48.194C145.732 48.194 145.92 48.168 146.08 48.116C146.241 48.0597 146.373 47.986 146.477 47.895C146.585 47.7997 146.665 47.6913 146.717 47.57C146.769 47.4487 146.795 47.3208 146.795 47.1865C146.795 47.0132 146.746 46.8702 146.646 46.7575C146.551 46.6405 146.423 46.5408 146.262 46.4585C146.106 46.3762 145.927 46.3047 145.723 46.244C145.519 46.1833 145.311 46.1183 145.099 46.049C144.887 45.9797 144.679 45.8995 144.475 45.8085C144.271 45.7175 144.089 45.6027 143.929 45.464C143.773 45.3253 143.645 45.1563 143.545 44.957C143.45 44.7577 143.402 44.515 143.402 44.229C143.402 43.9733 143.454 43.7285 143.558 43.4945C143.667 43.2605 143.821 43.0547 144.02 42.877C144.224 42.6993 144.473 42.5585 144.767 42.4545C145.066 42.3462 145.407 42.292 145.788 42.292C146.226 42.292 146.62 42.3613 146.971 42.5C147.326 42.6387 147.63 42.8293 147.881 43.072L147.601 43.5335ZM150.683 42.396V49H149.416V42.396H150.683ZM150.924 40.355C150.924 40.472 150.9 40.5847 150.852 40.693C150.805 40.797 150.74 40.8902 150.657 40.9725C150.579 41.0505 150.486 41.1133 150.378 41.161C150.269 41.2043 150.157 41.226 150.04 41.226C149.923 41.226 149.812 41.2043 149.708 41.161C149.604 41.1133 149.511 41.0505 149.429 40.9725C149.351 40.8902 149.288 40.797 149.24 40.693C149.197 40.5847 149.175 40.472 149.175 40.355C149.175 40.2337 149.197 40.121 149.24 40.017C149.288 39.9087 149.351 39.8155 149.429 39.7375C149.511 39.6552 149.604 39.5923 149.708 39.549C149.812 39.5013 149.923 39.4775 150.04 39.4775C150.157 39.4775 150.269 39.5013 150.378 39.549C150.486 39.5923 150.579 39.6552 150.657 39.7375C150.74 39.8155 150.805 39.9087 150.852 40.017C150.9 40.121 150.924 40.2337 150.924 40.355ZM153.708 43.3125C153.851 43.1608 154 43.0222 154.156 42.8965C154.312 42.7708 154.477 42.6647 154.65 42.578C154.828 42.487 155.017 42.4177 155.216 42.37C155.42 42.318 155.636 42.292 155.866 42.292C156.23 42.292 156.548 42.3527 156.821 42.474C157.099 42.5953 157.331 42.7665 157.517 42.9875C157.703 43.2042 157.844 43.4663 157.939 43.774C158.035 44.0817 158.082 44.4218 158.082 44.7945V49H156.808V44.7945C156.808 44.3222 156.7 43.956 156.483 43.696C156.267 43.4317 155.935 43.2995 155.489 43.2995C155.164 43.2995 154.858 43.3775 154.572 43.5335C154.291 43.6852 154.029 43.8932 153.786 44.1575V49H152.518V42.396H153.279C153.457 42.396 153.567 42.4805 153.61 42.6495L153.708 43.3125ZM164.167 44.9635C164.167 44.7122 164.131 44.4803 164.057 44.268C163.988 44.0557 163.884 43.8715 163.745 43.7155C163.606 43.5595 163.437 43.4382 163.238 43.3515C163.039 43.2648 162.809 43.2215 162.549 43.2215C162.016 43.2215 161.596 43.3753 161.288 43.683C160.985 43.9907 160.792 44.4175 160.709 44.9635H164.167ZM165.214 48.0575C165.058 48.2395 164.878 48.3977 164.674 48.532C164.471 48.662 164.254 48.7682 164.024 48.8505C163.795 48.9328 163.556 48.9935 163.309 49.0325C163.067 49.0715 162.826 49.091 162.588 49.091C162.133 49.091 161.71 49.0152 161.32 48.8635C160.935 48.7075 160.599 48.4822 160.313 48.1875C160.031 47.8885 159.81 47.5202 159.65 47.0825C159.494 46.6405 159.416 46.1335 159.416 45.5615C159.416 45.1022 159.487 44.6753 159.63 44.281C159.773 43.8823 159.977 43.5357 160.241 43.241C160.51 42.9463 160.837 42.7145 161.223 42.5455C161.609 42.3765 162.042 42.292 162.523 42.292C162.926 42.292 163.296 42.3592 163.634 42.4935C163.977 42.6235 164.271 42.8142 164.518 43.0655C164.765 43.3168 164.958 43.6267 165.097 43.995C165.24 44.3633 165.311 44.7837 165.311 45.256C165.311 45.451 165.29 45.5832 165.246 45.6525C165.203 45.7175 165.123 45.75 165.006 45.75H160.677C160.69 46.1443 160.746 46.4888 160.846 46.7835C160.946 47.0738 161.082 47.3165 161.255 47.5115C161.433 47.7065 161.643 47.8517 161.886 47.947C162.129 48.0423 162.399 48.09 162.698 48.09C162.98 48.09 163.223 48.0575 163.426 47.9925C163.634 47.9275 163.812 47.8582 163.959 47.7845C164.111 47.7065 164.237 47.635 164.336 47.57C164.44 47.505 164.531 47.4725 164.609 47.4725C164.713 47.4725 164.794 47.5115 164.85 47.5895L165.214 48.0575ZM170.567 43.5335C170.533 43.5898 170.496 43.631 170.457 43.657C170.418 43.6787 170.368 43.6895 170.307 43.6895C170.238 43.6895 170.16 43.6657 170.073 43.618C169.991 43.5703 169.889 43.5183 169.768 43.462C169.651 43.4057 169.512 43.3537 169.352 43.306C169.191 43.2583 169.001 43.2345 168.78 43.2345C168.598 43.2345 168.431 43.2583 168.279 43.306C168.132 43.3493 168.006 43.4122 167.902 43.4945C167.798 43.5725 167.718 43.6678 167.662 43.7805C167.605 43.8888 167.577 44.0058 167.577 44.1315C167.577 44.2962 167.625 44.4327 167.72 44.541C167.82 44.6493 167.948 44.7425 168.104 44.8205C168.264 44.8985 168.444 44.97 168.643 45.035C168.847 45.0957 169.053 45.1607 169.261 45.23C169.473 45.2993 169.679 45.3795 169.878 45.4705C170.082 45.5572 170.262 45.6677 170.418 45.802C170.578 45.932 170.706 46.0902 170.801 46.2765C170.901 46.4628 170.951 46.6903 170.951 46.959C170.951 47.2667 170.894 47.5527 170.782 47.817C170.673 48.077 170.511 48.3023 170.294 48.493C170.082 48.6837 169.818 48.8332 169.501 48.9415C169.185 49.0498 168.823 49.104 168.416 49.104C167.961 49.104 167.54 49.0282 167.155 48.8765C166.769 48.7248 166.446 48.532 166.186 48.298L166.485 47.8105C166.52 47.7498 166.563 47.7043 166.615 47.674C166.667 47.6393 166.737 47.622 166.823 47.622C166.906 47.622 166.99 47.6523 167.077 47.713C167.163 47.7737 167.267 47.8408 167.389 47.9145C167.51 47.9838 167.657 48.0488 167.831 48.1095C168.004 48.1658 168.221 48.194 168.481 48.194C168.697 48.194 168.886 48.168 169.046 48.116C169.207 48.0597 169.339 47.986 169.443 47.895C169.551 47.7997 169.631 47.6913 169.683 47.57C169.735 47.4487 169.761 47.3208 169.761 47.1865C169.761 47.0132 169.711 46.8702 169.612 46.7575C169.516 46.6405 169.389 46.5408 169.228 46.4585C169.072 46.3762 168.892 46.3047 168.689 46.244C168.485 46.1833 168.277 46.1183 168.065 46.049C167.852 45.9797 167.644 45.8995 167.441 45.8085C167.237 45.7175 167.055 45.6027 166.895 45.464C166.739 45.3253 166.611 45.1563 166.511 44.957C166.416 44.7577 166.368 44.515 166.368 44.229C166.368 43.9733 166.42 43.7285 166.524 43.4945C166.633 43.2605 166.786 43.0547 166.986 42.877C167.189 42.6993 167.439 42.5585 167.733 42.4545C168.032 42.3462 168.372 42.292 168.754 42.292C169.191 42.292 169.586 42.3613 169.937 42.5C170.292 42.6387 170.595 42.8293 170.847 43.072L170.567 43.5335ZM176.217 43.5335C176.182 43.5898 176.145 43.631 176.106 43.657C176.067 43.6787 176.017 43.6895 175.957 43.6895C175.887 43.6895 175.809 43.6657 175.723 43.618C175.64 43.5703 175.538 43.5183 175.417 43.462C175.3 43.4057 175.161 43.3537 175.001 43.306C174.841 43.2583 174.65 43.2345 174.429 43.2345C174.247 43.2345 174.08 43.2583 173.929 43.306C173.781 43.3493 173.656 43.4122 173.552 43.4945C173.448 43.5725 173.367 43.6678 173.311 43.7805C173.255 43.8888 173.227 44.0058 173.227 44.1315C173.227 44.2962 173.274 44.4327 173.37 44.541C173.469 44.6493 173.597 44.7425 173.753 44.8205C173.913 44.8985 174.093 44.97 174.293 45.035C174.496 45.0957 174.702 45.1607 174.91 45.23C175.122 45.2993 175.328 45.3795 175.528 45.4705C175.731 45.5572 175.911 45.6677 176.067 45.802C176.227 45.932 176.355 46.0902 176.451 46.2765C176.55 46.4628 176.6 46.6903 176.6 46.959C176.6 47.2667 176.544 47.5527 176.431 47.817C176.323 48.077 176.16 48.3023 175.944 48.493C175.731 48.6837 175.467 48.8332 175.151 48.9415C174.834 49.0498 174.472 49.104 174.065 49.104C173.61 49.104 173.19 49.0282 172.804 48.8765C172.418 48.7248 172.096 48.532 171.836 48.298L172.135 47.8105C172.169 47.7498 172.213 47.7043 172.265 47.674C172.317 47.6393 172.386 47.622 172.473 47.622C172.555 47.622 172.639 47.6523 172.726 47.713C172.813 47.7737 172.917 47.8408 173.038 47.9145C173.159 47.9838 173.307 48.0488 173.48 48.1095C173.653 48.1658 173.87 48.194 174.13 48.194C174.347 48.194 174.535 48.168 174.696 48.116C174.856 48.0597 174.988 47.986 175.092 47.895C175.2 47.7997 175.281 47.6913 175.333 47.57C175.385 47.4487 175.411 47.3208 175.411 47.1865C175.411 47.0132 175.361 46.8702 175.261 46.7575C175.166 46.6405 175.038 46.5408 174.878 46.4585C174.722 46.3762 174.542 46.3047 174.338 46.244C174.134 46.1833 173.926 46.1183 173.714 46.049C173.502 45.9797 173.294 45.8995 173.09 45.8085C172.886 45.7175 172.704 45.6027 172.544 45.464C172.388 45.3253 172.26 45.1563 172.161 44.957C172.065 44.7577 172.018 44.515 172.018 44.229C172.018 43.9733 172.07 43.7285 172.174 43.4945C172.282 43.2605 172.436 43.0547 172.635 42.877C172.839 42.6993 173.088 42.5585 173.383 42.4545C173.682 42.3462 174.022 42.292 174.403 42.292C174.841 42.292 175.235 42.3613 175.586 42.5C175.941 42.6387 176.245 42.8293 176.496 43.072L176.217 43.5335ZM182.347 44.9635C182.347 44.7122 182.31 44.4803 182.237 44.268C182.167 44.0557 182.063 43.8715 181.925 43.7155C181.786 43.5595 181.617 43.4382 181.418 43.3515C181.218 43.2648 180.989 43.2215 180.729 43.2215C180.196 43.2215 179.775 43.3753 179.468 43.683C179.164 43.9907 178.971 44.4175 178.889 44.9635H182.347ZM183.394 48.0575C183.238 48.2395 183.058 48.3977 182.854 48.532C182.65 48.662 182.434 48.7682 182.204 48.8505C181.974 48.9328 181.736 48.9935 181.489 49.0325C181.246 49.0715 181.006 49.091 180.768 49.091C180.313 49.091 179.89 49.0152 179.5 48.8635C179.114 48.7075 178.779 48.4822 178.493 48.1875C178.211 47.8885 177.99 47.5202 177.83 47.0825C177.674 46.6405 177.596 46.1335 177.596 45.5615C177.596 45.1022 177.667 44.6753 177.81 44.281C177.953 43.8823 178.157 43.5357 178.421 43.241C178.69 42.9463 179.017 42.7145 179.403 42.5455C179.788 42.3765 180.222 42.292 180.703 42.292C181.106 42.292 181.476 42.3592 181.814 42.4935C182.156 42.6235 182.451 42.8142 182.698 43.0655C182.945 43.3168 183.138 43.6267 183.277 43.995C183.42 44.3633 183.491 44.7837 183.491 45.256C183.491 45.451 183.469 45.5832 183.426 45.6525C183.383 45.7175 183.303 45.75 183.186 45.75H178.857C178.87 46.1443 178.926 46.4888 179.026 46.7835C179.125 47.0738 179.262 47.3165 179.435 47.5115C179.613 47.7065 179.823 47.8517 180.066 47.947C180.308 48.0423 180.579 48.09 180.878 48.09C181.16 48.09 181.402 48.0575 181.606 47.9925C181.814 47.9275 181.992 47.8582 182.139 47.7845C182.291 47.7065 182.416 47.635 182.516 47.57C182.62 47.505 182.711 47.4725 182.789 47.4725C182.893 47.4725 182.973 47.5115 183.03 47.5895L183.394 48.0575ZM188.747 43.5335C188.712 43.5898 188.675 43.631 188.636 43.657C188.597 43.6787 188.548 43.6895 188.487 43.6895C188.418 43.6895 188.34 43.6657 188.253 43.618C188.171 43.5703 188.069 43.5183 187.947 43.462C187.83 43.4057 187.692 43.3537 187.531 43.306C187.371 43.2583 187.18 43.2345 186.959 43.2345C186.777 43.2345 186.611 43.2583 186.459 43.306C186.312 43.3493 186.186 43.4122 186.082 43.4945C185.978 43.5725 185.898 43.6678 185.841 43.7805C185.785 43.8888 185.757 44.0058 185.757 44.1315C185.757 44.2962 185.805 44.4327 185.9 44.541C186 44.6493 186.127 44.7425 186.283 44.8205C186.444 44.8985 186.624 44.97 186.823 45.035C187.027 45.0957 187.232 45.1607 187.44 45.23C187.653 45.2993 187.859 45.3795 188.058 45.4705C188.262 45.5572 188.441 45.6677 188.597 45.802C188.758 45.932 188.886 46.0902 188.981 46.2765C189.081 46.4628 189.13 46.6903 189.13 46.959C189.13 47.2667 189.074 47.5527 188.961 47.817C188.853 48.077 188.691 48.3023 188.474 48.493C188.262 48.6837 187.997 48.8332 187.681 48.9415C187.365 49.0498 187.003 49.104 186.595 49.104C186.14 49.104 185.72 49.0282 185.334 48.8765C184.949 48.7248 184.626 48.532 184.366 48.298L184.665 47.8105C184.7 47.7498 184.743 47.7043 184.795 47.674C184.847 47.6393 184.916 47.622 185.003 47.622C185.085 47.622 185.17 47.6523 185.256 47.713C185.343 47.7737 185.447 47.8408 185.568 47.9145C185.69 47.9838 185.837 48.0488 186.01 48.1095C186.184 48.1658 186.4 48.194 186.66 48.194C186.877 48.194 187.066 48.168 187.226 48.116C187.386 48.0597 187.518 47.986 187.622 47.895C187.731 47.7997 187.811 47.6913 187.863 47.57C187.915 47.4487 187.941 47.3208 187.941 47.1865C187.941 47.0132 187.891 46.8702 187.791 46.7575C187.696 46.6405 187.568 46.5408 187.408 46.4585C187.252 46.3762 187.072 46.3047 186.868 46.244C186.665 46.1833 186.457 46.1183 186.244 46.049C186.032 45.9797 185.824 45.8995 185.62 45.8085C185.417 45.7175 185.235 45.6027 185.074 45.464C184.918 45.3253 184.791 45.1563 184.691 44.957C184.596 44.7577 184.548 44.515 184.548 44.229C184.548 43.9733 184.6 43.7285 184.704 43.4945C184.812 43.2605 184.966 43.0547 185.165 42.877C185.369 42.6993 185.618 42.5585 185.913 42.4545C186.212 42.3462 186.552 42.292 186.933 42.292C187.371 42.292 187.765 42.3613 188.116 42.5C188.472 42.6387 188.775 42.8293 189.026 43.072L188.747 43.5335ZM196.605 42.292C197.091 42.292 197.528 42.3722 197.918 42.5325C198.313 42.6885 198.646 42.916 198.919 43.215C199.197 43.5097 199.409 43.8672 199.556 44.2875C199.704 44.7035 199.777 45.1715 199.777 45.6915C199.777 46.2115 199.704 46.6817 199.556 47.102C199.409 47.5223 199.197 47.8798 198.919 48.1745C198.646 48.4692 198.313 48.6967 197.918 48.857C197.528 49.013 197.091 49.091 196.605 49.091C196.116 49.091 195.674 49.013 195.279 48.857C194.889 48.6967 194.556 48.4692 194.278 48.1745C194.001 47.8798 193.787 47.5223 193.635 47.102C193.488 46.6817 193.414 46.2115 193.414 45.6915C193.414 45.1715 193.488 44.7035 193.635 44.2875C193.787 43.8672 194.001 43.5097 194.278 43.215C194.556 42.916 194.889 42.6885 195.279 42.5325C195.674 42.3722 196.116 42.292 196.605 42.292ZM196.605 48.103C197.229 48.103 197.695 47.8928 198.003 47.4725C198.311 47.0522 198.464 46.4607 198.464 45.698C198.464 44.9353 198.311 44.3438 198.003 43.9235C197.695 43.4988 197.229 43.2865 196.605 43.2865C195.973 43.2865 195.5 43.4988 195.188 43.9235C194.881 44.3438 194.727 44.9353 194.727 45.698C194.727 46.4607 194.881 47.0522 195.188 47.4725C195.5 47.8928 195.973 48.103 196.605 48.103ZM202.388 43.6635C202.601 43.2302 202.856 42.89 203.155 42.643C203.454 42.396 203.814 42.2725 204.234 42.2725C204.377 42.2725 204.512 42.2898 204.637 42.3245C204.767 42.3548 204.88 42.4025 204.975 42.4675L204.891 43.423C204.86 43.54 204.789 43.5985 204.676 43.5985C204.616 43.5985 204.525 43.5877 204.403 43.566C204.282 43.54 204.152 43.527 204.013 43.527C203.81 43.527 203.63 43.5573 203.474 43.618C203.318 43.6743 203.177 43.761 203.051 43.878C202.93 43.9907 202.822 44.1315 202.726 44.3005C202.631 44.4652 202.542 44.6537 202.46 44.866V49H201.192V42.396H201.92C202.059 42.396 202.152 42.422 202.2 42.474C202.252 42.5217 202.289 42.6083 202.31 42.734L202.388 43.6635ZM210.229 47.375C210.437 47.648 210.66 47.8387 210.899 47.947C211.141 48.0553 211.412 48.1095 211.711 48.1095C212.292 48.1095 212.74 47.9015 213.057 47.4855C213.377 47.0652 213.538 46.4542 213.538 45.6525C213.538 45.2322 213.501 44.8747 213.427 44.58C213.358 44.281 213.254 44.0383 213.115 43.852C212.981 43.6613 212.814 43.5227 212.615 43.436C212.415 43.345 212.19 43.2995 211.939 43.2995C211.57 43.2995 211.25 43.3818 210.977 43.5465C210.708 43.7112 210.459 43.9452 210.229 44.2485V47.375ZM210.164 43.384C210.303 43.2193 210.45 43.0698 210.606 42.9355C210.767 42.7968 210.938 42.6798 211.12 42.5845C211.302 42.4848 211.495 42.409 211.698 42.357C211.906 42.3007 212.127 42.2725 212.361 42.2725C212.738 42.2725 213.078 42.3462 213.382 42.4935C213.689 42.6408 213.952 42.8575 214.168 43.1435C214.385 43.4295 214.552 43.7827 214.669 44.203C214.79 44.6233 214.851 45.1065 214.851 45.6525C214.851 46.1422 214.784 46.5972 214.649 47.0175C214.519 47.4335 214.331 47.7953 214.084 48.103C213.841 48.4107 213.542 48.6533 213.187 48.831C212.836 49.0043 212.439 49.091 211.997 49.091C211.603 49.091 211.265 49.026 210.983 48.896C210.702 48.766 210.45 48.584 210.229 48.35V51.2165H208.962V42.396H209.722C209.9 42.396 210.01 42.4805 210.054 42.6495L210.164 43.384ZM217.47 43.6635C217.683 43.2302 217.938 42.89 218.237 42.643C218.536 42.396 218.896 42.2725 219.316 42.2725C219.459 42.2725 219.594 42.2898 219.719 42.3245C219.849 42.3548 219.962 42.4025 220.057 42.4675L219.973 43.423C219.942 43.54 219.871 43.5985 219.758 43.5985C219.698 43.5985 219.607 43.5877 219.485 43.566C219.364 43.54 219.234 43.527 219.095 43.527C218.892 43.527 218.712 43.5573 218.556 43.618C218.4 43.6743 218.259 43.761 218.133 43.878C218.012 43.9907 217.904 44.1315 217.808 44.3005C217.713 44.4652 217.624 44.6537 217.542 44.866V49H216.274V42.396H217.002C217.141 42.396 217.234 42.422 217.282 42.474C217.334 42.5217 217.371 42.6083 217.392 42.734L217.47 43.6635ZM223.608 42.292C224.094 42.292 224.531 42.3722 224.921 42.5325C225.316 42.6885 225.649 42.916 225.922 43.215C226.2 43.5097 226.412 43.8672 226.559 44.2875C226.707 44.7035 226.78 45.1715 226.78 45.6915C226.78 46.2115 226.707 46.6817 226.559 47.102C226.412 47.5223 226.2 47.8798 225.922 48.1745C225.649 48.4692 225.316 48.6967 224.921 48.857C224.531 49.013 224.094 49.091 223.608 49.091C223.119 49.091 222.677 49.013 222.282 48.857C221.892 48.6967 221.559 48.4692 221.281 48.1745C221.004 47.8798 220.789 47.5223 220.638 47.102C220.49 46.6817 220.417 46.2115 220.417 45.6915C220.417 45.1715 220.49 44.7035 220.638 44.2875C220.789 43.8672 221.004 43.5097 221.281 43.215C221.559 42.916 221.892 42.6885 222.282 42.5325C222.677 42.3722 223.119 42.292 223.608 42.292ZM223.608 48.103C224.232 48.103 224.698 47.8928 225.006 47.4725C225.313 47.0522 225.467 46.4607 225.467 45.698C225.467 44.9353 225.313 44.3438 225.006 43.9235C224.698 43.4988 224.232 43.2865 223.608 43.2865C222.976 43.2865 222.503 43.4988 222.191 43.9235C221.884 44.3438 221.73 44.9353 221.73 45.698C221.73 46.4607 221.884 47.0522 222.191 47.4725C222.503 47.8928 222.976 48.103 223.608 48.103ZM232.453 43.995C232.245 43.722 232.019 43.5313 231.777 43.423C231.538 43.3147 231.27 43.2605 230.971 43.2605C230.39 43.2605 229.939 43.4707 229.619 43.891C229.302 44.307 229.144 44.9158 229.144 45.7175C229.144 46.1378 229.179 46.4975 229.248 46.7965C229.322 47.0912 229.426 47.3338 229.56 47.5245C229.699 47.7108 229.868 47.8495 230.067 47.9405C230.267 48.0272 230.492 48.0705 230.743 48.0705C231.112 48.0705 231.43 47.9882 231.699 47.8235C231.967 47.6588 232.219 47.427 232.453 47.128V43.995ZM233.727 39.406V49H232.96C232.782 49 232.672 48.9155 232.628 48.7465L232.518 47.986C232.236 48.3197 231.915 48.5883 231.556 48.792C231.2 48.9913 230.789 49.091 230.321 49.091C229.944 49.091 229.601 49.0173 229.294 48.87C228.99 48.7227 228.73 48.5082 228.514 48.2265C228.297 47.9405 228.13 47.5873 228.013 47.167C227.896 46.7467 227.838 46.2635 227.838 45.7175C227.838 45.2278 227.903 44.7728 228.033 44.3525C228.163 43.9322 228.351 43.5682 228.598 43.2605C228.845 42.9528 229.144 42.7123 229.495 42.539C229.846 42.3613 230.243 42.2725 230.685 42.2725C231.083 42.2725 231.421 42.3375 231.699 42.4675C231.98 42.5975 232.232 42.7817 232.453 43.02V39.406H233.727ZM240.987 42.396V49H240.227C240.054 49 239.941 48.9155 239.889 48.7465L239.798 48.0835C239.655 48.2352 239.505 48.3738 239.349 48.4995C239.193 48.6252 239.027 48.7335 238.849 48.8245C238.671 48.9112 238.483 48.9783 238.283 49.026C238.084 49.078 237.87 49.104 237.64 49.104C237.276 49.104 236.955 49.0433 236.678 48.922C236.405 48.8007 236.175 48.6317 235.989 48.415C235.803 48.194 235.662 47.9297 235.566 47.622C235.471 47.3143 235.423 46.9742 235.423 46.6015V42.396H236.697V46.6015C236.697 47.0738 236.806 47.4422 237.022 47.7065C237.239 47.9665 237.571 48.0965 238.017 48.0965C238.342 48.0965 238.645 48.0207 238.927 47.869C239.209 47.713 239.473 47.5007 239.72 47.232V42.396H240.987ZM247.385 43.631C247.346 43.6787 247.307 43.7177 247.268 43.748C247.233 43.774 247.181 43.787 247.112 43.787C247.042 43.787 246.969 43.761 246.891 43.709C246.817 43.6527 246.722 43.5942 246.605 43.5335C246.492 43.4685 246.353 43.41 246.189 43.358C246.028 43.3017 245.829 43.2735 245.591 43.2735C245.279 43.2735 245.004 43.3298 244.765 43.4425C244.527 43.5552 244.328 43.7155 244.167 43.9235C244.011 44.1315 243.892 44.385 243.81 44.684C243.727 44.983 243.686 45.3188 243.686 45.6915C243.686 46.0772 243.73 46.4217 243.816 46.725C243.903 47.024 244.026 47.2775 244.187 47.4855C244.347 47.6892 244.542 47.8452 244.772 47.9535C245.001 48.0575 245.257 48.1095 245.539 48.1095C245.812 48.1095 246.037 48.077 246.215 48.012C246.392 47.9427 246.54 47.869 246.657 47.791C246.774 47.713 246.871 47.6415 246.949 47.5765C247.027 47.5072 247.107 47.4725 247.19 47.4725C247.294 47.4725 247.374 47.5115 247.43 47.5895L247.794 48.0575C247.643 48.2438 247.471 48.402 247.281 48.532C247.094 48.662 246.895 48.7682 246.683 48.8505C246.47 48.9328 246.247 48.9935 246.013 49.0325C245.784 49.0715 245.55 49.091 245.311 49.091C244.9 49.091 244.514 49.0152 244.154 48.8635C243.799 48.7118 243.489 48.4908 243.225 48.2005C242.965 47.9102 242.759 47.5548 242.607 47.1345C242.456 46.7098 242.38 46.2288 242.38 45.6915C242.38 45.2018 242.447 44.749 242.581 44.333C242.72 43.917 242.921 43.5595 243.186 43.2605C243.454 42.9572 243.784 42.721 244.174 42.552C244.564 42.3787 245.01 42.292 245.513 42.292C245.985 42.292 246.401 42.3678 246.761 42.5195C247.12 42.6712 247.441 42.8857 247.723 43.163L247.385 43.631ZM251.044 49.104C250.511 49.104 250.1 48.9545 249.809 48.6555C249.523 48.3565 249.38 47.9297 249.38 47.375V43.423H248.613C248.54 43.423 248.477 43.4013 248.425 43.358C248.377 43.3103 248.353 43.241 248.353 43.15V42.6365L249.426 42.487L249.712 40.5175C249.729 40.4438 249.762 40.3875 249.809 40.3485C249.861 40.3052 249.926 40.2835 250.004 40.2835H250.648V42.5H252.52V43.423H250.648V47.2905C250.648 47.5505 250.711 47.7455 250.836 47.8755C250.966 48.0012 251.131 48.064 251.33 48.064C251.447 48.064 251.547 48.0488 251.629 48.0185C251.716 47.9882 251.79 47.9557 251.85 47.921C251.911 47.882 251.963 47.8473 252.006 47.817C252.05 47.7867 252.089 47.7715 252.123 47.7715C252.167 47.7715 252.199 47.7823 252.221 47.804C252.247 47.8213 252.273 47.8517 252.299 47.895L252.676 48.506C252.468 48.6967 252.221 48.844 251.935 48.948C251.649 49.052 251.352 49.104 251.044 49.104ZM257.581 43.5335C257.546 43.5898 257.509 43.631 257.47 43.657C257.431 43.6787 257.382 43.6895 257.321 43.6895C257.252 43.6895 257.174 43.6657 257.087 43.618C257.005 43.5703 256.903 43.5183 256.781 43.462C256.664 43.4057 256.526 43.3537 256.365 43.306C256.205 43.2583 256.014 43.2345 255.793 43.2345C255.611 43.2345 255.445 43.2583 255.293 43.306C255.146 43.3493 255.02 43.4122 254.916 43.4945C254.812 43.5725 254.732 43.6678 254.675 43.7805C254.619 43.8888 254.591 44.0058 254.591 44.1315C254.591 44.2962 254.639 44.4327 254.734 44.541C254.834 44.6493 254.961 44.7425 255.117 44.8205C255.278 44.8985 255.458 44.97 255.657 45.035C255.861 45.0957 256.066 45.1607 256.274 45.23C256.487 45.2993 256.693 45.3795 256.892 45.4705C257.096 45.5572 257.275 45.6677 257.431 45.802C257.592 45.932 257.72 46.0902 257.815 46.2765C257.915 46.4628 257.964 46.6903 257.964 46.959C257.964 47.2667 257.908 47.5527 257.795 47.817C257.687 48.077 257.525 48.3023 257.308 48.493C257.096 48.6837 256.831 48.8332 256.515 48.9415C256.199 49.0498 255.837 49.104 255.429 49.104C254.974 49.104 254.554 49.0282 254.168 48.8765C253.783 48.7248 253.46 48.532 253.2 48.298L253.499 47.8105C253.534 47.7498 253.577 47.7043 253.629 47.674C253.681 47.6393 253.75 47.622 253.837 47.622C253.919 47.622 254.004 47.6523 254.09 47.713C254.177 47.7737 254.281 47.8408 254.402 47.9145C254.524 47.9838 254.671 48.0488 254.844 48.1095C255.018 48.1658 255.234 48.194 255.494 48.194C255.711 48.194 255.9 48.168 256.06 48.116C256.22 48.0597 256.352 47.986 256.456 47.895C256.565 47.7997 256.645 47.6913 256.697 47.57C256.749 47.4487 256.775 47.3208 256.775 47.1865C256.775 47.0132 256.725 46.8702 256.625 46.7575C256.53 46.6405 256.402 46.5408 256.242 46.4585C256.086 46.3762 255.906 46.3047 255.702 46.244C255.499 46.1833 255.291 46.1183 255.078 46.049C254.866 45.9797 254.658 45.8995 254.454 45.8085C254.251 45.7175 254.069 45.6027 253.908 45.464C253.752 45.3253 253.625 45.1563 253.525 44.957C253.43 44.7577 253.382 44.515 253.382 44.229C253.382 43.9733 253.434 43.7285 253.538 43.4945C253.646 43.2605 253.8 43.0547 253.999 42.877C254.203 42.6993 254.452 42.5585 254.747 42.4545C255.046 42.3462 255.386 42.292 255.767 42.292C256.205 42.292 256.599 42.3613 256.95 42.5C257.306 42.6387 257.609 42.8293 257.86 43.072L257.581 43.5335Z" fill="#2095D3"/>
</g>
<defs>
<filter id="filter0_d_446_6338" x="0" y="0" width="353" height="96" filterUnits="userSpaceOnUse" color-interpolation-filters="sRGB">
<feFlood flood-opacity="0" result="BackgroundImageFix"/>
<feColorMatrix in="SourceAlpha" type="matrix" values="0 0 0 0 0 0 0 0 0 0 0 0 0 0 0 0 0 0 127 0" result="hardAlpha"/>
<feOffset dy="12"/>
<feGaussianBlur stdDeviation="12"/>
<feComposite in2="hardAlpha" operator="out"/>
<feColorMatrix type="matrix" values="0 0 0 0 0 0 0 0 0 0 0 0 0 0 0 0 0 0 0.25 0"/>
<feBlend mode="normal" in2="BackgroundImageFix" result="effect1_dropShadow_446_6338"/>
<feBlend mode="normal" in="SourceGraphic" in2="effect1_dropShadow_446_6338" result="shape"/>
</filter>
</defs>
</svg>
