<svg width="60" height="60" viewBox="0 0 60 60" fill="none" xmlns="http://www.w3.org/2000/svg">
<circle cx="30" cy="30" r="30" fill="#078F3C"/>
<path d="M40.3337 35H37.0003V38.3333H40.3337M40.3337 28.3333H37.0003V31.6667H40.3337M43.667 41.6667H30.3337V38.3333H33.667V35H30.3337V31.6667H33.667V28.3333H30.3337V25H43.667M27.0003 21.6667H23.667V18.3333H27.0003M27.0003 28.3333H23.667V25H27.0003M27.0003 35H23.667V31.6667H27.0003M27.0003 41.6667H23.667V38.3333H27.0003M20.3337 21.6667H17.0003V18.3333H20.3337M20.3337 28.3333H17.0003V25H20.3337M20.3337 35H17.0003V31.6667H20.3337M20.3337 41.6667H17.0003V38.3333H20.3337M30.3337 21.6667V15H13.667V45H47.0003V21.6667H30.3337Z" fill="white"/>
</svg>
