<svg width="157" height="157" viewBox="0 0 157 157" fill="none" xmlns="http://www.w3.org/2000/svg">
<path d="M78.5721 145.264C115.459 145.264 145.362 115.361 145.362 78.4743C145.362 41.5873 115.459 11.6845 78.5721 11.6845C41.6851 11.6845 11.7823 41.5873 11.7823 78.4743C11.7823 115.361 41.6851 145.264 78.5721 145.264Z" fill="#50B651"/>
<path opacity="0.663" fill-rule="evenodd" clip-rule="evenodd" d="M145.157 78.2865C145.157 115.289 115.161 145.286 78.1664 145.286C41.1718 145.286 11.1672 115.289 11.1672 78.2865C11.1672 61.9177 11.626 59.4841 18.0691 50.1652C18.0691 50.1652 17.7367 60.691 25.4547 66.9545C30.2538 70.846 35.2624 68.0367 44.43 63.8144C54.3473 59.2431 62.4095 56.2942 68.6996 57.0721C78.1748 58.2457 107.38 75.7847 122.621 72.2922C134.798 69.5078 133.513 40.7998 133.513 40.7998C146.811 53.7857 145.157 62.5627 145.157 78.2865Z" fill="url(#paint0_linear_2002_23)"/>
<path opacity="0.586" fill-rule="evenodd" clip-rule="evenodd" d="M106.916 127.499C131.147 104.707 135.175 78.5951 118.999 49.1645C119.081 49.2244 120.082 45.7712 122.001 38.805C130.61 49.2299 135.187 62.0973 135.734 77.4071C135.729 97.2373 126.123 113.935 106.916 127.499Z" fill="url(#paint1_linear_2002_23)"/>
<path opacity="0.744" fill-rule="evenodd" clip-rule="evenodd" d="M95.4228 38.943C83.7269 32.47 70.3087 19.4492 72.0924 16.7147C73.876 13.9802 97.027 14.4506 108.725 20.9236C120.422 27.3966 130.378 46.814 128.596 49.5485C126.814 52.283 107.119 45.416 95.4228 38.943Z" fill="url(#paint2_radial_2002_23)"/>
<path fill-rule="evenodd" clip-rule="evenodd" d="M105.611 94.9228C95.9082 94.9228 88.0422 86.8324 88.0422 76.8535C88.0422 66.8747 95.9082 58.7859 105.611 58.7859C115.314 58.7859 123.182 66.8747 123.182 76.8535C123.182 86.8324 115.316 94.9228 105.611 94.9228ZM105.736 89.1912C111.792 89.1912 116.707 83.6673 116.707 76.8535C116.707 70.0398 111.792 64.5209 105.736 64.5209C99.68 64.5209 94.7645 70.0447 94.7645 76.8569C94.7645 83.669 99.68 89.1912 105.736 89.1912Z" fill="white"/>
<path fill-rule="evenodd" clip-rule="evenodd" d="M69.3612 44.2375H82.0213V94.7217H75.0712V49.7746H69.3612V44.2375Z" fill="white"/>
<path fill-rule="evenodd" clip-rule="evenodd" d="M59.9259 59.2996H66.497V101.459C66.497 105.301 62.456 109.302 58.518 111.024C56.6562 111.837 53.2208 112.32 48.2117 112.473V108.279C53.111 107.733 56.4179 106.643 58.1323 105.01C59.1216 103.635 59.7399 102.028 59.9276 100.345V87.9594C58.1711 91.6863 55.9591 94.157 53.2917 95.3716C50.519 96.8677 44.8754 96.6217 42.5715 95.3716C40.2675 94.1216 36.888 90.8302 35.3388 85.9281C34.9099 84.575 33.8427 80.8929 33.9541 76.9915C34.0538 73.2763 35.2839 69.3449 36.3062 67.7292C38.0616 64.9697 40.8294 61.5138 45.0217 60.0693C47.0697 59.3633 50.8653 59.1095 56.4085 59.3079V63.4786C52.2893 63.2005 49.7194 63.3396 48.6987 63.8959C47.1677 64.727 43.7118 65.7527 42.5715 73.2846C41.4311 80.8165 42.6047 86.9803 46.2202 88.9102C47.4586 89.5752 49.6496 90.3614 51.6743 89.6683C55.564 88.3384 59.2244 83.5959 59.5037 80.3826C59.7852 77.1223 59.9259 70.0946 59.9259 59.2996Z" fill="white"/>
<path fill-rule="evenodd" clip-rule="evenodd" d="M143.058 91.6963C136.852 121.576 110.375 144.027 78.6568 144.027C42.3304 144.027 12.881 114.578 12.881 78.2515C12.881 55.6841 24.2462 35.7713 41.5641 23.9274C27.4927 35.5968 18.5329 53.2255 18.5329 72.9388C18.5329 108.102 47.0381 136.605 82.1992 136.605C110.834 136.605 135.051 117.703 143.058 91.6963Z" fill="url(#paint3_radial_2002_23)"/>
<path fill-rule="evenodd" clip-rule="evenodd" d="M78.6568 0.355915C35.6364 0.355915 0.759521 35.2311 0.759521 78.2515C0.759521 121.272 35.6364 156.149 78.6568 156.149C121.677 156.149 156.554 121.272 156.554 78.2515C156.554 35.2311 121.677 0.355915 78.6568 0.355915ZM78.6568 144.029C42.3305 144.029 12.8811 114.58 12.8811 78.2532C12.8811 55.6857 24.2462 35.773 41.5641 23.9291C52.486 16.4488 65.419 12.4554 78.6568 12.4758C114.983 12.4758 144.433 41.9235 144.433 78.2515C144.435 82.7683 143.974 87.2734 143.058 91.6963C136.852 121.576 110.375 144.027 78.6568 144.027V144.029Z" fill="white"/>
<defs>
<linearGradient id="paint0_linear_2002_23" x1="75.5782" y1="49.9491" x2="84.1657" y2="127.501" gradientUnits="userSpaceOnUse">
<stop stop-color="#123214"/>
<stop offset="0.46" stop-color="#3E7C37"/>
<stop offset="0.91" stop-color="#5FBB46"/>
</linearGradient>
<linearGradient id="paint1_linear_2002_23" x1="125.189" y1="44.9079" x2="125.189" y2="107.619" gradientUnits="userSpaceOnUse">
<stop stop-color="white" stop-opacity="0"/>
<stop offset="0.64" stop-color="white" stop-opacity="0.43"/>
<stop offset="1" stop-color="white" stop-opacity="0.42"/>
</linearGradient>
<radialGradient id="paint2_radial_2002_23" cx="0" cy="0" r="1" gradientUnits="userSpaceOnUse" gradientTransform="translate(101.768 33.571) rotate(26.7606) scale(33.0039 13.7456)">
<stop offset="0.13" stop-color="white"/>
<stop offset="0.29" stop-color="white" stop-opacity="0.69"/>
<stop offset="0.45" stop-color="white" stop-opacity="0.4"/>
<stop offset="0.59" stop-color="white" stop-opacity="0.18"/>
<stop offset="0.69" stop-color="white" stop-opacity="0.05"/>
<stop offset="0.74" stop-color="white" stop-opacity="0"/>
</radialGradient>
<radialGradient id="paint3_radial_2002_23" cx="0" cy="0" r="1" gradientUnits="userSpaceOnUse" gradientTransform="translate(89.9358 63.0966) rotate(39.84) scale(73.9609 80.6174)">
<stop offset="0.86" stop-opacity="0"/>
<stop offset="0.98" stop-opacity="0.47"/>
<stop offset="1"/>
</radialGradient>
</defs>
</svg>
