<svg width="351" height="96" viewBox="0 0 351 96" fill="none" xmlns="http://www.w3.org/2000/svg">
<g filter="url(#filter0_d_446_6336)">
<rect x="24" y="12" width="303" height="48" rx="12" fill="#D9FFDA" fill-opacity="0.8" shape-rendering="crispEdges"/>
<path d="M38.67 30.998C38.748 30.998 38.8152 31.0283 38.8715 31.089L39.4175 31.687C39.0362 32.1377 38.5703 32.4865 38.02 32.7335C37.474 32.9805 36.8153 33.104 36.044 33.104C35.368 33.104 34.7548 32.987 34.2045 32.753C33.6585 32.519 33.1905 32.1918 32.8005 31.7715C32.4148 31.3512 32.1158 30.8485 31.9035 30.2635C31.6912 29.6785 31.585 29.035 31.585 28.333C31.585 27.631 31.6955 26.9875 31.9165 26.4025C32.1418 25.8175 32.456 25.3148 32.859 24.8945C33.262 24.4742 33.743 24.147 34.302 23.913C34.8653 23.679 35.4872 23.562 36.1675 23.562C36.8305 23.562 37.4198 23.6703 37.9355 23.887C38.4512 24.1037 38.8997 24.3918 39.281 24.7515L38.826 25.395C38.7957 25.4427 38.7567 25.4817 38.709 25.512C38.6657 25.5423 38.6072 25.5575 38.5335 25.5575C38.4512 25.5575 38.3537 25.5163 38.241 25.434C38.1327 25.3517 37.9875 25.2607 37.8055 25.161C37.6278 25.057 37.4068 24.9638 37.1425 24.8815C36.8782 24.7992 36.5488 24.758 36.1545 24.758C35.6908 24.758 35.2662 24.8403 34.8805 25.005C34.4948 25.1653 34.1612 25.3993 33.8795 25.707C33.6022 26.0103 33.3855 26.3852 33.2295 26.8315C33.0778 27.2735 33.002 27.774 33.002 28.333C33.002 28.9007 33.0822 29.4055 33.2425 29.8475C33.4028 30.2895 33.6238 30.6643 33.9055 30.972C34.1872 31.2797 34.5187 31.5137 34.9 31.674C35.2813 31.8343 35.693 31.9145 36.135 31.9145C36.4037 31.9145 36.6442 31.8993 36.8565 31.869C37.0732 31.8343 37.2703 31.7845 37.448 31.7195C37.63 31.6545 37.8012 31.5722 37.9615 31.4725C38.1218 31.3685 38.28 31.245 38.436 31.102C38.4707 31.0717 38.5075 31.0478 38.5465 31.0305C38.5855 31.0088 38.6267 30.998 38.67 30.998ZM41.7066 27.6635C41.919 27.2302 42.1746 26.89 42.4736 26.643C42.7726 26.396 43.1323 26.2725 43.5526 26.2725C43.6956 26.2725 43.83 26.2898 43.9556 26.3245C44.0856 26.3548 44.1983 26.4025 44.2936 26.4675L44.2091 27.423C44.1788 27.54 44.1073 27.5985 43.9946 27.5985C43.934 27.5985 43.843 27.5877 43.7216 27.566C43.6003 27.54 43.4703 27.527 43.3316 27.527C43.128 27.527 42.9481 27.5573 42.7921 27.618C42.6361 27.6743 42.4953 27.761 42.3696 27.878C42.2483 27.9907 42.14 28.1315 42.0446 28.3005C41.9493 28.4652 41.8605 28.6537 41.7781 28.866V33H40.5106V26.396H41.2386C41.3773 26.396 41.4705 26.422 41.5181 26.474C41.5701 26.5217 41.607 26.6083 41.6286 26.734L41.7066 27.6635ZM49.4046 28.9635C49.4046 28.7122 49.3678 28.4803 49.2941 28.268C49.2248 28.0557 49.1208 27.8715 48.9821 27.7155C48.8435 27.5595 48.6745 27.4382 48.4751 27.3515C48.2758 27.2648 48.0461 27.2215 47.7861 27.2215C47.2531 27.2215 46.8328 27.3753 46.5251 27.683C46.2218 27.9907 46.029 28.4175 45.9466 28.9635H49.4046ZM50.4511 32.0575C50.2951 32.2395 50.1153 32.3977 49.9116 32.532C49.708 32.662 49.4913 32.7682 49.2616 32.8505C49.032 32.9328 48.7936 32.9935 48.5466 33.0325C48.304 33.0715 48.0635 33.091 47.8251 33.091C47.3701 33.091 46.9476 33.0152 46.5576 32.8635C46.172 32.7075 45.8361 32.4822 45.5501 32.1875C45.2685 31.8885 45.0475 31.5202 44.8871 31.0825C44.7311 30.6405 44.6531 30.1335 44.6531 29.5615C44.6531 29.1022 44.7246 28.6753 44.8676 28.281C45.0106 27.8823 45.2143 27.5357 45.4786 27.241C45.7473 26.9463 46.0745 26.7145 46.4601 26.5455C46.8458 26.3765 47.2791 26.292 47.7601 26.292C48.1631 26.292 48.5336 26.3592 48.8716 26.4935C49.214 26.6235 49.5086 26.8142 49.7556 27.0655C50.0026 27.3168 50.1955 27.6267 50.3341 27.995C50.4771 28.3633 50.5486 28.7837 50.5486 29.256C50.5486 29.451 50.527 29.5832 50.4836 29.6525C50.4403 29.7175 50.3601 29.75 50.2431 29.75H45.9141C45.9271 30.1443 45.9835 30.4888 46.0831 30.7835C46.1828 31.0738 46.3193 31.3165 46.4926 31.5115C46.6703 31.7065 46.8805 31.8517 47.1231 31.947C47.3658 32.0423 47.6366 32.09 47.9356 32.09C48.2173 32.09 48.46 32.0575 48.6636 31.9925C48.8716 31.9275 49.0493 31.8582 49.1966 31.7845C49.3483 31.7065 49.474 31.635 49.5736 31.57C49.6776 31.505 49.7686 31.4725 49.8466 31.4725C49.9506 31.4725 50.0308 31.5115 50.0871 31.5895L50.4511 32.0575ZM55.46 30.0685C54.9443 30.0858 54.5067 30.127 54.147 30.192C53.7873 30.2527 53.4948 30.335 53.2695 30.439C53.0442 30.543 52.8817 30.6665 52.782 30.8095C52.6823 30.9482 52.6325 31.1042 52.6325 31.2775C52.6325 31.4422 52.6585 31.5852 52.7105 31.7065C52.7668 31.8235 52.8405 31.921 52.9315 31.999C53.0268 32.0727 53.1373 32.1268 53.263 32.1615C53.3887 32.1962 53.5252 32.2135 53.6725 32.2135C53.8675 32.2135 54.0452 32.194 54.2055 32.155C54.3702 32.116 54.524 32.0618 54.667 31.9925C54.81 31.9188 54.9465 31.83 55.0765 31.726C55.2065 31.622 55.3343 31.5028 55.46 31.3685V30.0685ZM51.742 27.319C52.1103 26.968 52.509 26.7058 52.938 26.5325C53.3713 26.3592 53.8458 26.2725 54.3615 26.2725C54.7385 26.2725 55.0722 26.3353 55.3625 26.461C55.6528 26.5823 55.8977 26.7535 56.097 26.9745C56.2963 27.1955 56.4458 27.4598 56.5455 27.7675C56.6495 28.0752 56.7015 28.4153 56.7015 28.788V33H56.136C56.0103 33 55.915 32.9805 55.85 32.9415C55.785 32.8982 55.733 32.8202 55.694 32.7075L55.5575 32.129C55.3885 32.285 55.2217 32.4237 55.057 32.545C54.8923 32.662 54.719 32.7638 54.537 32.8505C54.3593 32.9328 54.1687 32.9957 53.965 33.039C53.7613 33.0823 53.536 33.104 53.289 33.104C53.029 33.104 52.7842 33.0693 52.5545 33C52.3292 32.9263 52.132 32.8158 51.963 32.6685C51.794 32.5212 51.6597 32.337 51.56 32.116C51.4647 31.895 51.417 31.6372 51.417 31.3425C51.417 31.0825 51.4863 30.8333 51.625 30.595C51.768 30.3523 51.9977 30.1357 52.314 29.945C52.6347 29.7543 53.0507 29.5983 53.562 29.477C54.0777 29.3557 54.7103 29.2863 55.46 29.269V28.788C55.46 28.2897 55.3538 27.917 55.1415 27.67C54.9292 27.423 54.6172 27.2995 54.2055 27.2995C53.9282 27.2995 53.6942 27.3342 53.5035 27.4035C53.3172 27.4728 53.1547 27.5508 53.016 27.6375C52.8817 27.7198 52.7625 27.7957 52.6585 27.865C52.5588 27.9343 52.4548 27.969 52.3465 27.969C52.2598 27.969 52.184 27.9452 52.119 27.8975C52.0583 27.8498 52.0085 27.7935 51.9695 27.7285L51.742 27.319ZM60.3764 33.104C59.8434 33.104 59.4318 32.9545 59.1414 32.6555C58.8554 32.3565 58.7124 31.9297 58.7124 31.375V27.423H57.9454C57.8718 27.423 57.8089 27.4013 57.7569 27.358C57.7093 27.3103 57.6854 27.241 57.6854 27.15V26.6365L58.7579 26.487L59.0439 24.5175C59.0613 24.4438 59.0938 24.3875 59.1414 24.3485C59.1934 24.3052 59.2584 24.2835 59.3364 24.2835H59.9799V26.5H61.8519V27.423H59.9799V31.2905C59.9799 31.5505 60.0428 31.7455 60.1684 31.8755C60.2984 32.0012 60.4631 32.064 60.6624 32.064C60.7794 32.064 60.8791 32.0488 60.9614 32.0185C61.0481 31.9882 61.1218 31.9557 61.1824 31.921C61.2431 31.882 61.2951 31.8473 61.3384 31.817C61.3818 31.7867 61.4208 31.7715 61.4554 31.7715C61.4988 31.7715 61.5313 31.7823 61.5529 31.804C61.5789 31.8213 61.6049 31.8517 61.6309 31.895L62.0079 32.506C61.7999 32.6967 61.5529 32.844 61.2669 32.948C60.9809 33.052 60.6841 33.104 60.3764 33.104ZM67.3558 28.9635C67.3558 28.7122 67.319 28.4803 67.2453 28.268C67.176 28.0557 67.072 27.8715 66.9333 27.7155C66.7947 27.5595 66.6257 27.4382 66.4263 27.3515C66.227 27.2648 65.9973 27.2215 65.7373 27.2215C65.2043 27.2215 64.784 27.3753 64.4763 27.683C64.173 27.9907 63.9802 28.4175 63.8978 28.9635H67.3558ZM68.4023 32.0575C68.2463 32.2395 68.0665 32.3977 67.8628 32.532C67.6592 32.662 67.4425 32.7682 67.2128 32.8505C66.9832 32.9328 66.7448 32.9935 66.4978 33.0325C66.2552 33.0715 66.0147 33.091 65.7763 33.091C65.3213 33.091 64.8988 33.0152 64.5088 32.8635C64.1232 32.7075 63.7873 32.4822 63.5013 32.1875C63.2197 31.8885 62.9987 31.5202 62.8383 31.0825C62.6823 30.6405 62.6043 30.1335 62.6043 29.5615C62.6043 29.1022 62.6758 28.6753 62.8188 28.281C62.9618 27.8823 63.1655 27.5357 63.4298 27.241C63.6985 26.9463 64.0257 26.7145 64.4113 26.5455C64.797 26.3765 65.2303 26.292 65.7113 26.292C66.1143 26.292 66.4848 26.3592 66.8228 26.4935C67.1652 26.6235 67.4598 26.8142 67.7068 27.0655C67.9538 27.3168 68.1467 27.6267 68.2853 27.995C68.4283 28.3633 68.4998 28.7837 68.4998 29.256C68.4998 29.451 68.4782 29.5832 68.4348 29.6525C68.3915 29.7175 68.3113 29.75 68.1943 29.75H63.8653C63.8783 30.1443 63.9347 30.4888 64.0343 30.7835C64.134 31.0738 64.2705 31.3165 64.4438 31.5115C64.6215 31.7065 64.8317 31.8517 65.0743 31.947C65.317 32.0423 65.5878 32.09 65.8868 32.09C66.1685 32.09 66.4112 32.0575 66.6148 31.9925C66.8228 31.9275 67.0005 31.8582 67.1478 31.7845C67.2995 31.7065 67.4252 31.635 67.5248 31.57C67.6288 31.505 67.7198 31.4725 67.7978 31.4725C67.9018 31.4725 67.982 31.5115 68.0383 31.5895L68.4023 32.0575ZM73.5858 33V27.436L72.8968 27.3515C72.7971 27.3298 72.7148 27.2952 72.6498 27.2475C72.5891 27.1955 72.5588 27.1218 72.5588 27.0265V26.5H73.5858V25.902C73.5858 25.525 73.6399 25.1892 73.7483 24.8945C73.8566 24.5998 74.0104 24.3507 74.2098 24.147C74.4134 23.939 74.6561 23.783 74.9378 23.679C75.2238 23.5707 75.5444 23.5165 75.8998 23.5165C76.1988 23.5165 76.4739 23.5598 76.7253 23.6465L76.6993 24.2835C76.6949 24.3398 76.6776 24.3832 76.6473 24.4135C76.6169 24.4395 76.5758 24.459 76.5238 24.472C76.4761 24.485 76.4154 24.4937 76.3418 24.498C76.2724 24.498 76.1966 24.498 76.1143 24.498C75.9193 24.498 75.7416 24.5218 75.5813 24.5695C75.4209 24.6172 75.2844 24.6973 75.1718 24.81C75.0591 24.9227 74.9724 25.0722 74.9118 25.2585C74.8511 25.4405 74.8208 25.668 74.8208 25.941V26.5H76.6733V27.423H74.8598V33H73.5858ZM80.3446 26.292C80.83 26.292 81.2676 26.3722 81.6576 26.5325C82.052 26.6885 82.3856 26.916 82.6586 27.215C82.936 27.5097 83.1483 27.8672 83.2956 28.2875C83.443 28.7035 83.5166 29.1715 83.5166 29.6915C83.5166 30.2115 83.443 30.6817 83.2956 31.102C83.1483 31.5223 82.936 31.8798 82.6586 32.1745C82.3856 32.4692 82.052 32.6967 81.6576 32.857C81.2676 33.013 80.83 33.091 80.3446 33.091C79.855 33.091 79.413 33.013 79.0186 32.857C78.6286 32.6967 78.295 32.4692 78.0176 32.1745C77.7403 31.8798 77.5258 31.5223 77.3741 31.102C77.2268 30.6817 77.1531 30.2115 77.1531 29.6915C77.1531 29.1715 77.2268 28.7035 77.3741 28.2875C77.5258 27.8672 77.7403 27.5097 78.0176 27.215C78.295 26.916 78.6286 26.6885 79.0186 26.5325C79.413 26.3722 79.855 26.292 80.3446 26.292ZM80.3446 32.103C80.9686 32.103 81.4345 31.8928 81.7421 31.4725C82.0498 31.0522 82.2036 30.4607 82.2036 29.698C82.2036 28.9353 82.0498 28.3438 81.7421 27.9235C81.4345 27.4988 80.9686 27.2865 80.3446 27.2865C79.712 27.2865 79.2396 27.4988 78.9276 27.9235C78.62 28.3438 78.4661 28.9353 78.4661 29.698C78.4661 30.4607 78.62 31.0522 78.9276 31.4725C79.2396 31.8928 79.712 32.103 80.3446 32.103ZM86.1275 27.6635C86.3398 27.2302 86.5955 26.89 86.8945 26.643C87.1935 26.396 87.5532 26.2725 87.9735 26.2725C88.1165 26.2725 88.2508 26.2898 88.3765 26.3245C88.5065 26.3548 88.6192 26.4025 88.7145 26.4675L88.63 27.423C88.5997 27.54 88.5282 27.5985 88.4155 27.5985C88.3548 27.5985 88.2638 27.5877 88.1425 27.566C88.0212 27.54 87.8912 27.527 87.7525 27.527C87.5488 27.527 87.369 27.5573 87.213 27.618C87.057 27.6743 86.9162 27.761 86.7905 27.878C86.6692 27.9907 86.5608 28.1315 86.4655 28.3005C86.3702 28.4652 86.2813 28.6537 86.199 28.866V33H84.9315V26.396H85.6595C85.7982 26.396 85.8913 26.422 85.939 26.474C85.991 26.5217 86.0278 26.6083 86.0495 26.734L86.1275 27.6635ZM89.6923 33V26.396H90.4528C90.6304 26.396 90.7409 26.4805 90.7843 26.6495L90.8753 27.28C91.1179 26.9897 91.3866 26.7535 91.6813 26.5715C91.9803 26.3852 92.3291 26.292 92.7278 26.292C93.1654 26.292 93.5208 26.4133 93.7938 26.656C94.0668 26.8943 94.2661 27.2193 94.3918 27.631C94.4871 27.397 94.6106 27.1955 94.7623 27.0265C94.9139 26.8575 95.0829 26.7188 95.2693 26.6105C95.4556 26.5022 95.6528 26.422 95.8608 26.37C96.0731 26.318 96.2876 26.292 96.5043 26.292C96.8553 26.292 97.1673 26.3483 97.4403 26.461C97.7176 26.5693 97.9516 26.7297 98.1423 26.942C98.3329 27.1543 98.4781 27.4165 98.5778 27.7285C98.6774 28.0405 98.7273 28.3958 98.7273 28.7945V33H97.4533V28.7945C97.4533 28.3005 97.3449 27.9278 97.1283 27.6765C96.9159 27.4252 96.6039 27.2995 96.1923 27.2995C96.0103 27.2995 95.8369 27.332 95.6723 27.397C95.5076 27.4577 95.3624 27.5508 95.2368 27.6765C95.1154 27.8022 95.0179 27.9582 94.9443 28.1445C94.8749 28.3308 94.8403 28.5475 94.8403 28.7945V33H93.5663V28.7945C93.5663 28.2832 93.4644 27.9062 93.2608 27.6635C93.0571 27.4208 92.7581 27.2995 92.3638 27.2995C92.0908 27.2995 91.8373 27.371 91.6033 27.514C91.3693 27.657 91.1548 27.852 90.9598 28.099V33H89.6923ZM104.326 27.5335C104.291 27.5898 104.254 27.631 104.215 27.657C104.176 27.6787 104.127 27.6895 104.066 27.6895C103.997 27.6895 103.919 27.6657 103.832 27.618C103.75 27.5703 103.648 27.5183 103.526 27.462C103.409 27.4057 103.271 27.3537 103.11 27.306C102.95 27.2583 102.759 27.2345 102.538 27.2345C102.356 27.2345 102.19 27.2583 102.038 27.306C101.891 27.3493 101.765 27.4122 101.661 27.4945C101.557 27.5725 101.477 27.6678 101.42 27.7805C101.364 27.8888 101.336 28.0058 101.336 28.1315C101.336 28.2962 101.384 28.4327 101.479 28.541C101.579 28.6493 101.706 28.7425 101.862 28.8205C102.023 28.8985 102.203 28.97 102.402 29.035C102.606 29.0957 102.811 29.1607 103.019 29.23C103.232 29.2993 103.438 29.3795 103.637 29.4705C103.841 29.5572 104.02 29.6677 104.176 29.802C104.337 29.932 104.465 30.0902 104.56 30.2765C104.66 30.4628 104.709 30.6903 104.709 30.959C104.709 31.2667 104.653 31.5527 104.54 31.817C104.432 32.077 104.27 32.3023 104.053 32.493C103.841 32.6837 103.576 32.8332 103.26 32.9415C102.944 33.0498 102.582 33.104 102.174 33.104C101.719 33.104 101.299 33.0282 100.913 32.8765C100.528 32.7248 100.205 32.532 99.945 32.298L100.244 31.8105C100.279 31.7498 100.322 31.7043 100.374 31.674C100.426 31.6393 100.495 31.622 100.582 31.622C100.664 31.622 100.749 31.6523 100.835 31.713C100.922 31.7737 101.026 31.8408 101.147 31.9145C101.269 31.9838 101.416 32.0488 101.589 32.1095C101.763 32.1658 101.979 32.194 102.239 32.194C102.456 32.194 102.645 32.168 102.805 32.116C102.965 32.0597 103.097 31.986 103.201 31.895C103.31 31.7997 103.39 31.6913 103.442 31.57C103.494 31.4487 103.52 31.3208 103.52 31.1865C103.52 31.0132 103.47 30.8702 103.37 30.7575C103.275 30.6405 103.147 30.5408 102.987 30.4585C102.831 30.3762 102.651 30.3047 102.447 30.244C102.244 30.1833 102.036 30.1183 101.823 30.049C101.611 29.9797 101.403 29.8995 101.199 29.8085C100.996 29.7175 100.814 29.6027 100.653 29.464C100.497 29.3253 100.37 29.1563 100.27 28.957C100.175 28.7577 100.127 28.515 100.127 28.229C100.127 27.9733 100.179 27.7285 100.283 27.4945C100.391 27.2605 100.545 27.0547 100.744 26.877C100.948 26.6993 101.197 26.5585 101.492 26.4545C101.791 26.3462 102.131 26.292 102.512 26.292C102.95 26.292 103.344 26.3613 103.695 26.5C104.051 26.6387 104.354 26.8293 104.605 27.072L104.326 27.5335ZM112.919 30.0685C112.403 30.0858 111.966 30.127 111.606 30.192C111.246 30.2527 110.954 30.335 110.728 30.439C110.503 30.543 110.341 30.6665 110.241 30.8095C110.141 30.9482 110.091 31.1042 110.091 31.2775C110.091 31.4422 110.117 31.5852 110.169 31.7065C110.226 31.8235 110.299 31.921 110.39 31.999C110.486 32.0727 110.596 32.1268 110.722 32.1615C110.848 32.1962 110.984 32.2135 111.131 32.2135C111.326 32.2135 111.504 32.194 111.664 32.155C111.829 32.116 111.983 32.0618 112.126 31.9925C112.269 31.9188 112.405 31.83 112.535 31.726C112.665 31.622 112.793 31.5028 112.919 31.3685V30.0685ZM109.201 27.319C109.569 26.968 109.968 26.7058 110.397 26.5325C110.83 26.3592 111.305 26.2725 111.82 26.2725C112.197 26.2725 112.531 26.3353 112.821 26.461C113.112 26.5823 113.357 26.7535 113.556 26.9745C113.755 27.1955 113.905 27.4598 114.004 27.7675C114.108 28.0752 114.16 28.4153 114.16 28.788V33H113.595C113.469 33 113.374 32.9805 113.309 32.9415C113.244 32.8982 113.192 32.8202 113.153 32.7075L113.016 32.129C112.847 32.285 112.681 32.4237 112.516 32.545C112.351 32.662 112.178 32.7638 111.996 32.8505C111.818 32.9328 111.628 32.9957 111.424 33.039C111.22 33.0823 110.995 33.104 110.748 33.104C110.488 33.104 110.243 33.0693 110.013 33C109.788 32.9263 109.591 32.8158 109.422 32.6685C109.253 32.5212 109.119 32.337 109.019 32.116C108.924 31.895 108.876 31.6372 108.876 31.3425C108.876 31.0825 108.945 30.8333 109.084 30.595C109.227 30.3523 109.457 30.1357 109.773 29.945C110.094 29.7543 110.51 29.5983 111.021 29.477C111.537 29.3557 112.169 29.2863 112.919 29.269V28.788C112.919 28.2897 112.813 27.917 112.6 27.67C112.388 27.423 112.076 27.2995 111.664 27.2995C111.387 27.2995 111.153 27.3342 110.962 27.4035C110.776 27.4728 110.614 27.5508 110.475 27.6375C110.341 27.7198 110.221 27.7957 110.117 27.865C110.018 27.9343 109.914 27.969 109.805 27.969C109.719 27.969 109.643 27.9452 109.578 27.8975C109.517 27.8498 109.467 27.7935 109.428 27.7285L109.201 27.319ZM117.047 27.3125C117.19 27.1608 117.339 27.0222 117.495 26.8965C117.651 26.7708 117.816 26.6647 117.989 26.578C118.167 26.487 118.355 26.4177 118.555 26.37C118.758 26.318 118.975 26.292 119.205 26.292C119.569 26.292 119.887 26.3527 120.16 26.474C120.438 26.5953 120.669 26.7665 120.856 26.9875C121.042 27.2042 121.183 27.4663 121.278 27.774C121.374 28.0817 121.421 28.4218 121.421 28.7945V33H120.147V28.7945C120.147 28.3222 120.039 27.956 119.822 27.696C119.606 27.4317 119.274 27.2995 118.828 27.2995C118.503 27.2995 118.197 27.3775 117.911 27.5335C117.63 27.6852 117.367 27.8932 117.125 28.1575V33H115.857V26.396H116.618C116.795 26.396 116.906 26.4805 116.949 26.6495L117.047 27.3125ZM127.389 27.995C127.181 27.722 126.956 27.5313 126.713 27.423C126.475 27.3147 126.206 27.2605 125.907 27.2605C125.327 27.2605 124.876 27.4707 124.555 27.891C124.239 28.307 124.081 28.9158 124.081 29.7175C124.081 30.1378 124.115 30.4975 124.185 30.7965C124.258 31.0912 124.362 31.3338 124.497 31.5245C124.635 31.7108 124.804 31.8495 125.004 31.9405C125.203 32.0272 125.428 32.0705 125.68 32.0705C126.048 32.0705 126.367 31.9882 126.635 31.8235C126.904 31.6588 127.155 31.427 127.389 31.128V27.995ZM128.663 23.406V33H127.896C127.719 33 127.608 32.9155 127.565 32.7465L127.454 31.986C127.173 32.3197 126.852 32.5883 126.492 32.792C126.137 32.9913 125.725 33.091 125.257 33.091C124.88 33.091 124.538 33.0173 124.23 32.87C123.927 32.7227 123.667 32.5082 123.45 32.2265C123.234 31.9405 123.067 31.5873 122.95 31.167C122.833 30.7467 122.774 30.2635 122.774 29.7175C122.774 29.2278 122.839 28.7728 122.969 28.3525C123.099 27.9322 123.288 27.5682 123.535 27.2605C123.782 26.9528 124.081 26.7123 124.432 26.539C124.783 26.3613 125.179 26.2725 125.621 26.2725C126.02 26.2725 126.358 26.3375 126.635 26.4675C126.917 26.5975 127.168 26.7817 127.389 27.02V23.406H128.663ZM137.613 27.5335C137.578 27.5898 137.542 27.631 137.503 27.657C137.464 27.6787 137.414 27.6895 137.353 27.6895C137.284 27.6895 137.206 27.6657 137.119 27.618C137.037 27.5703 136.935 27.5183 136.814 27.462C136.697 27.4057 136.558 27.3537 136.398 27.306C136.237 27.2583 136.047 27.2345 135.826 27.2345C135.644 27.2345 135.477 27.2583 135.325 27.306C135.178 27.3493 135.052 27.4122 134.948 27.4945C134.844 27.5725 134.764 27.6678 134.708 27.7805C134.651 27.8888 134.623 28.0058 134.623 28.1315C134.623 28.2962 134.671 28.4327 134.766 28.541C134.866 28.6493 134.994 28.7425 135.15 28.8205C135.31 28.8985 135.49 28.97 135.689 29.035C135.893 29.0957 136.099 29.1607 136.307 29.23C136.519 29.2993 136.725 29.3795 136.924 29.4705C137.128 29.5572 137.308 29.6677 137.464 29.802C137.624 29.932 137.752 30.0902 137.847 30.2765C137.947 30.4628 137.997 30.6903 137.997 30.959C137.997 31.2667 137.94 31.5527 137.828 31.817C137.719 32.077 137.557 32.3023 137.34 32.493C137.128 32.6837 136.863 32.8332 136.547 32.9415C136.231 33.0498 135.869 33.104 135.462 33.104C135.007 33.104 134.586 33.0282 134.201 32.8765C133.815 32.7248 133.492 32.532 133.232 32.298L133.531 31.8105C133.566 31.7498 133.609 31.7043 133.661 31.674C133.713 31.6393 133.782 31.622 133.869 31.622C133.951 31.622 134.036 31.6523 134.123 31.713C134.209 31.7737 134.313 31.8408 134.435 31.9145C134.556 31.9838 134.703 32.0488 134.877 32.1095C135.05 32.1658 135.267 32.194 135.527 32.194C135.743 32.194 135.932 32.168 136.092 32.116C136.252 32.0597 136.385 31.986 136.489 31.895C136.597 31.7997 136.677 31.6913 136.729 31.57C136.781 31.4487 136.807 31.3208 136.807 31.1865C136.807 31.0132 136.757 30.8702 136.658 30.7575C136.562 30.6405 136.434 30.5408 136.274 30.4585C136.118 30.3762 135.938 30.3047 135.735 30.244C135.531 30.1833 135.323 30.1183 135.111 30.049C134.898 29.9797 134.69 29.8995 134.487 29.8085C134.283 29.7175 134.101 29.6027 133.941 29.464C133.785 29.3253 133.657 29.1563 133.557 28.957C133.462 28.7577 133.414 28.515 133.414 28.229C133.414 27.9733 133.466 27.7285 133.57 27.4945C133.678 27.2605 133.832 27.0547 134.032 26.877C134.235 26.6993 134.484 26.5585 134.779 26.4545C135.078 26.3462 135.418 26.292 135.8 26.292C136.237 26.292 136.632 26.3613 136.983 26.5C137.338 26.6387 137.641 26.8293 137.893 27.072L137.613 27.5335ZM144.862 26.396V33H144.101C143.928 33 143.815 32.9155 143.763 32.7465L143.672 32.0835C143.529 32.2352 143.38 32.3738 143.224 32.4995C143.068 32.6252 142.901 32.7335 142.723 32.8245C142.545 32.9112 142.357 32.9783 142.158 33.026C141.958 33.078 141.744 33.104 141.514 33.104C141.15 33.104 140.829 33.0433 140.552 32.922C140.279 32.8007 140.049 32.6317 139.863 32.415C139.677 32.194 139.536 31.9297 139.441 31.622C139.345 31.3143 139.298 30.9742 139.298 30.6015V26.396H140.572V30.6015C140.572 31.0738 140.68 31.4422 140.897 31.7065C141.113 31.9665 141.445 32.0965 141.891 32.0965C142.216 32.0965 142.519 32.0207 142.801 31.869C143.083 31.713 143.347 31.5007 143.594 31.232V26.396H144.862ZM147.827 27.6635C148.039 27.2302 148.295 26.89 148.594 26.643C148.893 26.396 149.252 26.2725 149.673 26.2725C149.816 26.2725 149.95 26.2898 150.076 26.3245C150.206 26.3548 150.318 26.4025 150.414 26.4675L150.329 27.423C150.299 27.54 150.227 27.5985 150.115 27.5985C150.054 27.5985 149.963 27.5877 149.842 27.566C149.72 27.54 149.59 27.527 149.452 27.527C149.248 27.527 149.068 27.5573 148.912 27.618C148.756 27.6743 148.615 27.761 148.49 27.878C148.368 27.9907 148.26 28.1315 148.165 28.3005C148.069 28.4652 147.981 28.6537 147.898 28.866V33H146.631V26.396H147.359C147.497 26.396 147.591 26.422 147.638 26.474C147.69 26.5217 147.727 26.6083 147.749 26.734L147.827 27.6635ZM157.124 26.396L154.446 33H153.302L150.624 26.396H151.671C151.771 26.396 151.853 26.4198 151.918 26.4675C151.983 26.5152 152.026 26.5758 152.048 26.6495L153.627 30.7055C153.684 30.8745 153.731 31.0435 153.77 31.2125C153.814 31.3772 153.853 31.5418 153.887 31.7065C153.922 31.5418 153.961 31.3772 154.004 31.2125C154.048 31.0478 154.1 30.8788 154.16 30.7055L155.759 26.6495C155.785 26.5758 155.831 26.5152 155.896 26.4675C155.961 26.4198 156.039 26.396 156.13 26.396H157.124ZM162.317 28.9635C162.317 28.7122 162.28 28.4803 162.206 28.268C162.137 28.0557 162.033 27.8715 161.894 27.7155C161.756 27.5595 161.587 27.4382 161.387 27.3515C161.188 27.2648 160.958 27.2215 160.698 27.2215C160.165 27.2215 159.745 27.3753 159.437 27.683C159.134 27.9907 158.941 28.4175 158.859 28.9635H162.317ZM163.363 32.0575C163.207 32.2395 163.027 32.3977 162.824 32.532C162.62 32.662 162.403 32.7682 162.174 32.8505C161.944 32.9328 161.706 32.9935 161.459 33.0325C161.216 33.0715 160.976 33.091 160.737 33.091C160.282 33.091 159.86 33.0152 159.47 32.8635C159.084 32.7075 158.748 32.4822 158.462 32.1875C158.181 31.8885 157.96 31.5202 157.799 31.0825C157.643 30.6405 157.565 30.1335 157.565 29.5615C157.565 29.1022 157.637 28.6753 157.78 28.281C157.923 27.8823 158.126 27.5357 158.391 27.241C158.659 26.9463 158.987 26.7145 159.372 26.5455C159.758 26.3765 160.191 26.292 160.672 26.292C161.075 26.292 161.446 26.3592 161.784 26.4935C162.126 26.6235 162.421 26.8142 162.668 27.0655C162.915 27.3168 163.108 27.6267 163.246 27.995C163.389 28.3633 163.461 28.7837 163.461 29.256C163.461 29.451 163.439 29.5832 163.396 29.6525C163.352 29.7175 163.272 29.75 163.155 29.75H158.826C158.839 30.1443 158.896 30.4888 158.995 30.7835C159.095 31.0738 159.231 31.3165 159.405 31.5115C159.582 31.7065 159.793 31.8517 160.035 31.947C160.278 32.0423 160.549 32.09 160.848 32.09C161.129 32.09 161.372 32.0575 161.576 31.9925C161.784 31.9275 161.961 31.8582 162.109 31.7845C162.26 31.7065 162.386 31.635 162.486 31.57C162.59 31.505 162.681 31.4725 162.759 31.4725C162.863 31.4725 162.943 31.5115 162.999 31.5895L163.363 32.0575ZM170.417 26.396L166.751 34.9175C166.712 35.0128 166.66 35.0865 166.595 35.1385C166.53 35.1905 166.435 35.2165 166.309 35.2165H165.367L166.576 32.584L163.865 26.396H164.97C165.079 26.396 165.163 26.422 165.224 26.474C165.285 26.526 165.328 26.5845 165.354 26.6495L167.031 30.6145C167.066 30.7142 167.098 30.816 167.128 30.92C167.163 31.0197 167.191 31.1193 167.213 31.219C167.243 31.115 167.276 31.0132 167.31 30.9135C167.345 30.8095 167.382 30.7077 167.421 30.608L169.039 26.6495C169.07 26.5758 169.117 26.5152 169.182 26.4675C169.247 26.4198 169.321 26.396 169.403 26.396H170.417ZM175.166 27.5335C175.131 27.5898 175.094 27.631 175.055 27.657C175.016 27.6787 174.967 27.6895 174.906 27.6895C174.837 27.6895 174.759 27.6657 174.672 27.618C174.59 27.5703 174.488 27.5183 174.366 27.462C174.249 27.4057 174.111 27.3537 173.95 27.306C173.79 27.2583 173.599 27.2345 173.378 27.2345C173.196 27.2345 173.03 27.2583 172.878 27.306C172.731 27.3493 172.605 27.4122 172.501 27.4945C172.397 27.5725 172.317 27.6678 172.26 27.7805C172.204 27.8888 172.176 28.0058 172.176 28.1315C172.176 28.2962 172.224 28.4327 172.319 28.541C172.419 28.6493 172.546 28.7425 172.702 28.8205C172.863 28.8985 173.043 28.97 173.242 29.035C173.446 29.0957 173.651 29.1607 173.859 29.23C174.072 29.2993 174.278 29.3795 174.477 29.4705C174.681 29.5572 174.86 29.6677 175.016 29.802C175.177 29.932 175.305 30.0902 175.4 30.2765C175.5 30.4628 175.549 30.6903 175.549 30.959C175.549 31.2667 175.493 31.5527 175.38 31.817C175.272 32.077 175.11 32.3023 174.893 32.493C174.681 32.6837 174.416 32.8332 174.1 32.9415C173.784 33.0498 173.422 33.104 173.014 33.104C172.559 33.104 172.139 33.0282 171.753 32.8765C171.368 32.7248 171.045 32.532 170.785 32.298L171.084 31.8105C171.119 31.7498 171.162 31.7043 171.214 31.674C171.266 31.6393 171.335 31.622 171.422 31.622C171.504 31.622 171.589 31.6523 171.675 31.713C171.762 31.7737 171.866 31.8408 171.987 31.9145C172.109 31.9838 172.256 32.0488 172.429 32.1095C172.603 32.1658 172.819 32.194 173.079 32.194C173.296 32.194 173.485 32.168 173.645 32.116C173.805 32.0597 173.937 31.986 174.041 31.895C174.15 31.7997 174.23 31.6913 174.282 31.57C174.334 31.4487 174.36 31.3208 174.36 31.1865C174.36 31.0132 174.31 30.8702 174.21 30.7575C174.115 30.6405 173.987 30.5408 173.827 30.4585C173.671 30.3762 173.491 30.3047 173.287 30.244C173.084 30.1833 172.876 30.1183 172.663 30.049C172.451 29.9797 172.243 29.8995 172.039 29.8085C171.836 29.7175 171.654 29.6027 171.493 29.464C171.337 29.3253 171.21 29.1563 171.11 28.957C171.015 28.7577 170.967 28.515 170.967 28.229C170.967 27.9733 171.019 27.7285 171.123 27.4945C171.231 27.2605 171.385 27.0547 171.584 26.877C171.788 26.6993 172.037 26.5585 172.332 26.4545C172.631 26.3462 172.971 26.292 173.352 26.292C173.79 26.292 174.184 26.3613 174.535 26.5C174.891 26.6387 175.194 26.8293 175.445 27.072L175.166 27.5335ZM180.645 33V27.436L179.956 27.3515C179.857 27.3298 179.774 27.2952 179.709 27.2475C179.649 27.1955 179.618 27.1218 179.618 27.0265V26.5H180.645V25.902C180.645 25.525 180.7 25.1892 180.808 24.8945C180.916 24.5998 181.07 24.3507 181.269 24.147C181.473 23.939 181.716 23.783 181.997 23.679C182.283 23.5707 182.604 23.5165 182.959 23.5165C183.258 23.5165 183.534 23.5598 183.785 23.6465L183.759 24.2835C183.755 24.3398 183.737 24.3832 183.707 24.4135C183.677 24.4395 183.635 24.459 183.583 24.472C183.536 24.485 183.475 24.4937 183.401 24.498C183.332 24.498 183.256 24.498 183.174 24.498C182.979 24.498 182.801 24.5218 182.641 24.5695C182.481 24.6172 182.344 24.6973 182.231 24.81C182.119 24.9227 182.032 25.0722 181.971 25.2585C181.911 25.4405 181.88 25.668 181.88 25.941V26.5H183.733V27.423H181.919V33H180.645ZM187.404 26.292C187.89 26.292 188.327 26.3722 188.717 26.5325C189.112 26.6885 189.445 26.916 189.718 27.215C189.996 27.5097 190.208 27.8672 190.355 28.2875C190.503 28.7035 190.576 29.1715 190.576 29.6915C190.576 30.2115 190.503 30.6817 190.355 31.102C190.208 31.5223 189.996 31.8798 189.718 32.1745C189.445 32.4692 189.112 32.6967 188.717 32.857C188.327 33.013 187.89 33.091 187.404 33.091C186.915 33.091 186.473 33.013 186.078 32.857C185.688 32.6967 185.355 32.4692 185.077 32.1745C184.8 31.8798 184.585 31.5223 184.434 31.102C184.286 30.6817 184.213 30.2115 184.213 29.6915C184.213 29.1715 184.286 28.7035 184.434 28.2875C184.585 27.8672 184.8 27.5097 185.077 27.215C185.355 26.916 185.688 26.6885 186.078 26.5325C186.473 26.3722 186.915 26.292 187.404 26.292ZM187.404 32.103C188.028 32.103 188.494 31.8928 188.802 31.4725C189.109 31.0522 189.263 30.4607 189.263 29.698C189.263 28.9353 189.109 28.3438 188.802 27.9235C188.494 27.4988 188.028 27.2865 187.404 27.2865C186.772 27.2865 186.299 27.4988 185.987 27.9235C185.68 28.3438 185.526 28.9353 185.526 29.698C185.526 30.4607 185.68 31.0522 185.987 31.4725C186.299 31.8928 186.772 32.103 187.404 32.103ZM193.187 27.6635C193.399 27.2302 193.655 26.89 193.954 26.643C194.253 26.396 194.613 26.2725 195.033 26.2725C195.176 26.2725 195.31 26.2898 195.436 26.3245C195.566 26.3548 195.679 26.4025 195.774 26.4675L195.69 27.423C195.659 27.54 195.588 27.5985 195.475 27.5985C195.414 27.5985 195.323 27.5877 195.202 27.566C195.081 27.54 194.951 27.527 194.812 27.527C194.608 27.527 194.429 27.5573 194.273 27.618C194.117 27.6743 193.976 27.761 193.85 27.878C193.729 27.9907 193.62 28.1315 193.525 28.3005C193.43 28.4652 193.341 28.6537 193.259 28.866V33H191.991V26.396H192.719C192.858 26.396 192.951 26.422 192.999 26.474C193.051 26.5217 193.087 26.6083 193.109 26.734L193.187 27.6635ZM205.203 26.396L201.537 34.9175C201.498 35.0128 201.446 35.0865 201.381 35.1385C201.316 35.1905 201.22 35.2165 201.095 35.2165H200.152L201.361 32.584L198.651 26.396H199.756C199.864 26.396 199.948 26.422 200.009 26.474C200.07 26.526 200.113 26.5845 200.139 26.6495L201.816 30.6145C201.851 30.7142 201.883 30.816 201.914 30.92C201.948 31.0197 201.976 31.1193 201.998 31.219C202.028 31.115 202.061 31.0132 202.096 30.9135C202.13 30.8095 202.167 30.7077 202.206 30.608L203.825 26.6495C203.855 26.5758 203.903 26.5152 203.968 26.4675C204.033 26.4198 204.106 26.396 204.189 26.396H205.203ZM208.796 26.292C209.281 26.292 209.719 26.3722 210.109 26.5325C210.503 26.6885 210.837 26.916 211.11 27.215C211.387 27.5097 211.599 27.8672 211.747 28.2875C211.894 28.7035 211.968 29.1715 211.968 29.6915C211.968 30.2115 211.894 30.6817 211.747 31.102C211.599 31.5223 211.387 31.8798 211.11 32.1745C210.837 32.4692 210.503 32.6967 210.109 32.857C209.719 33.013 209.281 33.091 208.796 33.091C208.306 33.091 207.864 33.013 207.47 32.857C207.08 32.6967 206.746 32.4692 206.469 32.1745C206.191 31.8798 205.977 31.5223 205.825 31.102C205.678 30.6817 205.604 30.2115 205.604 29.6915C205.604 29.1715 205.678 28.7035 205.825 28.2875C205.977 27.8672 206.191 27.5097 206.469 27.215C206.746 26.916 207.08 26.6885 207.47 26.5325C207.864 26.3722 208.306 26.292 208.796 26.292ZM208.796 32.103C209.42 32.103 209.886 31.8928 210.193 31.4725C210.501 31.0522 210.655 30.4607 210.655 29.698C210.655 28.9353 210.501 28.3438 210.193 27.9235C209.886 27.4988 209.42 27.2865 208.796 27.2865C208.163 27.2865 207.691 27.4988 207.379 27.9235C207.071 28.3438 206.917 28.9353 206.917 29.698C206.917 30.4607 207.071 31.0522 207.379 31.4725C207.691 31.8928 208.163 32.103 208.796 32.103ZM218.875 26.396V33H218.115C217.941 33 217.829 32.9155 217.777 32.7465L217.686 32.0835C217.543 32.2352 217.393 32.3738 217.237 32.4995C217.081 32.6252 216.914 32.7335 216.737 32.8245C216.559 32.9112 216.371 32.9783 216.171 33.026C215.972 33.078 215.757 33.104 215.528 33.104C215.164 33.104 214.843 33.0433 214.566 32.922C214.293 32.8007 214.063 32.6317 213.877 32.415C213.69 32.194 213.55 31.9297 213.454 31.622C213.359 31.3143 213.311 30.9742 213.311 30.6015V26.396H214.585V30.6015C214.585 31.0738 214.694 31.4422 214.91 31.7065C215.127 31.9665 215.458 32.0965 215.905 32.0965C216.23 32.0965 216.533 32.0207 216.815 31.869C217.096 31.713 217.361 31.5007 217.608 31.232V26.396H218.875ZM221.84 27.6635C222.053 27.2302 222.308 26.89 222.607 26.643C222.906 26.396 223.266 26.2725 223.686 26.2725C223.829 26.2725 223.964 26.2898 224.089 26.3245C224.219 26.3548 224.332 26.4025 224.427 26.4675L224.343 27.423C224.313 27.54 224.241 27.5985 224.128 27.5985C224.068 27.5985 223.977 27.5877 223.855 27.566C223.734 27.54 223.604 27.527 223.465 27.527C223.262 27.527 223.082 27.5573 222.926 27.618C222.77 27.6743 222.629 27.761 222.503 27.878C222.382 27.9907 222.274 28.1315 222.178 28.3005C222.083 28.4652 221.994 28.6537 221.912 28.866V33H220.644V26.396H221.372C221.511 26.396 221.604 26.422 221.652 26.474C221.704 26.5217 221.741 26.6083 221.762 26.734L221.84 27.6635ZM229.681 31.375C229.889 31.648 230.113 31.8387 230.351 31.947C230.594 32.0553 230.864 32.1095 231.163 32.1095C231.744 32.1095 232.193 31.9015 232.509 31.4855C232.83 31.0652 232.99 30.4542 232.99 29.6525C232.99 29.2322 232.953 28.8747 232.879 28.58C232.81 28.281 232.706 28.0383 232.567 27.852C232.433 27.6613 232.266 27.5227 232.067 27.436C231.868 27.345 231.642 27.2995 231.391 27.2995C231.023 27.2995 230.702 27.3818 230.429 27.5465C230.16 27.7112 229.911 27.9452 229.681 28.2485V31.375ZM229.616 27.384C229.755 27.2193 229.902 27.0698 230.058 26.9355C230.219 26.7968 230.39 26.6798 230.572 26.5845C230.754 26.4848 230.947 26.409 231.15 26.357C231.358 26.3007 231.579 26.2725 231.813 26.2725C232.19 26.2725 232.531 26.3462 232.834 26.4935C233.142 26.6408 233.404 26.8575 233.62 27.1435C233.837 27.4295 234.004 27.7827 234.121 28.203C234.242 28.6233 234.303 29.1065 234.303 29.6525C234.303 30.1422 234.236 30.5972 234.101 31.0175C233.971 31.4335 233.783 31.7953 233.536 32.103C233.293 32.4107 232.994 32.6533 232.639 32.831C232.288 33.0043 231.891 33.091 231.449 33.091C231.055 33.091 230.717 33.026 230.435 32.896C230.154 32.766 229.902 32.584 229.681 32.35V35.2165H228.414V26.396H229.174C229.352 26.396 229.463 26.4805 229.506 26.6495L229.616 27.384ZM236.922 27.6635C237.135 27.2302 237.39 26.89 237.689 26.643C237.988 26.396 238.348 26.2725 238.768 26.2725C238.911 26.2725 239.046 26.2898 239.171 26.3245C239.301 26.3548 239.414 26.4025 239.509 26.4675L239.425 27.423C239.395 27.54 239.323 27.5985 239.21 27.5985C239.15 27.5985 239.059 27.5877 238.937 27.566C238.816 27.54 238.686 27.527 238.547 27.527C238.344 27.527 238.164 27.5573 238.008 27.618C237.852 27.6743 237.711 27.761 237.585 27.878C237.464 27.9907 237.356 28.1315 237.26 28.3005C237.165 28.4652 237.076 28.6537 236.994 28.866V33H235.726V26.396H236.454C236.593 26.396 236.686 26.422 236.734 26.474C236.786 26.5217 236.823 26.6083 236.844 26.734L236.922 27.6635ZM243.06 26.292C243.546 26.292 243.983 26.3722 244.373 26.5325C244.768 26.6885 245.101 26.916 245.374 27.215C245.652 27.5097 245.864 27.8672 246.011 28.2875C246.159 28.7035 246.232 29.1715 246.232 29.6915C246.232 30.2115 246.159 30.6817 246.011 31.102C245.864 31.5223 245.652 31.8798 245.374 32.1745C245.101 32.4692 244.768 32.6967 244.373 32.857C243.983 33.013 243.546 33.091 243.06 33.091C242.571 33.091 242.129 33.013 241.734 32.857C241.344 32.6967 241.011 32.4692 240.733 32.1745C240.456 31.8798 240.242 31.5223 240.09 31.102C239.943 30.6817 239.869 30.2115 239.869 29.6915C239.869 29.1715 239.943 28.7035 240.09 28.2875C240.242 27.8672 240.456 27.5097 240.733 27.215C241.011 26.916 241.344 26.6885 241.734 26.5325C242.129 26.3722 242.571 26.292 243.06 26.292ZM243.06 32.103C243.684 32.103 244.15 31.8928 244.458 31.4725C244.766 31.0522 244.919 30.4607 244.919 29.698C244.919 28.9353 244.766 28.3438 244.458 27.9235C244.15 27.4988 243.684 27.2865 243.06 27.2865C242.428 27.2865 241.955 27.4988 241.643 27.9235C241.336 28.3438 241.182 28.9353 241.182 29.698C241.182 30.4607 241.336 31.0522 241.643 31.4725C241.955 31.8928 242.428 32.103 243.06 32.103ZM251.905 27.995C251.697 27.722 251.472 27.5313 251.229 27.423C250.991 27.3147 250.722 27.2605 250.423 27.2605C249.842 27.2605 249.392 27.4707 249.071 27.891C248.755 28.307 248.596 28.9158 248.596 29.7175C248.596 30.1378 248.631 30.4975 248.7 30.7965C248.774 31.0912 248.878 31.3338 249.012 31.5245C249.151 31.7108 249.32 31.8495 249.519 31.9405C249.719 32.0272 249.944 32.0705 250.195 32.0705C250.564 32.0705 250.882 31.9882 251.151 31.8235C251.42 31.6588 251.671 31.427 251.905 31.128V27.995ZM253.179 23.406V33H252.412C252.234 33 252.124 32.9155 252.08 32.7465L251.97 31.986C251.688 32.3197 251.368 32.5883 251.008 32.792C250.653 32.9913 250.241 33.091 249.773 33.091C249.396 33.091 249.054 33.0173 248.746 32.87C248.443 32.7227 248.183 32.5082 247.966 32.2265C247.749 31.9405 247.582 31.5873 247.465 31.167C247.348 30.7467 247.29 30.2635 247.29 29.7175C247.29 29.2278 247.355 28.7728 247.485 28.3525C247.615 27.9322 247.803 27.5682 248.05 27.2605C248.297 26.9528 248.596 26.7123 248.947 26.539C249.298 26.3613 249.695 26.2725 250.137 26.2725C250.536 26.2725 250.874 26.3375 251.151 26.4675C251.433 26.5975 251.684 26.7817 251.905 27.02V23.406H253.179ZM260.44 26.396V33H259.679C259.506 33 259.393 32.9155 259.341 32.7465L259.25 32.0835C259.107 32.2352 258.958 32.3738 258.802 32.4995C258.646 32.6252 258.479 32.7335 258.301 32.8245C258.123 32.9112 257.935 32.9783 257.736 33.026C257.536 33.078 257.322 33.104 257.092 33.104C256.728 33.104 256.407 33.0433 256.13 32.922C255.857 32.8007 255.627 32.6317 255.441 32.415C255.255 32.194 255.114 31.9297 255.019 31.622C254.923 31.3143 254.876 30.9742 254.876 30.6015V26.396H256.15V30.6015C256.15 31.0738 256.258 31.4422 256.475 31.7065C256.691 31.9665 257.023 32.0965 257.469 32.0965C257.794 32.0965 258.097 32.0207 258.379 31.869C258.661 31.713 258.925 31.5007 259.172 31.232V26.396H260.44ZM266.837 27.631C266.798 27.6787 266.759 27.7177 266.72 27.748C266.685 27.774 266.633 27.787 266.564 27.787C266.495 27.787 266.421 27.761 266.343 27.709C266.269 27.6527 266.174 27.5942 266.057 27.5335C265.944 27.4685 265.806 27.41 265.641 27.358C265.481 27.3017 265.281 27.2735 265.043 27.2735C264.731 27.2735 264.456 27.3298 264.217 27.4425C263.979 27.5552 263.78 27.7155 263.619 27.9235C263.463 28.1315 263.344 28.385 263.262 28.684C263.18 28.983 263.138 29.3188 263.138 29.6915C263.138 30.0772 263.182 30.4217 263.268 30.725C263.355 31.024 263.479 31.2775 263.639 31.4855C263.799 31.6892 263.994 31.8452 264.224 31.9535C264.454 32.0575 264.709 32.1095 264.991 32.1095C265.264 32.1095 265.489 32.077 265.667 32.012C265.845 31.9427 265.992 31.869 266.109 31.791C266.226 31.713 266.323 31.6415 266.401 31.5765C266.479 31.5072 266.56 31.4725 266.642 31.4725C266.746 31.4725 266.826 31.5115 266.882 31.5895L267.246 32.0575C267.095 32.2438 266.924 32.402 266.733 32.532C266.547 32.662 266.347 32.7682 266.135 32.8505C265.923 32.9328 265.699 32.9935 265.465 33.0325C265.236 33.0715 265.002 33.091 264.763 33.091C264.352 33.091 263.966 33.0152 263.606 32.8635C263.251 32.7118 262.941 32.4908 262.677 32.2005C262.417 31.9102 262.211 31.5548 262.059 31.1345C261.908 30.7098 261.832 30.2288 261.832 29.6915C261.832 29.2018 261.899 28.749 262.033 28.333C262.172 27.917 262.374 27.5595 262.638 27.2605C262.907 26.9572 263.236 26.721 263.626 26.552C264.016 26.3787 264.462 26.292 264.965 26.292C265.437 26.292 265.853 26.3678 266.213 26.5195C266.573 26.6712 266.893 26.8857 267.175 27.163L266.837 27.631ZM270.497 33.104C269.964 33.104 269.552 32.9545 269.262 32.6555C268.976 32.3565 268.833 31.9297 268.833 31.375V27.423H268.066C267.992 27.423 267.929 27.4013 267.877 27.358C267.829 27.3103 267.806 27.241 267.806 27.15V26.6365L268.878 26.487L269.164 24.5175C269.181 24.4438 269.214 24.3875 269.262 24.3485C269.314 24.3052 269.379 24.2835 269.457 24.2835H270.1V26.5H271.972V27.423H270.1V31.2905C270.1 31.5505 270.163 31.7455 270.289 31.8755C270.419 32.0012 270.583 32.064 270.783 32.064C270.9 32.064 270.999 32.0488 271.082 32.0185C271.168 31.9882 271.242 31.9557 271.303 31.921C271.363 31.882 271.415 31.8473 271.459 31.817C271.502 31.7867 271.541 31.7715 271.576 31.7715C271.619 31.7715 271.651 31.7823 271.673 31.804C271.699 31.8213 271.725 31.8517 271.751 31.895L272.128 32.506C271.92 32.6967 271.673 32.844 271.387 32.948C271.101 33.052 270.804 33.104 270.497 33.104ZM279.242 26.292C279.727 26.292 280.165 26.3722 280.555 26.5325C280.949 26.6885 281.283 26.916 281.556 27.215C281.833 27.5097 282.046 27.8672 282.193 28.2875C282.34 28.7035 282.414 29.1715 282.414 29.6915C282.414 30.2115 282.34 30.6817 282.193 31.102C282.046 31.5223 281.833 31.8798 281.556 32.1745C281.283 32.4692 280.949 32.6967 280.555 32.857C280.165 33.013 279.727 33.091 279.242 33.091C278.752 33.091 278.31 33.013 277.916 32.857C277.526 32.6967 277.192 32.4692 276.915 32.1745C276.638 31.8798 276.423 31.5223 276.272 31.102C276.124 30.6817 276.051 30.2115 276.051 29.6915C276.051 29.1715 276.124 28.7035 276.272 28.2875C276.423 27.8672 276.638 27.5097 276.915 27.215C277.192 26.916 277.526 26.6885 277.916 26.5325C278.31 26.3722 278.752 26.292 279.242 26.292ZM279.242 32.103C279.866 32.103 280.332 31.8928 280.64 31.4725C280.947 31.0522 281.101 30.4607 281.101 29.698C281.101 28.9353 280.947 28.3438 280.64 27.9235C280.332 27.4988 279.866 27.2865 279.242 27.2865C278.609 27.2865 278.137 27.4988 277.825 27.9235C277.517 28.3438 277.364 28.9353 277.364 29.698C277.364 30.4607 277.517 31.0522 277.825 31.4725C278.137 31.8928 278.609 32.103 279.242 32.103ZM285.025 27.6635C285.237 27.2302 285.493 26.89 285.792 26.643C286.091 26.396 286.451 26.2725 286.871 26.2725C287.014 26.2725 287.148 26.2898 287.274 26.3245C287.404 26.3548 287.517 26.4025 287.612 26.4675L287.527 27.423C287.497 27.54 287.426 27.5985 287.313 27.5985C287.252 27.5985 287.161 27.5877 287.04 27.566C286.919 27.54 286.789 27.527 286.65 27.527C286.446 27.527 286.266 27.5573 286.11 27.618C285.954 27.6743 285.814 27.761 285.688 27.878C285.567 27.9907 285.458 28.1315 285.363 28.3005C285.268 28.4652 285.179 28.6537 285.096 28.866V33H283.829V26.396H284.557C284.696 26.396 284.789 26.422 284.836 26.474C284.888 26.5217 284.925 26.6083 284.947 26.734L285.025 27.6635ZM31.8905 49V42.396H32.651C32.8287 42.396 32.9392 42.4805 32.9825 42.6495L33.0735 43.28C33.3162 42.9897 33.5848 42.7535 33.8795 42.5715C34.1785 42.3852 34.5273 42.292 34.926 42.292C35.3637 42.292 35.719 42.4133 35.992 42.656C36.265 42.8943 36.4643 43.2193 36.59 43.631C36.6853 43.397 36.8088 43.1955 36.9605 43.0265C37.1122 42.8575 37.2812 42.7188 37.4675 42.6105C37.6538 42.5022 37.851 42.422 38.059 42.37C38.2713 42.318 38.4858 42.292 38.7025 42.292C39.0535 42.292 39.3655 42.3483 39.6385 42.461C39.9158 42.5693 40.1498 42.7297 40.3405 42.942C40.5312 43.1543 40.6763 43.4165 40.776 43.7285C40.8757 44.0405 40.9255 44.3958 40.9255 44.7945V49H39.6515V44.7945C39.6515 44.3005 39.5432 43.9278 39.3265 43.6765C39.1142 43.4252 38.8022 43.2995 38.3905 43.2995C38.2085 43.2995 38.0352 43.332 37.8705 43.397C37.7058 43.4577 37.5607 43.5508 37.435 43.6765C37.3137 43.8022 37.2162 43.9582 37.1425 44.1445C37.0732 44.3308 37.0385 44.5475 37.0385 44.7945V49H35.7645V44.7945C35.7645 44.2832 35.6627 43.9062 35.459 43.6635C35.2553 43.4208 34.9563 43.2995 34.562 43.2995C34.289 43.2995 34.0355 43.371 33.8015 43.514C33.5675 43.657 33.353 43.852 33.158 44.099V49H31.8905ZM46.1797 46.0685C45.6641 46.0858 45.2264 46.127 44.8667 46.192C44.5071 46.2527 44.2146 46.335 43.9892 46.439C43.7639 46.543 43.6014 46.6665 43.5017 46.8095C43.4021 46.9482 43.3522 47.1042 43.3522 47.2775C43.3522 47.4422 43.3782 47.5852 43.4302 47.7065C43.4866 47.8235 43.5602 47.921 43.6512 47.999C43.7466 48.0727 43.8571 48.1268 43.9827 48.1615C44.1084 48.1962 44.2449 48.2135 44.3922 48.2135C44.5872 48.2135 44.7649 48.194 44.9252 48.155C45.0899 48.116 45.2437 48.0618 45.3867 47.9925C45.5297 47.9188 45.6662 47.83 45.7962 47.726C45.9262 47.622 46.0541 47.5028 46.1797 47.3685V46.0685ZM42.4617 43.319C42.8301 42.968 43.2287 42.7058 43.6577 42.5325C44.0911 42.3592 44.5656 42.2725 45.0812 42.2725C45.4582 42.2725 45.7919 42.3353 46.0822 42.461C46.3726 42.5823 46.6174 42.7535 46.8167 42.9745C47.0161 43.1955 47.1656 43.4598 47.2652 43.7675C47.3692 44.0752 47.4212 44.4153 47.4212 44.788V49H46.8557C46.7301 49 46.6347 48.9805 46.5697 48.9415C46.5047 48.8982 46.4527 48.8202 46.4137 48.7075L46.2772 48.129C46.1082 48.285 45.9414 48.4237 45.7767 48.545C45.6121 48.662 45.4387 48.7638 45.2567 48.8505C45.0791 48.9328 44.8884 48.9957 44.6847 49.039C44.4811 49.0823 44.2557 49.104 44.0087 49.104C43.7487 49.104 43.5039 49.0693 43.2742 49C43.0489 48.9263 42.8517 48.8158 42.6827 48.6685C42.5137 48.5212 42.3794 48.337 42.2797 48.116C42.1844 47.895 42.1367 47.6372 42.1367 47.3425C42.1367 47.0825 42.2061 46.8333 42.3447 46.595C42.4877 46.3523 42.7174 46.1357 43.0337 45.945C43.3544 45.7543 43.7704 45.5983 44.2817 45.477C44.7974 45.3557 45.4301 45.2863 46.1797 45.269V44.788C46.1797 44.2897 46.0736 43.917 45.8612 43.67C45.6489 43.423 45.3369 43.2995 44.9252 43.2995C44.6479 43.2995 44.4139 43.3342 44.2232 43.4035C44.0369 43.4728 43.8744 43.5508 43.7357 43.6375C43.6014 43.7198 43.4822 43.7957 43.3782 43.865C43.2786 43.9343 43.1746 43.969 43.0662 43.969C42.9796 43.969 42.9037 43.9452 42.8387 43.8975C42.7781 43.8498 42.7282 43.7935 42.6892 43.7285L42.4617 43.319ZM50.314 43.6635C50.5264 43.2302 50.782 42.89 51.081 42.643C51.38 42.396 51.7397 42.2725 52.16 42.2725C52.303 42.2725 52.4374 42.2898 52.563 42.3245C52.693 42.3548 52.8057 42.4025 52.901 42.4675L52.8165 43.423C52.7862 43.54 52.7147 43.5985 52.602 43.5985C52.5414 43.5985 52.4504 43.5877 52.329 43.566C52.2077 43.54 52.0777 43.527 51.939 43.527C51.7354 43.527 51.5555 43.5573 51.3995 43.618C51.2435 43.6743 51.1027 43.761 50.977 43.878C50.8557 43.9907 50.7474 44.1315 50.652 44.3005C50.5567 44.4652 50.4679 44.6537 50.3855 44.866V49H49.118V42.396H49.846C49.9847 42.396 50.0779 42.422 50.1255 42.474C50.1775 42.5217 50.2144 42.6083 50.236 42.734L50.314 43.6635ZM55.1463 39.406V45.0155H55.4453C55.5363 45.0155 55.6121 45.0025 55.6728 44.9765C55.7334 44.9505 55.7963 44.8985 55.8613 44.8205L57.8373 42.643C57.8979 42.5607 57.9651 42.5 58.0388 42.461C58.1124 42.4177 58.2056 42.396 58.3183 42.396H59.4753L57.1418 44.9505C57.0161 45.1108 56.8818 45.2343 56.7388 45.321C56.8211 45.3773 56.8926 45.4423 56.9533 45.516C57.0183 45.5897 57.0811 45.6698 57.1418 45.7565L59.6248 49H58.4873C58.3833 49 58.2923 48.9827 58.2143 48.948C58.1406 48.9133 58.0734 48.8505 58.0128 48.7595L55.9718 46.1075C55.9068 46.0078 55.8418 45.945 55.7768 45.919C55.7118 45.8887 55.6143 45.8735 55.4843 45.8735H55.1463V49H53.8788V39.406H55.1463ZM64.5755 44.9635C64.5755 44.7122 64.5387 44.4803 64.465 44.268C64.3957 44.0557 64.2917 43.8715 64.153 43.7155C64.0144 43.5595 63.8454 43.4382 63.646 43.3515C63.4467 43.2648 63.217 43.2215 62.957 43.2215C62.424 43.2215 62.0037 43.3753 61.696 43.683C61.3927 43.9907 61.1999 44.4175 61.1175 44.9635H64.5755ZM65.622 48.0575C65.466 48.2395 65.2862 48.3977 65.0825 48.532C64.8789 48.662 64.6622 48.7682 64.4325 48.8505C64.2029 48.9328 63.9645 48.9935 63.7175 49.0325C63.4749 49.0715 63.2344 49.091 62.996 49.091C62.541 49.091 62.1185 49.0152 61.7285 48.8635C61.3429 48.7075 61.007 48.4822 60.721 48.1875C60.4394 47.8885 60.2184 47.5202 60.058 47.0825C59.902 46.6405 59.824 46.1335 59.824 45.5615C59.824 45.1022 59.8955 44.6753 60.0385 44.281C60.1815 43.8823 60.3852 43.5357 60.6495 43.241C60.9182 42.9463 61.2454 42.7145 61.631 42.5455C62.0167 42.3765 62.45 42.292 62.931 42.292C63.334 42.292 63.7045 42.3592 64.0425 42.4935C64.3849 42.6235 64.6795 42.8142 64.9265 43.0655C65.1735 43.3168 65.3664 43.6267 65.505 43.995C65.648 44.3633 65.7195 44.7837 65.7195 45.256C65.7195 45.451 65.6979 45.5832 65.6545 45.6525C65.6112 45.7175 65.531 45.75 65.414 45.75H61.085C61.098 46.1443 61.1544 46.4888 61.254 46.7835C61.3537 47.0738 61.4902 47.3165 61.6635 47.5115C61.8412 47.7065 62.0514 47.8517 62.294 47.947C62.5367 48.0423 62.8075 48.09 63.1065 48.09C63.3882 48.09 63.6309 48.0575 63.8345 47.9925C64.0425 47.9275 64.2202 47.8582 64.3675 47.7845C64.5192 47.7065 64.6449 47.635 64.7445 47.57C64.8485 47.505 64.9395 47.4725 65.0175 47.4725C65.1215 47.4725 65.2017 47.5115 65.258 47.5895L65.622 48.0575ZM69.0981 49.104C68.5651 49.104 68.1535 48.9545 67.8631 48.6555C67.5771 48.3565 67.4341 47.9297 67.4341 47.375V43.423H66.6671C66.5935 43.423 66.5306 43.4013 66.4786 43.358C66.431 43.3103 66.4071 43.241 66.4071 43.15V42.6365L67.4796 42.487L67.7656 40.5175C67.783 40.4438 67.8155 40.3875 67.8631 40.3485C67.9151 40.3052 67.9801 40.2835 68.0581 40.2835H68.7016V42.5H70.5736V43.423H68.7016V47.2905C68.7016 47.5505 68.7645 47.7455 68.8901 47.8755C69.0201 48.0012 69.1848 48.064 69.3841 48.064C69.5011 48.064 69.6008 48.0488 69.6831 48.0185C69.7698 47.9882 69.8435 47.9557 69.9041 47.921C69.9648 47.882 70.0168 47.8473 70.0601 47.817C70.1035 47.7867 70.1425 47.7715 70.1771 47.7715C70.2205 47.7715 70.253 47.7823 70.2746 47.804C70.3006 47.8213 70.3266 47.8517 70.3526 47.895L70.7296 48.506C70.5216 48.6967 70.2746 48.844 69.9886 48.948C69.7026 49.052 69.4058 49.104 69.0981 49.104ZM76.2252 43.6635C76.4375 43.2302 76.6932 42.89 76.9922 42.643C77.2912 42.396 77.6508 42.2725 78.0712 42.2725C78.2142 42.2725 78.3485 42.2898 78.4742 42.3245C78.6042 42.3548 78.7168 42.4025 78.8122 42.4675L78.7277 43.423C78.6973 43.54 78.6258 43.5985 78.5132 43.5985C78.4525 43.5985 78.3615 43.5877 78.2402 43.566C78.1188 43.54 77.9888 43.527 77.8502 43.527C77.6465 43.527 77.4667 43.5573 77.3107 43.618C77.1547 43.6743 77.0138 43.761 76.8882 43.878C76.7668 43.9907 76.6585 44.1315 76.5632 44.3005C76.4678 44.4652 76.379 44.6537 76.2967 44.866V49H75.0292V42.396H75.7572C75.8958 42.396 75.989 42.422 76.0367 42.474C76.0887 42.5217 76.1255 42.6083 76.1472 42.734L76.2252 43.6635ZM83.9232 44.9635C83.9232 44.7122 83.8864 44.4803 83.8127 44.268C83.7434 44.0557 83.6394 43.8715 83.5007 43.7155C83.362 43.5595 83.193 43.4382 82.9937 43.3515C82.7944 43.2648 82.5647 43.2215 82.3047 43.2215C81.7717 43.2215 81.3514 43.3753 81.0437 43.683C80.7404 43.9907 80.5475 44.4175 80.4652 44.9635H83.9232ZM84.9697 48.0575C84.8137 48.2395 84.6339 48.3977 84.4302 48.532C84.2265 48.662 84.0099 48.7682 83.7802 48.8505C83.5505 48.9328 83.3122 48.9935 83.0652 49.0325C82.8225 49.0715 82.582 49.091 82.3437 49.091C81.8887 49.091 81.4662 49.0152 81.0762 48.8635C80.6905 48.7075 80.3547 48.4822 80.0687 48.1875C79.787 47.8885 79.566 47.5202 79.4057 47.0825C79.2497 46.6405 79.1717 46.1335 79.1717 45.5615C79.1717 45.1022 79.2432 44.6753 79.3862 44.281C79.5292 43.8823 79.7329 43.5357 79.9972 43.241C80.2659 42.9463 80.593 42.7145 80.9787 42.5455C81.3644 42.3765 81.7977 42.292 82.2787 42.292C82.6817 42.292 83.0522 42.3592 83.3902 42.4935C83.7325 42.6235 84.0272 42.8142 84.2742 43.0655C84.5212 43.3168 84.714 43.6267 84.8527 43.995C84.9957 44.3633 85.0672 44.7837 85.0672 45.256C85.0672 45.451 85.0455 45.5832 85.0022 45.6525C84.9589 45.7175 84.8787 45.75 84.7617 45.75H80.4327C80.4457 46.1443 80.502 46.4888 80.6017 46.7835C80.7014 47.0738 80.8379 47.3165 81.0112 47.5115C81.1889 47.7065 81.399 47.8517 81.6417 47.947C81.8844 48.0423 82.1552 48.09 82.4542 48.09C82.7359 48.09 82.9785 48.0575 83.1822 47.9925C83.3902 47.9275 83.5679 47.8582 83.7152 47.7845C83.8669 47.7065 83.9925 47.635 84.0922 47.57C84.1962 47.505 84.2872 47.4725 84.3652 47.4725C84.4692 47.4725 84.5494 47.5115 84.6057 47.5895L84.9697 48.0575ZM90.3231 43.5335C90.2884 43.5898 90.2516 43.631 90.2126 43.657C90.1736 43.6787 90.1237 43.6895 90.0631 43.6895C89.9937 43.6895 89.9157 43.6657 89.8291 43.618C89.7467 43.5703 89.6449 43.5183 89.5236 43.462C89.4066 43.4057 89.2679 43.3537 89.1076 43.306C88.9472 43.2583 88.7566 43.2345 88.5356 43.2345C88.3536 43.2345 88.1867 43.2583 88.0351 43.306C87.8877 43.3493 87.7621 43.4122 87.6581 43.4945C87.5541 43.5725 87.4739 43.6678 87.4176 43.7805C87.3612 43.8888 87.3331 44.0058 87.3331 44.1315C87.3331 44.2962 87.3807 44.4327 87.4761 44.541C87.5757 44.6493 87.7036 44.7425 87.8596 44.8205C88.0199 44.8985 88.1997 44.97 88.3991 45.035C88.6027 45.0957 88.8086 45.1607 89.0166 45.23C89.2289 45.2993 89.4347 45.3795 89.6341 45.4705C89.8377 45.5572 90.0176 45.6677 90.1736 45.802C90.3339 45.932 90.4617 46.0902 90.5571 46.2765C90.6567 46.4628 90.7066 46.6903 90.7066 46.959C90.7066 47.2667 90.6502 47.5527 90.5376 47.817C90.4292 48.077 90.2667 48.3023 90.0501 48.493C89.8377 48.6837 89.5734 48.8332 89.2571 48.9415C88.9407 49.0498 88.5789 49.104 88.1716 49.104C87.7166 49.104 87.2962 49.0282 86.9106 48.8765C86.5249 48.7248 86.2021 48.532 85.9421 48.298L86.2411 47.8105C86.2757 47.7498 86.3191 47.7043 86.3711 47.674C86.4231 47.6393 86.4924 47.622 86.5791 47.622C86.6614 47.622 86.7459 47.6523 86.8326 47.713C86.9192 47.7737 87.0232 47.8408 87.1446 47.9145C87.2659 47.9838 87.4132 48.0488 87.5866 48.1095C87.7599 48.1658 87.9766 48.194 88.2366 48.194C88.4532 48.194 88.6417 48.168 88.8021 48.116C88.9624 48.0597 89.0946 47.986 89.1986 47.895C89.3069 47.7997 89.3871 47.6913 89.4391 47.57C89.4911 47.4487 89.5171 47.3208 89.5171 47.1865C89.5171 47.0132 89.4672 46.8702 89.3676 46.7575C89.2722 46.6405 89.1444 46.5408 88.9841 46.4585C88.8281 46.3762 88.6482 46.3047 88.4446 46.244C88.2409 46.1833 88.0329 46.1183 87.8206 46.049C87.6082 45.9797 87.4002 45.8995 87.1966 45.8085C86.9929 45.7175 86.8109 45.6027 86.6506 45.464C86.4946 45.3253 86.3667 45.1563 86.2671 44.957C86.1717 44.7577 86.1241 44.515 86.1241 44.229C86.1241 43.9733 86.1761 43.7285 86.2801 43.4945C86.3884 43.2605 86.5422 43.0547 86.7416 42.877C86.9452 42.6993 87.1944 42.5585 87.4891 42.4545C87.7881 42.3462 88.1282 42.292 88.5096 42.292C88.9472 42.292 89.3416 42.3613 89.6926 42.5C90.0479 42.6387 90.3512 42.8293 90.6026 43.072L90.3231 43.5335ZM96.4535 44.9635C96.4535 44.7122 96.4166 44.4803 96.343 44.268C96.2736 44.0557 96.1696 43.8715 96.031 43.7155C95.8923 43.5595 95.7233 43.4382 95.524 43.3515C95.3246 43.2648 95.095 43.2215 94.835 43.2215C94.302 43.2215 93.8816 43.3753 93.574 43.683C93.2706 43.9907 93.0778 44.4175 92.9955 44.9635H96.4535ZM97.5 48.0575C97.344 48.2395 97.1641 48.3977 96.9605 48.532C96.7568 48.662 96.5401 48.7682 96.3105 48.8505C96.0808 48.9328 95.8425 48.9935 95.5955 49.0325C95.3528 49.0715 95.1123 49.091 94.874 49.091C94.419 49.091 93.9965 49.0152 93.6065 48.8635C93.2208 48.7075 92.885 48.4822 92.599 48.1875C92.3173 47.8885 92.0963 47.5202 91.936 47.0825C91.78 46.6405 91.702 46.1335 91.702 45.5615C91.702 45.1022 91.7735 44.6753 91.9165 44.281C92.0595 43.8823 92.2631 43.5357 92.5275 43.241C92.7961 42.9463 93.1233 42.7145 93.509 42.5455C93.8946 42.3765 94.328 42.292 94.809 42.292C95.212 42.292 95.5825 42.3592 95.9205 42.4935C96.2628 42.6235 96.5575 42.8142 96.8045 43.0655C97.0515 43.3168 97.2443 43.6267 97.383 43.995C97.526 44.3633 97.5975 44.7837 97.5975 45.256C97.5975 45.451 97.5758 45.5832 97.5325 45.6525C97.4891 45.7175 97.409 45.75 97.292 45.75H92.963C92.976 46.1443 93.0323 46.4888 93.132 46.7835C93.2316 47.0738 93.3681 47.3165 93.5415 47.5115C93.7191 47.7065 93.9293 47.8517 94.172 47.947C94.4146 48.0423 94.6855 48.09 94.9845 48.09C95.2661 48.09 95.5088 48.0575 95.7125 47.9925C95.9205 47.9275 96.0981 47.8582 96.2455 47.7845C96.3971 47.7065 96.5228 47.635 96.6225 47.57C96.7265 47.505 96.8175 47.4725 96.8955 47.4725C96.9995 47.4725 97.0796 47.5115 97.136 47.5895L97.5 48.0575ZM102.509 46.0685C101.993 46.0858 101.556 46.127 101.196 46.192C100.836 46.2527 100.544 46.335 100.318 46.439C100.093 46.543 99.9305 46.6665 99.8308 46.8095C99.7312 46.9482 99.6813 47.1042 99.6813 47.2775C99.6813 47.4422 99.7073 47.5852 99.7593 47.7065C99.8157 47.8235 99.8893 47.921 99.9803 47.999C100.076 48.0727 100.186 48.1268 100.312 48.1615C100.438 48.1962 100.574 48.2135 100.721 48.2135C100.916 48.2135 101.094 48.194 101.254 48.155C101.419 48.116 101.573 48.0618 101.716 47.9925C101.859 47.9188 101.995 47.83 102.125 47.726C102.255 47.622 102.383 47.5028 102.509 47.3685V46.0685ZM98.7908 43.319C99.1592 42.968 99.5578 42.7058 99.9868 42.5325C100.42 42.3592 100.895 42.2725 101.41 42.2725C101.787 42.2725 102.121 42.3353 102.411 42.461C102.702 42.5823 102.947 42.7535 103.146 42.9745C103.345 43.1955 103.495 43.4598 103.594 43.7675C103.698 44.0752 103.75 44.4153 103.75 44.788V49H103.185C103.059 49 102.964 48.9805 102.899 48.9415C102.834 48.8982 102.782 48.8202 102.743 48.7075L102.606 48.129C102.437 48.285 102.271 48.4237 102.106 48.545C101.941 48.662 101.768 48.7638 101.586 48.8505C101.408 48.9328 101.218 48.9957 101.014 49.039C100.81 49.0823 100.585 49.104 100.338 49.104C100.078 49.104 99.833 49.0693 99.6033 49C99.378 48.9263 99.1808 48.8158 99.0118 48.6685C98.8428 48.5212 98.7085 48.337 98.6088 48.116C98.5135 47.895 98.4658 47.6372 98.4658 47.3425C98.4658 47.0825 98.5352 46.8333 98.6738 46.595C98.8168 46.3523 99.0465 46.1357 99.3628 45.945C99.6835 45.7543 100.1 45.5983 100.611 45.477C101.127 45.3557 101.759 45.2863 102.509 45.269V44.788C102.509 44.2897 102.403 43.917 102.19 43.67C101.978 43.423 101.666 43.2995 101.254 43.2995C100.977 43.2995 100.743 43.3342 100.552 43.4035C100.366 43.4728 100.204 43.5508 100.065 43.6375C99.9305 43.7198 99.8113 43.7957 99.7073 43.865C99.6077 43.9343 99.5037 43.969 99.3953 43.969C99.3087 43.969 99.2328 43.9452 99.1678 43.8975C99.1072 43.8498 99.0573 43.7935 99.0183 43.7285L98.7908 43.319ZM106.643 43.6635C106.855 43.2302 107.111 42.89 107.41 42.643C107.709 42.396 108.069 42.2725 108.489 42.2725C108.632 42.2725 108.766 42.2898 108.892 42.3245C109.022 42.3548 109.135 42.4025 109.23 42.4675L109.146 43.423C109.115 43.54 109.044 43.5985 108.931 43.5985C108.87 43.5985 108.779 43.5877 108.658 43.566C108.537 43.54 108.407 43.527 108.268 43.527C108.064 43.527 107.885 43.5573 107.729 43.618C107.573 43.6743 107.432 43.761 107.306 43.878C107.185 43.9907 107.076 44.1315 106.981 44.3005C106.886 44.4652 106.797 44.6537 106.715 44.866V49H105.447V42.396H106.175C106.314 42.396 106.407 42.422 106.455 42.474C106.507 42.5217 106.543 42.6083 106.565 42.734L106.643 43.6635ZM114.595 43.631C114.556 43.6787 114.517 43.7177 114.478 43.748C114.443 43.774 114.391 43.787 114.322 43.787C114.252 43.787 114.179 43.761 114.101 43.709C114.027 43.6527 113.932 43.5942 113.815 43.5335C113.702 43.4685 113.563 43.41 113.399 43.358C113.238 43.3017 113.039 43.2735 112.801 43.2735C112.489 43.2735 112.214 43.3298 111.975 43.4425C111.737 43.5552 111.538 43.7155 111.377 43.9235C111.221 44.1315 111.102 44.385 111.02 44.684C110.937 44.983 110.896 45.3188 110.896 45.6915C110.896 46.0772 110.94 46.4217 111.026 46.725C111.113 47.024 111.236 47.2775 111.397 47.4855C111.557 47.6892 111.752 47.8452 111.982 47.9535C112.211 48.0575 112.467 48.1095 112.749 48.1095C113.022 48.1095 113.247 48.077 113.425 48.012C113.602 47.9427 113.75 47.869 113.867 47.791C113.984 47.713 114.081 47.6415 114.159 47.5765C114.237 47.5072 114.317 47.4725 114.4 47.4725C114.504 47.4725 114.584 47.5115 114.64 47.5895L115.004 48.0575C114.853 48.2438 114.681 48.402 114.491 48.532C114.304 48.662 114.105 48.7682 113.893 48.8505C113.68 48.9328 113.457 48.9935 113.223 49.0325C112.994 49.0715 112.76 49.091 112.521 49.091C112.11 49.091 111.724 49.0152 111.364 48.8635C111.009 48.7118 110.699 48.4908 110.435 48.2005C110.175 47.9102 109.969 47.5548 109.817 47.1345C109.666 46.7098 109.59 46.2288 109.59 45.6915C109.59 45.2018 109.657 44.749 109.791 44.333C109.93 43.917 110.131 43.5595 110.396 43.2605C110.664 42.9572 110.994 42.721 111.384 42.552C111.774 42.3787 112.22 42.292 112.723 42.292C113.195 42.292 113.611 42.3678 113.971 42.5195C114.33 42.6712 114.651 42.8857 114.933 43.163L114.595 43.631ZM117.455 43.2345C117.732 42.9528 118.038 42.7253 118.371 42.552C118.709 42.3787 119.097 42.292 119.535 42.292C119.899 42.292 120.217 42.3527 120.49 42.474C120.768 42.5953 121 42.7665 121.186 42.9875C121.372 43.2042 121.513 43.4663 121.608 43.774C121.704 44.0817 121.751 44.4218 121.751 44.7945V49H120.477V44.7945C120.477 44.3222 120.369 43.956 120.152 43.696C119.936 43.4317 119.604 43.2995 119.158 43.2995C118.833 43.2995 118.527 43.3775 118.241 43.5335C117.96 43.6852 117.698 43.8932 117.455 44.1575V49H116.187V39.406H117.455V43.2345ZM127.185 49V43.436L126.496 43.3515C126.397 43.3298 126.314 43.2952 126.249 43.2475C126.189 43.1955 126.158 43.1218 126.158 43.0265V42.5H127.185V41.902C127.185 41.525 127.24 41.1892 127.348 40.8945C127.456 40.5998 127.61 40.3507 127.809 40.147C128.013 39.939 128.256 39.783 128.537 39.679C128.823 39.5707 129.144 39.5165 129.499 39.5165C129.798 39.5165 130.074 39.5598 130.325 39.6465L130.299 40.2835C130.295 40.3398 130.277 40.3832 130.247 40.4135C130.217 40.4395 130.175 40.459 130.123 40.472C130.076 40.485 130.015 40.4937 129.941 40.498C129.872 40.498 129.796 40.498 129.714 40.498C129.519 40.498 129.341 40.5218 129.181 40.5695C129.021 40.6172 128.884 40.6973 128.771 40.81C128.659 40.9227 128.572 41.0722 128.511 41.2585C128.451 41.4405 128.42 41.668 128.42 41.941V42.5H130.273V43.423H128.459V49H127.185ZM133.944 42.292C134.43 42.292 134.867 42.3722 135.257 42.5325C135.652 42.6885 135.985 42.916 136.258 43.215C136.536 43.5097 136.748 43.8672 136.895 44.2875C137.043 44.7035 137.116 45.1715 137.116 45.6915C137.116 46.2115 137.043 46.6817 136.895 47.102C136.748 47.5223 136.536 47.8798 136.258 48.1745C135.985 48.4692 135.652 48.6967 135.257 48.857C134.867 49.013 134.43 49.091 133.944 49.091C133.455 49.091 133.013 49.013 132.618 48.857C132.228 48.6967 131.895 48.4692 131.617 48.1745C131.34 47.8798 131.125 47.5223 130.974 47.102C130.826 46.6817 130.753 46.2115 130.753 45.6915C130.753 45.1715 130.826 44.7035 130.974 44.2875C131.125 43.8672 131.34 43.5097 131.617 43.215C131.895 42.916 132.228 42.6885 132.618 42.5325C133.013 42.3722 133.455 42.292 133.944 42.292ZM133.944 48.103C134.568 48.103 135.034 47.8928 135.342 47.4725C135.649 47.0522 135.803 46.4607 135.803 45.698C135.803 44.9353 135.649 44.3438 135.342 43.9235C135.034 43.4988 134.568 43.2865 133.944 43.2865C133.312 43.2865 132.839 43.4988 132.527 43.9235C132.22 44.3438 132.066 44.9353 132.066 45.698C132.066 46.4607 132.22 47.0522 132.527 47.4725C132.839 47.8928 133.312 48.103 133.944 48.103ZM139.727 43.6635C139.939 43.2302 140.195 42.89 140.494 42.643C140.793 42.396 141.153 42.2725 141.573 42.2725C141.716 42.2725 141.85 42.2898 141.976 42.3245C142.106 42.3548 142.219 42.4025 142.314 42.4675L142.23 43.423C142.199 43.54 142.128 43.5985 142.015 43.5985C141.954 43.5985 141.863 43.5877 141.742 43.566C141.621 43.54 141.491 43.527 141.352 43.527C141.148 43.527 140.969 43.5573 140.813 43.618C140.657 43.6743 140.516 43.761 140.39 43.878C140.269 43.9907 140.16 44.1315 140.065 44.3005C139.97 44.4652 139.881 44.6537 139.799 44.866V49H138.531V42.396H139.259C139.398 42.396 139.491 42.422 139.539 42.474C139.591 42.5217 139.627 42.6083 139.649 42.734L139.727 43.6635ZM147.497 43.6635C147.709 43.2302 147.965 42.89 148.264 42.643C148.563 42.396 148.922 42.2725 149.343 42.2725C149.486 42.2725 149.62 42.2898 149.746 42.3245C149.876 42.3548 149.988 42.4025 150.084 42.4675L149.999 43.423C149.969 43.54 149.897 43.5985 149.785 43.5985C149.724 43.5985 149.633 43.5877 149.512 43.566C149.39 43.54 149.26 43.527 149.122 43.527C148.918 43.527 148.738 43.5573 148.582 43.618C148.426 43.6743 148.285 43.761 148.16 43.878C148.038 43.9907 147.93 44.1315 147.835 44.3005C147.739 44.4652 147.65 44.6537 147.568 44.866V49H146.301V42.396H147.029C147.167 42.396 147.26 42.422 147.308 42.474C147.36 42.5217 147.397 42.6083 147.419 42.734L147.497 43.6635ZM155.195 44.9635C155.195 44.7122 155.158 44.4803 155.084 44.268C155.015 44.0557 154.911 43.8715 154.772 43.7155C154.634 43.5595 154.465 43.4382 154.265 43.3515C154.066 43.2648 153.836 43.2215 153.576 43.2215C153.043 43.2215 152.623 43.3753 152.315 43.683C152.012 43.9907 151.819 44.4175 151.737 44.9635H155.195ZM156.241 48.0575C156.085 48.2395 155.905 48.3977 155.702 48.532C155.498 48.662 155.281 48.7682 155.052 48.8505C154.822 48.9328 154.584 48.9935 154.337 49.0325C154.094 49.0715 153.854 49.091 153.615 49.091C153.16 49.091 152.738 49.0152 152.348 48.8635C151.962 48.7075 151.626 48.4822 151.34 48.1875C151.059 47.8885 150.838 47.5202 150.677 47.0825C150.521 46.6405 150.443 46.1335 150.443 45.5615C150.443 45.1022 150.515 44.6753 150.658 44.281C150.801 43.8823 151.004 43.5357 151.269 43.241C151.537 42.9463 151.865 42.7145 152.25 42.5455C152.636 42.3765 153.069 42.292 153.55 42.292C153.953 42.292 154.324 42.3592 154.662 42.4935C155.004 42.6235 155.299 42.8142 155.546 43.0655C155.793 43.3168 155.986 43.6267 156.124 43.995C156.267 44.3633 156.339 44.7837 156.339 45.256C156.339 45.451 156.317 45.5832 156.274 45.6525C156.23 45.7175 156.15 45.75 156.033 45.75H151.704C151.717 46.1443 151.774 46.4888 151.873 46.7835C151.973 47.0738 152.109 47.3165 152.283 47.5115C152.46 47.7065 152.671 47.8517 152.913 47.947C153.156 48.0423 153.427 48.09 153.726 48.09C154.007 48.09 154.25 48.0575 154.454 47.9925C154.662 47.9275 154.839 47.8582 154.987 47.7845C155.138 47.7065 155.264 47.635 155.364 47.57C155.468 47.505 155.559 47.4725 155.637 47.4725C155.741 47.4725 155.821 47.5115 155.877 47.5895L156.241 48.0575ZM161.595 43.5335C161.56 43.5898 161.523 43.631 161.484 43.657C161.445 43.6787 161.395 43.6895 161.335 43.6895C161.265 43.6895 161.187 43.6657 161.101 43.618C161.018 43.5703 160.916 43.5183 160.795 43.462C160.678 43.4057 160.539 43.3537 160.379 43.306C160.219 43.2583 160.028 43.2345 159.807 43.2345C159.625 43.2345 159.458 43.2583 159.307 43.306C159.159 43.3493 159.034 43.4122 158.93 43.4945C158.826 43.5725 158.745 43.6678 158.689 43.7805C158.633 43.8888 158.605 44.0058 158.605 44.1315C158.605 44.2962 158.652 44.4327 158.748 44.541C158.847 44.6493 158.975 44.7425 159.131 44.8205C159.291 44.8985 159.471 44.97 159.671 45.035C159.874 45.0957 160.08 45.1607 160.288 45.23C160.5 45.2993 160.706 45.3795 160.906 45.4705C161.109 45.5572 161.289 45.6677 161.445 45.802C161.605 45.932 161.733 46.0902 161.829 46.2765C161.928 46.4628 161.978 46.6903 161.978 46.959C161.978 47.2667 161.922 47.5527 161.809 47.817C161.701 48.077 161.538 48.3023 161.322 48.493C161.109 48.6837 160.845 48.8332 160.529 48.9415C160.212 49.0498 159.85 49.104 159.443 49.104C158.988 49.104 158.568 49.0282 158.182 48.8765C157.796 48.7248 157.474 48.532 157.214 48.298L157.513 47.8105C157.547 47.7498 157.591 47.7043 157.643 47.674C157.695 47.6393 157.764 47.622 157.851 47.622C157.933 47.622 158.017 47.6523 158.104 47.713C158.191 47.7737 158.295 47.8408 158.416 47.9145C158.537 47.9838 158.685 48.0488 158.858 48.1095C159.031 48.1658 159.248 48.194 159.508 48.194C159.725 48.194 159.913 48.168 160.074 48.116C160.234 48.0597 160.366 47.986 160.47 47.895C160.578 47.7997 160.659 47.6913 160.711 47.57C160.763 47.4487 160.789 47.3208 160.789 47.1865C160.789 47.0132 160.739 46.8702 160.639 46.7575C160.544 46.6405 160.416 46.5408 160.256 46.4585C160.1 46.3762 159.92 46.3047 159.716 46.244C159.512 46.1833 159.304 46.1183 159.092 46.049C158.88 45.9797 158.672 45.8995 158.468 45.8085C158.264 45.7175 158.082 45.6027 157.922 45.464C157.766 45.3253 157.638 45.1563 157.539 44.957C157.443 44.7577 157.396 44.515 157.396 44.229C157.396 43.9733 157.448 43.7285 157.552 43.4945C157.66 43.2605 157.814 43.0547 158.013 42.877C158.217 42.6993 158.466 42.5585 158.761 42.4545C159.06 42.3462 159.4 42.292 159.781 42.292C160.219 42.292 160.613 42.3613 160.964 42.5C161.319 42.6387 161.623 42.8293 161.874 43.072L161.595 43.5335ZM167.725 44.9635C167.725 44.7122 167.688 44.4803 167.614 44.268C167.545 44.0557 167.441 43.8715 167.302 43.7155C167.164 43.5595 166.995 43.4382 166.795 43.3515C166.596 43.2648 166.366 43.2215 166.106 43.2215C165.573 43.2215 165.153 43.3753 164.845 43.683C164.542 43.9907 164.349 44.4175 164.267 44.9635H167.725ZM168.771 48.0575C168.615 48.2395 168.436 48.3977 168.232 48.532C168.028 48.662 167.812 48.7682 167.582 48.8505C167.352 48.9328 167.114 48.9935 166.867 49.0325C166.624 49.0715 166.384 49.091 166.145 49.091C165.69 49.091 165.268 49.0152 164.878 48.8635C164.492 48.7075 164.156 48.4822 163.87 48.1875C163.589 47.8885 163.368 47.5202 163.207 47.0825C163.051 46.6405 162.973 46.1335 162.973 45.5615C162.973 45.1022 163.045 44.6753 163.188 44.281C163.331 43.8823 163.535 43.5357 163.799 43.241C164.068 42.9463 164.395 42.7145 164.78 42.5455C165.166 42.3765 165.599 42.292 166.08 42.292C166.483 42.292 166.854 42.3592 167.192 42.4935C167.534 42.6235 167.829 42.8142 168.076 43.0655C168.323 43.3168 168.516 43.6267 168.654 43.995C168.797 44.3633 168.869 44.7837 168.869 45.256C168.869 45.451 168.847 45.5832 168.804 45.6525C168.761 45.7175 168.68 45.75 168.563 45.75H164.234C164.247 46.1443 164.304 46.4888 164.403 46.7835C164.503 47.0738 164.64 47.3165 164.813 47.5115C164.991 47.7065 165.201 47.8517 165.443 47.947C165.686 48.0423 165.957 48.09 166.256 48.09C166.538 48.09 166.78 48.0575 166.984 47.9925C167.192 47.9275 167.37 47.8582 167.517 47.7845C167.669 47.7065 167.794 47.635 167.894 47.57C167.998 47.505 168.089 47.4725 168.167 47.4725C168.271 47.4725 168.351 47.5115 168.407 47.5895L168.771 48.0575ZM173.78 46.0685C173.265 46.0858 172.827 46.127 172.467 46.192C172.108 46.2527 171.815 46.335 171.59 46.439C171.364 46.543 171.202 46.6665 171.102 46.8095C171.003 46.9482 170.953 47.1042 170.953 47.2775C170.953 47.4422 170.979 47.5852 171.031 47.7065C171.087 47.8235 171.161 47.921 171.252 47.999C171.347 48.0727 171.458 48.1268 171.583 48.1615C171.709 48.1962 171.845 48.2135 171.993 48.2135C172.188 48.2135 172.365 48.194 172.526 48.155C172.69 48.116 172.844 48.0618 172.987 47.9925C173.13 47.9188 173.267 47.83 173.397 47.726C173.527 47.622 173.655 47.5028 173.78 47.3685V46.0685ZM170.062 43.319C170.431 42.968 170.829 42.7058 171.258 42.5325C171.692 42.3592 172.166 42.2725 172.682 42.2725C173.059 42.2725 173.392 42.3353 173.683 42.461C173.973 42.5823 174.218 42.7535 174.417 42.9745C174.617 43.1955 174.766 43.4598 174.866 43.7675C174.97 44.0752 175.022 44.4153 175.022 44.788V49H174.456C174.331 49 174.235 48.9805 174.17 48.9415C174.105 48.8982 174.053 48.8202 174.014 48.7075L173.878 48.129C173.709 48.285 173.542 48.4237 173.377 48.545C173.213 48.662 173.039 48.7638 172.857 48.8505C172.68 48.9328 172.489 48.9957 172.285 49.039C172.082 49.0823 171.856 49.104 171.609 49.104C171.349 49.104 171.104 49.0693 170.875 49C170.649 48.9263 170.452 48.8158 170.283 48.6685C170.114 48.5212 169.98 48.337 169.88 48.116C169.785 47.895 169.737 47.6372 169.737 47.3425C169.737 47.0825 169.807 46.8333 169.945 46.595C170.088 46.3523 170.318 46.1357 170.634 45.945C170.955 45.7543 171.371 45.5983 171.882 45.477C172.398 45.3557 173.031 45.2863 173.78 45.269V44.788C173.78 44.2897 173.674 43.917 173.462 43.67C173.249 43.423 172.937 43.2995 172.526 43.2995C172.248 43.2995 172.014 43.3342 171.824 43.4035C171.637 43.4728 171.475 43.5508 171.336 43.6375C171.202 43.7198 171.083 43.7957 170.979 43.865C170.879 43.9343 170.775 43.969 170.667 43.969C170.58 43.969 170.504 43.9452 170.439 43.8975C170.379 43.8498 170.329 43.7935 170.29 43.7285L170.062 43.319ZM177.915 43.6635C178.127 43.2302 178.383 42.89 178.682 42.643C178.981 42.396 179.34 42.2725 179.761 42.2725C179.904 42.2725 180.038 42.2898 180.164 42.3245C180.294 42.3548 180.406 42.4025 180.502 42.4675L180.417 43.423C180.387 43.54 180.315 43.5985 180.203 43.5985C180.142 43.5985 180.051 43.5877 179.93 43.566C179.808 43.54 179.678 43.527 179.54 43.527C179.336 43.527 179.156 43.5573 179 43.618C178.844 43.6743 178.703 43.761 178.578 43.878C178.456 43.9907 178.348 44.1315 178.253 44.3005C178.157 44.4652 178.068 44.6537 177.986 44.866V49H176.719V42.396H177.447C177.585 42.396 177.678 42.422 177.726 42.474C177.778 42.5217 177.815 42.6083 177.837 42.734L177.915 43.6635ZM185.866 43.631C185.827 43.6787 185.788 43.7177 185.749 43.748C185.714 43.774 185.662 43.787 185.593 43.787C185.524 43.787 185.45 43.761 185.372 43.709C185.298 43.6527 185.203 43.5942 185.086 43.5335C184.973 43.4685 184.835 43.41 184.67 43.358C184.51 43.3017 184.31 43.2735 184.072 43.2735C183.76 43.2735 183.485 43.3298 183.247 43.4425C183.008 43.5552 182.809 43.7155 182.649 43.9235C182.493 44.1315 182.373 44.385 182.291 44.684C182.209 44.983 182.168 45.3188 182.168 45.6915C182.168 46.0772 182.211 46.4217 182.298 46.725C182.384 47.024 182.508 47.2775 182.668 47.4855C182.828 47.6892 183.023 47.8452 183.253 47.9535C183.483 48.0575 183.738 48.1095 184.02 48.1095C184.293 48.1095 184.518 48.077 184.696 48.012C184.874 47.9427 185.021 47.869 185.138 47.791C185.255 47.713 185.353 47.6415 185.431 47.5765C185.509 47.5072 185.589 47.4725 185.671 47.4725C185.775 47.4725 185.855 47.5115 185.912 47.5895L186.276 48.0575C186.124 48.2438 185.953 48.402 185.762 48.532C185.576 48.662 185.376 48.7682 185.164 48.8505C184.952 48.9328 184.729 48.9935 184.495 49.0325C184.265 49.0715 184.031 49.091 183.793 49.091C183.381 49.091 182.995 49.0152 182.636 48.8635C182.28 48.7118 181.97 48.4908 181.706 48.2005C181.446 47.9102 181.24 47.5548 181.089 47.1345C180.937 46.7098 180.861 46.2288 180.861 45.6915C180.861 45.2018 180.928 44.749 181.063 44.333C181.201 43.917 181.403 43.5595 181.667 43.2605C181.936 42.9572 182.265 42.721 182.655 42.552C183.045 42.3787 183.491 42.292 183.994 42.292C184.466 42.292 184.882 42.3678 185.242 42.5195C185.602 42.6712 185.922 42.8857 186.204 43.163L185.866 43.631ZM188.726 43.2345C189.004 42.9528 189.309 42.7253 189.643 42.552C189.981 42.3787 190.369 42.292 190.806 42.292C191.17 42.292 191.489 42.3527 191.762 42.474C192.039 42.5953 192.271 42.7665 192.457 42.9875C192.644 43.2042 192.785 43.4663 192.88 43.774C192.975 44.0817 193.023 44.4218 193.023 44.7945V49H191.749V44.7945C191.749 44.3222 191.641 43.956 191.424 43.696C191.207 43.4317 190.876 43.2995 190.429 43.2995C190.104 43.2995 189.799 43.3775 189.513 43.5335C189.231 43.6852 188.969 43.8932 188.726 44.1575V49H187.459V39.406H188.726V43.2345ZM199.108 44.9635C199.108 44.7122 199.071 44.4803 198.997 44.268C198.928 44.0557 198.824 43.8715 198.685 43.7155C198.547 43.5595 198.378 43.4382 198.178 43.3515C197.979 43.2648 197.749 43.2215 197.489 43.2215C196.956 43.2215 196.536 43.3753 196.228 43.683C195.925 43.9907 195.732 44.4175 195.65 44.9635H199.108ZM200.154 48.0575C199.998 48.2395 199.818 48.3977 199.615 48.532C199.411 48.662 199.194 48.7682 198.965 48.8505C198.735 48.9328 198.497 48.9935 198.25 49.0325C198.007 49.0715 197.767 49.091 197.528 49.091C197.073 49.091 196.651 49.0152 196.261 48.8635C195.875 48.7075 195.539 48.4822 195.253 48.1875C194.972 47.8885 194.751 47.5202 194.59 47.0825C194.434 46.6405 194.356 46.1335 194.356 45.5615C194.356 45.1022 194.428 44.6753 194.571 44.281C194.714 43.8823 194.917 43.5357 195.182 43.241C195.45 42.9463 195.778 42.7145 196.163 42.5455C196.549 42.3765 196.982 42.292 197.463 42.292C197.866 42.292 198.237 42.3592 198.575 42.4935C198.917 42.6235 199.212 42.8142 199.459 43.0655C199.706 43.3168 199.899 43.6267 200.037 43.995C200.18 44.3633 200.252 44.7837 200.252 45.256C200.252 45.451 200.23 45.5832 200.187 45.6525C200.143 45.7175 200.063 45.75 199.946 45.75H195.617C195.63 46.1443 195.687 46.4888 195.786 46.7835C195.886 47.0738 196.022 47.3165 196.196 47.5115C196.373 47.7065 196.584 47.8517 196.826 47.947C197.069 48.0423 197.34 48.09 197.639 48.09C197.92 48.09 198.163 48.0575 198.367 47.9925C198.575 47.9275 198.752 47.8582 198.9 47.7845C199.051 47.7065 199.177 47.635 199.277 47.57C199.381 47.505 199.472 47.4725 199.55 47.4725C199.654 47.4725 199.734 47.5115 199.79 47.5895L200.154 48.0575ZM202.81 43.6635C203.022 43.2302 203.278 42.89 203.577 42.643C203.876 42.396 204.236 42.2725 204.656 42.2725C204.799 42.2725 204.933 42.2898 205.059 42.3245C205.189 42.3548 205.302 42.4025 205.397 42.4675L205.313 43.423C205.282 43.54 205.211 43.5985 205.098 43.5985C205.037 43.5985 204.946 43.5877 204.825 43.566C204.704 43.54 204.574 43.527 204.435 43.527C204.231 43.527 204.052 43.5573 203.896 43.618C203.74 43.6743 203.599 43.761 203.473 43.878C203.352 43.9907 203.243 44.1315 203.148 44.3005C203.053 44.4652 202.964 44.6537 202.882 44.866V49H201.614V42.396H202.342C202.481 42.396 202.574 42.422 202.622 42.474C202.674 42.5217 202.71 42.6083 202.732 42.734L202.81 43.6635ZM210.23 43.5335C210.196 43.5898 210.159 43.631 210.12 43.657C210.081 43.6787 210.031 43.6895 209.97 43.6895C209.901 43.6895 209.823 43.6657 209.736 43.618C209.654 43.5703 209.552 43.5183 209.431 43.462C209.314 43.4057 209.175 43.3537 209.015 43.306C208.854 43.2583 208.664 43.2345 208.443 43.2345C208.261 43.2345 208.094 43.2583 207.942 43.306C207.795 43.3493 207.669 43.4122 207.565 43.4945C207.461 43.5725 207.381 43.6678 207.325 43.7805C207.268 43.8888 207.24 44.0058 207.24 44.1315C207.24 44.2962 207.288 44.4327 207.383 44.541C207.483 44.6493 207.611 44.7425 207.767 44.8205C207.927 44.8985 208.107 44.97 208.306 45.035C208.51 45.0957 208.716 45.1607 208.924 45.23C209.136 45.2993 209.342 45.3795 209.541 45.4705C209.745 45.5572 209.925 45.6677 210.081 45.802C210.241 45.932 210.369 46.0902 210.464 46.2765C210.564 46.4628 210.614 46.6903 210.614 46.959C210.614 47.2667 210.557 47.5527 210.445 47.817C210.336 48.077 210.174 48.3023 209.957 48.493C209.745 48.6837 209.481 48.8332 209.164 48.9415C208.848 49.0498 208.486 49.104 208.079 49.104C207.624 49.104 207.203 49.0282 206.818 48.8765C206.432 48.7248 206.109 48.532 205.849 48.298L206.148 47.8105C206.183 47.7498 206.226 47.7043 206.278 47.674C206.33 47.6393 206.4 47.622 206.486 47.622C206.569 47.622 206.653 47.6523 206.74 47.713C206.826 47.7737 206.93 47.8408 207.052 47.9145C207.173 47.9838 207.32 48.0488 207.494 48.1095C207.667 48.1658 207.884 48.194 208.144 48.194C208.36 48.194 208.549 48.168 208.709 48.116C208.87 48.0597 209.002 47.986 209.106 47.895C209.214 47.7997 209.294 47.6913 209.346 47.57C209.398 47.4487 209.424 47.3208 209.424 47.1865C209.424 47.0132 209.374 46.8702 209.275 46.7575C209.179 46.6405 209.052 46.5408 208.891 46.4585C208.735 46.3762 208.555 46.3047 208.352 46.244C208.148 46.1833 207.94 46.1183 207.728 46.049C207.515 45.9797 207.307 45.8995 207.104 45.8085C206.9 45.7175 206.718 45.6027 206.558 45.464C206.402 45.3253 206.274 45.1563 206.174 44.957C206.079 44.7577 206.031 44.515 206.031 44.229C206.031 43.9733 206.083 43.7285 206.187 43.4945C206.296 43.2605 206.449 43.0547 206.649 42.877C206.852 42.6993 207.102 42.5585 207.396 42.4545C207.695 42.3462 208.035 42.292 208.417 42.292C208.854 42.292 209.249 42.3613 209.6 42.5C209.955 42.6387 210.258 42.8293 210.51 43.072L210.23 43.5335ZM218.823 46.0685C218.308 46.0858 217.87 46.127 217.51 46.192C217.151 46.2527 216.858 46.335 216.633 46.439C216.407 46.543 216.245 46.6665 216.145 46.8095C216.046 46.9482 215.996 47.1042 215.996 47.2775C215.996 47.4422 216.022 47.5852 216.074 47.7065C216.13 47.8235 216.204 47.921 216.295 47.999C216.39 48.0727 216.501 48.1268 216.626 48.1615C216.752 48.1962 216.888 48.2135 217.036 48.2135C217.231 48.2135 217.408 48.194 217.569 48.155C217.733 48.116 217.887 48.0618 218.03 47.9925C218.173 47.9188 218.31 47.83 218.44 47.726C218.57 47.622 218.698 47.5028 218.823 47.3685V46.0685ZM215.105 43.319C215.474 42.968 215.872 42.7058 216.301 42.5325C216.735 42.3592 217.209 42.2725 217.725 42.2725C218.102 42.2725 218.435 42.3353 218.726 42.461C219.016 42.5823 219.261 42.7535 219.46 42.9745C219.66 43.1955 219.809 43.4598 219.909 43.7675C220.013 44.0752 220.065 44.4153 220.065 44.788V49H219.499C219.374 49 219.278 48.9805 219.213 48.9415C219.148 48.8982 219.096 48.8202 219.057 48.7075L218.921 48.129C218.752 48.285 218.585 48.4237 218.42 48.545C218.256 48.662 218.082 48.7638 217.9 48.8505C217.723 48.9328 217.532 48.9957 217.328 49.039C217.125 49.0823 216.899 49.104 216.652 49.104C216.392 49.104 216.147 49.0693 215.918 49C215.692 48.9263 215.495 48.8158 215.326 48.6685C215.157 48.5212 215.023 48.337 214.923 48.116C214.828 47.895 214.78 47.6372 214.78 47.3425C214.78 47.0825 214.85 46.8333 214.988 46.595C215.131 46.3523 215.361 46.1357 215.677 45.945C215.998 45.7543 216.414 45.5983 216.925 45.477C217.441 45.3557 218.074 45.2863 218.823 45.269V44.788C218.823 44.2897 218.717 43.917 218.505 43.67C218.292 43.423 217.98 43.2995 217.569 43.2995C217.291 43.2995 217.057 43.3342 216.867 43.4035C216.68 43.4728 216.518 43.5508 216.379 43.6375C216.245 43.7198 216.126 43.7957 216.022 43.865C215.922 43.9343 215.818 43.969 215.71 43.969C215.623 43.969 215.547 43.9452 215.482 43.8975C215.422 43.8498 215.372 43.7935 215.333 43.7285L215.105 43.319ZM222.951 43.3125C223.094 43.1608 223.244 43.0222 223.4 42.8965C223.556 42.7708 223.72 42.6647 223.894 42.578C224.071 42.487 224.26 42.4177 224.459 42.37C224.663 42.318 224.879 42.292 225.109 42.292C225.473 42.292 225.792 42.3527 226.065 42.474C226.342 42.5953 226.574 42.7665 226.76 42.9875C226.946 43.2042 227.087 43.4663 227.183 43.774C227.278 44.0817 227.326 44.4218 227.326 44.7945V49H226.052V44.7945C226.052 44.3222 225.943 43.956 225.727 43.696C225.51 43.4317 225.178 43.2995 224.732 43.2995C224.407 43.2995 224.102 43.3775 223.816 43.5335C223.534 43.6852 223.272 43.8932 223.029 44.1575V49H221.762V42.396H222.522C222.7 42.396 222.81 42.4805 222.854 42.6495L222.951 43.3125ZM233.294 43.995C233.086 43.722 232.86 43.5313 232.618 43.423C232.379 43.3147 232.111 43.2605 231.812 43.2605C231.231 43.2605 230.78 43.4707 230.46 43.891C230.143 44.307 229.985 44.9158 229.985 45.7175C229.985 46.1378 230.02 46.4975 230.089 46.7965C230.163 47.0912 230.267 47.3338 230.401 47.5245C230.54 47.7108 230.709 47.8495 230.908 47.9405C231.107 48.0272 231.333 48.0705 231.584 48.0705C231.952 48.0705 232.271 47.9882 232.54 47.8235C232.808 47.6588 233.06 47.427 233.294 47.128V43.995ZM234.568 39.406V49H233.801C233.623 49 233.512 48.9155 233.469 48.7465L233.359 47.986C233.077 48.3197 232.756 48.5883 232.397 48.792C232.041 48.9913 231.63 49.091 231.162 49.091C230.785 49.091 230.442 49.0173 230.135 48.87C229.831 48.7227 229.571 48.5082 229.355 48.2265C229.138 47.9405 228.971 47.5873 228.854 47.167C228.737 46.7467 228.679 46.2635 228.679 45.7175C228.679 45.2278 228.744 44.7728 228.874 44.3525C229.004 43.9322 229.192 43.5682 229.439 43.2605C229.686 42.9528 229.985 42.7123 230.336 42.539C230.687 42.3613 231.084 42.2725 231.526 42.2725C231.924 42.2725 232.262 42.3375 232.54 42.4675C232.821 42.5975 233.073 42.7817 233.294 43.02V39.406H234.568ZM240.95 42.396V49H239.682V42.396H240.95ZM241.19 40.355C241.19 40.472 241.167 40.5847 241.119 40.693C241.071 40.797 241.006 40.8902 240.924 40.9725C240.846 41.0505 240.753 41.1133 240.644 41.161C240.536 41.2043 240.423 41.226 240.306 41.226C240.189 41.226 240.079 41.2043 239.975 41.161C239.871 41.1133 239.778 41.0505 239.695 40.9725C239.617 40.8902 239.555 40.797 239.507 40.693C239.464 40.5847 239.442 40.472 239.442 40.355C239.442 40.2337 239.464 40.121 239.507 40.017C239.555 39.9087 239.617 39.8155 239.695 39.7375C239.778 39.6552 239.871 39.5923 239.975 39.549C240.079 39.5013 240.189 39.4775 240.306 39.4775C240.423 39.4775 240.536 39.5013 240.644 39.549C240.753 39.5923 240.846 39.6552 240.924 39.7375C241.006 39.8155 241.071 39.9087 241.119 40.017C241.167 40.121 241.19 40.2337 241.19 40.355ZM243.975 43.3125C244.118 43.1608 244.267 43.0222 244.423 42.8965C244.579 42.7708 244.744 42.6647 244.917 42.578C245.095 42.487 245.283 42.4177 245.483 42.37C245.686 42.318 245.903 42.292 246.133 42.292C246.497 42.292 246.815 42.3527 247.088 42.474C247.365 42.5953 247.597 42.7665 247.784 42.9875C247.97 43.2042 248.111 43.4663 248.206 43.774C248.301 44.0817 248.349 44.4218 248.349 44.7945V49H247.075V44.7945C247.075 44.3222 246.967 43.956 246.75 43.696C246.533 43.4317 246.202 43.2995 245.756 43.2995C245.431 43.2995 245.125 43.3775 244.839 43.5335C244.557 43.6852 244.295 43.8932 244.053 44.1575V49H242.785V42.396H243.546C243.723 42.396 243.834 42.4805 243.877 42.6495L243.975 43.3125ZM254.317 43.995C254.109 43.722 253.884 43.5313 253.641 43.423C253.403 43.3147 253.134 43.2605 252.835 43.2605C252.254 43.2605 251.804 43.4707 251.483 43.891C251.167 44.307 251.008 44.9158 251.008 45.7175C251.008 46.1378 251.043 46.4975 251.112 46.7965C251.186 47.0912 251.29 47.3338 251.424 47.5245C251.563 47.7108 251.732 47.8495 251.931 47.9405C252.131 48.0272 252.356 48.0705 252.607 48.0705C252.976 48.0705 253.294 47.9882 253.563 47.8235C253.832 47.6588 254.083 47.427 254.317 47.128V43.995ZM255.591 39.406V49H254.824C254.646 49 254.536 48.9155 254.492 48.7465L254.382 47.986C254.1 48.3197 253.78 48.5883 253.42 48.792C253.065 48.9913 252.653 49.091 252.185 49.091C251.808 49.091 251.466 49.0173 251.158 48.87C250.855 48.7227 250.595 48.5082 250.378 48.2265C250.161 47.9405 249.994 47.5873 249.877 47.167C249.76 46.7467 249.702 46.2635 249.702 45.7175C249.702 45.2278 249.767 44.7728 249.897 44.3525C250.027 43.9322 250.215 43.5682 250.462 43.2605C250.709 42.9528 251.008 42.7123 251.359 42.539C251.71 42.3613 252.107 42.2725 252.549 42.2725C252.948 42.2725 253.286 42.3375 253.563 42.4675C253.845 42.5975 254.096 42.7817 254.317 43.02V39.406H255.591ZM258.685 42.396V49H257.418V42.396H258.685ZM258.926 40.355C258.926 40.472 258.902 40.5847 258.854 40.693C258.807 40.797 258.742 40.8902 258.659 40.9725C258.581 41.0505 258.488 41.1133 258.38 41.161C258.271 41.2043 258.159 41.226 258.042 41.226C257.925 41.226 257.814 41.2043 257.71 41.161C257.606 41.1133 257.513 41.0505 257.431 40.9725C257.353 40.8902 257.29 40.797 257.242 40.693C257.199 40.5847 257.177 40.472 257.177 40.355C257.177 40.2337 257.199 40.121 257.242 40.017C257.29 39.9087 257.353 39.8155 257.431 39.7375C257.513 39.6552 257.606 39.5923 257.71 39.549C257.814 39.5013 257.925 39.4775 258.042 39.4775C258.159 39.4775 258.271 39.5013 258.38 39.549C258.488 39.5923 258.581 39.6552 258.659 39.7375C258.742 39.8155 258.807 39.9087 258.854 40.017C258.902 40.121 258.926 40.2337 258.926 40.355ZM266.253 42.396L263.575 49H262.431L259.753 42.396H260.8C260.9 42.396 260.982 42.4198 261.047 42.4675C261.112 42.5152 261.155 42.5758 261.177 42.6495L262.756 46.7055C262.813 46.8745 262.86 47.0435 262.899 47.2125C262.943 47.3772 262.982 47.5418 263.016 47.7065C263.051 47.5418 263.09 47.3772 263.133 47.2125C263.177 47.0478 263.229 46.8788 263.289 46.7055L264.888 42.6495C264.914 42.5758 264.96 42.5152 265.025 42.4675C265.09 42.4198 265.168 42.396 265.259 42.396H266.253ZM268.588 42.396V49H267.32V42.396H268.588ZM268.828 40.355C268.828 40.472 268.804 40.5847 268.757 40.693C268.709 40.797 268.644 40.8902 268.562 40.9725C268.484 41.0505 268.39 41.1133 268.282 41.161C268.174 41.2043 268.061 41.226 267.944 41.226C267.827 41.226 267.717 41.2043 267.613 41.161C267.509 41.1133 267.415 41.0505 267.333 40.9725C267.255 40.8902 267.192 40.797 267.145 40.693C267.101 40.5847 267.08 40.472 267.08 40.355C267.08 40.2337 267.101 40.121 267.145 40.017C267.192 39.9087 267.255 39.8155 267.333 39.7375C267.415 39.6552 267.509 39.5923 267.613 39.549C267.717 39.5013 267.827 39.4775 267.944 39.4775C268.061 39.4775 268.174 39.5013 268.282 39.549C268.39 39.5923 268.484 39.6552 268.562 39.7375C268.644 39.8155 268.709 39.9087 268.757 40.017C268.804 40.121 268.828 40.2337 268.828 40.355ZM274.68 43.995C274.472 43.722 274.247 43.5313 274.004 43.423C273.766 43.3147 273.497 43.2605 273.198 43.2605C272.618 43.2605 272.167 43.4707 271.846 43.891C271.53 44.307 271.372 44.9158 271.372 45.7175C271.372 46.1378 271.406 46.4975 271.476 46.7965C271.549 47.0912 271.653 47.3338 271.788 47.5245C271.926 47.7108 272.095 47.8495 272.295 47.9405C272.494 48.0272 272.719 48.0705 272.971 48.0705C273.339 48.0705 273.658 47.9882 273.926 47.8235C274.195 47.6588 274.446 47.427 274.68 47.128V43.995ZM275.954 39.406V49H275.187C275.01 49 274.899 48.9155 274.856 48.7465L274.745 47.986C274.464 48.3197 274.143 48.5883 273.783 48.792C273.428 48.9913 273.016 49.091 272.548 49.091C272.171 49.091 271.829 49.0173 271.521 48.87C271.218 48.7227 270.958 48.5082 270.741 48.2265C270.525 47.9405 270.358 47.5873 270.241 47.167C270.124 46.7467 270.065 46.2635 270.065 45.7175C270.065 45.2278 270.13 44.7728 270.26 44.3525C270.39 43.9322 270.579 43.5682 270.826 43.2605C271.073 42.9528 271.372 42.7123 271.723 42.539C272.074 42.3613 272.47 42.2725 272.912 42.2725C273.311 42.2725 273.649 42.3375 273.926 42.4675C274.208 42.5975 274.459 42.7817 274.68 43.02V39.406H275.954ZM283.215 42.396V49H282.455C282.281 49 282.169 48.9155 282.117 48.7465L282.026 48.0835C281.883 48.2352 281.733 48.3738 281.577 48.4995C281.421 48.6252 281.254 48.7335 281.077 48.8245C280.899 48.9112 280.71 48.9783 280.511 49.026C280.312 49.078 280.097 49.104 279.868 49.104C279.504 49.104 279.183 49.0433 278.906 48.922C278.633 48.8007 278.403 48.6317 278.217 48.415C278.03 48.194 277.889 47.9297 277.794 47.622C277.699 47.3143 277.651 46.9742 277.651 46.6015V42.396H278.925V46.6015C278.925 47.0738 279.033 47.4422 279.25 47.7065C279.467 47.9665 279.798 48.0965 280.245 48.0965C280.57 48.0965 280.873 48.0207 281.155 47.869C281.436 47.713 281.701 47.5007 281.948 47.232V42.396H283.215ZM288.533 46.0685C288.018 46.0858 287.58 46.127 287.22 46.192C286.861 46.2527 286.568 46.335 286.343 46.439C286.117 46.543 285.955 46.6665 285.855 46.8095C285.756 46.9482 285.706 47.1042 285.706 47.2775C285.706 47.4422 285.732 47.5852 285.784 47.7065C285.84 47.8235 285.914 47.921 286.005 47.999C286.1 48.0727 286.211 48.1268 286.336 48.1615C286.462 48.1962 286.598 48.2135 286.746 48.2135C286.941 48.2135 287.118 48.194 287.279 48.155C287.443 48.116 287.597 48.0618 287.74 47.9925C287.883 47.9188 288.02 47.83 288.15 47.726C288.28 47.622 288.408 47.5028 288.533 47.3685V46.0685ZM284.815 43.319C285.184 42.968 285.582 42.7058 286.011 42.5325C286.445 42.3592 286.919 42.2725 287.435 42.2725C287.812 42.2725 288.145 42.3353 288.436 42.461C288.726 42.5823 288.971 42.7535 289.17 42.9745C289.37 43.1955 289.519 43.4598 289.619 43.7675C289.723 44.0752 289.775 44.4153 289.775 44.788V49H289.209C289.084 49 288.988 48.9805 288.923 48.9415C288.858 48.8982 288.806 48.8202 288.767 48.7075L288.631 48.129C288.462 48.285 288.295 48.4237 288.13 48.545C287.966 48.662 287.792 48.7638 287.61 48.8505C287.433 48.9328 287.242 48.9957 287.038 49.039C286.835 49.0823 286.609 49.104 286.362 49.104C286.102 49.104 285.857 49.0693 285.628 49C285.402 48.9263 285.205 48.8158 285.036 48.6685C284.867 48.5212 284.733 48.337 284.633 48.116C284.538 47.895 284.49 47.6372 284.49 47.3425C284.49 47.0825 284.56 46.8333 284.698 46.595C284.841 46.3523 285.071 46.1357 285.387 45.945C285.708 45.7543 286.124 45.5983 286.635 45.477C287.151 45.3557 287.784 45.2863 288.533 45.269V44.788C288.533 44.2897 288.427 43.917 288.215 43.67C288.002 43.423 287.69 43.2995 287.279 43.2995C287.001 43.2995 286.767 43.3342 286.577 43.4035C286.39 43.4728 286.228 43.5508 286.089 43.6375C285.955 43.7198 285.836 43.7957 285.732 43.865C285.632 43.9343 285.528 43.969 285.42 43.969C285.333 43.969 285.257 43.9452 285.192 43.8975C285.132 43.8498 285.082 43.7935 285.043 43.7285L284.815 43.319ZM292.772 39.406V49H291.498V39.406H292.772ZM298.475 43.5335C298.441 43.5898 298.404 43.631 298.365 43.657C298.326 43.6787 298.276 43.6895 298.215 43.6895C298.146 43.6895 298.068 43.6657 297.981 43.618C297.899 43.5703 297.797 43.5183 297.676 43.462C297.559 43.4057 297.42 43.3537 297.26 43.306C297.1 43.2583 296.909 43.2345 296.688 43.2345C296.506 43.2345 296.339 43.2583 296.187 43.306C296.04 43.3493 295.914 43.4122 295.81 43.4945C295.706 43.5725 295.626 43.6678 295.57 43.7805C295.514 43.8888 295.485 44.0058 295.485 44.1315C295.485 44.2962 295.533 44.4327 295.628 44.541C295.728 44.6493 295.856 44.7425 296.012 44.8205C296.172 44.8985 296.352 44.97 296.551 45.035C296.755 45.0957 296.961 45.1607 297.169 45.23C297.381 45.2993 297.587 45.3795 297.786 45.4705C297.99 45.5572 298.17 45.6677 298.326 45.802C298.486 45.932 298.614 46.0902 298.709 46.2765C298.809 46.4628 298.859 46.6903 298.859 46.959C298.859 47.2667 298.803 47.5527 298.69 47.817C298.582 48.077 298.419 48.3023 298.202 48.493C297.99 48.6837 297.726 48.8332 297.409 48.9415C297.093 49.0498 296.731 49.104 296.324 49.104C295.869 49.104 295.449 49.0282 295.063 48.8765C294.677 48.7248 294.354 48.532 294.094 48.298L294.393 47.8105C294.428 47.7498 294.471 47.7043 294.523 47.674C294.575 47.6393 294.645 47.622 294.731 47.622C294.814 47.622 294.898 47.6523 294.985 47.713C295.072 47.7737 295.176 47.8408 295.297 47.9145C295.418 47.9838 295.566 48.0488 295.739 48.1095C295.912 48.1658 296.129 48.194 296.389 48.194C296.606 48.194 296.794 48.168 296.954 48.116C297.115 48.0597 297.247 47.986 297.351 47.895C297.459 47.7997 297.539 47.6913 297.591 47.57C297.643 47.4487 297.669 47.3208 297.669 47.1865C297.669 47.0132 297.62 46.8702 297.52 46.7575C297.425 46.6405 297.297 46.5408 297.136 46.4585C296.98 46.3762 296.801 46.3047 296.597 46.244C296.393 46.1833 296.185 46.1183 295.973 46.049C295.761 45.9797 295.553 45.8995 295.349 45.8085C295.145 45.7175 294.963 45.6027 294.803 45.464C294.647 45.3253 294.519 45.1563 294.419 44.957C294.324 44.7577 294.276 44.515 294.276 44.229C294.276 43.9733 294.328 43.7285 294.432 43.4945C294.541 43.2605 294.695 43.0547 294.894 42.877C295.098 42.6993 295.347 42.5585 295.641 42.4545C295.94 42.3462 296.281 42.292 296.662 42.292C297.1 42.292 297.494 42.3613 297.845 42.5C298.2 42.6387 298.504 42.8293 298.755 43.072L298.475 43.5335Z" fill="#14FE19"/>
</g>
<defs>
<filter id="filter0_d_446_6336" x="0" y="0" width="351" height="96" filterUnits="userSpaceOnUse" color-interpolation-filters="sRGB">
<feFlood flood-opacity="0" result="BackgroundImageFix"/>
<feColorMatrix in="SourceAlpha" type="matrix" values="0 0 0 0 0 0 0 0 0 0 0 0 0 0 0 0 0 0 127 0" result="hardAlpha"/>
<feOffset dy="12"/>
<feGaussianBlur stdDeviation="12"/>
<feComposite in2="hardAlpha" operator="out"/>
<feColorMatrix type="matrix" values="0 0 0 0 0 0 0 0 0 0 0 0 0 0 0 0 0 0 0.25 0"/>
<feBlend mode="normal" in2="BackgroundImageFix" result="effect1_dropShadow_446_6336"/>
<feBlend mode="normal" in="SourceGraphic" in2="effect1_dropShadow_446_6336" result="shape"/>
</filter>
</defs>
</svg>
