<svg width="25" height="24" viewBox="0 0 25 24" fill="none" xmlns="http://www.w3.org/2000/svg">
<path d="M10.05 15.88L18.8519 7.07899C18.9493 6.98166 19.0639 6.92966 19.1959 6.92299C19.3279 6.91633 19.449 6.96833 19.559 7.07899C19.669 7.18966 19.7243 7.30866 19.725 7.43599C19.7256 7.56333 19.6706 7.68199 19.5599 7.79199L10.616 16.742C10.4539 16.904 10.2653 16.985 10.05 16.985C9.83462 16.985 9.64595 16.904 9.48395 16.742L5.43395 12.692C5.33662 12.5947 5.28595 12.479 5.28195 12.345C5.27795 12.211 5.33062 12.089 5.43995 11.979C5.54928 11.869 5.66828 11.814 5.79695 11.814C5.92562 11.814 6.04462 11.869 6.15395 11.979L10.05 15.88Z" fill="#1D8C9C"/>
</svg>
