<svg width="157" height="157" viewBox="0 0 157 157" fill="none" xmlns="http://www.w3.org/2000/svg">
<path d="M0.759521 0.355915H156.554V156.146H0.759521V0.355915Z" fill="#FFC325"/>
<path d="M3.12823 78.2516C3.12823 61.9806 36.9436 48.789 78.6568 48.789C120.37 48.789 154.185 61.9838 154.185 78.2532C154.185 94.5226 120.372 107.711 78.6568 107.711C36.942 107.711 3.12823 94.521 3.12823 78.2516Z" fill="#006891"/>
<path d="M3.12823 78.2516C3.12823 61.9806 36.9436 48.789 78.6568 48.789C120.37 48.789 154.185 61.9838 154.185 78.2532C154.185 94.5226 120.372 107.711 78.6568 107.711C36.942 107.711 3.12823 94.521 3.12823 78.2516Z" stroke="#006891" stroke-width="0.223373" stroke-miterlimit="3.8636"/>
<path fill-rule="evenodd" clip-rule="evenodd" d="M30.8088 92.572L38.6478 63.3096H51.0207V80.5202H51.1018L59.4956 63.3096H72.0641L64.2251 92.572H56.0554L61.0806 73.8019H60.9995L51.0207 92.572H44.479V73.8019H44.3454L39.3202 92.572H30.8088Z" fill="white"/>
<path fill-rule="evenodd" clip-rule="evenodd" d="M74.2755 93.1507L75.3883 88.9919H84.4053L83.2909 93.1507H74.2755Z" fill="#EE4034"/>
<path fill-rule="evenodd" clip-rule="evenodd" d="M75.6999 87.8234L80.2609 70.81H72.0641L74.0752 63.3096H99.484L97.4746 70.81H89.2779L84.7185 87.8187L75.6999 87.8234Z" fill="#FFC325"/>
<path fill-rule="evenodd" clip-rule="evenodd" d="M93.6576 92.572L101.492 63.3096H110.347L114.342 78.967H114.42L118.613 63.3096H126.799L118.963 92.572H110.539L106.201 76.5903H106.123L101.843 92.572H93.6576Z" fill="white"/>
</svg>
