<svg width="60" height="60" viewBox="0 0 60 60" fill="none" xmlns="http://www.w3.org/2000/svg">
<circle cx="30" cy="30" r="30" fill="#8A1FBF"/>
<path fill-rule="evenodd" clip-rule="evenodd" d="M29.58 12.083H29.7533C31.2517 12.083 32.5 12.083 33.49 12.2163C34.5367 12.3563 35.4817 12.6663 36.24 13.4247C37 14.1847 37.31 15.1297 37.45 16.1747C37.55 16.908 37.575 17.7813 37.5817 18.7913C38.6617 18.8263 39.625 18.8913 40.4817 19.0047C42.435 19.268 44.0167 19.8213 45.265 21.068C46.5117 22.3163 47.065 23.898 47.3283 25.8513C47.5833 27.7513 47.5833 30.1763 47.5833 33.2397V33.4263C47.5833 36.4897 47.5833 38.9163 47.3283 40.8147C47.065 42.768 46.5117 44.3497 45.265 45.598C44.0167 46.8447 42.435 47.398 40.4817 47.6613C38.5817 47.9163 36.1567 47.9163 33.0933 47.9163H26.24C23.1767 47.9163 20.75 47.9163 18.8517 47.6613C16.8983 47.398 15.3167 46.8447 14.0683 45.598C12.8217 44.3497 12.2683 42.768 12.005 40.8147C11.75 38.9147 11.75 36.4897 11.75 33.4263V33.2397C11.75 30.1763 11.75 27.7497 12.005 25.8513C12.2683 23.898 12.8217 22.3163 14.0683 21.068C15.3167 19.8213 16.8983 19.268 18.8517 19.0047C19.8143 18.8867 20.7821 18.8155 21.7517 18.7913C21.7583 17.7813 21.785 16.908 21.8833 16.1747C22.0233 15.1297 22.3333 14.1847 23.0917 13.4247C23.8517 12.6663 24.7967 12.358 25.8417 12.2163C26.8333 12.083 28.0833 12.083 29.58 12.083ZM24.2533 18.753C24.8833 18.7497 25.5456 18.7486 26.24 18.7497H33.0933C33.7878 18.7497 34.45 18.7508 35.08 18.753C35.0733 17.803 35.05 17.0863 34.9733 16.508C34.8683 15.7397 34.69 15.4097 34.4733 15.193C34.2567 14.9763 33.9267 14.798 33.1567 14.693C32.3533 14.5863 31.2733 14.583 29.6667 14.583C28.06 14.583 26.98 14.5863 26.175 14.6947C25.4067 14.798 25.0767 14.9763 24.86 15.1947C24.6433 15.413 24.465 15.7397 24.36 16.508C24.2833 17.0847 24.26 17.8013 24.2533 18.753ZM19.1833 21.483C17.5067 21.708 16.54 22.1313 15.8333 22.8363C15.13 23.5413 14.7067 24.508 14.4817 26.1847C14.2517 27.8963 14.2483 30.1547 14.2483 33.333C14.2483 36.5113 14.2517 38.7697 14.4817 40.483C14.7067 42.158 15.13 43.1247 15.835 43.8297C16.54 44.5347 17.5067 44.958 19.1833 45.183C20.8967 45.413 23.1533 45.4163 26.3317 45.4163H32.9983C36.1767 45.4163 38.435 45.413 40.1483 45.183C41.8233 44.958 42.79 44.5347 43.495 43.8297C44.2 43.1247 44.6233 42.158 44.8483 40.4813C45.0783 38.7697 45.0817 36.5113 45.0817 33.333C45.0817 30.1547 45.0783 27.898 44.8483 26.183C44.6233 24.508 44.2 23.5413 43.495 22.8363C42.79 22.1313 41.8233 21.708 40.1467 21.483C38.435 21.253 36.1767 21.2497 32.9983 21.2497H26.3317C23.1533 21.2497 20.8983 21.253 19.1833 21.483Z" fill="white"/>
<path d="M37.9997 24.9997C37.9997 25.4417 37.8241 25.8656 37.5115 26.1782C37.199 26.4907 36.775 26.6663 36.333 26.6663C35.891 26.6663 35.4671 26.4907 35.1545 26.1782C34.8419 25.8656 34.6663 25.4417 34.6663 24.9997C34.6663 24.5576 34.8419 24.1337 35.1545 23.8212C35.4671 23.5086 35.891 23.333 36.333 23.333C36.775 23.333 37.199 23.5086 37.5115 23.8212C37.8241 24.1337 37.9997 24.5576 37.9997 24.9997ZM24.6663 24.9997C24.6663 25.4417 24.4907 25.8656 24.1782 26.1782C23.8656 26.4907 23.4417 26.6663 22.9997 26.6663C22.5576 26.6663 22.1337 26.4907 21.8212 26.1782C21.5086 25.8656 21.333 25.4417 21.333 24.9997C21.333 24.5576 21.5086 24.1337 21.8212 23.8212C22.1337 23.5086 22.5576 23.333 22.9997 23.333C23.4417 23.333 23.8656 23.5086 24.1782 23.8212C24.4907 24.1337 24.6663 24.5576 24.6663 24.9997Z" fill="white"/>
</svg>
