<svg width="353" height="96" viewBox="0 0 353 96" fill="none" xmlns="http://www.w3.org/2000/svg">
<g filter="url(#filter0_d_446_6335)">
<rect x="24" y="12" width="305" height="48" rx="12" fill="#FFC9CA" fill-opacity="0.4" shape-rendering="crispEdges"/>
<path d="M38.11 29.5225L36.7255 25.902C36.6258 25.655 36.5262 25.343 36.4265 24.966C36.3788 25.1523 36.329 25.3257 36.277 25.486C36.2293 25.6463 36.1817 25.7893 36.134 25.915L34.756 29.5225H38.11ZM40.8465 33H39.7805C39.6592 33 39.5595 32.9697 39.4815 32.909C39.4035 32.8483 39.3472 32.7703 39.3125 32.675L38.487 30.5105H34.3725L33.547 32.675C33.5167 32.7573 33.4603 32.8332 33.378 32.9025C33.2957 32.9675 33.196 33 33.079 33H32.013L35.731 23.666H37.1285L40.8465 33ZM45.6453 27.5335C45.6107 27.5898 45.5738 27.631 45.5348 27.657C45.4958 27.6787 45.446 27.6895 45.3853 27.6895C45.316 27.6895 45.238 27.6657 45.1513 27.618C45.069 27.5703 44.9672 27.5183 44.8458 27.462C44.7288 27.4057 44.5902 27.3537 44.4298 27.306C44.2695 27.2583 44.0788 27.2345 43.8578 27.2345C43.6758 27.2345 43.509 27.2583 43.3573 27.306C43.21 27.3493 43.0843 27.4122 42.9803 27.4945C42.8763 27.5725 42.7962 27.6678 42.7398 27.7805C42.6835 27.8888 42.6553 28.0058 42.6553 28.1315C42.6553 28.2962 42.703 28.4327 42.7983 28.541C42.898 28.6493 43.0258 28.7425 43.1818 28.8205C43.3422 28.8985 43.522 28.97 43.7213 29.035C43.925 29.0957 44.1308 29.1607 44.3388 29.23C44.5512 29.2993 44.757 29.3795 44.9563 29.4705C45.16 29.5572 45.3398 29.6677 45.4958 29.802C45.6562 29.932 45.784 30.0902 45.8793 30.2765C45.979 30.4628 46.0288 30.6903 46.0288 30.959C46.0288 31.2667 45.9725 31.5527 45.8598 31.817C45.7515 32.077 45.589 32.3023 45.3723 32.493C45.16 32.6837 44.8957 32.8332 44.5793 32.9415C44.263 33.0498 43.9012 33.104 43.4938 33.104C43.0388 33.104 42.6185 33.0282 42.2328 32.8765C41.8472 32.7248 41.5243 32.532 41.2643 32.298L41.5633 31.8105C41.598 31.7498 41.6413 31.7043 41.6933 31.674C41.7453 31.6393 41.8147 31.622 41.9013 31.622C41.9837 31.622 42.0682 31.6523 42.1548 31.713C42.2415 31.7737 42.3455 31.8408 42.4668 31.9145C42.5882 31.9838 42.7355 32.0488 42.9088 32.1095C43.0822 32.1658 43.2988 32.194 43.5588 32.194C43.7755 32.194 43.964 32.168 44.1243 32.116C44.2847 32.0597 44.4168 31.986 44.5208 31.895C44.6292 31.7997 44.7093 31.6913 44.7613 31.57C44.8133 31.4487 44.8393 31.3208 44.8393 31.1865C44.8393 31.0132 44.7895 30.8702 44.6898 30.7575C44.5945 30.6405 44.4667 30.5408 44.3063 30.4585C44.1503 30.3762 43.9705 30.3047 43.7668 30.244C43.5632 30.1833 43.3552 30.1183 43.1428 30.049C42.9305 29.9797 42.7225 29.8995 42.5188 29.8085C42.3152 29.7175 42.1332 29.6027 41.9728 29.464C41.8168 29.3253 41.689 29.1563 41.5893 28.957C41.494 28.7577 41.4463 28.515 41.4463 28.229C41.4463 27.9733 41.4983 27.7285 41.6023 27.4945C41.7107 27.2605 41.8645 27.0547 42.0638 26.877C42.2675 26.6993 42.5167 26.5585 42.8113 26.4545C43.1103 26.3462 43.4505 26.292 43.8318 26.292C44.2695 26.292 44.6638 26.3613 45.0148 26.5C45.3702 26.6387 45.6735 26.8293 45.9248 27.072L45.6453 27.5335ZM54.2383 30.0685C53.7227 30.0858 53.285 30.127 52.9253 30.192C52.5657 30.2527 52.2732 30.335 52.0478 30.439C51.8225 30.543 51.66 30.6665 51.5603 30.8095C51.4607 30.9482 51.4108 31.1042 51.4108 31.2775C51.4108 31.4422 51.4368 31.5852 51.4888 31.7065C51.5452 31.8235 51.6188 31.921 51.7098 31.999C51.8052 32.0727 51.9157 32.1268 52.0413 32.1615C52.167 32.1962 52.3035 32.2135 52.4508 32.2135C52.6458 32.2135 52.8235 32.194 52.9838 32.155C53.1485 32.116 53.3023 32.0618 53.4453 31.9925C53.5883 31.9188 53.7248 31.83 53.8548 31.726C53.9848 31.622 54.1127 31.5028 54.2383 31.3685V30.0685ZM50.5203 27.319C50.8887 26.968 51.2873 26.7058 51.7163 26.5325C52.1497 26.3592 52.6242 26.2725 53.1398 26.2725C53.5168 26.2725 53.8505 26.3353 54.1408 26.461C54.4312 26.5823 54.676 26.7535 54.8753 26.9745C55.0747 27.1955 55.2242 27.4598 55.3238 27.7675C55.4278 28.0752 55.4798 28.4153 55.4798 28.788V33H54.9143C54.7887 33 54.6933 32.9805 54.6283 32.9415C54.5633 32.8982 54.5113 32.8202 54.4723 32.7075L54.3358 32.129C54.1668 32.285 54 32.4237 53.8353 32.545C53.6707 32.662 53.4973 32.7638 53.3153 32.8505C53.1377 32.9328 52.947 32.9957 52.7433 33.039C52.5397 33.0823 52.3143 33.104 52.0673 33.104C51.8073 33.104 51.5625 33.0693 51.3328 33C51.1075 32.9263 50.9103 32.8158 50.7413 32.6685C50.5723 32.5212 50.438 32.337 50.3383 32.116C50.243 31.895 50.1953 31.6372 50.1953 31.3425C50.1953 31.0825 50.2647 30.8333 50.4033 30.595C50.5463 30.3523 50.776 30.1357 51.0923 29.945C51.413 29.7543 51.829 29.5983 52.3403 29.477C52.856 29.3557 53.4887 29.2863 54.2383 29.269V28.788C54.2383 28.2897 54.1322 27.917 53.9198 27.67C53.7075 27.423 53.3955 27.2995 52.9838 27.2995C52.7065 27.2995 52.4725 27.3342 52.2818 27.4035C52.0955 27.4728 51.933 27.5508 51.7943 27.6375C51.66 27.7198 51.5408 27.7957 51.4368 27.865C51.3372 27.9343 51.2332 27.969 51.1248 27.969C51.0382 27.969 50.9623 27.9452 50.8973 27.8975C50.8367 27.8498 50.7868 27.7935 50.7478 27.7285L50.5203 27.319ZM64.3582 27.5335C64.3236 27.5898 64.2867 27.631 64.2477 27.657C64.2087 27.6787 64.1589 27.6895 64.0982 27.6895C64.0289 27.6895 63.9509 27.6657 63.8642 27.618C63.7819 27.5703 63.6801 27.5183 63.5587 27.462C63.4417 27.4057 63.3031 27.3537 63.1427 27.306C62.9824 27.2583 62.7917 27.2345 62.5707 27.2345C62.3887 27.2345 62.2219 27.2583 62.0702 27.306C61.9229 27.3493 61.7972 27.4122 61.6932 27.4945C61.5892 27.5725 61.5091 27.6678 61.4527 27.7805C61.3964 27.8888 61.3682 28.0058 61.3682 28.1315C61.3682 28.2962 61.4159 28.4327 61.5112 28.541C61.6109 28.6493 61.7387 28.7425 61.8947 28.8205C62.0551 28.8985 62.2349 28.97 62.4342 29.035C62.6379 29.0957 62.8437 29.1607 63.0517 29.23C63.2641 29.2993 63.4699 29.3795 63.6692 29.4705C63.8729 29.5572 64.0527 29.6677 64.2087 29.802C64.3691 29.932 64.4969 30.0902 64.5922 30.2765C64.6919 30.4628 64.7417 30.6903 64.7417 30.959C64.7417 31.2667 64.6854 31.5527 64.5727 31.817C64.4644 32.077 64.3019 32.3023 64.0852 32.493C63.8729 32.6837 63.6086 32.8332 63.2922 32.9415C62.9759 33.0498 62.6141 33.104 62.2067 33.104C61.7517 33.104 61.3314 33.0282 60.9457 32.8765C60.5601 32.7248 60.2372 32.532 59.9772 32.298L60.2762 31.8105C60.3109 31.7498 60.3542 31.7043 60.4062 31.674C60.4582 31.6393 60.5276 31.622 60.6142 31.622C60.6966 31.622 60.7811 31.6523 60.8677 31.713C60.9544 31.7737 61.0584 31.8408 61.1797 31.9145C61.3011 31.9838 61.4484 32.0488 61.6217 32.1095C61.7951 32.1658 62.0117 32.194 62.2717 32.194C62.4884 32.194 62.6769 32.168 62.8372 32.116C62.9976 32.0597 63.1297 31.986 63.2337 31.895C63.3421 31.7997 63.4222 31.6913 63.4742 31.57C63.5262 31.4487 63.5522 31.3208 63.5522 31.1865C63.5522 31.0132 63.5024 30.8702 63.4027 30.7575C63.3074 30.6405 63.1796 30.5408 63.0192 30.4585C62.8632 30.3762 62.6834 30.3047 62.4797 30.244C62.2761 30.1833 62.0681 30.1183 61.8557 30.049C61.6434 29.9797 61.4354 29.8995 61.2317 29.8085C61.0281 29.7175 60.8461 29.6027 60.6857 29.464C60.5297 29.3253 60.4019 29.1563 60.3022 28.957C60.2069 28.7577 60.1592 28.515 60.1592 28.229C60.1592 27.9733 60.2112 27.7285 60.3152 27.4945C60.4236 27.2605 60.5774 27.0547 60.7767 26.877C60.9804 26.6993 61.2296 26.5585 61.5242 26.4545C61.8232 26.3462 62.1634 26.292 62.5447 26.292C62.9824 26.292 63.3767 26.3613 63.7277 26.5C64.0831 26.6387 64.3864 26.8293 64.6377 27.072L64.3582 27.5335ZM68.1811 33.104C67.6481 33.104 67.2365 32.9545 66.9461 32.6555C66.6601 32.3565 66.5171 31.9297 66.5171 31.375V27.423H65.7501C65.6765 27.423 65.6136 27.4013 65.5616 27.358C65.514 27.3103 65.4901 27.241 65.4901 27.15V26.6365L66.5626 26.487L66.8486 24.5175C66.866 24.4438 66.8985 24.3875 66.9461 24.3485C66.9981 24.3052 67.0631 24.2835 67.1411 24.2835H67.7846V26.5H69.6566V27.423H67.7846V31.2905C67.7846 31.5505 67.8475 31.7455 67.9731 31.8755C68.1031 32.0012 68.2678 32.064 68.4671 32.064C68.5841 32.064 68.6838 32.0488 68.7661 32.0185C68.8528 31.9882 68.9265 31.9557 68.9871 31.921C69.0478 31.882 69.0998 31.8473 69.1431 31.817C69.1865 31.7867 69.2255 31.7715 69.2601 31.7715C69.3035 31.7715 69.336 31.7823 69.3576 31.804C69.3836 31.8213 69.4096 31.8517 69.4356 31.895L69.8126 32.506C69.6046 32.6967 69.3576 32.844 69.0716 32.948C68.7856 33.052 68.4888 33.104 68.1811 33.104ZM76.3166 26.396V33H75.5561C75.3828 33 75.2701 32.9155 75.2181 32.7465L75.1271 32.0835C74.9841 32.2352 74.8346 32.3738 74.6786 32.4995C74.5226 32.6252 74.3558 32.7335 74.1781 32.8245C74.0004 32.9112 73.8119 32.9783 73.6126 33.026C73.4133 33.078 73.1988 33.104 72.9691 33.104C72.6051 33.104 72.2844 33.0433 72.0071 32.922C71.7341 32.8007 71.5044 32.6317 71.3181 32.415C71.1318 32.194 70.9909 31.9297 70.8956 31.622C70.8003 31.3143 70.7526 30.9742 70.7526 30.6015V26.396H72.0266V30.6015C72.0266 31.0738 72.1349 31.4422 72.3516 31.7065C72.5683 31.9665 72.8998 32.0965 73.3461 32.0965C73.6711 32.0965 73.9744 32.0207 74.2561 31.869C74.5378 31.713 74.8021 31.5007 75.0491 31.232V26.396H76.3166ZM82.3433 27.995C82.1353 27.722 81.91 27.5313 81.6673 27.423C81.429 27.3147 81.1603 27.2605 80.8613 27.2605C80.2806 27.2605 79.83 27.4707 79.5093 27.891C79.193 28.307 79.0348 28.9158 79.0348 29.7175C79.0348 30.1378 79.0695 30.4975 79.1388 30.7965C79.2125 31.0912 79.3165 31.3338 79.4508 31.5245C79.5895 31.7108 79.7585 31.8495 79.9578 31.9405C80.1571 32.0272 80.3825 32.0705 80.6338 32.0705C81.0021 32.0705 81.3206 31.9882 81.5893 31.8235C81.858 31.6588 82.1093 31.427 82.3433 31.128V27.995ZM83.6173 23.406V33H82.8503C82.6726 33 82.5621 32.9155 82.5188 32.7465L82.4083 31.986C82.1266 32.3197 81.806 32.5883 81.4463 32.792C81.091 32.9913 80.6793 33.091 80.2113 33.091C79.8343 33.091 79.492 33.0173 79.1843 32.87C78.881 32.7227 78.621 32.5082 78.4043 32.2265C78.1876 31.9405 78.0208 31.5873 77.9038 31.167C77.7868 30.7467 77.7283 30.2635 77.7283 29.7175C77.7283 29.2278 77.7933 28.7728 77.9233 28.3525C78.0533 27.9322 78.2418 27.5682 78.4888 27.2605C78.7358 26.9528 79.0348 26.7123 79.3858 26.539C79.7368 26.3613 80.1333 26.2725 80.5753 26.2725C80.974 26.2725 81.312 26.3375 81.5893 26.4675C81.871 26.5975 82.1223 26.7817 82.3433 27.02V23.406H83.6173ZM89.7601 28.9635C89.7601 28.7122 89.7233 28.4803 89.6496 28.268C89.5803 28.0557 89.4763 27.8715 89.3376 27.7155C89.199 27.5595 89.03 27.4382 88.8306 27.3515C88.6313 27.2648 88.4016 27.2215 88.1416 27.2215C87.6086 27.2215 87.1883 27.3753 86.8806 27.683C86.5773 27.9907 86.3845 28.4175 86.3021 28.9635H89.7601ZM90.8066 32.0575C90.6506 32.2395 90.4708 32.3977 90.2671 32.532C90.0635 32.662 89.8468 32.7682 89.6171 32.8505C89.3875 32.9328 89.1491 32.9935 88.9021 33.0325C88.6595 33.0715 88.419 33.091 88.1806 33.091C87.7256 33.091 87.3031 33.0152 86.9131 32.8635C86.5275 32.7075 86.1916 32.4822 85.9056 32.1875C85.624 31.8885 85.403 31.5202 85.2426 31.0825C85.0866 30.6405 85.0086 30.1335 85.0086 29.5615C85.0086 29.1022 85.0801 28.6753 85.2231 28.281C85.3661 27.8823 85.5698 27.5357 85.8341 27.241C86.1028 26.9463 86.43 26.7145 86.8156 26.5455C87.2013 26.3765 87.6346 26.292 88.1156 26.292C88.5186 26.292 88.8891 26.3592 89.2271 26.4935C89.5695 26.6235 89.8641 26.8142 90.1111 27.0655C90.3581 27.3168 90.551 27.6267 90.6896 27.995C90.8326 28.3633 90.9041 28.7837 90.9041 29.256C90.9041 29.451 90.8825 29.5832 90.8391 29.6525C90.7958 29.7175 90.7156 29.75 90.5986 29.75H86.2696C86.2826 30.1443 86.339 30.4888 86.4386 30.7835C86.5383 31.0738 86.6748 31.3165 86.8481 31.5115C87.0258 31.7065 87.236 31.8517 87.4786 31.947C87.7213 32.0423 87.9921 32.09 88.2911 32.09C88.5728 32.09 88.8155 32.0575 89.0191 31.9925C89.2271 31.9275 89.4048 31.8582 89.5521 31.7845C89.7038 31.7065 89.8295 31.635 89.9291 31.57C90.0331 31.505 90.1241 31.4725 90.2021 31.4725C90.3061 31.4725 90.3863 31.5115 90.4426 31.5895L90.8066 32.0575ZM93.456 27.3125C93.599 27.1608 93.7485 27.0222 93.9045 26.8965C94.0605 26.7708 94.2251 26.6647 94.3985 26.578C94.5761 26.487 94.7646 26.4177 94.964 26.37C95.1676 26.318 95.3843 26.292 95.614 26.292C95.978 26.292 96.2965 26.3527 96.5695 26.474C96.8468 26.5953 97.0786 26.7665 97.265 26.9875C97.4513 27.2042 97.5921 27.4663 97.6875 27.774C97.7828 28.0817 97.8305 28.4218 97.8305 28.7945V33H96.5565V28.7945C96.5565 28.3222 96.4481 27.956 96.2315 27.696C96.0148 27.4317 95.6833 27.2995 95.237 27.2995C94.912 27.2995 94.6065 27.3775 94.3205 27.5335C94.0388 27.6852 93.7766 27.8932 93.534 28.1575V33H92.2665V26.396H93.027C93.2046 26.396 93.3151 26.4805 93.3585 26.6495L93.456 27.3125ZM101.519 33.104C100.986 33.104 100.574 32.9545 100.284 32.6555C99.998 32.3565 99.855 31.9297 99.855 31.375V27.423H99.088C99.0144 27.423 98.9515 27.4013 98.8995 27.358C98.8519 27.3103 98.828 27.241 98.828 27.15V26.6365L99.9005 26.487L100.187 24.5175C100.204 24.4438 100.236 24.3875 100.284 24.3485C100.336 24.3052 100.401 24.2835 100.479 24.2835H101.123V26.5H102.995V27.423H101.123V31.2905C101.123 31.5505 101.185 31.7455 101.311 31.8755C101.441 32.0012 101.606 32.064 101.805 32.064C101.922 32.064 102.022 32.0488 102.104 32.0185C102.191 31.9882 102.264 31.9557 102.325 31.921C102.386 31.882 102.438 31.8473 102.481 31.817C102.524 31.7867 102.563 31.7715 102.598 31.7715C102.641 31.7715 102.674 31.7823 102.696 31.804C102.722 31.8213 102.748 31.8517 102.774 31.895L103.151 32.506C102.943 32.6967 102.696 32.844 102.41 32.948C102.124 33.052 101.827 33.104 101.519 33.104ZM112.078 27.631C112.039 27.6787 112 27.7177 111.961 27.748C111.926 27.774 111.874 27.787 111.805 27.787C111.736 27.787 111.662 27.761 111.584 27.709C111.51 27.6527 111.415 27.5942 111.298 27.5335C111.185 27.4685 111.047 27.41 110.882 27.358C110.722 27.3017 110.522 27.2735 110.284 27.2735C109.972 27.2735 109.697 27.3298 109.459 27.4425C109.22 27.5552 109.021 27.7155 108.861 27.9235C108.705 28.1315 108.585 28.385 108.503 28.684C108.421 28.983 108.38 29.3188 108.38 29.6915C108.38 30.0772 108.423 30.4217 108.51 30.725C108.596 31.024 108.72 31.2775 108.88 31.4855C109.04 31.6892 109.235 31.8452 109.465 31.9535C109.695 32.0575 109.95 32.1095 110.232 32.1095C110.505 32.1095 110.73 32.077 110.908 32.012C111.086 31.9427 111.233 31.869 111.35 31.791C111.467 31.713 111.565 31.6415 111.643 31.5765C111.721 31.5072 111.801 31.4725 111.883 31.4725C111.987 31.4725 112.067 31.5115 112.124 31.5895L112.488 32.0575C112.336 32.2438 112.165 32.402 111.974 32.532C111.788 32.662 111.588 32.7682 111.376 32.8505C111.164 32.9328 110.941 32.9935 110.707 33.0325C110.477 33.0715 110.243 33.091 110.005 33.091C109.593 33.091 109.207 33.0152 108.848 32.8635C108.492 32.7118 108.182 32.4908 107.918 32.2005C107.658 31.9102 107.452 31.5548 107.301 31.1345C107.149 30.7098 107.073 30.2288 107.073 29.6915C107.073 29.2018 107.14 28.749 107.275 28.333C107.413 27.917 107.615 27.5595 107.879 27.2605C108.148 26.9572 108.477 26.721 108.867 26.552C109.257 26.3787 109.703 26.292 110.206 26.292C110.678 26.292 111.094 26.3678 111.454 26.5195C111.814 26.6712 112.134 26.8857 112.416 27.163L112.078 27.631ZM114.867 27.6635C115.079 27.2302 115.335 26.89 115.634 26.643C115.933 26.396 116.292 26.2725 116.713 26.2725C116.856 26.2725 116.99 26.2898 117.116 26.3245C117.246 26.3548 117.358 26.4025 117.454 26.4675L117.369 27.423C117.339 27.54 117.267 27.5985 117.155 27.5985C117.094 27.5985 117.003 27.5877 116.882 27.566C116.76 27.54 116.63 27.527 116.492 27.527C116.288 27.527 116.108 27.5573 115.952 27.618C115.796 27.6743 115.655 27.761 115.53 27.878C115.408 27.9907 115.3 28.1315 115.205 28.3005C115.109 28.4652 115.021 28.6537 114.938 28.866V33H113.671V26.396H114.399C114.537 26.396 114.631 26.422 114.678 26.474C114.73 26.5217 114.767 26.6083 114.789 26.734L114.867 27.6635ZM122.565 28.9635C122.565 28.7122 122.528 28.4803 122.454 28.268C122.385 28.0557 122.281 27.8715 122.142 27.7155C122.004 27.5595 121.835 27.4382 121.635 27.3515C121.436 27.2648 121.206 27.2215 120.946 27.2215C120.413 27.2215 119.993 27.3753 119.685 27.683C119.382 27.9907 119.189 28.4175 119.107 28.9635H122.565ZM123.611 32.0575C123.455 32.2395 123.275 32.3977 123.072 32.532C122.868 32.662 122.651 32.7682 122.422 32.8505C122.192 32.9328 121.954 32.9935 121.707 33.0325C121.464 33.0715 121.224 33.091 120.985 33.091C120.53 33.091 120.108 33.0152 119.718 32.8635C119.332 32.7075 118.996 32.4822 118.71 32.1875C118.429 31.8885 118.208 31.5202 118.047 31.0825C117.891 30.6405 117.813 30.1335 117.813 29.5615C117.813 29.1022 117.885 28.6753 118.028 28.281C118.171 27.8823 118.374 27.5357 118.639 27.241C118.907 26.9463 119.235 26.7145 119.62 26.5455C120.006 26.3765 120.439 26.292 120.92 26.292C121.323 26.292 121.694 26.3592 122.032 26.4935C122.374 26.6235 122.669 26.8142 122.916 27.0655C123.163 27.3168 123.356 27.6267 123.494 27.995C123.637 28.3633 123.709 28.7837 123.709 29.256C123.709 29.451 123.687 29.5832 123.644 29.6525C123.6 29.7175 123.52 29.75 123.403 29.75H119.074C119.087 30.1443 119.144 30.4888 119.243 30.7835C119.343 31.0738 119.479 31.3165 119.653 31.5115C119.83 31.7065 120.041 31.8517 120.283 31.947C120.526 32.0423 120.797 32.09 121.096 32.09C121.377 32.09 121.62 32.0575 121.824 31.9925C122.032 31.9275 122.209 31.8582 122.357 31.7845C122.508 31.7065 122.634 31.635 122.734 31.57C122.838 31.505 122.929 31.4725 123.007 31.4725C123.111 31.4725 123.191 31.5115 123.247 31.5895L123.611 32.0575ZM128.62 30.0685C128.104 30.0858 127.667 30.127 127.307 30.192C126.947 30.2527 126.655 30.335 126.43 30.439C126.204 30.543 126.042 30.6665 125.942 30.8095C125.842 30.9482 125.793 31.1042 125.793 31.2775C125.793 31.4422 125.819 31.5852 125.871 31.7065C125.927 31.8235 126.001 31.921 126.092 31.999C126.187 32.0727 126.297 32.1268 126.423 32.1615C126.549 32.1962 126.685 32.2135 126.833 32.2135C127.028 32.2135 127.205 32.194 127.366 32.155C127.53 32.116 127.684 32.0618 127.827 31.9925C127.97 31.9188 128.107 31.83 128.237 31.726C128.367 31.622 128.494 31.5028 128.62 31.3685V30.0685ZM124.902 27.319C125.27 26.968 125.669 26.7058 126.098 26.5325C126.531 26.3592 127.006 26.2725 127.522 26.2725C127.899 26.2725 128.232 26.3353 128.523 26.461C128.813 26.5823 129.058 26.7535 129.257 26.9745C129.456 27.1955 129.606 27.4598 129.706 27.7675C129.81 28.0752 129.862 28.4153 129.862 28.788V33H129.296C129.17 33 129.075 32.9805 129.01 32.9415C128.945 32.8982 128.893 32.8202 128.854 32.7075L128.718 32.129C128.549 32.285 128.382 32.4237 128.217 32.545C128.052 32.662 127.879 32.7638 127.697 32.8505C127.519 32.9328 127.329 32.9957 127.125 33.039C126.921 33.0823 126.696 33.104 126.449 33.104C126.189 33.104 125.944 33.0693 125.715 33C125.489 32.9263 125.292 32.8158 125.123 32.6685C124.954 32.5212 124.82 32.337 124.72 32.116C124.625 31.895 124.577 31.6372 124.577 31.3425C124.577 31.0825 124.646 30.8333 124.785 30.595C124.928 30.3523 125.158 30.1357 125.474 29.945C125.795 29.7543 126.211 29.5983 126.722 29.477C127.238 29.3557 127.87 29.2863 128.62 29.269V28.788C128.62 28.2897 128.514 27.917 128.302 27.67C128.089 27.423 127.777 27.2995 127.366 27.2995C127.088 27.2995 126.854 27.3342 126.664 27.4035C126.477 27.4728 126.315 27.5508 126.176 27.6375C126.042 27.7198 125.923 27.7957 125.819 27.865C125.719 27.9343 125.615 27.969 125.507 27.969C125.42 27.969 125.344 27.9452 125.279 27.8975C125.218 27.8498 125.169 27.7935 125.13 27.7285L124.902 27.319ZM133.537 33.104C133.004 33.104 132.592 32.9545 132.302 32.6555C132.016 32.3565 131.873 31.9297 131.873 31.375V27.423H131.106C131.032 27.423 130.969 27.4013 130.917 27.358C130.869 27.3103 130.846 27.241 130.846 27.15V26.6365L131.918 26.487L132.204 24.5175C132.221 24.4438 132.254 24.3875 132.302 24.3485C132.354 24.3052 132.419 24.2835 132.497 24.2835H133.14V26.5H135.012V27.423H133.14V31.2905C133.14 31.5505 133.203 31.7455 133.329 31.8755C133.459 32.0012 133.623 32.064 133.823 32.064C133.94 32.064 134.039 32.0488 134.122 32.0185C134.208 31.9882 134.282 31.9557 134.343 31.921C134.403 31.882 134.455 31.8473 134.499 31.817C134.542 31.7867 134.581 31.7715 134.616 31.7715C134.659 31.7715 134.691 31.7823 134.713 31.804C134.739 31.8213 134.765 31.8517 134.791 31.895L135.168 32.506C134.96 32.6967 134.713 32.844 134.427 32.948C134.141 33.052 133.844 33.104 133.537 33.104ZM140.516 28.9635C140.516 28.7122 140.479 28.4803 140.405 28.268C140.336 28.0557 140.232 27.8715 140.093 27.7155C139.955 27.5595 139.786 27.4382 139.586 27.3515C139.387 27.2648 139.157 27.2215 138.897 27.2215C138.364 27.2215 137.944 27.3753 137.636 27.683C137.333 27.9907 137.14 28.4175 137.058 28.9635H140.516ZM141.562 32.0575C141.406 32.2395 141.227 32.3977 141.023 32.532C140.819 32.662 140.603 32.7682 140.373 32.8505C140.143 32.9328 139.905 32.9935 139.658 33.0325C139.415 33.0715 139.175 33.091 138.936 33.091C138.481 33.091 138.059 33.0152 137.669 32.8635C137.283 32.7075 136.947 32.4822 136.661 32.1875C136.38 31.8885 136.159 31.5202 135.998 31.0825C135.842 30.6405 135.764 30.1335 135.764 29.5615C135.764 29.1022 135.836 28.6753 135.979 28.281C136.122 27.8823 136.326 27.5357 136.59 27.241C136.859 26.9463 137.186 26.7145 137.571 26.5455C137.957 26.3765 138.39 26.292 138.871 26.292C139.274 26.292 139.645 26.3592 139.983 26.4935C140.325 26.6235 140.62 26.8142 140.867 27.0655C141.114 27.3168 141.307 27.6267 141.445 27.995C141.588 28.3633 141.66 28.7837 141.66 29.256C141.66 29.451 141.638 29.5832 141.595 29.6525C141.552 29.7175 141.471 29.75 141.354 29.75H137.025C137.038 30.1443 137.095 30.4888 137.194 30.7835C137.294 31.0738 137.431 31.3165 137.604 31.5115C137.782 31.7065 137.992 31.8517 138.234 31.947C138.477 32.0423 138.748 32.09 139.047 32.09C139.329 32.09 139.571 32.0575 139.775 31.9925C139.983 31.9275 140.161 31.8582 140.308 31.7845C140.46 31.7065 140.585 31.635 140.685 31.57C140.789 31.505 140.88 31.4725 140.958 31.4725C141.062 31.4725 141.142 31.5115 141.198 31.5895L141.562 32.0575ZM151.752 26.396L148.086 34.9175C148.047 35.0128 147.995 35.0865 147.93 35.1385C147.865 35.1905 147.77 35.2165 147.644 35.2165H146.702L147.911 32.584L145.2 26.396H146.305C146.414 26.396 146.498 26.422 146.559 26.474C146.62 26.526 146.663 26.5845 146.689 26.6495L148.366 30.6145C148.401 30.7142 148.433 30.816 148.463 30.92C148.498 31.0197 148.526 31.1193 148.548 31.219C148.578 31.115 148.611 31.0132 148.645 30.9135C148.68 30.8095 148.717 30.7077 148.756 30.608L150.374 26.6495C150.405 26.5758 150.452 26.5152 150.517 26.4675C150.582 26.4198 150.656 26.396 150.738 26.396H151.752ZM155.346 26.292C155.831 26.292 156.269 26.3722 156.659 26.5325C157.053 26.6885 157.387 26.916 157.66 27.215C157.937 27.5097 158.149 27.8672 158.297 28.2875C158.444 28.7035 158.518 29.1715 158.518 29.6915C158.518 30.2115 158.444 30.6817 158.297 31.102C158.149 31.5223 157.937 31.8798 157.66 32.1745C157.387 32.4692 157.053 32.6967 156.659 32.857C156.269 33.013 155.831 33.091 155.346 33.091C154.856 33.091 154.414 33.013 154.02 32.857C153.63 32.6967 153.296 32.4692 153.019 32.1745C152.741 31.8798 152.527 31.5223 152.375 31.102C152.228 30.6817 152.154 30.2115 152.154 29.6915C152.154 29.1715 152.228 28.7035 152.375 28.2875C152.527 27.8672 152.741 27.5097 153.019 27.215C153.296 26.916 153.63 26.6885 154.02 26.5325C154.414 26.3722 154.856 26.292 155.346 26.292ZM155.346 32.103C155.97 32.103 156.435 31.8928 156.743 31.4725C157.051 31.0522 157.205 30.4607 157.205 29.698C157.205 28.9353 157.051 28.3438 156.743 27.9235C156.435 27.4988 155.97 27.2865 155.346 27.2865C154.713 27.2865 154.241 27.4988 153.929 27.9235C153.621 28.3438 153.467 28.9353 153.467 29.698C153.467 30.4607 153.621 31.0522 153.929 31.4725C154.241 31.8928 154.713 32.103 155.346 32.103ZM165.425 26.396V33H164.664C164.491 33 164.378 32.9155 164.326 32.7465L164.235 32.0835C164.092 32.2352 163.943 32.3738 163.787 32.4995C163.631 32.6252 163.464 32.7335 163.286 32.8245C163.109 32.9112 162.92 32.9783 162.721 33.026C162.522 33.078 162.307 33.104 162.077 33.104C161.713 33.104 161.393 33.0433 161.115 32.922C160.842 32.8007 160.613 32.6317 160.426 32.415C160.24 32.194 160.099 31.9297 160.004 31.622C159.909 31.3143 159.861 30.9742 159.861 30.6015V26.396H161.135V30.6015C161.135 31.0738 161.243 31.4422 161.46 31.7065C161.677 31.9665 162.008 32.0965 162.454 32.0965C162.779 32.0965 163.083 32.0207 163.364 31.869C163.646 31.713 163.91 31.5007 164.157 31.232V26.396H165.425ZM168.39 27.6635C168.603 27.2302 168.858 26.89 169.157 26.643C169.456 26.396 169.816 26.2725 170.236 26.2725C170.379 26.2725 170.514 26.2898 170.639 26.3245C170.769 26.3548 170.882 26.4025 170.977 26.4675L170.893 27.423C170.862 27.54 170.791 27.5985 170.678 27.5985C170.618 27.5985 170.527 27.5877 170.405 27.566C170.284 27.54 170.154 27.527 170.015 27.527C169.812 27.527 169.632 27.5573 169.476 27.618C169.32 27.6743 169.179 27.761 169.053 27.878C168.932 27.9907 168.824 28.1315 168.728 28.3005C168.633 28.4652 168.544 28.6537 168.462 28.866V33H167.194V26.396H167.922C168.061 26.396 168.154 26.422 168.202 26.474C168.254 26.5217 168.291 26.6083 168.312 26.734L168.39 27.6635ZM179.221 27.995C179.026 27.7307 178.803 27.5422 178.552 27.4295C178.305 27.3168 178.034 27.2605 177.739 27.2605C177.159 27.2605 176.708 27.4707 176.387 27.891C176.071 28.307 175.913 28.9158 175.913 29.7175C175.913 30.1378 175.947 30.4975 176.017 30.7965C176.09 31.0912 176.194 31.3338 176.329 31.5245C176.467 31.7108 176.636 31.8495 176.836 31.9405C177.035 32.0272 177.26 32.0705 177.512 32.0705C177.88 32.0705 178.199 31.9882 178.467 31.8235C178.736 31.6588 178.987 31.427 179.221 31.128V27.995ZM180.495 26.396V35.2165H179.221V32.0575C178.948 32.3695 178.638 32.6208 178.292 32.8115C177.945 32.9978 177.544 33.091 177.089 33.091C176.712 33.091 176.37 33.0173 176.062 32.87C175.759 32.7227 175.499 32.5082 175.282 32.2265C175.066 31.9405 174.899 31.5873 174.782 31.167C174.665 30.7467 174.606 30.2635 174.606 29.7175C174.606 29.2278 174.671 28.7728 174.801 28.3525C174.931 27.9322 175.12 27.5682 175.367 27.2605C175.614 26.9528 175.913 26.7123 176.264 26.539C176.615 26.3613 177.011 26.2725 177.453 26.2725C177.666 26.2725 177.861 26.292 178.038 26.331C178.216 26.37 178.381 26.4263 178.532 26.5C178.684 26.5737 178.823 26.6625 178.948 26.7665C179.078 26.8705 179.2 26.9897 179.312 27.124L179.397 26.6495C179.44 26.4805 179.551 26.396 179.728 26.396H180.495ZM187.756 26.396V33H186.996C186.822 33 186.71 32.9155 186.658 32.7465L186.567 32.0835C186.424 32.2352 186.274 32.3738 186.118 32.4995C185.962 32.6252 185.795 32.7335 185.618 32.8245C185.44 32.9112 185.251 32.9783 185.052 33.026C184.853 33.078 184.638 33.104 184.409 33.104C184.045 33.104 183.724 33.0433 183.447 32.922C183.174 32.8007 182.944 32.6317 182.758 32.415C182.571 32.194 182.43 31.9297 182.335 31.622C182.24 31.3143 182.192 30.9742 182.192 30.6015V26.396H183.466V30.6015C183.466 31.0738 183.574 31.4422 183.791 31.7065C184.008 31.9665 184.339 32.0965 184.786 32.0965C185.111 32.0965 185.414 32.0207 185.696 31.869C185.977 31.713 186.242 31.5007 186.489 31.232V26.396H187.756ZM193.9 28.9635C193.9 28.7122 193.863 28.4803 193.789 28.268C193.72 28.0557 193.616 27.8715 193.477 27.7155C193.339 27.5595 193.17 27.4382 192.97 27.3515C192.771 27.2648 192.541 27.2215 192.281 27.2215C191.748 27.2215 191.328 27.3753 191.02 27.683C190.717 27.9907 190.524 28.4175 190.442 28.9635H193.9ZM194.946 32.0575C194.79 32.2395 194.61 32.3977 194.407 32.532C194.203 32.662 193.986 32.7682 193.757 32.8505C193.527 32.9328 193.289 32.9935 193.042 33.0325C192.799 33.0715 192.559 33.091 192.32 33.091C191.865 33.091 191.443 33.0152 191.053 32.8635C190.667 32.7075 190.331 32.4822 190.045 32.1875C189.764 31.8885 189.543 31.5202 189.382 31.0825C189.226 30.6405 189.148 30.1335 189.148 29.5615C189.148 29.1022 189.22 28.6753 189.363 28.281C189.506 27.8823 189.709 27.5357 189.974 27.241C190.242 26.9463 190.57 26.7145 190.955 26.5455C191.341 26.3765 191.774 26.292 192.255 26.292C192.658 26.292 193.029 26.3592 193.367 26.4935C193.709 26.6235 194.004 26.8142 194.251 27.0655C194.498 27.3168 194.691 27.6267 194.829 27.995C194.972 28.3633 195.044 28.7837 195.044 29.256C195.044 29.451 195.022 29.5832 194.979 29.6525C194.935 29.7175 194.855 29.75 194.738 29.75H190.409C190.422 30.1443 190.479 30.4888 190.578 30.7835C190.678 31.0738 190.814 31.3165 190.988 31.5115C191.165 31.7065 191.376 31.8517 191.618 31.947C191.861 32.0423 192.132 32.09 192.431 32.09C192.712 32.09 192.955 32.0575 193.159 31.9925C193.367 31.9275 193.544 31.8582 193.692 31.7845C193.843 31.7065 193.969 31.635 194.069 31.57C194.173 31.505 194.264 31.4725 194.342 31.4725C194.446 31.4725 194.526 31.5115 194.582 31.5895L194.946 32.0575ZM200.3 27.5335C200.265 27.5898 200.228 27.631 200.189 27.657C200.15 27.6787 200.1 27.6895 200.04 27.6895C199.97 27.6895 199.892 27.6657 199.806 27.618C199.723 27.5703 199.621 27.5183 199.5 27.462C199.383 27.4057 199.244 27.3537 199.084 27.306C198.924 27.2583 198.733 27.2345 198.512 27.2345C198.33 27.2345 198.163 27.2583 198.012 27.306C197.864 27.3493 197.739 27.4122 197.635 27.4945C197.531 27.5725 197.45 27.6678 197.394 27.7805C197.338 27.8888 197.31 28.0058 197.31 28.1315C197.31 28.2962 197.357 28.4327 197.453 28.541C197.552 28.6493 197.68 28.7425 197.836 28.8205C197.996 28.8985 198.176 28.97 198.376 29.035C198.579 29.0957 198.785 29.1607 198.993 29.23C199.205 29.2993 199.411 29.3795 199.611 29.4705C199.814 29.5572 199.994 29.6677 200.15 29.802C200.31 29.932 200.438 30.0902 200.534 30.2765C200.633 30.4628 200.683 30.6903 200.683 30.959C200.683 31.2667 200.627 31.5527 200.514 31.817C200.406 32.077 200.243 32.3023 200.027 32.493C199.814 32.6837 199.55 32.8332 199.234 32.9415C198.917 33.0498 198.555 33.104 198.148 33.104C197.693 33.104 197.273 33.0282 196.887 32.8765C196.501 32.7248 196.179 32.532 195.919 32.298L196.218 31.8105C196.252 31.7498 196.296 31.7043 196.348 31.674C196.4 31.6393 196.469 31.622 196.556 31.622C196.638 31.622 196.722 31.6523 196.809 31.713C196.896 31.7737 197 31.8408 197.121 31.9145C197.242 31.9838 197.39 32.0488 197.563 32.1095C197.736 32.1658 197.953 32.194 198.213 32.194C198.43 32.194 198.618 32.168 198.779 32.116C198.939 32.0597 199.071 31.986 199.175 31.895C199.283 31.7997 199.364 31.6913 199.416 31.57C199.468 31.4487 199.494 31.3208 199.494 31.1865C199.494 31.0132 199.444 30.8702 199.344 30.7575C199.249 30.6405 199.121 30.5408 198.961 30.4585C198.805 30.3762 198.625 30.3047 198.421 30.244C198.217 30.1833 198.009 30.1183 197.797 30.049C197.585 29.9797 197.377 29.8995 197.173 29.8085C196.969 29.7175 196.787 29.6027 196.627 29.464C196.471 29.3253 196.343 29.1563 196.244 28.957C196.148 28.7577 196.101 28.515 196.101 28.229C196.101 27.9733 196.153 27.7285 196.257 27.4945C196.365 27.2605 196.519 27.0547 196.718 26.877C196.922 26.6993 197.171 26.5585 197.466 26.4545C197.765 26.3462 198.105 26.292 198.486 26.292C198.924 26.292 199.318 26.3613 199.669 26.5C200.024 26.6387 200.328 26.8293 200.579 27.072L200.3 27.5335ZM208.315 33H207.041V27.423H203.726V31.2905C203.726 31.5505 203.789 31.7455 203.915 31.8755C204.045 32.0012 204.209 32.064 204.409 32.064C204.526 32.064 204.625 32.0488 204.708 32.0185C204.794 31.9882 204.868 31.9557 204.929 31.921C204.989 31.882 205.041 31.8473 205.085 31.817C205.128 31.7867 205.167 31.7715 205.202 31.7715C205.245 31.7715 205.277 31.7823 205.299 31.804C205.325 31.8213 205.351 31.8517 205.377 31.895L205.754 32.506C205.546 32.6967 205.299 32.844 205.013 32.948C204.727 33.052 204.43 33.104 204.123 33.104C203.59 33.104 203.178 32.9545 202.888 32.6555C202.602 32.3565 202.459 31.9297 202.459 31.375V27.423H201.692C201.618 27.423 201.555 27.4013 201.503 27.358C201.455 27.3103 201.432 27.241 201.432 27.15V26.6365L202.511 26.487L202.79 24.5175C202.807 24.4438 202.84 24.3875 202.888 24.3485C202.94 24.3052 203.005 24.2835 203.083 24.2835H203.726V26.5H208.315V33ZM208.601 24.316C208.601 24.433 208.577 24.5457 208.53 24.654C208.482 24.758 208.417 24.8512 208.335 24.9335C208.257 25.0115 208.163 25.0743 208.055 25.122C207.947 25.1653 207.834 25.187 207.717 25.187C207.6 25.187 207.49 25.1653 207.386 25.122C207.282 25.0743 207.188 25.0115 207.106 24.9335C207.028 24.8512 206.965 24.758 206.918 24.654C206.874 24.5457 206.853 24.433 206.853 24.316C206.853 24.1947 206.874 24.0798 206.918 23.9715C206.965 23.8632 207.028 23.77 207.106 23.692C207.188 23.6097 207.282 23.5468 207.386 23.5035C207.49 23.4558 207.6 23.432 207.717 23.432C207.834 23.432 207.947 23.4558 208.055 23.5035C208.163 23.5468 208.257 23.6097 208.335 23.692C208.417 23.77 208.482 23.8632 208.53 23.9715C208.577 24.0798 208.601 24.1947 208.601 24.316ZM212.97 26.292C213.455 26.292 213.893 26.3722 214.283 26.5325C214.677 26.6885 215.011 26.916 215.284 27.215C215.561 27.5097 215.773 27.8672 215.921 28.2875C216.068 28.7035 216.142 29.1715 216.142 29.6915C216.142 30.2115 216.068 30.6817 215.921 31.102C215.773 31.5223 215.561 31.8798 215.284 32.1745C215.011 32.4692 214.677 32.6967 214.283 32.857C213.893 33.013 213.455 33.091 212.97 33.091C212.48 33.091 212.038 33.013 211.644 32.857C211.254 32.6967 210.92 32.4692 210.643 32.1745C210.365 31.8798 210.151 31.5223 209.999 31.102C209.852 30.6817 209.778 30.2115 209.778 29.6915C209.778 29.1715 209.852 28.7035 209.999 28.2875C210.151 27.8672 210.365 27.5097 210.643 27.215C210.92 26.916 211.254 26.6885 211.644 26.5325C212.038 26.3722 212.48 26.292 212.97 26.292ZM212.97 32.103C213.594 32.103 214.059 31.8928 214.367 31.4725C214.675 31.0522 214.829 30.4607 214.829 29.698C214.829 28.9353 214.675 28.3438 214.367 27.9235C214.059 27.4988 213.594 27.2865 212.97 27.2865C212.337 27.2865 211.865 27.4988 211.553 27.9235C211.245 28.3438 211.091 28.9353 211.091 29.698C211.091 30.4607 211.245 31.0522 211.553 31.4725C211.865 31.8928 212.337 32.103 212.97 32.103ZM218.746 27.3125C218.889 27.1608 219.039 27.0222 219.195 26.8965C219.351 26.7708 219.515 26.6647 219.689 26.578C219.866 26.487 220.055 26.4177 220.254 26.37C220.458 26.318 220.674 26.292 220.904 26.292C221.268 26.292 221.587 26.3527 221.86 26.474C222.137 26.5953 222.369 26.7665 222.555 26.9875C222.741 27.2042 222.882 27.4663 222.978 27.774C223.073 28.0817 223.121 28.4218 223.121 28.7945V33H221.847V28.7945C221.847 28.3222 221.738 27.956 221.522 27.696C221.305 27.4317 220.973 27.2995 220.527 27.2995C220.202 27.2995 219.897 27.3775 219.611 27.5335C219.329 27.6852 219.067 27.8932 218.824 28.1575V33H217.557V26.396H218.317C218.495 26.396 218.605 26.4805 218.649 26.6495L218.746 27.3125ZM226.02 27.3125C226.163 27.1608 226.313 27.0222 226.469 26.8965C226.625 26.7708 226.79 26.6647 226.963 26.578C227.141 26.487 227.329 26.4177 227.528 26.37C227.732 26.318 227.949 26.292 228.178 26.292C228.542 26.292 228.861 26.3527 229.134 26.474C229.411 26.5953 229.643 26.7665 229.829 26.9875C230.016 27.2042 230.157 27.4663 230.252 27.774C230.347 28.0817 230.395 28.4218 230.395 28.7945V33H229.121V28.7945C229.121 28.3222 229.013 27.956 228.796 27.696C228.579 27.4317 228.248 27.2995 227.801 27.2995C227.476 27.2995 227.171 27.3775 226.885 27.5335C226.603 27.6852 226.341 27.8932 226.098 28.1575V33H224.831V26.396H225.591C225.769 26.396 225.88 26.4805 225.923 26.6495L226.02 27.3125ZM235.654 30.0685C235.139 30.0858 234.701 30.127 234.341 30.192C233.982 30.2527 233.689 30.335 233.464 30.439C233.239 30.543 233.076 30.6665 232.976 30.8095C232.877 30.9482 232.827 31.1042 232.827 31.2775C232.827 31.4422 232.853 31.5852 232.905 31.7065C232.961 31.8235 233.035 31.921 233.126 31.999C233.221 32.0727 233.332 32.1268 233.457 32.1615C233.583 32.1962 233.72 32.2135 233.867 32.2135C234.062 32.2135 234.24 32.194 234.4 32.155C234.565 32.116 234.718 32.0618 234.861 31.9925C235.004 31.9188 235.141 31.83 235.271 31.726C235.401 31.622 235.529 31.5028 235.654 31.3685V30.0685ZM231.936 27.319C232.305 26.968 232.703 26.7058 233.132 26.5325C233.566 26.3592 234.04 26.2725 234.556 26.2725C234.933 26.2725 235.267 26.3353 235.557 26.461C235.847 26.5823 236.092 26.7535 236.291 26.9745C236.491 27.1955 236.64 27.4598 236.74 27.7675C236.844 28.0752 236.896 28.4153 236.896 28.788V33H236.33C236.205 33 236.109 32.9805 236.044 32.9415C235.979 32.8982 235.927 32.8202 235.888 32.7075L235.752 32.129C235.583 32.285 235.416 32.4237 235.251 32.545C235.087 32.662 234.913 32.7638 234.731 32.8505C234.554 32.9328 234.363 32.9957 234.159 33.039C233.956 33.0823 233.73 33.104 233.483 33.104C233.223 33.104 232.979 33.0693 232.749 33C232.524 32.9263 232.326 32.8158 232.157 32.6685C231.988 32.5212 231.854 32.337 231.754 32.116C231.659 31.895 231.611 31.6372 231.611 31.3425C231.611 31.0825 231.681 30.8333 231.819 30.595C231.962 30.3523 232.192 30.1357 232.508 29.945C232.829 29.7543 233.245 29.5983 233.756 29.477C234.272 29.3557 234.905 29.2863 235.654 29.269V28.788C235.654 28.2897 235.548 27.917 235.336 27.67C235.124 27.423 234.812 27.2995 234.4 27.2995C234.123 27.2995 233.889 27.3342 233.698 27.4035C233.512 27.4728 233.349 27.5508 233.21 27.6375C233.076 27.7198 232.957 27.7957 232.853 27.865C232.753 27.9343 232.649 27.969 232.541 27.969C232.454 27.969 232.378 27.9452 232.313 27.8975C232.253 27.8498 232.203 27.7935 232.164 27.7285L231.936 27.319ZM239.919 26.396V33H238.651V26.396H239.919ZM240.159 24.355C240.159 24.472 240.135 24.5847 240.088 24.693C240.04 24.797 239.975 24.8902 239.893 24.9725C239.815 25.0505 239.721 25.1133 239.613 25.161C239.505 25.2043 239.392 25.226 239.275 25.226C239.158 25.226 239.048 25.2043 238.944 25.161C238.84 25.1133 238.746 25.0505 238.664 24.9725C238.586 24.8902 238.523 24.797 238.476 24.693C238.432 24.5847 238.411 24.472 238.411 24.355C238.411 24.2337 238.432 24.121 238.476 24.017C238.523 23.9087 238.586 23.8155 238.664 23.7375C238.746 23.6552 238.84 23.5923 238.944 23.549C239.048 23.5013 239.158 23.4775 239.275 23.4775C239.392 23.4775 239.505 23.5013 239.613 23.549C239.721 23.5923 239.815 23.6552 239.893 23.7375C239.975 23.8155 240.04 23.9087 240.088 24.017C240.135 24.121 240.159 24.2337 240.159 24.355ZM242.95 27.6635C243.162 27.2302 243.418 26.89 243.717 26.643C244.016 26.396 244.375 26.2725 244.796 26.2725C244.939 26.2725 245.073 26.2898 245.199 26.3245C245.329 26.3548 245.441 26.4025 245.537 26.4675L245.452 27.423C245.422 27.54 245.35 27.5985 245.238 27.5985C245.177 27.5985 245.086 27.5877 244.965 27.566C244.843 27.54 244.713 27.527 244.575 27.527C244.371 27.527 244.191 27.5573 244.035 27.618C243.879 27.6743 243.738 27.761 243.613 27.878C243.491 27.9907 243.383 28.1315 243.288 28.3005C243.192 28.4652 243.104 28.6537 243.021 28.866V33H241.754V26.396H242.482C242.62 26.396 242.714 26.422 242.761 26.474C242.813 26.5217 242.85 26.6083 242.872 26.734L242.95 27.6635ZM250.648 28.9635C250.648 28.7122 250.611 28.4803 250.537 28.268C250.468 28.0557 250.364 27.8715 250.225 27.7155C250.087 27.5595 249.918 27.4382 249.718 27.3515C249.519 27.2648 249.289 27.2215 249.029 27.2215C248.496 27.2215 248.076 27.3753 247.768 27.683C247.465 27.9907 247.272 28.4175 247.19 28.9635H250.648ZM251.694 32.0575C251.538 32.2395 251.358 32.3977 251.155 32.532C250.951 32.662 250.734 32.7682 250.505 32.8505C250.275 32.9328 250.037 32.9935 249.79 33.0325C249.547 33.0715 249.307 33.091 249.068 33.091C248.613 33.091 248.191 33.0152 247.801 32.8635C247.415 32.7075 247.079 32.4822 246.793 32.1875C246.512 31.8885 246.291 31.5202 246.13 31.0825C245.974 30.6405 245.896 30.1335 245.896 29.5615C245.896 29.1022 245.968 28.6753 246.111 28.281C246.254 27.8823 246.457 27.5357 246.722 27.241C246.99 26.9463 247.318 26.7145 247.703 26.5455C248.089 26.3765 248.522 26.292 249.003 26.292C249.406 26.292 249.777 26.3592 250.115 26.4935C250.457 26.6235 250.752 26.8142 250.999 27.0655C251.246 27.3168 251.439 27.6267 251.577 27.995C251.72 28.3633 251.792 28.7837 251.792 29.256C251.792 29.451 251.77 29.5832 251.727 29.6525C251.683 29.7175 251.603 29.75 251.486 29.75H247.157C247.17 30.1443 247.227 30.4888 247.326 30.7835C247.426 31.0738 247.562 31.3165 247.736 31.5115C247.913 31.7065 248.124 31.8517 248.366 31.947C248.609 32.0423 248.88 32.09 249.179 32.09C249.46 32.09 249.703 32.0575 249.907 31.9925C250.115 31.9275 250.292 31.8582 250.44 31.7845C250.591 31.7065 250.717 31.635 250.817 31.57C250.921 31.505 251.012 31.4725 251.09 31.4725C251.194 31.4725 251.274 31.5115 251.33 31.5895L251.694 32.0575ZM257.048 27.5335C257.013 27.5898 256.976 27.631 256.937 27.657C256.898 27.6787 256.848 27.6895 256.788 27.6895C256.718 27.6895 256.64 27.6657 256.554 27.618C256.471 27.5703 256.37 27.5183 256.248 27.462C256.131 27.4057 255.993 27.3537 255.832 27.306C255.672 27.2583 255.481 27.2345 255.26 27.2345C255.078 27.2345 254.911 27.2583 254.76 27.306C254.612 27.3493 254.487 27.4122 254.383 27.4945C254.279 27.5725 254.199 27.6678 254.142 27.7805C254.086 27.8888 254.058 28.0058 254.058 28.1315C254.058 28.2962 254.105 28.4327 254.201 28.541C254.3 28.6493 254.428 28.7425 254.584 28.8205C254.745 28.8985 254.924 28.97 255.124 29.035C255.327 29.0957 255.533 29.1607 255.741 29.23C255.954 29.2993 256.159 29.3795 256.359 29.4705C256.562 29.5572 256.742 29.6677 256.898 29.802C257.059 29.932 257.186 30.0902 257.282 30.2765C257.381 30.4628 257.431 30.6903 257.431 30.959C257.431 31.2667 257.375 31.5527 257.262 31.817C257.154 32.077 256.991 32.3023 256.775 32.493C256.562 32.6837 256.298 32.8332 255.982 32.9415C255.665 33.0498 255.304 33.104 254.896 33.104C254.441 33.104 254.021 33.0282 253.635 32.8765C253.25 32.7248 252.927 32.532 252.667 32.298L252.966 31.8105C253 31.7498 253.044 31.7043 253.096 31.674C253.148 31.6393 253.217 31.622 253.304 31.622C253.386 31.622 253.471 31.6523 253.557 31.713C253.644 31.7737 253.748 31.8408 253.869 31.9145C253.991 31.9838 254.138 32.0488 254.311 32.1095C254.485 32.1658 254.701 32.194 254.961 32.194C255.178 32.194 255.366 32.168 255.527 32.116C255.687 32.0597 255.819 31.986 255.923 31.895C256.032 31.7997 256.112 31.6913 256.164 31.57C256.216 31.4487 256.242 31.3208 256.242 31.1865C256.242 31.0132 256.192 30.8702 256.092 30.7575C255.997 30.6405 255.869 30.5408 255.709 30.4585C255.553 30.3762 255.373 30.3047 255.169 30.244C254.966 30.1833 254.758 30.1183 254.545 30.049C254.333 29.9797 254.125 29.8995 253.921 29.8085C253.718 29.7175 253.536 29.6027 253.375 29.464C253.219 29.3253 253.091 29.1563 252.992 28.957C252.896 28.7577 252.849 28.515 252.849 28.229C252.849 27.9733 252.901 27.7285 253.005 27.4945C253.113 27.2605 253.267 27.0547 253.466 26.877C253.67 26.6993 253.919 26.5585 254.214 26.4545C254.513 26.3462 254.853 26.292 255.234 26.292C255.672 26.292 256.066 26.3613 256.417 26.5C256.773 26.6387 257.076 26.8293 257.327 27.072L257.048 27.5335ZM262.527 33V27.436L261.838 27.3515C261.739 27.3298 261.656 27.2952 261.591 27.2475C261.531 27.1955 261.5 27.1218 261.5 27.0265V26.5H262.527V25.902C262.527 25.525 262.581 25.1892 262.69 24.8945C262.798 24.5998 262.952 24.3507 263.151 24.147C263.355 23.939 263.598 23.783 263.879 23.679C264.165 23.5707 264.486 23.5165 264.841 23.5165C265.14 23.5165 265.415 23.5598 265.667 23.6465L265.641 24.2835C265.636 24.3398 265.619 24.3832 265.589 24.4135C265.558 24.4395 265.517 24.459 265.465 24.472C265.418 24.485 265.357 24.4937 265.283 24.498C265.214 24.498 265.138 24.498 265.056 24.498C264.861 24.498 264.683 24.5218 264.523 24.5695C264.362 24.6172 264.226 24.6973 264.113 24.81C264.001 24.9227 263.914 25.0722 263.853 25.2585C263.793 25.4405 263.762 25.668 263.762 25.941V26.5H265.615V27.423H263.801V33H262.527ZM269.286 26.292C269.771 26.292 270.209 26.3722 270.599 26.5325C270.993 26.6885 271.327 26.916 271.6 27.215C271.877 27.5097 272.09 27.8672 272.237 28.2875C272.384 28.7035 272.458 29.1715 272.458 29.6915C272.458 30.2115 272.384 30.6817 272.237 31.102C272.09 31.5223 271.877 31.8798 271.6 32.1745C271.327 32.4692 270.993 32.6967 270.599 32.857C270.209 33.013 269.771 33.091 269.286 33.091C268.796 33.091 268.354 33.013 267.96 32.857C267.57 32.6967 267.236 32.4692 266.959 32.1745C266.682 31.8798 266.467 31.5223 266.316 31.102C266.168 30.6817 266.095 30.2115 266.095 29.6915C266.095 29.1715 266.168 28.7035 266.316 28.2875C266.467 27.8672 266.682 27.5097 266.959 27.215C267.236 26.916 267.57 26.6885 267.96 26.5325C268.354 26.3722 268.796 26.292 269.286 26.292ZM269.286 32.103C269.91 32.103 270.376 31.8928 270.684 31.4725C270.991 31.0522 271.145 30.4607 271.145 29.698C271.145 28.9353 270.991 28.3438 270.684 27.9235C270.376 27.4988 269.91 27.2865 269.286 27.2865C268.653 27.2865 268.181 27.4988 267.869 27.9235C267.561 28.3438 267.408 28.9353 267.408 29.698C267.408 30.4607 267.561 31.0522 267.869 31.4725C268.181 31.8928 268.653 32.103 269.286 32.103ZM275.069 27.6635C275.281 27.2302 275.537 26.89 275.836 26.643C276.135 26.396 276.495 26.2725 276.915 26.2725C277.058 26.2725 277.192 26.2898 277.318 26.3245C277.448 26.3548 277.561 26.4025 277.656 26.4675L277.571 27.423C277.541 27.54 277.47 27.5985 277.357 27.5985C277.296 27.5985 277.205 27.5877 277.084 27.566C276.963 27.54 276.833 27.527 276.694 27.527C276.49 27.527 276.31 27.5573 276.154 27.618C275.998 27.6743 275.858 27.761 275.732 27.878C275.611 27.9907 275.502 28.1315 275.407 28.3005C275.312 28.4652 275.223 28.6537 275.14 28.866V33H273.873V26.396H274.601C274.74 26.396 274.833 26.422 274.88 26.474C274.932 26.5217 274.969 26.6083 274.991 26.734L275.069 27.6635ZM287.084 26.396L283.418 34.9175C283.379 35.0128 283.327 35.0865 283.262 35.1385C283.197 35.1905 283.102 35.2165 282.976 35.2165H282.034L283.243 32.584L280.532 26.396H281.637C281.746 26.396 281.83 26.422 281.891 26.474C281.952 26.526 281.995 26.5845 282.021 26.6495L283.698 30.6145C283.733 30.7142 283.765 30.816 283.795 30.92C283.83 31.0197 283.858 31.1193 283.88 31.219C283.91 31.115 283.943 31.0132 283.977 30.9135C284.012 30.8095 284.049 30.7077 284.088 30.608L285.706 26.6495C285.737 26.5758 285.784 26.5152 285.849 26.4675C285.914 26.4198 285.988 26.396 286.07 26.396H287.084ZM290.678 26.292C291.163 26.292 291.601 26.3722 291.991 26.5325C292.385 26.6885 292.719 26.916 292.992 27.215C293.269 27.5097 293.481 27.8672 293.629 28.2875C293.776 28.7035 293.85 29.1715 293.85 29.6915C293.85 30.2115 293.776 30.6817 293.629 31.102C293.481 31.5223 293.269 31.8798 292.992 32.1745C292.719 32.4692 292.385 32.6967 291.991 32.857C291.601 33.013 291.163 33.091 290.678 33.091C290.188 33.091 289.746 33.013 289.352 32.857C288.962 32.6967 288.628 32.4692 288.351 32.1745C288.073 31.8798 287.859 31.5223 287.707 31.102C287.56 30.6817 287.486 30.2115 287.486 29.6915C287.486 29.1715 287.56 28.7035 287.707 28.2875C287.859 27.8672 288.073 27.5097 288.351 27.215C288.628 26.916 288.962 26.6885 289.352 26.5325C289.746 26.3722 290.188 26.292 290.678 26.292ZM290.678 32.103C291.302 32.103 291.767 31.8928 292.075 31.4725C292.383 31.0522 292.537 30.4607 292.537 29.698C292.537 28.9353 292.383 28.3438 292.075 27.9235C291.767 27.4988 291.302 27.2865 290.678 27.2865C290.045 27.2865 289.573 27.4988 289.261 27.9235C288.953 28.3438 288.799 28.9353 288.799 29.698C288.799 30.4607 288.953 31.0522 289.261 31.4725C289.573 31.8928 290.045 32.103 290.678 32.103ZM300.757 26.396V33H299.997C299.823 33 299.711 32.9155 299.659 32.7465L299.568 32.0835C299.425 32.2352 299.275 32.3738 299.119 32.4995C298.963 32.6252 298.796 32.7335 298.619 32.8245C298.441 32.9112 298.252 32.9783 298.053 33.026C297.854 33.078 297.639 33.104 297.41 33.104C297.046 33.104 296.725 33.0433 296.448 32.922C296.175 32.8007 295.945 32.6317 295.759 32.415C295.572 32.194 295.431 31.9297 295.336 31.622C295.241 31.3143 295.193 30.9742 295.193 30.6015V26.396H296.467V30.6015C296.467 31.0738 296.575 31.4422 296.792 31.7065C297.009 31.9665 297.34 32.0965 297.787 32.0965C298.112 32.0965 298.415 32.0207 298.697 31.869C298.978 31.713 299.243 31.5007 299.49 31.232V26.396H300.757ZM303.722 27.6635C303.935 27.2302 304.19 26.89 304.489 26.643C304.788 26.396 305.148 26.2725 305.568 26.2725C305.711 26.2725 305.846 26.2898 305.971 26.3245C306.101 26.3548 306.214 26.4025 306.309 26.4675L306.225 27.423C306.194 27.54 306.123 27.5985 306.01 27.5985C305.95 27.5985 305.859 27.5877 305.737 27.566C305.616 27.54 305.486 27.527 305.347 27.527C305.144 27.527 304.964 27.5573 304.808 27.618C304.652 27.6743 304.511 27.761 304.385 27.878C304.264 27.9907 304.156 28.1315 304.06 28.3005C303.965 28.4652 303.876 28.6537 303.794 28.866V33H302.526V26.396H303.254C303.393 26.396 303.486 26.422 303.534 26.474C303.586 26.5217 303.623 26.6083 303.644 26.734L303.722 27.6635ZM34.158 47.375C34.366 47.648 34.5892 47.8387 34.8275 47.947C35.0702 48.0553 35.341 48.1095 35.64 48.1095C36.2207 48.1095 36.6692 47.9015 36.9855 47.4855C37.3062 47.0652 37.4665 46.4542 37.4665 45.6525C37.4665 45.2322 37.4297 44.8747 37.356 44.58C37.2867 44.281 37.1827 44.0383 37.044 43.852C36.9097 43.6613 36.7428 43.5227 36.5435 43.436C36.3442 43.345 36.1188 43.2995 35.8675 43.2995C35.4992 43.2995 35.1785 43.3818 34.9055 43.5465C34.6368 43.7112 34.3877 43.9452 34.158 44.2485V47.375ZM34.093 43.384C34.2317 43.2193 34.379 43.0698 34.535 42.9355C34.6953 42.7968 34.8665 42.6798 35.0485 42.5845C35.2305 42.4848 35.4233 42.409 35.627 42.357C35.835 42.3007 36.056 42.2725 36.29 42.2725C36.667 42.2725 37.0072 42.3462 37.3105 42.4935C37.6182 42.6408 37.8803 42.8575 38.097 43.1435C38.3137 43.4295 38.4805 43.7827 38.5975 44.203C38.7188 44.6233 38.7795 45.1065 38.7795 45.6525C38.7795 46.1422 38.7123 46.5972 38.578 47.0175C38.448 47.4335 38.2595 47.7953 38.0125 48.103C37.7698 48.4107 37.4708 48.6533 37.1155 48.831C36.7645 49.0043 36.368 49.091 35.926 49.091C35.5317 49.091 35.1937 49.026 34.912 48.896C34.6303 48.766 34.379 48.584 34.158 48.35V51.2165H32.8905V42.396H33.651C33.8287 42.396 33.9392 42.4805 33.9825 42.6495L34.093 43.384ZM41.399 43.6635C41.6113 43.2302 41.867 42.89 42.166 42.643C42.465 42.396 42.8247 42.2725 43.245 42.2725C43.388 42.2725 43.5223 42.2898 43.648 42.3245C43.778 42.3548 43.8907 42.4025 43.986 42.4675L43.9015 43.423C43.8712 43.54 43.7997 43.5985 43.687 43.5985C43.6263 43.5985 43.5353 43.5877 43.414 43.566C43.2927 43.54 43.1627 43.527 43.024 43.527C42.8203 43.527 42.6405 43.5573 42.4845 43.618C42.3285 43.6743 42.1877 43.761 42.062 43.878C41.9407 43.9907 41.8323 44.1315 41.737 44.3005C41.6417 44.4652 41.5528 44.6537 41.4705 44.866V49H40.203V42.396H40.931C41.0697 42.396 41.1628 42.422 41.2105 42.474C41.2625 42.5217 41.2993 42.6083 41.321 42.734L41.399 43.6635ZM47.537 42.292C48.0224 42.292 48.46 42.3722 48.85 42.5325C49.2444 42.6885 49.578 42.916 49.851 43.215C50.1284 43.5097 50.3407 43.8672 50.488 44.2875C50.6354 44.7035 50.709 45.1715 50.709 45.6915C50.709 46.2115 50.6354 46.6817 50.488 47.102C50.3407 47.5223 50.1284 47.8798 49.851 48.1745C49.578 48.4692 49.2444 48.6967 48.85 48.857C48.46 49.013 48.0224 49.091 47.537 49.091C47.0474 49.091 46.6054 49.013 46.211 48.857C45.821 48.6967 45.4874 48.4692 45.21 48.1745C44.9327 47.8798 44.7182 47.5223 44.5665 47.102C44.4192 46.6817 44.3455 46.2115 44.3455 45.6915C44.3455 45.1715 44.4192 44.7035 44.5665 44.2875C44.7182 43.8672 44.9327 43.5097 45.21 43.215C45.4874 42.916 45.821 42.6885 46.211 42.5325C46.6054 42.3722 47.0474 42.292 47.537 42.292ZM47.537 48.103C48.161 48.103 48.6269 47.8928 48.9345 47.4725C49.2422 47.0522 49.396 46.4607 49.396 45.698C49.396 44.9353 49.2422 44.3438 48.9345 43.9235C48.6269 43.4988 48.161 43.2865 47.537 43.2865C46.9044 43.2865 46.432 43.4988 46.12 43.9235C45.8124 44.3438 45.6585 44.9353 45.6585 45.698C45.6585 46.4607 45.8124 47.0522 46.12 47.4725C46.432 47.8928 46.9044 48.103 47.537 48.103ZM53.4499 42.396V49.416C53.4499 49.689 53.4131 49.9425 53.3394 50.1765C53.2701 50.4148 53.1574 50.6207 53.0014 50.794C52.8497 50.9717 52.6504 51.1103 52.4034 51.21C52.1607 51.3097 51.8661 51.3595 51.5194 51.3595C51.3764 51.3595 51.2464 51.3487 51.1294 51.327C51.0081 51.3053 50.8867 51.275 50.7654 51.236L50.8174 50.547C50.8347 50.4647 50.8737 50.4192 50.9344 50.4105C50.9907 50.4018 51.1012 50.3975 51.2659 50.3975C51.5996 50.3975 51.8357 50.3217 51.9744 50.17C52.1131 50.0183 52.1824 49.767 52.1824 49.416V42.396H53.4499ZM53.6904 40.355C53.6904 40.472 53.6666 40.5847 53.6189 40.693C53.5712 40.797 53.5062 40.8902 53.4239 40.9725C53.3416 41.0505 53.2462 41.1133 53.1379 41.161C53.0339 41.2043 52.9212 41.226 52.7999 41.226C52.6829 41.226 52.5724 41.2043 52.4684 41.161C52.3644 41.1133 52.2712 41.0505 52.1889 40.9725C52.1109 40.8902 52.0481 40.797 52.0004 40.693C51.9571 40.5847 51.9354 40.472 51.9354 40.355C51.9354 40.2337 51.9571 40.121 52.0004 40.017C52.0481 39.9087 52.1109 39.8155 52.1889 39.7375C52.2712 39.6552 52.3644 39.5923 52.4684 39.549C52.5724 39.5013 52.6829 39.4775 52.7999 39.4775C52.9212 39.4775 53.0339 39.5013 53.1379 39.549C53.2462 39.5923 53.3416 39.6552 53.4239 39.7375C53.5062 39.8155 53.5712 39.9087 53.6189 40.017C53.6666 40.121 53.6904 40.2337 53.6904 40.355ZM59.6595 44.9635C59.6595 44.7122 59.6227 44.4803 59.549 44.268C59.4797 44.0557 59.3757 43.8715 59.237 43.7155C59.0984 43.5595 58.9294 43.4382 58.73 43.3515C58.5307 43.2648 58.301 43.2215 58.041 43.2215C57.508 43.2215 57.0877 43.3753 56.78 43.683C56.4767 43.9907 56.2839 44.4175 56.2015 44.9635H59.6595ZM60.706 48.0575C60.55 48.2395 60.3702 48.3977 60.1665 48.532C59.9629 48.662 59.7462 48.7682 59.5165 48.8505C59.2869 48.9328 59.0485 48.9935 58.8015 49.0325C58.5589 49.0715 58.3184 49.091 58.08 49.091C57.625 49.091 57.2025 49.0152 56.8125 48.8635C56.4269 48.7075 56.091 48.4822 55.805 48.1875C55.5234 47.8885 55.3024 47.5202 55.142 47.0825C54.986 46.6405 54.908 46.1335 54.908 45.5615C54.908 45.1022 54.9795 44.6753 55.1225 44.281C55.2655 43.8823 55.4692 43.5357 55.7335 43.241C56.0022 42.9463 56.3294 42.7145 56.715 42.5455C57.1007 42.3765 57.534 42.292 58.015 42.292C58.418 42.292 58.7885 42.3592 59.1265 42.4935C59.4689 42.6235 59.7635 42.8142 60.0105 43.0655C60.2575 43.3168 60.4504 43.6267 60.589 43.995C60.732 44.3633 60.8035 44.7837 60.8035 45.256C60.8035 45.451 60.7819 45.5832 60.7385 45.6525C60.6952 45.7175 60.615 45.75 60.498 45.75H56.169C56.182 46.1443 56.2384 46.4888 56.338 46.7835C56.4377 47.0738 56.5742 47.3165 56.7475 47.5115C56.9252 47.7065 57.1354 47.8517 57.378 47.947C57.6207 48.0423 57.8915 48.09 58.1905 48.09C58.4722 48.09 58.7149 48.0575 58.9185 47.9925C59.1265 47.9275 59.3042 47.8582 59.4515 47.7845C59.6032 47.7065 59.7289 47.635 59.8285 47.57C59.9325 47.505 60.0235 47.4725 60.1015 47.4725C60.2055 47.4725 60.2857 47.5115 60.342 47.5895L60.706 48.0575ZM66.7939 43.631C66.7549 43.6787 66.7159 43.7177 66.6769 43.748C66.6422 43.774 66.5902 43.787 66.5209 43.787C66.4516 43.787 66.3779 43.761 66.2999 43.709C66.2262 43.6527 66.1309 43.5942 66.0139 43.5335C65.9012 43.4685 65.7626 43.41 65.5979 43.358C65.4376 43.3017 65.2382 43.2735 64.9999 43.2735C64.6879 43.2735 64.4127 43.3298 64.1744 43.4425C63.9361 43.5552 63.7367 43.7155 63.5764 43.9235C63.4204 44.1315 63.3012 44.385 63.2189 44.684C63.1366 44.983 63.0954 45.3188 63.0954 45.6915C63.0954 46.0772 63.1387 46.4217 63.2254 46.725C63.3121 47.024 63.4356 47.2775 63.5959 47.4855C63.7562 47.6892 63.9512 47.8452 64.1809 47.9535C64.4106 48.0575 64.6662 48.1095 64.9479 48.1095C65.2209 48.1095 65.4462 48.077 65.6239 48.012C65.8016 47.9427 65.9489 47.869 66.0659 47.791C66.1829 47.713 66.2804 47.6415 66.3584 47.5765C66.4364 47.5072 66.5166 47.4725 66.5989 47.4725C66.7029 47.4725 66.7831 47.5115 66.8394 47.5895L67.2034 48.0575C67.0517 48.2438 66.8806 48.402 66.6899 48.532C66.5036 48.662 66.3042 48.7682 66.0919 48.8505C65.8796 48.9328 65.6564 48.9935 65.4224 49.0325C65.1927 49.0715 64.9587 49.091 64.7204 49.091C64.3087 49.091 63.9231 49.0152 63.5634 48.8635C63.2081 48.7118 62.8982 48.4908 62.6339 48.2005C62.3739 47.9102 62.1681 47.5548 62.0164 47.1345C61.8647 46.7098 61.7889 46.2288 61.7889 45.6915C61.7889 45.2018 61.8561 44.749 61.9904 44.333C62.1291 43.917 62.3306 43.5595 62.5949 43.2605C62.8636 42.9572 63.1929 42.721 63.5829 42.552C63.9729 42.3787 64.4192 42.292 64.9219 42.292C65.3942 42.292 65.8102 42.3678 66.1699 42.5195C66.5296 42.6712 66.8502 42.8857 67.1319 43.163L66.7939 43.631ZM70.4536 49.104C69.9206 49.104 69.5089 48.9545 69.2186 48.6555C68.9326 48.3565 68.7896 47.9297 68.7896 47.375V43.423H68.0226C67.9489 43.423 67.8861 43.4013 67.8341 43.358C67.7864 43.3103 67.7626 43.241 67.7626 43.15V42.6365L68.8351 42.487L69.1211 40.5175C69.1384 40.4438 69.1709 40.3875 69.2186 40.3485C69.2706 40.3052 69.3356 40.2835 69.4136 40.2835H70.0571V42.5H71.9291V43.423H70.0571V47.2905C70.0571 47.5505 70.1199 47.7455 70.2456 47.8755C70.3756 48.0012 70.5403 48.064 70.7396 48.064C70.8566 48.064 70.9563 48.0488 71.0386 48.0185C71.1253 47.9882 71.1989 47.9557 71.2596 47.921C71.3203 47.882 71.3723 47.8473 71.4156 47.817C71.4589 47.7867 71.4979 47.7715 71.5326 47.7715C71.5759 47.7715 71.6084 47.7823 71.6301 47.804C71.6561 47.8213 71.6821 47.8517 71.7081 47.895L72.0851 48.506C71.8771 48.6967 71.6301 48.844 71.3441 48.948C71.0581 49.052 70.7613 49.104 70.4536 49.104ZM76.9901 43.5335C76.9554 43.5898 76.9186 43.631 76.8796 43.657C76.8406 43.6787 76.7907 43.6895 76.7301 43.6895C76.6607 43.6895 76.5827 43.6657 76.4961 43.618C76.4137 43.5703 76.3119 43.5183 76.1906 43.462C76.0736 43.4057 75.9349 43.3537 75.7746 43.306C75.6142 43.2583 75.4236 43.2345 75.2026 43.2345C75.0206 43.2345 74.8537 43.2583 74.7021 43.306C74.5547 43.3493 74.4291 43.4122 74.3251 43.4945C74.2211 43.5725 74.1409 43.6678 74.0846 43.7805C74.0282 43.8888 74.0001 44.0058 74.0001 44.1315C74.0001 44.2962 74.0477 44.4327 74.1431 44.541C74.2427 44.6493 74.3706 44.7425 74.5266 44.8205C74.6869 44.8985 74.8667 44.97 75.0661 45.035C75.2697 45.0957 75.4756 45.1607 75.6836 45.23C75.8959 45.2993 76.1017 45.3795 76.3011 45.4705C76.5047 45.5572 76.6846 45.6677 76.8406 45.802C77.0009 45.932 77.1287 46.0902 77.2241 46.2765C77.3237 46.4628 77.3736 46.6903 77.3736 46.959C77.3736 47.2667 77.3172 47.5527 77.2046 47.817C77.0962 48.077 76.9337 48.3023 76.7171 48.493C76.5047 48.6837 76.2404 48.8332 75.9241 48.9415C75.6077 49.0498 75.2459 49.104 74.8386 49.104C74.3836 49.104 73.9632 49.0282 73.5776 48.8765C73.1919 48.7248 72.8691 48.532 72.6091 48.298L72.9081 47.8105C72.9427 47.7498 72.9861 47.7043 73.0381 47.674C73.0901 47.6393 73.1594 47.622 73.2461 47.622C73.3284 47.622 73.4129 47.6523 73.4996 47.713C73.5862 47.7737 73.6902 47.8408 73.8116 47.9145C73.9329 47.9838 74.0802 48.0488 74.2536 48.1095C74.4269 48.1658 74.6436 48.194 74.9036 48.194C75.1202 48.194 75.3087 48.168 75.4691 48.116C75.6294 48.0597 75.7616 47.986 75.8656 47.895C75.9739 47.7997 76.0541 47.6913 76.1061 47.57C76.1581 47.4487 76.1841 47.3208 76.1841 47.1865C76.1841 47.0132 76.1342 46.8702 76.0346 46.7575C75.9392 46.6405 75.8114 46.5408 75.6511 46.4585C75.4951 46.3762 75.3152 46.3047 75.1116 46.244C74.9079 46.1833 74.6999 46.1183 74.4876 46.049C74.2752 45.9797 74.0672 45.8995 73.8636 45.8085C73.6599 45.7175 73.4779 45.6027 73.3176 45.464C73.1616 45.3253 73.0337 45.1563 72.9341 44.957C72.8387 44.7577 72.7911 44.515 72.7911 44.229C72.7911 43.9733 72.8431 43.7285 72.9471 43.4945C73.0554 43.2605 73.2092 43.0547 73.4086 42.877C73.6122 42.6993 73.8614 42.5585 74.1561 42.4545C74.4551 42.3462 74.7952 42.292 75.1766 42.292C75.6142 42.292 76.0086 42.3613 76.3596 42.5C76.7149 42.6387 77.0182 42.8293 77.2696 43.072L76.9901 43.5335ZM85.5831 46.0685C85.0674 46.0858 84.6297 46.127 84.2701 46.192C83.9104 46.2527 83.6179 46.335 83.3926 46.439C83.1672 46.543 83.0047 46.6665 82.9051 46.8095C82.8054 46.9482 82.7556 47.1042 82.7556 47.2775C82.7556 47.4422 82.7816 47.5852 82.8336 47.7065C82.8899 47.8235 82.9636 47.921 83.0546 47.999C83.1499 48.0727 83.2604 48.1268 83.3861 48.1615C83.5117 48.1962 83.6482 48.2135 83.7956 48.2135C83.9906 48.2135 84.1682 48.194 84.3286 48.155C84.4932 48.116 84.6471 48.0618 84.7901 47.9925C84.9331 47.9188 85.0696 47.83 85.1996 47.726C85.3296 47.622 85.4574 47.5028 85.5831 47.3685V46.0685ZM81.8651 43.319C82.2334 42.968 82.6321 42.7058 83.0611 42.5325C83.4944 42.3592 83.9689 42.2725 84.4846 42.2725C84.8616 42.2725 85.1952 42.3353 85.4856 42.461C85.7759 42.5823 86.0207 42.7535 86.2201 42.9745C86.4194 43.1955 86.5689 43.4598 86.6686 43.7675C86.7726 44.0752 86.8246 44.4153 86.8246 44.788V49H86.2591C86.1334 49 86.0381 48.9805 85.9731 48.9415C85.9081 48.8982 85.8561 48.8202 85.8171 48.7075L85.6806 48.129C85.5116 48.285 85.3447 48.4237 85.1801 48.545C85.0154 48.662 84.8421 48.7638 84.6601 48.8505C84.4824 48.9328 84.2917 48.9957 84.0881 49.039C83.8844 49.0823 83.6591 49.104 83.4121 49.104C83.1521 49.104 82.9072 49.0693 82.6776 49C82.4522 48.9263 82.2551 48.8158 82.0861 48.6685C81.9171 48.5212 81.7827 48.337 81.6831 48.116C81.5877 47.895 81.5401 47.6372 81.5401 47.3425C81.5401 47.0825 81.6094 46.8333 81.7481 46.595C81.8911 46.3523 82.1207 46.1357 82.4371 45.945C82.7577 45.7543 83.1737 45.5983 83.6851 45.477C84.2007 45.3557 84.8334 45.2863 85.5831 45.269V44.788C85.5831 44.2897 85.4769 43.917 85.2646 43.67C85.0522 43.423 84.7402 43.2995 84.3286 43.2995C84.0512 43.2995 83.8172 43.3342 83.6266 43.4035C83.4402 43.4728 83.2777 43.5508 83.1391 43.6375C83.0047 43.7198 82.8856 43.7957 82.7816 43.865C82.6819 43.9343 82.5779 43.969 82.4696 43.969C82.3829 43.969 82.3071 43.9452 82.2421 43.8975C82.1814 43.8498 82.1316 43.7935 82.0926 43.7285L81.8651 43.319ZM89.7109 43.3125C89.8539 43.1608 90.0034 43.0222 90.1594 42.8965C90.3154 42.7708 90.48 42.6647 90.6534 42.578C90.831 42.487 91.0195 42.4177 91.2189 42.37C91.4225 42.318 91.6392 42.292 91.8689 42.292C92.2329 42.292 92.5514 42.3527 92.8244 42.474C93.1017 42.5953 93.3335 42.7665 93.5199 42.9875C93.7062 43.2042 93.847 43.4663 93.9424 43.774C94.0377 44.0817 94.0854 44.4218 94.0854 44.7945V49H92.8114V44.7945C92.8114 44.3222 92.703 43.956 92.4864 43.696C92.2697 43.4317 91.9382 43.2995 91.4919 43.2995C91.1669 43.2995 90.8614 43.3775 90.5754 43.5335C90.2937 43.6852 90.0315 43.8932 89.7889 44.1575V49H88.5214V42.396H89.2819C89.4595 42.396 89.57 42.4805 89.6134 42.6495L89.7109 43.3125ZM100.053 43.995C99.8453 43.722 99.6199 43.5313 99.3773 43.423C99.1389 43.3147 98.8703 43.2605 98.5713 43.2605C97.9906 43.2605 97.5399 43.4707 97.2193 43.891C96.9029 44.307 96.7448 44.9158 96.7448 45.7175C96.7448 46.1378 96.7794 46.4975 96.8488 46.7965C96.9224 47.0912 97.0264 47.3338 97.1608 47.5245C97.2994 47.7108 97.4684 47.8495 97.6678 47.9405C97.8671 48.0272 98.0924 48.0705 98.3438 48.0705C98.7121 48.0705 99.0306 47.9882 99.2993 47.8235C99.5679 47.6588 99.8193 47.427 100.053 47.128V43.995ZM101.327 39.406V49H100.56C100.383 49 100.272 48.9155 100.229 48.7465L100.118 47.986C99.8366 48.3197 99.5159 48.5883 99.1563 48.792C98.8009 48.9913 98.3893 49.091 97.9213 49.091C97.5443 49.091 97.2019 49.0173 96.8943 48.87C96.5909 48.7227 96.3309 48.5082 96.1143 48.2265C95.8976 47.9405 95.7308 47.5873 95.6138 47.167C95.4968 46.7467 95.4383 46.2635 95.4383 45.7175C95.4383 45.2278 95.5033 44.7728 95.6333 44.3525C95.7633 43.9322 95.9518 43.5682 96.1988 43.2605C96.4458 42.9528 96.7448 42.7123 97.0958 42.539C97.4468 42.3613 97.8433 42.2725 98.2853 42.2725C98.6839 42.2725 99.0219 42.3375 99.2993 42.4675C99.5809 42.5975 99.8323 42.7817 100.053 43.02V39.406H101.327ZM108.704 45.7045C108.929 45.7045 109.127 45.6742 109.296 45.6135C109.469 45.5528 109.612 45.4683 109.725 45.36C109.842 45.2473 109.928 45.113 109.985 44.957C110.045 44.801 110.076 44.6298 110.076 44.4435C110.076 44.0622 109.959 43.7588 109.725 43.5335C109.495 43.3038 109.155 43.189 108.704 43.189C108.258 43.189 107.918 43.3038 107.684 43.5335C107.454 43.7588 107.339 44.0622 107.339 44.4435C107.339 44.6298 107.367 44.801 107.424 44.957C107.484 45.1087 107.571 45.2408 107.684 45.3535C107.801 45.4618 107.944 45.5485 108.113 45.6135C108.286 45.6742 108.483 45.7045 108.704 45.7045ZM110.726 49.3445C110.726 49.1885 110.682 49.065 110.596 48.974C110.509 48.8787 110.39 48.805 110.238 48.753C110.091 48.6967 109.917 48.6577 109.718 48.636C109.519 48.61 109.309 48.5905 109.088 48.5775C108.871 48.5645 108.648 48.5537 108.418 48.545C108.188 48.532 107.967 48.5103 107.755 48.48C107.53 48.5927 107.343 48.7292 107.196 48.8895C107.053 49.0498 106.982 49.2383 106.982 49.455C106.982 49.5937 107.016 49.7237 107.086 49.845C107.159 49.9663 107.27 50.0703 107.417 50.157C107.569 50.248 107.757 50.3173 107.983 50.365C108.212 50.417 108.485 50.443 108.802 50.443C109.114 50.443 109.389 50.4148 109.627 50.3585C109.865 50.3065 110.065 50.2307 110.225 50.131C110.39 50.0357 110.513 49.9208 110.596 49.7865C110.682 49.6522 110.726 49.5048 110.726 49.3445ZM112.013 42.643V43.1175C112.013 43.2735 111.915 43.371 111.72 43.41L111.012 43.514C111.072 43.6483 111.12 43.7913 111.155 43.943C111.189 44.0903 111.207 44.2463 111.207 44.411C111.207 44.736 111.144 45.0307 111.018 45.295C110.892 45.555 110.719 45.7782 110.498 45.9645C110.277 46.1508 110.013 46.2938 109.705 46.3935C109.402 46.4932 109.068 46.543 108.704 46.543C108.405 46.543 108.126 46.5105 107.866 46.4455C107.736 46.5235 107.636 46.6102 107.567 46.7055C107.502 46.7965 107.469 46.8875 107.469 46.9785C107.469 47.1302 107.532 47.2428 107.658 47.3165C107.788 47.3902 107.954 47.4443 108.158 47.479C108.366 47.5093 108.602 47.5288 108.867 47.5375C109.135 47.5462 109.406 47.5613 109.679 47.583C109.956 47.6003 110.227 47.635 110.492 47.687C110.76 47.7347 110.996 47.8148 111.2 47.9275C111.408 48.0358 111.575 48.1875 111.701 48.3825C111.831 48.5732 111.896 48.8223 111.896 49.13C111.896 49.416 111.824 49.6933 111.681 49.962C111.542 50.2307 111.339 50.469 111.07 50.677C110.801 50.885 110.474 51.0518 110.089 51.1775C109.703 51.3032 109.265 51.366 108.776 51.366C108.286 51.366 107.859 51.3183 107.495 51.223C107.135 51.1277 106.834 50.9998 106.592 50.8395C106.353 50.6792 106.173 50.4928 106.052 50.2805C105.935 50.0682 105.877 49.8472 105.877 49.6175C105.877 49.2968 105.976 49.026 106.176 48.805C106.375 48.5797 106.65 48.4042 107.001 48.2785C106.81 48.1918 106.659 48.0748 106.546 47.9275C106.433 47.7758 106.377 47.5765 106.377 47.3295C106.377 47.2342 106.394 47.1367 106.429 47.037C106.464 46.933 106.516 46.8312 106.585 46.7315C106.659 46.6275 106.748 46.53 106.852 46.439C106.96 46.348 107.083 46.2657 107.222 46.192C106.897 46.01 106.641 45.7695 106.455 45.4705C106.269 45.1672 106.176 44.814 106.176 44.411C106.176 44.086 106.238 43.7935 106.364 43.5335C106.49 43.2735 106.663 43.0503 106.884 42.864C107.109 42.6777 107.376 42.5347 107.684 42.435C107.996 42.3353 108.336 42.2855 108.704 42.2855C109.276 42.2855 109.768 42.4047 110.18 42.643H112.013ZM117.449 44.9635C117.449 44.7122 117.412 44.4803 117.338 44.268C117.269 44.0557 117.165 43.8715 117.026 43.7155C116.887 43.5595 116.718 43.4382 116.519 43.3515C116.32 43.2648 116.09 43.2215 115.83 43.2215C115.297 43.2215 114.877 43.3753 114.569 43.683C114.266 43.9907 114.073 44.4175 113.991 44.9635H117.449ZM118.495 48.0575C118.339 48.2395 118.159 48.3977 117.956 48.532C117.752 48.662 117.535 48.7682 117.306 48.8505C117.076 48.9328 116.838 48.9935 116.591 49.0325C116.348 49.0715 116.107 49.091 115.869 49.091C115.414 49.091 114.992 49.0152 114.602 48.8635C114.216 48.7075 113.88 48.4822 113.594 48.1875C113.312 47.8885 113.091 47.5202 112.931 47.0825C112.775 46.6405 112.697 46.1335 112.697 45.5615C112.697 45.1022 112.769 44.6753 112.912 44.281C113.055 43.8823 113.258 43.5357 113.523 43.241C113.791 42.9463 114.118 42.7145 114.504 42.5455C114.89 42.3765 115.323 42.292 115.804 42.292C116.207 42.292 116.578 42.3592 116.916 42.4935C117.258 42.6235 117.553 42.8142 117.8 43.0655C118.047 43.3168 118.239 43.6267 118.378 43.995C118.521 44.3633 118.593 44.7837 118.593 45.256C118.593 45.451 118.571 45.5832 118.528 45.6525C118.484 45.7175 118.404 45.75 118.287 45.75H113.958C113.971 46.1443 114.027 46.4888 114.127 46.7835C114.227 47.0738 114.363 47.3165 114.537 47.5115C114.714 47.7065 114.924 47.8517 115.167 47.947C115.41 48.0423 115.681 48.09 115.98 48.09C116.261 48.09 116.504 48.0575 116.708 47.9925C116.916 47.9275 117.093 47.8582 117.241 47.7845C117.392 47.7065 117.518 47.635 117.618 47.57C117.722 47.505 117.813 47.4725 117.891 47.4725C117.995 47.4725 118.075 47.5115 118.131 47.5895L118.495 48.0575ZM121.971 49.104C121.438 49.104 121.027 48.9545 120.736 48.6555C120.45 48.3565 120.307 47.9297 120.307 47.375V43.423H119.54C119.467 43.423 119.404 43.4013 119.352 43.358C119.304 43.3103 119.28 43.241 119.28 43.15V42.6365L120.353 42.487L120.639 40.5175C120.656 40.4438 120.689 40.3875 120.736 40.3485C120.788 40.3052 120.853 40.2835 120.931 40.2835H121.575V42.5H123.447V43.423H121.575V47.2905C121.575 47.5505 121.638 47.7455 121.763 47.8755C121.893 48.0012 122.058 48.064 122.257 48.064C122.374 48.064 122.474 48.0488 122.556 48.0185C122.643 47.9882 122.717 47.9557 122.777 47.921C122.838 47.882 122.89 47.8473 122.933 47.817C122.977 47.7867 123.016 47.7715 123.05 47.7715C123.094 47.7715 123.126 47.7823 123.148 47.804C123.174 47.8213 123.2 47.8517 123.226 47.895L123.603 48.506C123.395 48.6967 123.148 48.844 122.862 48.948C122.576 49.052 122.279 49.104 121.971 49.104ZM133.344 42.396L129.678 50.9175C129.639 51.0128 129.587 51.0865 129.522 51.1385C129.457 51.1905 129.362 51.2165 129.236 51.2165H128.294L129.503 48.584L126.792 42.396H127.897C128.005 42.396 128.09 42.422 128.151 42.474C128.211 42.526 128.255 42.5845 128.281 42.6495L129.958 46.6145C129.992 46.7142 130.025 46.816 130.055 46.92C130.09 47.0197 130.118 47.1193 130.14 47.219C130.17 47.115 130.202 47.0132 130.237 46.9135C130.272 46.8095 130.309 46.7077 130.348 46.608L131.966 42.6495C131.996 42.5758 132.044 42.5152 132.109 42.4675C132.174 42.4198 132.248 42.396 132.33 42.396H133.344ZM136.937 42.292C137.423 42.292 137.86 42.3722 138.25 42.5325C138.645 42.6885 138.978 42.916 139.251 43.215C139.529 43.5097 139.741 43.8672 139.888 44.2875C140.036 44.7035 140.109 45.1715 140.109 45.6915C140.109 46.2115 140.036 46.6817 139.888 47.102C139.741 47.5223 139.529 47.8798 139.251 48.1745C138.978 48.4692 138.645 48.6967 138.25 48.857C137.86 49.013 137.423 49.091 136.937 49.091C136.448 49.091 136.006 49.013 135.611 48.857C135.221 48.6967 134.888 48.4692 134.61 48.1745C134.333 47.8798 134.119 47.5223 133.967 47.102C133.82 46.6817 133.746 46.2115 133.746 45.6915C133.746 45.1715 133.82 44.7035 133.967 44.2875C134.119 43.8672 134.333 43.5097 134.61 43.215C134.888 42.916 135.221 42.6885 135.611 42.5325C136.006 42.3722 136.448 42.292 136.937 42.292ZM136.937 48.103C137.561 48.103 138.027 47.8928 138.335 47.4725C138.643 47.0522 138.796 46.4607 138.796 45.698C138.796 44.9353 138.643 44.3438 138.335 43.9235C138.027 43.4988 137.561 43.2865 136.937 43.2865C136.305 43.2865 135.832 43.4988 135.52 43.9235C135.213 44.3438 135.059 44.9353 135.059 45.698C135.059 46.4607 135.213 47.0522 135.52 47.4725C135.832 47.8928 136.305 48.103 136.937 48.103ZM147.017 42.396V49H146.256C146.083 49 145.97 48.9155 145.918 48.7465L145.827 48.0835C145.684 48.2352 145.535 48.3738 145.379 48.4995C145.223 48.6252 145.056 48.7335 144.878 48.8245C144.701 48.9112 144.512 48.9783 144.313 49.026C144.113 49.078 143.899 49.104 143.669 49.104C143.305 49.104 142.985 49.0433 142.707 48.922C142.434 48.8007 142.205 48.6317 142.018 48.415C141.832 48.194 141.691 47.9297 141.596 47.622C141.5 47.3143 141.453 46.9742 141.453 46.6015V42.396H142.727V46.6015C142.727 47.0738 142.835 47.4422 143.052 47.7065C143.268 47.9665 143.6 48.0965 144.046 48.0965C144.371 48.0965 144.675 48.0207 144.956 47.869C145.238 47.713 145.502 47.5007 145.749 47.232V42.396H147.017ZM149.982 43.6635C150.194 43.2302 150.45 42.89 150.749 42.643C151.048 42.396 151.408 42.2725 151.828 42.2725C151.971 42.2725 152.105 42.2898 152.231 42.3245C152.361 42.3548 152.474 42.4025 152.569 42.4675L152.485 43.423C152.454 43.54 152.383 43.5985 152.27 43.5985C152.209 43.5985 152.118 43.5877 151.997 43.566C151.876 43.54 151.746 43.527 151.607 43.527C151.403 43.527 151.224 43.5573 151.068 43.618C150.912 43.6743 150.771 43.761 150.645 43.878C150.524 43.9907 150.415 44.1315 150.32 44.3005C150.225 44.4652 150.136 44.6537 150.054 44.866V49H148.786V42.396H149.514C149.653 42.396 149.746 42.422 149.794 42.474C149.846 42.5217 149.882 42.6083 149.904 42.734L149.982 43.6635ZM157.752 43.6635C157.964 43.2302 158.22 42.89 158.519 42.643C158.818 42.396 159.177 42.2725 159.598 42.2725C159.741 42.2725 159.875 42.2898 160.001 42.3245C160.131 42.3548 160.243 42.4025 160.339 42.4675L160.254 43.423C160.224 43.54 160.152 43.5985 160.04 43.5985C159.979 43.5985 159.888 43.5877 159.767 43.566C159.645 43.54 159.515 43.527 159.377 43.527C159.173 43.527 158.993 43.5573 158.837 43.618C158.681 43.6743 158.54 43.761 158.415 43.878C158.293 43.9907 158.185 44.1315 158.09 44.3005C157.994 44.4652 157.905 44.6537 157.823 44.866V49H156.556V42.396H157.284C157.422 42.396 157.515 42.422 157.563 42.474C157.615 42.5217 157.652 42.6083 157.674 42.734L157.752 43.6635ZM165.45 44.9635C165.45 44.7122 165.413 44.4803 165.339 44.268C165.27 44.0557 165.166 43.8715 165.027 43.7155C164.888 43.5595 164.719 43.4382 164.52 43.3515C164.321 43.2648 164.091 43.2215 163.831 43.2215C163.298 43.2215 162.878 43.3753 162.57 43.683C162.267 43.9907 162.074 44.4175 161.992 44.9635H165.45ZM166.496 48.0575C166.34 48.2395 166.16 48.3977 165.957 48.532C165.753 48.662 165.536 48.7682 165.307 48.8505C165.077 48.9328 164.839 48.9935 164.592 49.0325C164.349 49.0715 164.108 49.091 163.87 49.091C163.415 49.091 162.993 49.0152 162.603 48.8635C162.217 48.7075 161.881 48.4822 161.595 48.1875C161.313 47.8885 161.092 47.5202 160.932 47.0825C160.776 46.6405 160.698 46.1335 160.698 45.5615C160.698 45.1022 160.77 44.6753 160.913 44.281C161.056 43.8823 161.259 43.5357 161.524 43.241C161.792 42.9463 162.119 42.7145 162.505 42.5455C162.891 42.3765 163.324 42.292 163.805 42.292C164.208 42.292 164.579 42.3592 164.917 42.4935C165.259 42.6235 165.554 42.8142 165.801 43.0655C166.048 43.3168 166.24 43.6267 166.379 43.995C166.522 44.3633 166.594 44.7837 166.594 45.256C166.594 45.451 166.572 45.5832 166.529 45.6525C166.485 45.7175 166.405 45.75 166.288 45.75H161.959C161.972 46.1443 162.028 46.4888 162.128 46.7835C162.228 47.0738 162.364 47.3165 162.538 47.5115C162.715 47.7065 162.925 47.8517 163.168 47.947C163.411 48.0423 163.682 48.09 163.981 48.09C164.262 48.09 164.505 48.0575 164.709 47.9925C164.917 47.9275 165.094 47.8582 165.242 47.7845C165.393 47.7065 165.519 47.635 165.619 47.57C165.723 47.505 165.814 47.4725 165.892 47.4725C165.996 47.4725 166.076 47.5115 166.132 47.5895L166.496 48.0575ZM172.213 43.995C172.018 43.7307 171.795 43.5422 171.544 43.4295C171.297 43.3168 171.026 43.2605 170.731 43.2605C170.151 43.2605 169.7 43.4707 169.379 43.891C169.063 44.307 168.905 44.9158 168.905 45.7175C168.905 46.1378 168.94 46.4975 169.009 46.7965C169.083 47.0912 169.187 47.3338 169.321 47.5245C169.46 47.7108 169.629 47.8495 169.828 47.9405C170.027 48.0272 170.253 48.0705 170.504 48.0705C170.872 48.0705 171.191 47.9882 171.459 47.8235C171.728 47.6588 171.979 47.427 172.213 47.128V43.995ZM173.487 42.396V51.2165H172.213V48.0575C171.94 48.3695 171.631 48.6208 171.284 48.8115C170.937 48.9978 170.536 49.091 170.081 49.091C169.704 49.091 169.362 49.0173 169.054 48.87C168.751 48.7227 168.491 48.5082 168.274 48.2265C168.058 47.9405 167.891 47.5873 167.774 47.167C167.657 46.7467 167.598 46.2635 167.598 45.7175C167.598 45.2278 167.663 44.7728 167.793 44.3525C167.923 43.9322 168.112 43.5682 168.359 43.2605C168.606 42.9528 168.905 42.7123 169.256 42.539C169.607 42.3613 170.003 42.2725 170.445 42.2725C170.658 42.2725 170.853 42.292 171.03 42.331C171.208 42.37 171.373 42.4263 171.524 42.5C171.676 42.5737 171.815 42.6625 171.94 42.7665C172.07 42.8705 172.192 42.9897 172.304 43.124L172.389 42.6495C172.432 42.4805 172.543 42.396 172.72 42.396H173.487ZM180.748 42.396V49H179.988C179.814 49 179.702 48.9155 179.65 48.7465L179.559 48.0835C179.416 48.2352 179.266 48.3738 179.11 48.4995C178.954 48.6252 178.787 48.7335 178.61 48.8245C178.432 48.9112 178.244 48.9783 178.044 49.026C177.845 49.078 177.63 49.104 177.401 49.104C177.037 49.104 176.716 49.0433 176.439 48.922C176.166 48.8007 175.936 48.6317 175.75 48.415C175.563 48.194 175.423 47.9297 175.327 47.622C175.232 47.3143 175.184 46.9742 175.184 46.6015V42.396H176.458V46.6015C176.458 47.0738 176.567 47.4422 176.783 47.7065C177 47.9665 177.331 48.0965 177.778 48.0965C178.103 48.0965 178.406 48.0207 178.688 47.869C178.969 47.713 179.234 47.5007 179.481 47.232V42.396H180.748ZM183.843 42.396V49H182.576V42.396H183.843ZM184.084 40.355C184.084 40.472 184.06 40.5847 184.012 40.693C183.965 40.797 183.9 40.8902 183.817 40.9725C183.739 41.0505 183.646 41.1133 183.538 41.161C183.43 41.2043 183.317 41.226 183.2 41.226C183.083 41.226 182.972 41.2043 182.868 41.161C182.764 41.1133 182.671 41.0505 182.589 40.9725C182.511 40.8902 182.448 40.797 182.4 40.693C182.357 40.5847 182.335 40.472 182.335 40.355C182.335 40.2337 182.357 40.121 182.4 40.017C182.448 39.9087 182.511 39.8155 182.589 39.7375C182.671 39.6552 182.764 39.5923 182.868 39.549C182.972 39.5013 183.083 39.4775 183.2 39.4775C183.317 39.4775 183.43 39.5013 183.538 39.549C183.646 39.5923 183.739 39.6552 183.817 39.7375C183.9 39.8155 183.965 39.9087 184.012 40.017C184.06 40.121 184.084 40.2337 184.084 40.355ZM186.875 43.6635C187.087 43.2302 187.343 42.89 187.642 42.643C187.941 42.396 188.3 42.2725 188.721 42.2725C188.864 42.2725 188.998 42.2898 189.124 42.3245C189.254 42.3548 189.366 42.4025 189.462 42.4675L189.377 43.423C189.347 43.54 189.275 43.5985 189.163 43.5985C189.102 43.5985 189.011 43.5877 188.89 43.566C188.768 43.54 188.638 43.527 188.5 43.527C188.296 43.527 188.116 43.5573 187.96 43.618C187.804 43.6743 187.663 43.761 187.538 43.878C187.416 43.9907 187.308 44.1315 187.213 44.3005C187.117 44.4652 187.028 44.6537 186.946 44.866V49H185.679V42.396H186.407C186.545 42.396 186.638 42.422 186.686 42.474C186.738 42.5217 186.775 42.6083 186.797 42.734L186.875 43.6635ZM194.573 44.9635C194.573 44.7122 194.536 44.4803 194.462 44.268C194.393 44.0557 194.289 43.8715 194.15 43.7155C194.011 43.5595 193.842 43.4382 193.643 43.3515C193.444 43.2648 193.214 43.2215 192.954 43.2215C192.421 43.2215 192.001 43.3753 191.693 43.683C191.39 43.9907 191.197 44.4175 191.115 44.9635H194.573ZM195.619 48.0575C195.463 48.2395 195.283 48.3977 195.08 48.532C194.876 48.662 194.659 48.7682 194.43 48.8505C194.2 48.9328 193.962 48.9935 193.715 49.0325C193.472 49.0715 193.231 49.091 192.993 49.091C192.538 49.091 192.116 49.0152 191.726 48.8635C191.34 48.7075 191.004 48.4822 190.718 48.1875C190.436 47.8885 190.215 47.5202 190.055 47.0825C189.899 46.6405 189.821 46.1335 189.821 45.5615C189.821 45.1022 189.893 44.6753 190.036 44.281C190.179 43.8823 190.382 43.5357 190.647 43.241C190.915 42.9463 191.242 42.7145 191.628 42.5455C192.014 42.3765 192.447 42.292 192.928 42.292C193.331 42.292 193.702 42.3592 194.04 42.4935C194.382 42.6235 194.677 42.8142 194.924 43.0655C195.171 43.3168 195.363 43.6267 195.502 43.995C195.645 44.3633 195.717 44.7837 195.717 45.256C195.717 45.451 195.695 45.5832 195.652 45.6525C195.608 45.7175 195.528 45.75 195.411 45.75H191.082C191.095 46.1443 191.151 46.4888 191.251 46.7835C191.351 47.0738 191.487 47.3165 191.661 47.5115C191.838 47.7065 192.048 47.8517 192.291 47.947C192.534 48.0423 192.805 48.09 193.104 48.09C193.385 48.09 193.628 48.0575 193.832 47.9925C194.04 47.9275 194.217 47.8582 194.365 47.7845C194.516 47.7065 194.642 47.635 194.742 47.57C194.846 47.505 194.937 47.4725 195.015 47.4725C195.119 47.4725 195.199 47.5115 195.255 47.5895L195.619 48.0575ZM201.336 43.995C201.128 43.722 200.903 43.5313 200.66 43.423C200.422 43.3147 200.153 43.2605 199.854 43.2605C199.274 43.2605 198.823 43.4707 198.502 43.891C198.186 44.307 198.028 44.9158 198.028 45.7175C198.028 46.1378 198.063 46.4975 198.132 46.7965C198.206 47.0912 198.31 47.3338 198.444 47.5245C198.583 47.7108 198.752 47.8495 198.951 47.9405C199.15 48.0272 199.376 48.0705 199.627 48.0705C199.995 48.0705 200.314 47.9882 200.582 47.8235C200.851 47.6588 201.102 47.427 201.336 47.128V43.995ZM202.61 39.406V49H201.843C201.666 49 201.555 48.9155 201.512 48.7465L201.401 47.986C201.12 48.3197 200.799 48.5883 200.439 48.792C200.084 48.9913 199.672 49.091 199.204 49.091C198.827 49.091 198.485 49.0173 198.177 48.87C197.874 48.7227 197.614 48.5082 197.397 48.2265C197.181 47.9405 197.014 47.5873 196.897 47.167C196.78 46.7467 196.721 46.2635 196.721 45.7175C196.721 45.2278 196.786 44.7728 196.916 44.3525C197.046 43.9322 197.235 43.5682 197.482 43.2605C197.729 42.9528 198.028 42.7123 198.379 42.539C198.73 42.3613 199.126 42.2725 199.568 42.2725C199.967 42.2725 200.305 42.3375 200.582 42.4675C200.864 42.5975 201.115 42.7817 201.336 43.02V39.406H202.61ZM208.863 43.6635C209.075 43.2302 209.331 42.89 209.63 42.643C209.929 42.396 210.289 42.2725 210.709 42.2725C210.852 42.2725 210.986 42.2898 211.112 42.3245C211.242 42.3548 211.355 42.4025 211.45 42.4675L211.365 43.423C211.335 43.54 211.264 43.5985 211.151 43.5985C211.09 43.5985 210.999 43.5877 210.878 43.566C210.757 43.54 210.627 43.527 210.488 43.527C210.284 43.527 210.104 43.5573 209.948 43.618C209.792 43.6743 209.652 43.761 209.526 43.878C209.405 43.9907 209.296 44.1315 209.201 44.3005C209.106 44.4652 209.017 44.6537 208.934 44.866V49H207.667V42.396H208.395C208.534 42.396 208.627 42.422 208.674 42.474C208.726 42.5217 208.763 42.6083 208.785 42.734L208.863 43.6635ZM216.561 44.9635C216.561 44.7122 216.524 44.4803 216.45 44.268C216.381 44.0557 216.277 43.8715 216.138 43.7155C216 43.5595 215.831 43.4382 215.631 43.3515C215.432 43.2648 215.202 43.2215 214.942 43.2215C214.409 43.2215 213.989 43.3753 213.681 43.683C213.378 43.9907 213.185 44.4175 213.103 44.9635H216.561ZM217.607 48.0575C217.451 48.2395 217.272 48.3977 217.068 48.532C216.864 48.662 216.648 48.7682 216.418 48.8505C216.188 48.9328 215.95 48.9935 215.703 49.0325C215.46 49.0715 215.22 49.091 214.981 49.091C214.526 49.091 214.104 49.0152 213.714 48.8635C213.328 48.7075 212.992 48.4822 212.706 48.1875C212.425 47.8885 212.204 47.5202 212.043 47.0825C211.887 46.6405 211.809 46.1335 211.809 45.5615C211.809 45.1022 211.881 44.6753 212.024 44.281C212.167 43.8823 212.371 43.5357 212.635 43.241C212.904 42.9463 213.231 42.7145 213.616 42.5455C214.002 42.3765 214.435 42.292 214.916 42.292C215.319 42.292 215.69 42.3592 216.028 42.4935C216.37 42.6235 216.665 42.8142 216.912 43.0655C217.159 43.3168 217.352 43.6267 217.49 43.995C217.633 44.3633 217.705 44.7837 217.705 45.256C217.705 45.451 217.683 45.5832 217.64 45.6525C217.597 45.7175 217.516 45.75 217.399 45.75H213.07C213.083 46.1443 213.14 46.4888 213.239 46.7835C213.339 47.0738 213.476 47.3165 213.649 47.5115C213.827 47.7065 214.037 47.8517 214.279 47.947C214.522 48.0423 214.793 48.09 215.092 48.09C215.374 48.09 215.616 48.0575 215.82 47.9925C216.028 47.9275 216.206 47.8582 216.353 47.7845C216.505 47.7065 216.63 47.635 216.73 47.57C216.834 47.505 216.925 47.4725 217.003 47.4725C217.107 47.4725 217.187 47.5115 217.243 47.5895L217.607 48.0575ZM222.961 43.5335C222.926 43.5898 222.889 43.631 222.85 43.657C222.811 43.6787 222.761 43.6895 222.701 43.6895C222.631 43.6895 222.553 43.6657 222.467 43.618C222.384 43.5703 222.283 43.5183 222.161 43.462C222.044 43.4057 221.906 43.3537 221.745 43.306C221.585 43.2583 221.394 43.2345 221.173 43.2345C220.991 43.2345 220.824 43.2583 220.673 43.306C220.525 43.3493 220.4 43.4122 220.296 43.4945C220.192 43.5725 220.112 43.6678 220.055 43.7805C219.999 43.8888 219.971 44.0058 219.971 44.1315C219.971 44.2962 220.018 44.4327 220.114 44.541C220.213 44.6493 220.341 44.7425 220.497 44.8205C220.658 44.8985 220.837 44.97 221.037 45.035C221.24 45.0957 221.446 45.1607 221.654 45.23C221.867 45.2993 222.072 45.3795 222.272 45.4705C222.475 45.5572 222.655 45.6677 222.811 45.802C222.972 45.932 223.099 46.0902 223.195 46.2765C223.294 46.4628 223.344 46.6903 223.344 46.959C223.344 47.2667 223.288 47.5527 223.175 47.817C223.067 48.077 222.904 48.3023 222.688 48.493C222.475 48.6837 222.211 48.8332 221.895 48.9415C221.578 49.0498 221.217 49.104 220.809 49.104C220.354 49.104 219.934 49.0282 219.548 48.8765C219.163 48.7248 218.84 48.532 218.58 48.298L218.879 47.8105C218.913 47.7498 218.957 47.7043 219.009 47.674C219.061 47.6393 219.13 47.622 219.217 47.622C219.299 47.622 219.384 47.6523 219.47 47.713C219.557 47.7737 219.661 47.8408 219.782 47.9145C219.904 47.9838 220.051 48.0488 220.224 48.1095C220.398 48.1658 220.614 48.194 220.874 48.194C221.091 48.194 221.279 48.168 221.44 48.116C221.6 48.0597 221.732 47.986 221.836 47.895C221.945 47.7997 222.025 47.6913 222.077 47.57C222.129 47.4487 222.155 47.3208 222.155 47.1865C222.155 47.0132 222.105 46.8702 222.005 46.7575C221.91 46.6405 221.782 46.5408 221.622 46.4585C221.466 46.3762 221.286 46.3047 221.082 46.244C220.879 46.1833 220.671 46.1183 220.458 46.049C220.246 45.9797 220.038 45.8995 219.834 45.8085C219.631 45.7175 219.449 45.6027 219.288 45.464C219.132 45.3253 219.004 45.1563 218.905 44.957C218.809 44.7577 218.762 44.515 218.762 44.229C218.762 43.9733 218.814 43.7285 218.918 43.4945C219.026 43.2605 219.18 43.0547 219.379 42.877C219.583 42.6993 219.832 42.5585 220.127 42.4545C220.426 42.3462 220.766 42.292 221.147 42.292C221.585 42.292 221.979 42.3613 222.33 42.5C222.686 42.6387 222.989 42.8293 223.24 43.072L222.961 43.5335ZM225.984 47.375C226.192 47.648 226.415 47.8387 226.654 47.947C226.896 48.0553 227.167 48.1095 227.466 48.1095C228.047 48.1095 228.495 47.9015 228.812 47.4855C229.132 47.0652 229.293 46.4542 229.293 45.6525C229.293 45.2322 229.256 44.8747 229.182 44.58C229.113 44.281 229.009 44.0383 228.87 43.852C228.736 43.6613 228.569 43.5227 228.37 43.436C228.17 43.345 227.945 43.2995 227.694 43.2995C227.325 43.2995 227.005 43.3818 226.732 43.5465C226.463 43.7112 226.214 43.9452 225.984 44.2485V47.375ZM225.919 43.384C226.058 43.2193 226.205 43.0698 226.361 42.9355C226.522 42.7968 226.693 42.6798 226.875 42.5845C227.057 42.4848 227.25 42.409 227.453 42.357C227.661 42.3007 227.882 42.2725 228.116 42.2725C228.493 42.2725 228.833 42.3462 229.137 42.4935C229.444 42.6408 229.707 42.8575 229.923 43.1435C230.14 43.4295 230.307 43.7827 230.424 44.203C230.545 44.6233 230.606 45.1065 230.606 45.6525C230.606 46.1422 230.539 46.5972 230.404 47.0175C230.274 47.4335 230.086 47.7953 229.839 48.103C229.596 48.4107 229.297 48.6533 228.942 48.831C228.591 49.0043 228.194 49.091 227.752 49.091C227.358 49.091 227.02 49.026 226.738 48.896C226.457 48.766 226.205 48.584 225.984 48.35V51.2165H224.717V42.396H225.477C225.655 42.396 225.765 42.4805 225.809 42.6495L225.919 43.384ZM234.844 42.292C235.329 42.292 235.767 42.3722 236.157 42.5325C236.551 42.6885 236.885 42.916 237.158 43.215C237.435 43.5097 237.647 43.8672 237.795 44.2875C237.942 44.7035 238.016 45.1715 238.016 45.6915C238.016 46.2115 237.942 46.6817 237.795 47.102C237.647 47.5223 237.435 47.8798 237.158 48.1745C236.885 48.4692 236.551 48.6967 236.157 48.857C235.767 49.013 235.329 49.091 234.844 49.091C234.354 49.091 233.912 49.013 233.518 48.857C233.128 48.6967 232.794 48.4692 232.517 48.1745C232.239 47.8798 232.025 47.5223 231.873 47.102C231.726 46.6817 231.652 46.2115 231.652 45.6915C231.652 45.1715 231.726 44.7035 231.873 44.2875C232.025 43.8672 232.239 43.5097 232.517 43.215C232.794 42.916 233.128 42.6885 233.518 42.5325C233.912 42.3722 234.354 42.292 234.844 42.292ZM234.844 48.103C235.468 48.103 235.934 47.8928 236.241 47.4725C236.549 47.0522 236.703 46.4607 236.703 45.698C236.703 44.9353 236.549 44.3438 236.241 43.9235C235.934 43.4988 235.468 43.2865 234.844 43.2865C234.211 43.2865 233.739 43.4988 233.427 43.9235C233.119 44.3438 232.965 44.9353 232.965 45.698C232.965 46.4607 233.119 47.0522 233.427 47.4725C233.739 47.8928 234.211 48.103 234.844 48.103ZM240.62 43.3125C240.763 43.1608 240.913 43.0222 241.069 42.8965C241.225 42.7708 241.389 42.6647 241.563 42.578C241.74 42.487 241.929 42.4177 242.128 42.37C242.332 42.318 242.548 42.292 242.778 42.292C243.142 42.292 243.461 42.3527 243.734 42.474C244.011 42.5953 244.243 42.7665 244.429 42.9875C244.615 43.2042 244.756 43.4663 244.852 43.774C244.947 44.0817 244.995 44.4218 244.995 44.7945V49H243.721V44.7945C243.721 44.3222 243.612 43.956 243.396 43.696C243.179 43.4317 242.847 43.2995 242.401 43.2995C242.076 43.2995 241.771 43.3775 241.485 43.5335C241.203 43.6852 240.941 43.8932 240.698 44.1575V49H239.431V42.396H240.191C240.369 42.396 240.479 42.4805 240.523 42.6495L240.62 43.3125ZM250.598 43.5335C250.564 43.5898 250.527 43.631 250.488 43.657C250.449 43.6787 250.399 43.6895 250.338 43.6895C250.269 43.6895 250.191 43.6657 250.104 43.618C250.022 43.5703 249.92 43.5183 249.799 43.462C249.682 43.4057 249.543 43.3537 249.383 43.306C249.223 43.2583 249.032 43.2345 248.811 43.2345C248.629 43.2345 248.462 43.2583 248.31 43.306C248.163 43.3493 248.037 43.4122 247.933 43.4945C247.829 43.5725 247.749 43.6678 247.693 43.7805C247.637 43.8888 247.608 44.0058 247.608 44.1315C247.608 44.2962 247.656 44.4327 247.751 44.541C247.851 44.6493 247.979 44.7425 248.135 44.8205C248.295 44.8985 248.475 44.97 248.674 45.035C248.878 45.0957 249.084 45.1607 249.292 45.23C249.504 45.2993 249.71 45.3795 249.909 45.4705C250.113 45.5572 250.293 45.6677 250.449 45.802C250.609 45.932 250.737 46.0902 250.832 46.2765C250.932 46.4628 250.982 46.6903 250.982 46.959C250.982 47.2667 250.926 47.5527 250.813 47.817C250.705 48.077 250.542 48.3023 250.325 48.493C250.113 48.6837 249.849 48.8332 249.532 48.9415C249.216 49.0498 248.854 49.104 248.447 49.104C247.992 49.104 247.572 49.0282 247.186 48.8765C246.8 48.7248 246.477 48.532 246.217 48.298L246.516 47.8105C246.551 47.7498 246.594 47.7043 246.646 47.674C246.698 47.6393 246.768 47.622 246.854 47.622C246.937 47.622 247.021 47.6523 247.108 47.713C247.195 47.7737 247.299 47.8408 247.42 47.9145C247.541 47.9838 247.689 48.0488 247.862 48.1095C248.035 48.1658 248.252 48.194 248.512 48.194C248.729 48.194 248.917 48.168 249.077 48.116C249.238 48.0597 249.37 47.986 249.474 47.895C249.582 47.7997 249.662 47.6913 249.714 47.57C249.766 47.4487 249.792 47.3208 249.792 47.1865C249.792 47.0132 249.743 46.8702 249.643 46.7575C249.548 46.6405 249.42 46.5408 249.259 46.4585C249.103 46.3762 248.924 46.3047 248.72 46.244C248.516 46.1833 248.308 46.1183 248.096 46.049C247.884 45.9797 247.676 45.8995 247.472 45.8085C247.268 45.7175 247.086 45.6027 246.926 45.464C246.77 45.3253 246.642 45.1563 246.542 44.957C246.447 44.7577 246.399 44.515 246.399 44.229C246.399 43.9733 246.451 43.7285 246.555 43.4945C246.664 43.2605 246.818 43.0547 247.017 42.877C247.221 42.6993 247.47 42.5585 247.764 42.4545C248.063 42.3462 248.404 42.292 248.785 42.292C249.223 42.292 249.617 42.3613 249.968 42.5C250.323 42.6387 250.627 42.8293 250.878 43.072L250.598 43.5335ZM256.729 44.9635C256.729 44.7122 256.692 44.4803 256.618 44.268C256.549 44.0557 256.445 43.8715 256.306 43.7155C256.168 43.5595 255.999 43.4382 255.799 43.3515C255.6 43.2648 255.37 43.2215 255.11 43.2215C254.577 43.2215 254.157 43.3753 253.849 43.683C253.546 43.9907 253.353 44.4175 253.271 44.9635H256.729ZM257.775 48.0575C257.619 48.2395 257.44 48.3977 257.236 48.532C257.032 48.662 256.816 48.7682 256.586 48.8505C256.356 48.9328 256.118 48.9935 255.871 49.0325C255.628 49.0715 255.388 49.091 255.149 49.091C254.694 49.091 254.272 49.0152 253.882 48.8635C253.496 48.7075 253.16 48.4822 252.874 48.1875C252.593 47.8885 252.372 47.5202 252.211 47.0825C252.055 46.6405 251.977 46.1335 251.977 45.5615C251.977 45.1022 252.049 44.6753 252.192 44.281C252.335 43.8823 252.539 43.5357 252.803 43.241C253.072 42.9463 253.399 42.7145 253.784 42.5455C254.17 42.3765 254.603 42.292 255.084 42.292C255.487 42.292 255.858 42.3592 256.196 42.4935C256.538 42.6235 256.833 42.8142 257.08 43.0655C257.327 43.3168 257.52 43.6267 257.658 43.995C257.801 44.3633 257.873 44.7837 257.873 45.256C257.873 45.451 257.851 45.5832 257.808 45.6525C257.765 45.7175 257.684 45.75 257.567 45.75H253.238C253.251 46.1443 253.308 46.4888 253.407 46.7835C253.507 47.0738 253.644 47.3165 253.817 47.5115C253.995 47.7065 254.205 47.8517 254.447 47.947C254.69 48.0423 254.961 48.09 255.26 48.09C255.542 48.09 255.784 48.0575 255.988 47.9925C256.196 47.9275 256.374 47.8582 256.521 47.7845C256.673 47.7065 256.798 47.635 256.898 47.57C257.002 47.505 257.093 47.4725 257.171 47.4725C257.275 47.4725 257.355 47.5115 257.411 47.5895L257.775 48.0575ZM263.129 43.5335C263.094 43.5898 263.057 43.631 263.018 43.657C262.979 43.6787 262.929 43.6895 262.869 43.6895C262.799 43.6895 262.721 43.6657 262.635 43.618C262.552 43.5703 262.451 43.5183 262.329 43.462C262.212 43.4057 262.074 43.3537 261.913 43.306C261.753 43.2583 261.562 43.2345 261.341 43.2345C261.159 43.2345 260.992 43.2583 260.841 43.306C260.693 43.3493 260.568 43.4122 260.464 43.4945C260.36 43.5725 260.28 43.6678 260.223 43.7805C260.167 43.8888 260.139 44.0058 260.139 44.1315C260.139 44.2962 260.186 44.4327 260.282 44.541C260.381 44.6493 260.509 44.7425 260.665 44.8205C260.826 44.8985 261.005 44.97 261.205 45.035C261.408 45.0957 261.614 45.1607 261.822 45.23C262.035 45.2993 262.24 45.3795 262.44 45.4705C262.643 45.5572 262.823 45.6677 262.979 45.802C263.14 45.932 263.267 46.0902 263.363 46.2765C263.462 46.4628 263.512 46.6903 263.512 46.959C263.512 47.2667 263.456 47.5527 263.343 47.817C263.235 48.077 263.072 48.3023 262.856 48.493C262.643 48.6837 262.379 48.8332 262.063 48.9415C261.746 49.0498 261.385 49.104 260.977 49.104C260.522 49.104 260.102 49.0282 259.716 48.8765C259.331 48.7248 259.008 48.532 258.748 48.298L259.047 47.8105C259.081 47.7498 259.125 47.7043 259.177 47.674C259.229 47.6393 259.298 47.622 259.385 47.622C259.467 47.622 259.552 47.6523 259.638 47.713C259.725 47.7737 259.829 47.8408 259.95 47.9145C260.072 47.9838 260.219 48.0488 260.392 48.1095C260.566 48.1658 260.782 48.194 261.042 48.194C261.259 48.194 261.447 48.168 261.608 48.116C261.768 48.0597 261.9 47.986 262.004 47.895C262.113 47.7997 262.193 47.6913 262.245 47.57C262.297 47.4487 262.323 47.3208 262.323 47.1865C262.323 47.0132 262.273 46.8702 262.173 46.7575C262.078 46.6405 261.95 46.5408 261.79 46.4585C261.634 46.3762 261.454 46.3047 261.25 46.244C261.047 46.1833 260.839 46.1183 260.626 46.049C260.414 45.9797 260.206 45.8995 260.002 45.8085C259.799 45.7175 259.617 45.6027 259.456 45.464C259.3 45.3253 259.172 45.1563 259.073 44.957C258.977 44.7577 258.93 44.515 258.93 44.229C258.93 43.9733 258.982 43.7285 259.086 43.4945C259.194 43.2605 259.348 43.0547 259.547 42.877C259.751 42.6993 260 42.5585 260.295 42.4545C260.594 42.3462 260.934 42.292 261.315 42.292C261.753 42.292 262.147 42.3613 262.498 42.5C262.854 42.6387 263.157 42.8293 263.408 43.072L263.129 43.5335Z" fill="#961B1E"/>
</g>
<defs>
<filter id="filter0_d_446_6335" x="0" y="0" width="353" height="96" filterUnits="userSpaceOnUse" color-interpolation-filters="sRGB">
<feFlood flood-opacity="0" result="BackgroundImageFix"/>
<feColorMatrix in="SourceAlpha" type="matrix" values="0 0 0 0 0 0 0 0 0 0 0 0 0 0 0 0 0 0 127 0" result="hardAlpha"/>
<feOffset dy="12"/>
<feGaussianBlur stdDeviation="12"/>
<feComposite in2="hardAlpha" operator="out"/>
<feColorMatrix type="matrix" values="0 0 0 0 0 0 0 0 0 0 0 0 0 0 0 0 0 0 0.25 0"/>
<feBlend mode="normal" in2="BackgroundImageFix" result="effect1_dropShadow_446_6335"/>
<feBlend mode="normal" in="SourceGraphic" in2="effect1_dropShadow_446_6335" result="shape"/>
</filter>
</defs>
</svg>
