<svg width="19" height="18" viewBox="0 0 19 18" fill="none" xmlns="http://www.w3.org/2000/svg">
<path d="M8.38586 0.690724C8.68521 -0.230587 9.98862 -0.230588 10.288 0.690722L11.8066 5.36448C11.9404 5.77651 12.3244 6.05547 12.7576 6.05547H17.6719C18.6406 6.05547 19.0434 7.29508 18.2597 7.86448L14.284 10.753C13.9335 11.0077 13.7868 11.459 13.9207 11.8711L15.4393 16.5448C15.7386 17.4661 14.6842 18.2323 13.9004 17.6629L9.9247 14.7743C9.57421 14.5197 9.09962 14.5197 8.74913 14.7743L4.77339 17.6629C3.98968 18.2323 2.9352 17.4661 3.23455 16.5448L4.75314 11.8711C4.88702 11.459 4.74036 11.0077 4.38987 10.753L0.414135 7.86448C-0.369579 7.29508 0.0331967 6.05547 1.00192 6.05547H5.9162C6.34943 6.05547 6.73339 5.77651 6.86726 5.36448L8.38586 0.690724Z" fill="#F6D411"/>
</svg>
