<svg width="60" height="60" viewBox="0 0 60 60" fill="none" xmlns="http://www.w3.org/2000/svg">
<circle cx="30" cy="30" r="30" fill="#2095D3"/>
<path d="M14.167 20.0003L23.3337 16.667L32.5003 20.0003L28.3337 22.5003V25.0003C28.3337 25.0003 27.222 24.167 23.3337 24.167C19.4453 24.167 18.3337 25.0003 18.3337 25.0003V22.5003L14.167 20.0003ZM14.167 20.0003V26.667" stroke="white" stroke-width="1.5" stroke-linecap="round" stroke-linejoin="round"/>
<path d="M28.3335 24.1667V25.6483C28.3335 28.5117 26.0952 30.8333 23.3335 30.8333C20.5718 30.8333 18.3335 28.5117 18.3335 25.6483V24.1667M35.5302 28.3833C35.5302 28.3833 36.3385 27.795 39.1668 27.795C41.9952 27.795 42.8035 28.3817 42.8035 28.3817M35.5302 28.3833V26.6667L32.5002 25L39.1668 22.5L45.8335 25L42.8035 26.6667V28.3817M35.5302 28.3833V28.8633C35.5302 29.8278 35.9133 30.7528 36.5953 31.4348C37.2773 32.1169 38.2023 32.5 39.1668 32.5C40.1313 32.5 41.0563 32.1169 41.7383 31.4348C42.4203 30.7528 42.8035 29.8278 42.8035 28.8633V28.3817M36.6668 43.3333H42.8418C44.1302 43.3333 45.1535 42.7067 46.0735 41.83C47.9568 40.0367 44.8652 38.6033 43.6868 37.9017C42.6389 37.2831 41.4753 36.8861 40.2679 36.735C39.0604 36.5839 37.8348 36.6821 36.6668 37.0233M17.3085 36.5433C15.7368 37.4217 11.6152 39.2133 14.1252 41.455C15.3518 42.55 16.7168 43.3333 18.4352 43.3333H28.2318C29.9485 43.3333 31.3152 42.55 32.5418 41.455C35.0518 39.2133 30.9302 37.4217 29.3585 36.5433C25.6718 34.485 20.9952 34.485 17.3085 36.5433Z" stroke="white" stroke-width="1.5" stroke-linecap="round" stroke-linejoin="round"/>
</svg>
